<?xml version="1.0" encoding="UTF-8"?>
<svg width="20px" height="16px" viewBox="0 0 20 16" version="1.1" xmlns="http://www.w3.org/2000/svg" xmlns:xlink="http://www.w3.org/1999/xlink">
    <!-- Generator: Sketch 52.4 (67378) - http://www.bohemiancoding.com/sketch -->
    <title>biz_acct_icn</title>
    <desc>Created with Sketch.</desc>
    <defs>
        <polygon id="path-1" points="0 0.000290909091 19.9999231 0.000290909091 19.9999231 16 0 16"></polygon>
    </defs>
    <g id="Component-Library" stroke="none" stroke-width="1" fill="none" fill-rule="evenodd">
        <g id="Iconography" transform="translate(-227.000000, -1345.000000)">
            <g id="biz_acct_icn" transform="translate(227.000000, 1345.000000)">
                <mask id="mask-2" fill="white">
                    <use xlink:href="#path-1"></use>
                </mask>
                <g id="Clip-2"></g>
                <path d="M9.99992308,8.72756364 L10.0076154,8.72756364 L9.99992308,8.72756364 Z M10.7691538,10.1821091 L9.23069231,10.1821091 C8.80530769,10.1821091 8.46146154,9.85629091 8.46146154,9.45483636 L8.46146154,8.00029091 C8.46146154,7.59810909 8.80530769,7.27301818 9.23069231,7.27301818 L10.7691538,7.27301818 C11.1945385,7.27301818 11.5383846,7.59810909 11.5383846,8.00029091 L11.5383846,9.45483636 C11.5383846,9.85629091 11.1945385,10.1821091 10.7691538,10.1821091 Z M7.69223077,2.90938182 L12.3076154,2.90938182 L12.3076154,1.45483636 L7.69223077,1.45483636 L7.69223077,2.90938182 Z M1.53838462,14.5457455 L3.84607692,14.5457455 L3.84607692,9.45483636 L1.53838462,9.45483636 L1.53838462,14.5457455 Z M5.38453846,14.5457455 L14.6153077,14.5457455 L14.6153077,9.45483636 L13.8460769,9.45483636 C13.4206923,9.45483636 13.0768462,9.12901818 13.0768462,8.72756364 C13.0768462,8.32538182 13.4206923,8.00029091 13.8460769,8.00029091 L18.4614615,8.00029091 L18.4614615,4.36392727 L1.53838462,4.36392727 L1.53838462,8.00029091 L6.15376923,8.00029091 C6.57915385,8.00029091 6.923,8.32538182 6.923,8.72756364 C6.923,9.12901818 6.57915385,9.45483636 6.15376923,9.45483636 L5.38453846,9.45483636 L5.38453846,14.5457455 Z M16.1537692,14.5457455 L18.4614615,14.5457455 L18.4614615,9.45483636 L16.1537692,9.45483636 L16.1537692,14.5457455 Z M19.2306923,16.0002909 L0.769153846,16.0002909 C0.343769231,16.0002909 -7.69230769e-05,15.6744727 -7.69230769e-05,15.2730182 L-7.69230769e-05,3.63665455 C-7.69230769e-05,3.23447273 0.343769231,2.90938182 0.769153846,2.90938182 L6.15376923,2.90938182 L6.15376923,0.727563636 C6.15376923,0.325381818 6.49761538,0.000290909091 6.923,0.000290909091 L13.0768462,0.000290909091 C13.5022308,0.000290909091 13.8460769,0.325381818 13.8460769,0.727563636 L13.8460769,2.90938182 L19.2306923,2.90938182 C19.6560769,2.90938182 19.9999231,3.23447273 19.9999231,3.63665455 L19.9999231,15.2730182 C19.9999231,15.6744727 19.6560769,16.0002909 19.2306923,16.0002909 Z" id="Fill-1" fill="#000000" mask="url(#mask-2)"></path>
            </g>
        </g>
    </g>
</svg>