<?xml version="1.0" encoding="UTF-8"?>
<svg width="20px" height="16px" viewBox="0 0 20 16" version="1.1" xmlns="http://www.w3.org/2000/svg" xmlns:xlink="http://www.w3.org/1999/xlink">
    <!-- Generator: Sketch 52.4 (67378) - http://www.bohemiancoding.com/sketch -->
    <title>help_icn</title>
    <desc>Created with Sketch.</desc>
    <defs>
        <polygon id="path-1" points="0 0 20 0 20 16 0 16"></polygon>
    </defs>
    <g id="Component-Library" stroke="none" stroke-width="1" fill="none" fill-rule="evenodd">
        <g id="Iconography" transform="translate(-227.000000, -1429.000000)">
            <g id="help_icn" transform="translate(227.000000, 1429.000000)">
                <mask id="mask-2" fill="white">
                    <use xlink:href="#path-1"></use>
                </mask>
                <g id="Clip-2"></g>
                <path d="M18.4615385,9.45424792 C18.4615385,9.85572071 18.1169231,10.1815537 17.6923077,10.1815537 L16.1538462,10.1815537 L16.1538462,7.27233056 L17.6923077,7.27233056 C18.1169231,7.27233056 18.4615385,7.59889086 18.4615385,7.99963635 L18.4615385,9.45424792 Z M3.84615385,10.1815537 L2.30769231,10.1815537 C1.88307692,10.1815537 1.53846154,9.85572071 1.53846154,9.45424792 L1.53846154,7.99963635 C1.53846154,7.59889086 1.88307692,7.27233056 2.30769231,7.27233056 L3.84615385,7.27233056 L3.84615385,10.1815537 Z M17.6923077,5.81771899 L16.1146154,5.81771899 C15.9438462,3.38706305 15.0176923,0 10,0 C4.98307692,0 4.05615385,3.38706305 3.88538462,5.81771899 L2.30769231,5.81771899 C1.03538462,5.81771899 0,6.79667258 0,7.99963635 L0,9.45424792 C0,10.6572117 1.03538462,11.6361653 2.30769231,11.6361653 L4.61538462,11.6361653 C5.04076923,11.6361653 5.38461538,11.3110596 5.38461538,10.9088595 L5.38461538,7.27233056 C5.38461538,4.32892404 5.74076923,1.45461157 10,1.45461157 C14.2592308,1.45461157 14.6153846,4.32892404 14.6153846,7.27233056 L14.6153846,10.9088595 C14.6153846,11.3110596 14.9592308,11.6361653 15.3846154,11.6361653 L15.3846154,13.0907769 C15.3846154,13.8937224 14.6946154,14.5453884 13.8461538,14.5453884 L12.3076923,14.5453884 C12.3076923,13.7424428 11.6184615,13.0907769 10.7692308,13.0907769 C9.92,13.0907769 9.23076923,13.7424428 9.23076923,14.5453884 C9.23076923,15.3490613 9.92,16 10.7692308,16 L13.8461538,16 C15.5430769,16 16.9230769,14.6952134 16.9230769,13.0907769 L16.9230769,11.6361653 L17.6923077,11.6361653 C18.9646154,11.6361653 20,10.6572117 20,9.45424792 L20,7.99963635 C20,6.79667258 18.9646154,5.81771899 17.6923077,5.81771899 Z" id="Fill-1" fill="#000000" mask="url(#mask-2)"></path>
            </g>
        </g>
    </g>
</svg>