<?xml version="1.0" encoding="UTF-8"?>
<svg width="20px" height="16px" viewBox="0 0 20 16" version="1.1" xmlns="http://www.w3.org/2000/svg" xmlns:xlink="http://www.w3.org/1999/xlink">
    <!-- Generator: Sketch 52.4 (67378) - http://www.bohemiancoding.com/sketch -->
    <title>personal_acct_icn</title>
    <desc>Created with Sketch.</desc>
    <g id="Component-Library" stroke="none" stroke-width="1" fill="none" fill-rule="evenodd">
        <g id="Iconography" transform="translate(-227.000000, -1310.000000)" fill="#000000">
            <g id="personal_acct_icn" transform="translate(227.000000, 1310.000000)">
                <path d="M11.5384615,3.63636364 L8.46153846,3.63636364 C8.03615385,3.63636364 7.69230769,3.31054545 7.69230769,2.90909091 C7.69230769,2.50763636 8.03615385,2.18181818 8.46153846,2.18181818 L11.5384615,2.18181818 C11.9638462,2.18181818 12.3076923,2.50763636 12.3076923,2.90909091 C12.3076923,3.31054545 11.9638462,3.63636364 11.5384615,3.63636364" id="Fill-1"></path>
                <path d="M19.2307692,16 L0.769230769,16 C0.343846154,16 0,15.6741818 0,15.2727273 L0,2.90909091 C0,2.50763636 0.343846154,2.18181818 0.769230769,2.18181818 L3.84615385,2.18181818 C4.27153846,2.18181818 4.61538462,2.50763636 4.61538462,2.90909091 C4.61538462,3.31054545 4.27153846,3.63636364 3.84615385,3.63636364 L1.53846154,3.63636364 L1.53846154,14.5454545 L18.4615385,14.5454545 L18.4615385,3.63636364 L16.1538462,3.63636364 C15.7284615,3.63636364 15.3846154,3.31054545 15.3846154,2.90909091 C15.3846154,2.50763636 15.7284615,2.18181818 16.1538462,2.18181818 L19.2307692,2.18181818 C19.6561538,2.18181818 20,2.50763636 20,2.90909091 L20,15.2727273 C20,15.6741818 19.6561538,16 19.2307692,16" id="Fill-3"></path>
                <path d="M6.15384615,4.36363636 C5.72846154,4.36363636 5.38461538,4.03781818 5.38461538,3.63636364 L5.38461538,0.727272727 C5.38461538,0.325818182 5.72846154,0 6.15384615,0 C6.57923077,0 6.92307692,0.325818182 6.92307692,0.727272727 L6.92307692,3.63636364 C6.92307692,4.03781818 6.57923077,4.36363636 6.15384615,4.36363636" id="Fill-5"></path>
                <path d="M13.8461538,4.36363636 C13.4207692,4.36363636 13.0769231,4.03781818 13.0769231,3.63636364 L13.0769231,0.727272727 C13.0769231,0.325818182 13.4207692,0 13.8461538,0 C14.2715385,0 14.6153846,0.325818182 14.6153846,0.727272727 L14.6153846,3.63636364 C14.6153846,4.03781818 14.2715385,4.36363636 13.8461538,4.36363636" id="Fill-7"></path>
                <path d="M14.6153846,10.9090909 L11.5384615,10.9090909 C11.1130769,10.9090909 10.7692308,10.5832727 10.7692308,10.1818182 C10.7692308,9.78036364 11.1130769,9.45454545 11.5384615,9.45454545 L14.6153846,9.45454545 C15.0407692,9.45454545 15.3846154,9.78036364 15.3846154,10.1818182 C15.3846154,10.5832727 15.0407692,10.9090909 14.6153846,10.9090909" id="Fill-9"></path>
                <path d="M8.46153846,11.6363636 L3.84615385,11.6363636 C3.42076923,11.6363636 3.07692308,11.3105455 3.07692308,10.9090909 C3.07692308,10.5076364 3.42076923,10.1818182 3.84615385,10.1818182 L8.46153846,10.1818182 C8.88692308,10.1818182 9.23076923,10.5076364 9.23076923,10.9090909 C9.23076923,11.3105455 8.88692308,11.6363636 8.46153846,11.6363636" id="Fill-11"></path>
                <path d="M16.1538462,8.72727273 L11.5384615,8.72727273 C11.1130769,8.72727273 10.7692308,8.40145455 10.7692308,8 C10.7692308,7.59854545 11.1130769,7.27272727 11.5384615,7.27272727 L16.1538462,7.27272727 C16.5792308,7.27272727 16.9230769,7.59854545 16.9230769,8 C16.9230769,8.40145455 16.5792308,8.72727273 16.1538462,8.72727273" id="Fill-13"></path>
                <path d="M7.69230769,8 C7.69230769,8.80290909 7.00307692,9.45454545 6.15384615,9.45454545 C5.30461538,9.45454545 4.61538462,8.80290909 4.61538462,8 C4.61538462,7.19709091 5.30461538,6.54545455 6.15384615,6.54545455 C7.00307692,6.54545455 7.69230769,7.19709091 7.69230769,8" id="Fill-15"></path>
            </g>
        </g>
    </g>
</svg>