<?xml version="1.0" encoding="UTF-8"?>
<svg width="15px" height="15px" viewBox="0 0 15 15" version="1.1" xmlns="http://www.w3.org/2000/svg" xmlns:xlink="http://www.w3.org/1999/xlink">
    <!-- Generator: Sketch 52.4 (67378) - http://www.bohemiancoding.com/sketch -->
    <title>tasks_icn</title>
    <desc>Created with Sketch.</desc>
    <defs>
        <polygon id="path-1" points="0 0 15 0 15 15 0 15"></polygon>
    </defs>
    <g id="Component-Library" stroke="none" stroke-width="1" fill="none" fill-rule="evenodd">
        <g id="Iconography" transform="translate(-227.000000, -1467.000000)">
            <g id="tasks_icn" transform="translate(227.000000, 1467.000000)">
                <mask id="mask-2" fill="white">
                    <use xlink:href="#path-1"></use>
                </mask>
                <g id="Clip-2"></g>
                <path d="M7.69159091,10.6464245 C7.47818182,10.6464245 7.27568182,10.5475104 7.14613636,10.3761045 L4.58931818,6.98863522 C4.36295455,6.68850544 4.42431818,6.2637168 4.72568182,6.03946633 C5.02704545,5.81386088 5.45454545,5.87619032 5.68022727,6.1749651 L7.60022727,8.71895451 L12.1827273,0.353937941 C12.3620455,0.0246759296 12.7752273,-0.0959179758 13.1072727,0.0822629069 C13.4379545,0.261121283 13.56,0.672360051 13.38,1.00162206 L8.29022727,10.2934502 C8.17977273,10.4953434 7.9725,10.6281322 7.74068182,10.6450695 C7.72431818,10.645747 7.70795455,10.6464245 7.69159091,10.6464245 M14.3181818,15 L0.681818182,15 C0.304772727,15 0,14.6971602 0,14.3225061 L0,0.772629141 C0,0.398652535 0.304772727,0.0951352901 0.681818182,0.0951352901 L8.47431818,0.0951352901 C8.85136364,0.0951352901 9.15613636,0.398652535 9.15613636,0.772629141 C9.15613636,1.14728324 8.85136364,1.45012299 8.47431818,1.45012299 L1.36363636,1.45012299 L1.36363636,13.6450123 L13.6363636,13.6450123 L13.6363636,5.73256162 C13.6363636,5.35790752 13.9411364,5.05506777 14.3181818,5.05506777 C14.6945455,5.05506777 15,5.35790752 15,5.73256162 L15,14.3225061 C15,14.6971602 14.6945455,15 14.3181818,15" id="Fill-1" fill="#000000" mask="url(#mask-2)"></path>
            </g>
        </g>
    </g>
</svg>