<?xml version="1.0" encoding="UTF-8"?>
<svg width="18px" height="19px" viewBox="0 0 18 19" version="1.1" xmlns="http://www.w3.org/2000/svg" xmlns:xlink="http://www.w3.org/1999/xlink">
    <!-- Generator: Sketch 52.4 (67378) - http://www.bohemiancoding.com/sketch -->
    <title>supoort_icn</title>
    <desc>Created with Sketch.</desc>
    <defs>
        <polygon id="path-1" points="0.00014536986 0.000475 17.5272632 0.000475 17.5272632 18.308875 0.00014536986 18.308875"></polygon>
    </defs>
    <g id="Component-Library" stroke="none" stroke-width="1" fill="none" fill-rule="evenodd">
        <g id="Iconography" transform="translate(-227.000000, -1387.000000)">
            <g id="supoort_icn" transform="translate(227.000000, 1387.000000)">
                <mask id="mask-2" fill="white">
                    <use xlink:href="#path-1"></use>
                </mask>
                <g id="Clip-2"></g>
                <path d="M8.76372632,6.564025 C7.33888421,6.564025 6.17930526,7.725875 6.17930526,9.154675 C6.17930526,10.583475 7.33888421,11.746275 8.76372632,11.746275 C10.1885684,11.746275 11.3481474,10.583475 11.3481474,9.154675 C11.3481474,7.725875 10.1885684,6.564025 8.76372632,6.564025 M8.76372632,13.171275 C6.55541053,13.171275 4.75825263,11.369125 4.75825263,9.154675 C4.75825263,6.940225 6.55541053,5.139025 8.76372632,5.139025 C10.9720421,5.139025 12.7692,6.940225 12.7692,9.154675 C12.7692,11.369125 10.9720421,13.171275 8.76372632,13.171275 M4.51098947,12.988875 C4.68625263,12.988875 4.86151579,13.054425 4.99604211,13.181725 C5.60804211,13.755525 6.34130526,14.187775 7.11909474,14.431925 C7.41562105,14.524075 7.61741053,14.799575 7.61741053,15.112125 L7.61741053,16.862975 L9.88825263,16.883875 L9.91004211,15.112125 C9.91004211,14.799575 10.1118316,14.524075 10.4083579,14.431925 C11.1861474,14.187775 11.9194105,13.755525 12.5314105,13.181725 C12.7578316,12.967025 13.0969895,12.927125 13.3679368,13.081975 L14.9405684,13.978775 L16.1039368,12.062625 L16.0935158,12.038875 L14.4858316,11.121175 C14.2158316,10.966325 14.0765684,10.653775 14.1438316,10.348825 C14.2309895,9.948875 14.2755158,9.547025 14.2755158,9.154675 C14.2755158,8.762325 14.2309895,8.361425 14.1438316,7.961475 C14.0765684,7.656525 14.2158316,7.343025 14.4858316,7.189125 L16.0935158,6.270475 L14.9898316,4.340075 L13.3679368,5.227375 C13.0969895,5.382225 12.7578316,5.341375 12.5314105,5.127625 C11.9194105,4.553825 11.1861474,4.121575 10.4083579,3.877425 C10.1118316,3.785275 9.91004211,3.509775 9.91004211,3.198175 L9.91004211,1.446375 L7.6392,1.425475 L7.61741053,3.198175 C7.61741053,3.509775 7.41562105,3.785275 7.11909474,3.877425 C6.34130526,4.121575 5.60804211,4.553825 4.99604211,5.127625 C4.76867368,5.341375 4.43046316,5.382225 4.15951579,5.227375 L2.58688421,4.330575 L1.42446316,6.247675 L3.04256842,7.189125 C3.31256842,7.343025 3.45183158,7.656525 3.38456842,7.961475 C3.29646316,8.364275 3.25193684,8.765175 3.25193684,9.154675 C3.25193684,9.544175 3.29646316,9.946025 3.38456842,10.348825 C3.45183158,10.653775 3.31256842,10.966325 3.04256842,11.121175 L1.43488421,12.038875 L2.53856842,13.969275 L4.15951579,13.081975 C4.26941053,13.019275 4.39067368,12.988875 4.51098947,12.988875 M9.88825263,18.308875 L7.6392,18.308875 C6.84435789,18.308875 6.19635789,17.660025 6.19635789,16.862975 L6.19635789,15.613725 C5.56446316,15.358175 4.96383158,15.004775 4.42477895,14.569675 L3.29077895,15.217575 C2.60109474,15.612775 1.71151579,15.376225 1.31172632,14.688425 L0.197621053,12.781775 C0.00246315789,12.448325 -0.0505894737,12.057875 0.0498315789,11.683575 C0.150252632,11.307375 0.391831579,10.993875 0.730989474,10.800075 L1.90193684,10.132225 C1.85456842,9.803525 1.83088421,9.476725 1.83088421,9.154675 C1.83088421,8.833575 1.85456842,8.505825 1.90193684,8.177125 L0.730989474,7.509275 C0.391831579,7.316425 0.150252632,7.001975 0.0498315789,6.625775 C-0.0505894737,6.251475 0.00246315789,5.861025 0.198568421,5.526625 L1.31172632,3.619975 C1.71151579,2.934075 2.60014737,2.697525 3.29077895,3.091775 L4.42477895,3.739675 C4.96383158,3.304575 5.56446316,2.951175 6.19635789,2.695625 L6.19635789,1.446375 C6.19635789,0.649325 6.84435789,0.000475 7.6392,0.000475 L9.88825263,0.000475 C10.6840421,0.000475 11.3310947,0.649325 11.3310947,1.446375 L11.3310947,2.695625 C11.9629895,2.951175 12.5636211,3.304575 13.1026737,3.739675 L14.2366737,3.091775 C14.9282526,2.697525 15.8149895,2.935025 16.2157263,3.619975 L17.3307789,5.527575 C17.5259368,5.862925 17.5780421,6.253375 17.4776211,6.627675 C17.3772,7.002925 17.1356211,7.316425 16.7964632,7.509275 L15.6264632,8.178075 C15.6728842,8.504875 15.6965684,8.831675 15.6965684,9.154675 C15.6965684,9.477675 15.6728842,9.804475 15.6264632,10.132225 L16.7964632,10.800075 C17.1356211,10.993875 17.3772,11.306425 17.4776211,11.681675 C17.5780421,12.055975 17.5259368,12.446425 17.3307789,12.780825 L16.2166737,14.689375 C15.8159368,15.374325 14.9301474,15.613725 14.2366737,15.217575 L13.1026737,14.569675 C12.5636211,15.004775 11.9629895,15.358175 11.3310947,15.613725 L11.3310947,16.862975 C11.3310947,17.660025 10.6840421,18.308875 9.88825263,18.308875" id="Fill-1" fill="#231F20" mask="url(#mask-2)"></path>
            </g>
        </g>
    </g>
</svg>