<?xml version="1.0" encoding="UTF-8"?>
<svg width="15px" height="18px" viewBox="0 0 15 18" version="1.1" xmlns="http://www.w3.org/2000/svg" xmlns:xlink="http://www.w3.org/1999/xlink">
    <!-- Generator: Sketch 52.4 (67378) - http://www.bohemiancoding.com/sketch -->
    <title>Group 4</title>
    <desc>Created with Sketch.</desc>
    <g id="Component-Library" stroke="none" stroke-width="1" fill="none" fill-rule="evenodd">
        <g id="Iconography" transform="translate(-227.000000, -1504.000000)" fill="#231F20">
            <g id="Group-4" transform="translate(227.000000, 1504.000000)">
                <path d="M1.47282635,16.6099849 L13.5271736,16.6099849 L13.5271736,1.39001506 L1.47282635,1.39001506 L1.47282635,16.6099849 Z M14.2635868,18 L0.736413177,18 C0.329913103,18 0,17.6893316 0,17.3049925 L0,0.695007529 C0,0.311363373 0.329913103,0 0.736413177,0 L14.2635868,0 C14.6700869,0 15,0.311363373 15,0.695007529 L15,17.3049925 C15,17.6893316 14.6700869,18 14.2635868,18 Z" id="Fill-1"></path>
                <path d="M8.06520836,11.4481605 L8.06520836,9.7270903 C8.542157,9.92441472 8.70829295,10.1351171 8.70829295,10.5451505 C8.70829295,11.0949833 8.39125017,11.3404682 8.06520836,11.4481605 M6.37754396,7.43545151 C6.37754396,7.00200669 6.64820712,6.79397993 6.93479164,6.69230769 L6.93479164,8.04080268 C6.49730029,7.86889632 6.37754396,7.71371237 6.37754396,7.43545151 M10,10.5451505 C10,9.16588629 8.95611242,8.67558528 8.06520836,8.39598662 L8.06520836,6.71036789 C8.43624533,6.90033445 8.47777932,7.25752508 8.47777932,7.26220736 C8.47777932,7.60668896 8.76713277,7.88628763 9.12363284,7.88628763 C9.48013291,7.88628763 9.76948636,7.60668896 9.76948636,7.26220736 C9.76948636,6.58729097 9.22400665,5.63010033 8.06520836,5.39866221 L8.06520836,4.54648829 C8.06520836,4.24414716 7.81185103,4 7.50034612,4 C7.18745674,4 6.93479164,4.24414716 6.93479164,4.54648829 L6.93479164,5.40267559 C5.82375744,5.60602007 5.08583691,6.3826087 5.08583691,7.43545151 C5.08583691,8.67892977 6.06880797,9.10501672 6.93479164,9.36722408 L6.93479164,11.4367893 C6.60528866,11.322408 6.29101481,11.0729097 6.29101481,10.5277592 C6.29101481,10.1826087 6.00235359,9.90301003 5.64585352,9.90301003 C5.28866122,9.90301003 5,10.1826087 5,10.5277592 C5,11.8367893 5.90059532,12.5311037 6.93479164,12.7190635 L6.93479164,13.4541806 C6.93479164,13.7558528 7.18745674,14 7.50034612,14 C7.81185103,14 8.06520836,13.7558528 8.06520836,13.4541806 L8.06520836,12.7237458 C9.07448429,12.541806 10,11.8474916 10,10.5451505" id="Fill-3"></path>
            </g>
        </g>
    </g>
</svg>