<?xml version="1.0" encoding="UTF-8"?>
<svg width="19px" height="14px" viewBox="0 0 19 14" version="1.1" xmlns="http://www.w3.org/2000/svg" xmlns:xlink="http://www.w3.org/1999/xlink">
    <!-- Generator: Sketch 52.4 (67378) - http://www.bohemiancoding.com/sketch -->
    <title>quote icon</title>
    <desc>Created with Sketch.</desc>
    <defs>
        <polygon id="path-1" points="0.000292307692 0.5705 8.37417692 0.5705 8.37417692 13.3 0.000292307692 13.3"></polygon>
        <polygon id="path-3" points="0.212580769 0.5705 8.58646538 0.5705 8.58646538 13.3 0.212580769 13.3"></polygon>
    </defs>
    <g id="Component-Library" stroke="none" stroke-width="1" fill="none" fill-rule="evenodd">
        <g id="Iconography" transform="translate(-226.000000, -1113.000000)">
            <g id="quote-icon" transform="translate(226.000000, 1113.000000)">
                <g id="Group-7">
                    <g id="Group-3" transform="translate(0.000000, 0.129780)">
                        <mask id="mask-2" fill="white">
                            <use xlink:href="#path-1"></use>
                        </mask>
                        <g id="Clip-2"></g>
                        <path d="M4.57271538,6.01734 C3.02640769,6.01734 1.70152308,6.90564 1.10813846,8.17544 C1.10521538,8.09844 1.09644615,8.02984 1.09644615,7.95004 C1.09644615,3.26004 5.88517692,1.65914 6.08906154,1.59404 C6.37552308,1.50164 6.52971538,1.20414 6.43398462,0.92904 C6.33752308,0.65464 6.02767692,0.50484 5.74121538,0.59794 C5.68421538,0.61614 0.000292307692,2.49424 0.000292307692,7.95004 C0.000292307692,10.37904 0.997792308,11.67404 2.06106154,12.37264 C2.73190769,12.94314 3.60517692,13.30014 4.57271538,13.30014 C6.67221538,13.30014 8.37417692,11.66984 8.37417692,9.65874 C8.37417692,7.64764 6.67221538,6.01734 4.57271538,6.01734" id="Fill-1" fill="#231F20" mask="url(#mask-2)"></path>
                    </g>
                    <g id="Group-6" transform="translate(10.230769, 0.129780)">
                        <mask id="mask-4" fill="white">
                            <use xlink:href="#path-3"></use>
                        </mask>
                        <g id="Clip-5"></g>
                        <path d="M4.78500385,6.01734 C3.23869615,6.01734 1.91381154,6.90564 1.31969615,8.17474 C1.31750385,8.09844 1.30873462,8.02984 1.30873462,7.95004 C1.30873462,3.26004 6.09673462,1.65914 6.30061923,1.59404 C6.58708077,1.50164 6.74200385,1.20414 6.64554231,0.92904 C6.54981154,0.65464 6.23996538,0.50484 5.95350385,0.59794 C5.89577308,0.61614 0.212580769,2.49424 0.212580769,7.95004 C0.212580769,10.37974 1.21008077,11.67474 2.27335,12.37264 C2.94419615,12.94314 3.81746538,13.30014 4.78500385,13.30014 C6.88450385,13.30014 8.58646538,11.66984 8.58646538,9.65874 C8.58646538,7.64764 6.88450385,6.01734 4.78500385,6.01734" id="Fill-4" fill="#231F20" mask="url(#mask-4)"></path>
                    </g>
                </g>
            </g>
        </g>
    </g>
</svg>