<?xml version="1.0" encoding="UTF-8"?>
<svg width="18px" height="18px" viewBox="0 0 18 18" version="1.1" xmlns="http://www.w3.org/2000/svg" xmlns:xlink="http://www.w3.org/1999/xlink">
    <!-- Generator: Sketch 52.4 (67378) - http://www.bohemiancoding.com/sketch -->
    <title>printer_icn</title>
    <desc>Created with Sketch.</desc>
    <g id="Component-Library" stroke="none" stroke-width="1" fill="none" fill-rule="evenodd">
        <g id="Iconography" transform="translate(-228.000000, -1033.000000)" fill="#231F20">
            <g id="printer_icn" transform="translate(228.000000, 1033.000000)">
                <path d="M5.79740013,3.95963769 L12.203551,3.95963769 L12.203551,1.90688066 L5.79740013,1.90688066 L5.79740013,3.95963769 Z M12.203551,13.909741 L12.203551,16.0931193 L5.79740013,16.0931193 L5.79740013,13.909741 L5.79740013,8.60003178 L12.203551,8.60003178 L12.203551,13.909741 Z M17.0488269,3.95963769 L14.1058973,3.95963769 L14.1058973,0.953440331 C14.1058973,0.427141268 13.6797717,0 13.1547242,0 L4.84622701,0 C4.32022828,0 3.8950539,0.427141268 3.8950539,0.953440331 L3.8950539,3.95963769 L0.951173114,3.95963769 C0.426125555,3.95963769 0,4.38677896 0,4.91307802 L0,12.9563007 C0,13.4825997 0.426125555,13.909741 0.951173114,13.909741 L3.8950539,13.909741 L3.8950539,18 L14.1058973,18 L14.1058973,13.909741 L17.0488269,13.909741 C17.5748256,13.909741 18,13.4825997 18,12.9563007 L18,4.91307802 C18,4.38677896 17.5748256,3.95963769 17.0488269,3.95963769 Z" id="Fill-1"></path>
            </g>
        </g>
    </g>
</svg>