<?xml version="1.0" encoding="UTF-8"?>
<svg width="16px" height="14px" viewBox="0 0 16 14" version="1.1" xmlns="http://www.w3.org/2000/svg" xmlns:xlink="http://www.w3.org/1999/xlink">
    <!-- Generator: Sketch 52.4 (67378) - http://www.bohemiancoding.com/sketch -->
    <title>filter icon</title>
    <desc>Created with Sketch.</desc>
    <g id="Component-Library" stroke="none" stroke-width="1" fill="none" fill-rule="evenodd">
        <g id="Iconography" transform="translate(-425.000000, -1079.000000)" fill="#000000">
            <g id="filter-icon" transform="translate(425.000000, 1079.000000)">
                <g id="Group-7">
                    <path d="M14.9539048,1.57838947 L12.0266667,1.57838947 L12.0266667,0.980073684 C12.0266667,0.438494737 11.5733333,7.36842105e-05 11.0133333,7.36842105e-05 C10.4533333,7.36842105e-05 10.0007619,0.438494737 10.0007619,0.980073684 L10.0007619,1.57838947 L0.675047619,1.57838947 C0.30247619,1.57838947 0,1.87017895 0,2.23196842 C0,2.59228421 0.30247619,2.88407368 0.675047619,2.88407368 L10.0007619,2.88407368 L10.0007619,3.11175789 C10.0007619,3.6526 10.4533333,4.09175789 11.0133333,4.09175789 C11.5733333,4.09175789 12.0266667,3.6526 12.0266667,3.11175789 L12.0266667,2.88407368 L14.9539048,2.88407368 C15.3264762,2.88407368 15.6289524,2.59228421 15.6289524,2.23196842 C15.6289524,1.87017895 15.3264762,1.57838947 14.9539048,1.57838947" id="Fill-1"></path>
                    <path d="M14.9539048,11.3832526 L12.0266667,11.3832526 L12.0266667,10.7849368 C12.0266667,10.2440947 11.5733333,9.80493684 11.0133333,9.80493684 C10.4533333,9.80493684 10.0007619,10.2440947 10.0007619,10.7849368 L10.0007619,11.3832526 L0.675047619,11.3832526 C0.30247619,11.3832526 0,11.6757789 0,12.0368316 C0,12.3971474 0.30247619,12.6896737 0.675047619,12.6896737 L10.0007619,12.6896737 L10.0007619,12.9173579 C10.0007619,13.4582 10.4533333,13.8966211 11.0133333,13.8966211 C11.5733333,13.8966211 12.0266667,13.4582 12.0266667,12.9173579 L12.0266667,12.6896737 L14.9539048,12.6896737 C15.3264762,12.6896737 15.6289524,12.3971474 15.6289524,12.0368316 C15.6289524,11.6757789 15.3264762,11.3832526 14.9539048,11.3832526" id="Fill-3"></path>
                    <path d="M14.9539048,6.48082105 L5.83542857,6.48082105 L5.83542857,6.06745263 C5.83542857,5.52661053 5.38209524,5.08818947 4.82285714,5.08818947 C4.26285714,5.08818947 3.80952381,5.52661053 3.80952381,6.06745263 L3.80952381,6.48082105 L0.675047619,6.48082105 C0.30247619,6.48082105 0,6.77334737 0,7.1344 C0,7.49471579 0.30247619,7.78650526 0.675047619,7.78650526 L3.80952381,7.78650526 L3.80952381,8.19987368 C3.80952381,8.74071579 4.26285714,9.17987368 4.82285714,9.17987368 C5.38209524,9.17987368 5.83542857,8.74071579 5.83542857,8.19987368 L5.83542857,7.78650526 L14.9539048,7.78650526 C15.3264762,7.78650526 15.6289524,7.49471579 15.6289524,7.1344 C15.6289524,6.77334737 15.3264762,6.48082105 14.9539048,6.48082105" id="Fill-5"></path>
                </g>
            </g>
        </g>
    </g>
</svg>