<?xml version="1.0" encoding="UTF-8"?>
<svg width="11px" height="13px" viewBox="0 0 11 13" version="1.1" xmlns="http://www.w3.org/2000/svg" xmlns:xlink="http://www.w3.org/1999/xlink">
    <!-- Generator: Sketch 52.4 (67378) - http://www.bohemiancoding.com/sketch -->
    <title>Group</title>
    <desc>Created with Sketch.</desc>
    <defs>
        <polygon id="path-1" points="0.00036 0.738 10.8072 0.738 10.8072 6 0.00036 6"></polygon>
    </defs>
    <g id="Component-Library" stroke="none" stroke-width="1" fill="none" fill-rule="evenodd">
        <g id="Iconography" transform="translate(-232.000000, -1074.000000)">
            <g id="Group" transform="translate(232.000000, 1074.000000)">
                <path d="M4.82832443,0.26934273 L2.2784919,2.73540677 C1.90716937,3.09453041 1.90716937,3.67550176 2.2784919,4.0346254 C2.64981443,4.39374904 3.25178782,4.39374904 3.62311035,4.0346254 L4.54951571,3.13865482 L4.55078302,9.08074154 C4.55078302,9.58939789 4.97533267,10 5.50126731,10 C5.76360098,10 6.0005884,9.89704305 6.17294288,9.73157653 C6.34529737,9.56488433 6.45048429,9.33445687 6.45048429,9.08074154 L6.45048429,3.13865482 L7.37815697,4.0346254 C7.7494795,4.39374904 8.35145288,4.39374904 8.7215081,4.0346254 C9.09283063,3.67550176 9.09283063,3.09453041 8.7215081,2.73540677 L6.17294288,0.26934273 C5.80162035,-0.0897809101 5.19837965,-0.0897809101 4.82832443,0.26934273" id="Fill-1" fill="#000000"></path>
                <g id="Group-5" transform="translate(0.000000, 7.000000)">
                    <mask id="mask-2" fill="white">
                        <use xlink:href="#path-1"></use>
                    </mask>
                    <g id="Clip-4"></g>
                    <path d="M9.90756,6 L0.90036,6 C0.40356,6 0.00036,5.5968 0.00036,5.1 L0.00036,1.638 C0.00036,1.1412 0.40356,0.738 0.90036,0.738 C1.39716,0.738 1.80036,1.1412 1.80036,1.638 L1.80036,4.2 L9.00756,4.2 L9.00756,1.638 C9.00756,1.1412 9.41076,0.738 9.90756,0.738 C10.40436,0.738 10.80756,1.1412 10.80756,1.638 L10.80756,5.1 C10.80756,5.5968 10.40436,6 9.90756,6" id="Fill-3" fill="#000000" mask="url(#mask-2)"></path>
                </g>
            </g>
        </g>
    </g>
</svg>