<?xml version="1.0" encoding="UTF-8"?>
<svg width="10px" height="10px" viewBox="0 0 10 10" version="1.1" xmlns="http://www.w3.org/2000/svg" xmlns:xlink="http://www.w3.org/1999/xlink">
    <!-- Generator: Sketch 52.4 (67378) - http://www.bohemiancoding.com/sketch -->
    <title>Close</title>
    <desc>Created with Sketch.</desc>
    <g id="Component-Library" stroke="none" stroke-width="1" fill="none" fill-rule="evenodd">
        <g id="Iconography" transform="translate(-621.000000, -1002.000000)" fill="#000000" fill-rule="nonzero">
            <g id="Close" transform="translate(621.000000, 1002.000000)">
                <path d="M5.17915005,6.36050889 C5.08957503,6.27194601 4.91042497,6.27194601 4.82084995,6.36050889 L1.37221144,9.77017973 C1.2378489,9.90302405 0.924336306,9.94730549 0.745186254,9.77017973 L0.11816107,9.15023958 C-0.0609889821,8.97311382 -0.016201469,8.66314374 0.11816107,8.53029943 L3.56679958,5.12062858 C3.65637461,5.0320657 3.65637461,4.85493995 3.56679958,4.76637707 L0.11816107,1.35670622 C-0.016201469,1.22386191 -0.0609889821,0.913891828 0.11816107,0.73676607 L0.745186254,0.116825917 C0.924336306,-0.0602998411 1.2378489,-0.0160184016 1.37221144,0.116825917 L4.82084995,3.52649676 C4.91042497,3.61505964 5.08957503,3.61505964 5.17915005,3.52649676 L8.62778856,0.116825917 C8.7621511,-0.0160184016 9.07566369,-0.0602998411 9.25481375,0.116825917 L9.88183893,0.73676607 C10.060989,0.913891828 10.0162015,1.22386191 9.88183893,1.35670622 L6.43320042,4.76637707 C6.34362539,4.85493995 6.34362539,5.0320657 6.43320042,5.12062858 L9.88183893,8.53029943 C10.0162015,8.66314374 10.060989,8.97311382 9.88183893,9.15023958 L9.25481375,9.77017973 C9.07566369,9.94730549 8.7621511,9.90302405 8.62778856,9.77017973 L5.17915005,6.36050889 Z" id="Shape-Copy"></path>
            </g>
        </g>
    </g>
</svg>