<?xml version="1.0" encoding="UTF-8"?>
<svg width="17px" height="20px" viewBox="0 0 17 20" version="1.1" xmlns="http://www.w3.org/2000/svg" xmlns:xlink="http://www.w3.org/1999/xlink">
    <!-- Generator: Sketch 52.4 (67378) - http://www.bohemiancoding.com/sketch -->
    <title>calendar icon</title>
    <desc>Created with Sketch.</desc>
    <defs>
        <polygon id="path-1" points="0 0.3216 16.9222048 0.3216 16.9222048 19.19992 0 19.19992"></polygon>
    </defs>
    <g id="Component-Library" stroke="none" stroke-width="1" fill="none" fill-rule="evenodd">
        <g id="Iconography" transform="translate(-229.000000, -1147.000000)">
            <g id="calendar-icon" transform="translate(229.000000, 1147.000000)">
                <g id="Group-16">
                    <path d="M4.5813381,10.99176 L3.49657619,10.99176 C3.22781429,10.99176 3.01005238,10.77576 3.01005238,10.51016 L3.01005238,9.43816 C3.01005238,9.17256 3.22781429,8.95656 3.49657619,8.95656 L4.5813381,8.95656 C4.85090952,8.95656 5.06867143,9.17256 5.06867143,9.43816 L5.06867143,10.51016 C5.06867143,10.77576 4.85090952,10.99176 4.5813381,10.99176" id="Fill-1" fill="#221F1F"></path>
                    <path d="M9.00295714,10.99176 L7.91900476,10.99176 C7.65024286,10.99176 7.43167143,10.77576 7.43167143,10.50936 L7.43167143,9.43896 C7.43167143,9.17256 7.65024286,8.95656 7.91900476,8.95656 L9.00295714,8.95656 C9.27252857,8.95656 9.4911,9.17256 9.4911,9.43896 L9.4911,10.50936 C9.4911,10.77576 9.27252857,10.99176 9.00295714,10.99176" id="Fill-3" fill="#221F1F"></path>
                    <path d="M13.4249,10.99176 L12.3417571,10.99176 C12.0721857,10.99176 11.8544238,10.77496 11.8544238,10.50936 L11.8544238,9.43976 C11.8544238,9.17336 12.0721857,8.95656 12.3417571,8.95656 L13.4249,8.95656 C13.6944714,8.95656 13.9130429,9.17336 13.9130429,9.43976 L13.9130429,10.50936 C13.9130429,10.77496 13.6944714,10.99176 13.4249,10.99176" id="Fill-5" fill="#221F1F"></path>
                    <path d="M4.58457619,15.8472 L3.4933381,15.8472 C3.22619524,15.8472 3.01005238,15.6328 3.01005238,15.3688 L3.01005238,14.2912 C3.01005238,14.0272 3.22619524,13.8128 3.4933381,13.8128 L4.58457619,13.8128 C4.85171905,13.8128 5.06867143,14.0272 5.06867143,14.2912 L5.06867143,15.3688 C5.06867143,15.6328 4.85171905,15.8472 4.58457619,15.8472" id="Fill-7" fill="#221F1F"></path>
                    <path d="M9.00449524,15.8472 L7.91811429,15.8472 C7.64935238,15.8472 7.43159048,15.632 7.43159048,15.3664 L7.43159048,14.2928 C7.43159048,14.028 7.64935238,13.8128 7.91811429,13.8128 L9.00449524,13.8128 C9.27325714,13.8128 9.49101905,14.028 9.49101905,14.2928 L9.49101905,15.3664 C9.49101905,15.632 9.27325714,15.8472 9.00449524,15.8472" id="Fill-9" fill="#221F1F"></path>
                    <path d="M13.4284619,15.8472 L12.3380333,15.8472 C12.0708905,15.8472 11.8539381,15.6328 11.8539381,15.368 L11.8539381,14.2912 C11.8539381,14.0272 12.0708905,13.8128 12.3380333,13.8128 L13.4284619,13.8128 C13.6964143,13.8128 13.9125571,14.0272 13.9125571,14.2912 L13.9125571,15.368 C13.9125571,15.6328 13.6964143,15.8472 13.4284619,15.8472" id="Fill-11" fill="#221F1F"></path>
                    <g id="Group-15" transform="translate(0.000000, 0.478640)">
                        <mask id="mask-2" fill="white">
                            <use xlink:href="#path-1"></use>
                        </mask>
                        <g id="Clip-14"></g>
                        <path d="M14.6636333,18.22952 L2.25849048,18.22952 C1.55501429,18.22952 0.981871429,17.66392 0.981871429,16.96792 L0.981871429,5.67912 L15.9402524,5.67912 L15.9402524,16.96792 C15.9402524,17.66392 15.3671095,18.22952 14.6636333,18.22952 M2.25849048,2.70392 L14.6636333,2.70392 C15.3671095,2.70392 15.9402524,3.27032 15.9402524,3.96552 L15.9402524,4.70872 L0.981871429,4.70872 L0.981871429,3.96552 C0.981871429,3.27032 1.55501429,2.70392 2.25849048,2.70392 M14.6636333,1.73352 L14.0354429,1.73352 L14.0354429,0.32152 L12.7143,0.32152 L12.7143,1.73352 L4.20782381,1.73352 L4.20782381,0.32152 L2.88749048,0.32152 L2.88749048,1.73352 L2.25849048,1.73352 C1.01344286,1.73352 -8.0952381e-05,2.73512 -8.0952381e-05,3.96552 L-8.0952381e-05,16.96792 C-8.0952381e-05,18.19912 1.01344286,19.19992 2.25849048,19.19992 L14.6636333,19.19992 C15.9094905,19.19992 16.9222048,18.19912 16.9222048,16.96792 L16.9222048,3.96552 C16.9222048,2.73512 15.9094905,1.73352 14.6636333,1.73352" id="Fill-13" fill="#221F1F" mask="url(#mask-2)"></path>
                    </g>
                </g>
            </g>
        </g>
    </g>
</svg>