<?xml version="1.0" encoding="utf-8"?>
<!-- Generator: Adobe Illustrator 22.0.1, SVG Export Plug-In . SVG Version: 6.00 Build 0)  -->
<svg version="1.1" xmlns="http://www.w3.org/2000/svg" xmlns:xlink="http://www.w3.org/1999/xlink" x="0px" y="0px"
	 viewBox="0 0 20 20" style="enable-background:new 0 0 20 20;" xml:space="preserve">
<style type="text/css">
	.st0{fill:#FFFFFF;}
	.st1{fill:#231F20;}
</style>
<g id="BG">
</g>
<g id="Layer_1">
	<path class="st0" d="M10,0C4.5,0,0,4.5,0,10s4.5,10,10,10s10-4.5,10-10S15.5,0,10,0z M11,14c0,0.6-0.4,1-1,1s-1-0.4-1-1v-4
		c0-0.6,0.4-1,1-1s1,0.4,1,1V14z M10,7C9.4,7,9,6.6,9,6c0-0.6,0.4-1,1-1s1,0.4,1,1C11,6.6,10.6,7,10,7z"/>
</g>
<g id="Layer_3">
</g>
</svg>
