<?xml version="1.0" encoding="utf-8"?>
<!-- Generator: Adobe Illustrator 22.0.1, SVG Export Plug-In . SVG Version: 6.00 Build 0)  -->
<svg version="1.1" xmlns="http://www.w3.org/2000/svg" xmlns:xlink="http://www.w3.org/1999/xlink" x="0px" y="0px"
	 viewBox="0 0 20 20" style="enable-background:new 0 0 20 20;" xml:space="preserve">
<style type="text/css">
	.st0{fill:#FFFFFF;}
	.st1{fill:#231F20;}
</style>
<g id="BG">
</g>
<g id="Layer_1">
	<path class="st0" d="M19,0H5C3.3,0,2,1.3,2,3v14c0,0.6-0.4,1-1,1c-0.6,0-1,0.4-1,1s0.4,1,1,1h14c1.7,0,3-1.3,3-3V3c0-0.6,0.4-1,1-1
		c0.6,0,1-0.4,1-1S19.6,0,19,0z M10.5,9.1c1,0.6,2.5,1.5,2.5,3.3c0,1-0.7,2.1-2,2.5V16c0,0.6-0.4,1-1,1s-1-0.4-1-1v-1.1
		c-1.3-0.4-2-1.4-2-2.5c0-0.6,0.4-1,1-1s1,0.4,1,1c0,0.4,0.4,0.6,1,0.6c0.7,0,1-0.3,1-0.6c0-0.6-0.5-0.9-1.5-1.5
		C8.4,10.2,7,9.4,7,7.6c0-1,0.7-2.1,2-2.5V4c0-0.6,0.4-1,1-1s1,0.4,1,1v1.1c1.3,0.4,2,1.4,2,2.5c0,0.6-0.4,1-1,1s-1-0.4-1-1
		C11,7.2,10.6,7,10,7C9.3,7,9,7.3,9,7.6C9,8.2,9.5,8.5,10.5,9.1z"/>
</g>
<g id="Layer_3">
</g>
</svg>
