<?xml version="1.0" encoding="utf-8"?>
<!-- Generator: Adobe Illustrator 22.0.1, SVG Export Plug-In . SVG Version: 6.00 Build 0)  -->
<svg version="1.1" xmlns="http://www.w3.org/2000/svg" xmlns:xlink="http://www.w3.org/1999/xlink" x="0px" y="0px"
	 viewBox="0 0 20 20" style="enable-background:new 0 0 20 20;" xml:space="preserve">
<style type="text/css">
	.st0{fill:#FFFFFF;}
	.st1{fill:#231F20;}
</style>
<g id="BG">
</g>
<g id="Layer_1">
	<path class="st0" d="M16,0H3C2.4,0,2,0.4,2,1v3H1C0.4,4,0,4.4,0,5s0.4,1,1,1h1v3H1c-0.6,0-1,0.4-1,1s0.4,1,1,1h1v3H1
		c-0.6,0-1,0.4-1,1s0.4,1,1,1h1v3c0,0.6,0.4,1,1,1h13c2.2,0,4-1.8,4-4V4C20,1.8,18.2,0,16,0z M11,6c1.1,0,2,0.9,2,2c0,1.1-0.9,2-2,2
		S9,9.1,9,8C9,6.9,9.9,6,11,6z M14,14H8c-0.6,0-1-0.4-1-1s0.4-1,1-1h6c0.6,0,1,0.4,1,1S14.6,14,14,14z"/>
</g>
<g id="Layer_3">
</g>
</svg>
