<?xml version="1.0" encoding="utf-8"?>
<!-- Generator: Adobe Illustrator 22.0.1, SVG Export Plug-In . SVG Version: 6.00 Build 0)  -->
<svg version="1.1" xmlns="http://www.w3.org/2000/svg" xmlns:xlink="http://www.w3.org/1999/xlink" x="0px" y="0px"
	 viewBox="0 0 20 20" style="enable-background:new 0 0 20 20;" xml:space="preserve">
<style type="text/css">
	.st0{fill:#FFFFFF;}
	.st1{fill:#231F20;}
</style>
<g id="BG">
</g>
<g id="Layer_1">
	<path class="st0" d="M19,0H5C4.4,0,4,0.4,4,1v13.6L13.6,5l1,0L15,5.4v1L5.4,16H19c0.6,0,1-0.4,1-1V1C20,0.4,19.6,0,19,0z M18,6.6
		c0,0.6-0.4,1-1,1s-1-0.4-1-1V4h-2.6c-0.6,0-1-0.4-1-1s0.4-1,1-1H17c0.6,0,1,0.4,1,1V6.6z M19,20H1c-0.6,0-1-0.4-1-1V1
		c0-0.6,0.4-1,1-1s1,0.4,1,1v17h17c0.6,0,1,0.4,1,1S19.6,20,19,20z"/>
</g>
<g id="Layer_3">
</g>
</svg>
