<?xml version="1.0" encoding="utf-8"?>
<!-- Generator: Adobe Illustrator 22.0.1, SVG Export Plug-In . SVG Version: 6.00 Build 0)  -->
<svg version="1.1" xmlns="http://www.w3.org/2000/svg" xmlns:xlink="http://www.w3.org/1999/xlink" x="0px" y="0px"
	 viewBox="0 0 20 20" style="enable-background:new 0 0 20 20;" xml:space="preserve">
<style type="text/css">
	.st0{fill:#FFFFFF;}
</style>
<g id="BG">
</g>
<g id="Layer_1">
	<path class="st0" d="M17,20h-4c-0.6,0-1-0.4-1-1v-7H8v7c0,0.6-0.4,1-1,1H3c-0.6,0-1-0.4-1-1v-8c0-0.6,0.4-1,1-1s1,0.4,1,1v7h2v-7
		c0-0.6,0.4-1,1-1h6c0.6,0,1,0.4,1,1v7h2v-7c0-0.6,0.4-1,1-1s1,0.4,1,1v8C18,19.6,17.6,20,17,20z M19,10.2c-0.2,0-0.5-0.1-0.7-0.3
		L10,2.4L1.7,9.9c-0.4,0.4-1,0.3-1.4-0.1c-0.4-0.4-0.3-1,0.1-1.4l9-8.2c0.4-0.3,1-0.3,1.3,0l9,8.2c0.4,0.4,0.4,1,0.1,1.4
		C19.5,10.1,19.3,10.2,19,10.2z"/>
</g>
<g id="Layer_3">
</g>
</svg>
