<?xml version="1.0" encoding="utf-8"?>
<!-- Generator: Adobe Illustrator 22.0.1, SVG Export Plug-In . SVG Version: 6.00 Build 0)  -->
<svg version="1.1" xmlns="http://www.w3.org/2000/svg" xmlns:xlink="http://www.w3.org/1999/xlink" x="0px" y="0px"
	 viewBox="0 0 20 20" style="enable-background:new 0 0 20 20;" xml:space="preserve">
<style type="text/css">
	.st0{fill:#FFFFFF;}
</style>
<g id="BG">
</g>
<g id="Layer_1">
	<path class="st0" d="M19,20H1c-0.6,0-1-0.4-1-1v-2.6c0-1.2,0.7-2.3,1.9-2.8l3.7-1.5c0.5-0.2,1.1,0,1.3,0.6c0.2,0.5,0,1.1-0.6,1.3
		l-3.7,1.5C2.2,15.6,2,15.9,2,16.4V18h16v-1.6c0-0.4-0.2-0.8-0.6-0.9l-3.7-1.5c-0.5-0.2-0.8-0.8-0.6-1.3s0.8-0.8,1.3-0.6l3.7,1.5
		c1.1,0.5,1.9,1.6,1.9,2.8V19C20,19.6,19.6,20,19,20z M15,5c0-2.4-1.3-5-5-5S5,2.6,5,5c0,4.4,1.9,7,5,7S15,9.4,15,5z M13,5
		c0,1.5-0.3,5-3,5S7,6.5,7,5c0-1.4,0.5-3,3-3S13,3.6,13,5z"/>
</g>
<g id="Layer_3">
</g>
</svg>
