<?xml version="1.0" encoding="utf-8"?>
<!-- Generator: Adobe Illustrator 22.0.1, SVG Export Plug-In . SVG Version: 6.00 Build 0)  -->
<svg version="1.1" xmlns="http://www.w3.org/2000/svg" xmlns:xlink="http://www.w3.org/1999/xlink" x="0px" y="0px"
	 viewBox="0 0 20 20" style="enable-background:new 0 0 20 20;" xml:space="preserve">
<style type="text/css">
	.st0{fill:#FFFFFF;}
</style>
<g id="BG">
</g>
<g id="Layer_1">
	<path class="st0" d="M19,20H1c-0.6,0-1-0.4-1-1V1c0-0.6,0.4-1,1-1s1,0.4,1,1v17h17c0.6,0,1,0.4,1,1S19.6,20,19,20z M18,6.6V3
		c0-0.6-0.4-1-1-1h-3.6c-0.6,0-1,0.4-1,1s0.4,1,1,1H16v2.6c0,0.6,0.4,1,1,1S18,7.2,18,6.6z M5.7,15.7L15,6.4v-1L14.6,5l-1,0
		l-9.3,9.3c-0.4,0.4-0.4,1,0,1.4C4.5,15.9,4.7,16,5,16S5.5,15.9,5.7,15.7z"/>
</g>
<g id="Layer_3">
</g>
</svg>
