<?xml version="1.0" encoding="utf-8"?>
<!-- Generator: Adobe Illustrator 22.0.1, SVG Export Plug-In . SVG Version: 6.00 Build 0)  -->
<svg version="1.1" xmlns="http://www.w3.org/2000/svg" xmlns:xlink="http://www.w3.org/1999/xlink" x="0px" y="0px"
	 viewBox="0 0 20 20" style="enable-background:new 0 0 20 20;" xml:space="preserve">
<style type="text/css">
	.st0{fill:#FFFFFF;}
</style>
<g id="BG">
</g>
<g id="Layer_1">
	<path class="st0" d="M10,15c-0.6,0-1-0.4-1-1v-4c0-0.6,0.4-1,1-1s1,0.4,1,1v4C11,14.6,10.6,15,10,15z M10,5C9.4,5,9,5.4,9,6
		s0.4,1,1,1s1-0.4,1-1S10.6,5,10,5z M20,10c0-5.5-4.5-10-10-10S0,4.5,0,10s4.5,10,10,10S20,15.5,20,10z M18,10c0,4.4-3.6,8-8,8
		s-8-3.6-8-8s3.6-8,8-8S18,5.6,18,10z"/>
</g>
<g id="Layer_3">
</g>
</svg>
