<?xml version="1.0" encoding="utf-8"?>
<!-- Generator: Adobe Illustrator 22.0.1, SVG Export Plug-In . SVG Version: 6.00 Build 0)  -->
<svg version="1.1" xmlns="http://www.w3.org/2000/svg" xmlns:xlink="http://www.w3.org/1999/xlink" x="0px" y="0px"
	 viewBox="0 0 20 20" style="enable-background:new 0 0 20 20;" xml:space="preserve">
<style type="text/css">
	.st0{fill:#FFFFFF;}
	.st1{fill:#231F20;}
</style>
<g id="BG">
</g>
<g id="Layer_1">
	<path class="st0" d="M19.7,8.4l-9-8.2c-0.4-0.3-1-0.3-1.3,0l-9,8.2c-0.4,0.4-0.4,1-0.1,1.4c0.4,0.4,1,0.4,1.4,0.1L2,9.6V19
		c0,0.6,0.4,1,1,1h4c0.6,0,1-0.4,1-1v-7h4v7c0,0.6,0.4,1,1,1h4c0.6,0,1-0.4,1-1V9.6l0.3,0.3c0.2,0.2,0.4,0.3,0.7,0.3
		c0.3,0,0.5-0.1,0.7-0.3C20.1,9.4,20.1,8.8,19.7,8.4z"/>
</g>
<g id="Layer_3">
</g>
</svg>
