<?xml version="1.0" encoding="utf-8"?>
<!-- Generator: Adobe Illustrator 22.0.1, SVG Export Plug-In . SVG Version: 6.00 Build 0)  -->
<svg version="1.1" xmlns="http://www.w3.org/2000/svg" xmlns:xlink="http://www.w3.org/1999/xlink" x="0px" y="0px"
	 viewBox="0 0 20 20" style="enable-background:new 0 0 20 20;" xml:space="preserve">
<style type="text/css">
	.st0{fill:#FFFFFF;}
</style>
<g id="BG">
</g>
<g id="Layer_1">
	<path class="st0" d="M11,12.4c0-0.6-0.5-0.9-1.5-1.5C8.4,10.2,7,9.4,7,7.6c0-1,0.7-2.1,2-2.5V4c0-0.6,0.4-1,1-1s1,0.4,1,1v1.1
		c1.3,0.4,2,1.4,2,2.5c0,0.6-0.4,1-1,1s-1-0.4-1-1C11,7.2,10.6,7,10,7C9.3,7,9,7.3,9,7.6c0,0.6,0.5,0.9,1.5,1.5
		c1,0.6,2.5,1.5,2.5,3.3c0,1-0.7,2.1-2,2.5V16c0,0.6-0.4,1-1,1s-1-0.4-1-1v-1.1c-1.3-0.4-2-1.4-2-2.5c0-0.6,0.4-1,1-1s1,0.4,1,1
		c0,0.4,0.4,0.6,1,0.6C10.7,13,11,12.7,11,12.4z M19,0H5C3.3,0,2,1.3,2,3v14c0,0.6-0.4,1-1,1c-0.6,0-1,0.4-1,1s0.4,1,1,1
		c1.7,0,3-1.3,3-3V3c0-0.6,0.4-1,1-1h11.2C16.1,2.3,16,2.6,16,3v14c0,0.6-0.4,1-1,1H6c-0.6,0-1,0.4-1,1s0.4,1,1,1h9c1.7,0,3-1.3,3-3
		V3c0-0.6,0.4-1,1-1c0.6,0,1-0.4,1-1S19.6,0,19,0z"/>
</g>
<g id="Layer_3">
</g>
</svg>
