<?xml version="1.0" encoding="utf-8"?>
<!-- Generator: Adobe Illustrator 22.0.1, SVG Export Plug-In . SVG Version: 6.00 Build 0)  -->
<svg version="1.1" xmlns="http://www.w3.org/2000/svg" xmlns:xlink="http://www.w3.org/1999/xlink" x="0px" y="0px"
	 viewBox="0 0 20 20" style="enable-background:new 0 0 20 20;" xml:space="preserve">
<style type="text/css">
	.st0{fill:#FFFFFF;}
	.st1{fill:#231F20;}
</style>
<g id="BG">
</g>
<g id="Layer_1">
	<path class="st0" d="M20,2v8c0,1.1-0.9,2-2,2h-1c-0.6,0-1-0.4-1-1s0.4-1,1-1h1V2H2v8h1c0.6,0,1,0.4,1,1s-0.4,1-1,1H2
		c-1.1,0-2-0.9-2-2V2c0-1.1,0.9-2,2-2h16C19.1,0,20,0.9,20,2z M16,7h-1v12c0,0.6-0.4,1-1,1H6c-0.6,0-1-0.4-1-1V7H4C3.4,7,3,6.6,3,6
		s0.4-1,1-1h12c0.6,0,1,0.4,1,1S16.6,7,16,7z M12,7h-2v11h2V7z"/>
</g>
<g id="Layer_3">
</g>
</svg>
