<?xml version="1.0" encoding="utf-8"?>
<!-- Generator: Adobe Illustrator 22.0.1, SVG Export Plug-In . SVG Version: 6.00 Build 0)  -->
<svg version="1.1" xmlns="http://www.w3.org/2000/svg" xmlns:xlink="http://www.w3.org/1999/xlink" x="0px" y="0px"
	 viewBox="0 0 20 20" style="enable-background:new 0 0 20 20;" xml:space="preserve">
<style type="text/css">
	.st0{fill:#FFFFFF;}
	.st1{fill:#231F20;}
</style>
<g id="BG">
</g>
<g id="Layer_1">
	<path class="st0" d="M5,5c0-2.4,1.3-5,5-5s5,2.6,5,5c0,4.4-1.9,7-5,7S5,9.4,5,5z M18.1,13.6l-3.7-1.5c-0.3-0.1-0.8,0-1.1,0.2
		c0,0-0.9,0.7-3.3,0.7c-2.4,0-3.3-0.7-3.3-0.7C6.4,12,6,11.9,5.6,12.1l-3.7,1.5C0.7,14,0,15.1,0,16.4V19c0,0.6,0.4,1,1,1h18
		c0.6,0,1-0.4,1-1v-2.6C20,15.1,19.3,14,18.1,13.6z"/>
</g>
<g id="Layer_3">
</g>
</svg>
