<?xml version="1.0" encoding="UTF-8"?>
<svg width="13px" height="16px" viewBox="0 0 13 16" version="1.1" xmlns="http://www.w3.org/2000/svg" xmlns:xlink="http://www.w3.org/1999/xlink">
    <!-- Generator: Sketch 51.2 (57519) - http://www.bohemiancoding.com/sketch -->
    <title>Group 5</title>
    <desc>Created with Sketch.</desc>
    <defs></defs>
    <g id="Layout" stroke="none" stroke-width="1" fill="none" fill-rule="evenodd">
        <g id="T4a_Topic-Overview_Virtual_Terminal@2x" transform="translate(-335.000000, -232.000000)" fill="#E7417A">
            <g id="totals" transform="translate(334.000000, 171.000000)">
                <g id="Disclosure" transform="translate(0.000000, 56.000000)">
                    <g id="Group-5" transform="translate(1.000000, 5.000000)">
                        <path d="M0.906976744,15.0943396 L12.0930233,15.0943396 L12.0930233,0.905660377 L0.906976744,0.905660377 L0.906976744,15.0943396 Z M12.5465116,16 L0.453488372,16 C0.203162791,16 0,15.7971321 0,15.5471698 L0,0.452830189 C0,0.202867925 0.203162791,0 0.453488372,0 L12.5465116,0 C12.7968372,0 13,0.202867925 13,0.452830189 L13,15.5471698 C13,15.7971321 12.7968372,16 12.5465116,16 Z" id="Fill-1"></path>
                        <path d="M6.52523659,12 C5.26845426,12 4,11.2793423 4,9.6702546 C4,9.40715733 4.21198738,9.19362911 4.47318612,9.19362911 C4.73438486,9.19362911 4.94637224,9.40715733 4.94637224,9.6702546 C4.94637224,10.9472932 6.15488959,11.046749 6.52523659,11.046749 C6.88391167,11.046749 8.05362776,10.9488819 8.05362776,9.69027287 C8.05362776,8.79103944 7.42681388,8.56257696 6.31987382,8.23529412 C5.32807571,7.94264607 4.09400631,7.57850419 4.09400631,6.14672121 C4.09400631,4.88302816 5.09369085,4 6.52523659,4 C8.04164038,4 8.74794953,5.16328395 8.74794953,5.94939826 C8.74794953,6.21249553 8.53596215,6.42602375 8.27476341,6.42602375 C8.01356467,6.42602375 7.80157729,6.21249553 7.80157729,5.94939826 C7.80157729,5.75175756 7.57444795,4.95325098 6.52523659,4.95325098 C5.80757098,4.95325098 5.04037855,5.26687056 5.04037855,6.14672121 C5.04037855,6.79652063 5.51135647,7.0033761 6.58580442,7.32049092 C7.60473186,7.62140048 9,8.03352266 9,9.69027287 C9,11.286015 7.75678233,12 6.52523659,12" id="Fill-3"></path>
                        <path d="M6.5,13 C6.224,13 6,12.8076923 6,12.5707418 L6,3.42925824 C6,3.19230769 6.224,3 6.5,3 C6.776,3 7,3.19230769 7,3.42925824 L7,12.5707418 C7,12.8076923 6.776,13 6.5,13" id="Fill-4"></path>
                    </g>
                </g>
            </g>
        </g>
    </g>
</svg>