<?xml version="1.0" encoding="UTF-8"?>
<svg width="16px" height="15px" viewBox="0 0 16 15" version="1.1" xmlns="http://www.w3.org/2000/svg" xmlns:xlink="http://www.w3.org/1999/xlink">
    <!-- Generator: Sketch 52.4 (67378) - http://www.bohemiancoding.com/sketch -->
    <title>refund_payment_icn</title>
    <desc>Created with Sketch.</desc>
    <defs>
        <polygon id="path-1" points="0 0 16 0 16 15 0 15"></polygon>
    </defs>
    <g id="Component-Library" stroke="none" stroke-width="1" fill="none" fill-rule="evenodd">
        <g id="Iconography" transform="translate(-423.000000, -1466.000000)">
            <g id="refund_payment_icn" transform="translate(423.000000, 1466.000000)">
                <mask id="mask-2" fill="white">
                    <use xlink:href="#path-1"></use>
                </mask>
                <g id="Clip-2"></g>
                <path d="M15.6462531,4.12170343 C15.2928702,3.88877191 14.8269787,4.00168448 14.6057369,4.37042691 L14.0341325,5.32268253 C13.139349,2.24640733 10.402897,0 7.17186005,0 C3.21744532,0 0,3.3644786 0,7.4996052 C0,11.6355214 3.21744532,15 7.17186005,15 C9.26572907,15 11.2493547,14.0469548 12.6145603,12.3848502 C12.8863933,12.0540085 12.8501489,11.555772 12.5337655,11.2715166 C12.2188923,10.9880507 11.7416744,11.0243723 11.4690864,11.3560036 C10.3908156,12.668316 8.82475557,13.4208033 7.17186005,13.4208033 C4.05031136,13.4208033 1.51018321,10.7645944 1.51018321,7.4996052 C1.51018321,4.23540559 4.05031136,1.57919672 7.17186005,1.57919672 C9.85394543,1.57919672 12.101098,3.54134863 12.6832737,6.16281518 L11.1949881,5.18687161 C10.8431154,4.9531505 10.3764688,5.06606306 10.155227,5.43559509 C9.93323004,5.80512713 10.039698,6.29230931 10.3930808,6.52366163 L13.1280226,8.3176291 C13.2526127,8.40053693 13.3915496,8.43922725 13.5282212,8.43922725 C13.7796667,8.43922725 14.0258265,8.30815392 14.1685388,8.06890562 L15.884107,5.20976996 C16.1061039,4.84023793 15.999636,4.35305575 15.6462531,4.12170343" id="Fill-1" fill="#231F20" mask="url(#mask-2)"></path>
            </g>
        </g>
    </g>
</svg>