<?xml version="1.0" encoding="UTF-8"?>
<svg width="16px" height="16px" viewBox="0 0 16 16" version="1.1" xmlns="http://www.w3.org/2000/svg" xmlns:xlink="http://www.w3.org/1999/xlink">
    <!-- Generator: Sketch 52.4 (67378) - http://www.bohemiancoding.com/sketch -->
    <title>Group 7</title>
    <desc>Created with Sketch.</desc>
    <defs>
        <polygon id="path-1" points="0.40005 0.285 11.714925 0.285 11.714925 11.599725 0.40005 11.599725"></polygon>
        <polygon id="path-3" points="0.000423529412 0.116047059 11.8832471 0.116047059 11.8832471 12 0.000423529412 12"></polygon>
    </defs>
    <g id="Component-Library" stroke="none" stroke-width="1" fill="none" fill-rule="evenodd">
        <g id="Iconography" transform="translate(-425.000000, -1508.000000)">
            <g id="Group-7" transform="translate(425.000000, 1508.000000)">
                <g id="Group-3" transform="translate(4.000000, 0.000000)">
                    <mask id="mask-2" fill="white">
                        <use xlink:href="#path-1"></use>
                    </mask>
                    <g id="Clip-2"></g>
                    <path d="M10.882425,0.284475 L6.398925,0.284475 C5.939175,0.284475 5.566425,0.657225 5.566425,1.116975 C5.566425,1.578225 5.939175,1.950225 6.398925,1.950225 L8.872425,1.950225 L0.644175,10.178475 C0.318675,10.503975 0.318675,11.030475 0.644175,11.355975 C0.806175,11.518725 1.019925,11.599725 1.232925,11.599725 C1.445175,11.599725 1.658925,11.518725 1.820925,11.355975 L10.049925,3.127725 L10.049925,5.600475 C10.049925,6.060225 10.422675,6.432225 10.882425,6.432225 C11.342925,6.432225 11.714925,6.060225 11.714925,5.600475 L11.714925,1.116975 C11.714925,0.657225 11.342925,0.284475 10.882425,0.284475" id="Fill-1" fill="#231F20" mask="url(#mask-2)"></path>
                </g>
                <g id="Group-6" transform="translate(0.000000, 4.000000)">
                    <mask id="mask-4" fill="white">
                        <use xlink:href="#path-3"></use>
                    </mask>
                    <g id="Clip-5"></g>
                    <path d="M10.4121882,12.0002824 L1.47077647,12.0002824 C0.659717647,12.0002824 0.000423529412,11.3395765 0.000423529412,10.5285176 L0.000423529412,1.58781176 C0.000423529412,0.776752941 0.659717647,0.116047059 1.47077647,0.116047059 L5.9256,0.116047059 C6.35830588,0.116047059 6.70912941,0.466164706 6.70912941,0.899576471 C6.70912941,1.33298824 6.35830588,1.68381176 5.9256,1.68381176 L1.56748235,1.68381176 L1.56748235,10.4325176 L10.3154824,10.4325176 L10.3154824,6.0744 C10.3154824,5.64098824 10.6663059,5.29087059 11.0997176,5.29087059 C11.5324235,5.29087059 11.8832471,5.64098824 11.8832471,6.0744 L11.8832471,10.5285176 C11.8832471,11.3395765 11.2232471,12.0002824 10.4121882,12.0002824" id="Fill-4" fill="#231F20" mask="url(#mask-4)"></path>
                </g>
            </g>
        </g>
    </g>
</svg>