<?xml version="1.0" encoding="UTF-8"?>
<svg width="18px" height="22px" viewBox="0 0 18 22" version="1.1" xmlns="http://www.w3.org/2000/svg" xmlns:xlink="http://www.w3.org/1999/xlink">
    <!-- Generator: Sketch 52.4 (67378) - http://www.bohemiancoding.com/sketch -->
    <title>Group 6</title>
    <desc>Created with Sketch.</desc>
    <defs>
        <polygon id="path-1" points="0 0.0903571429 17.6679391 0.0903571429 17.6679391 21.2142857 0 21.2142857"></polygon>
    </defs>
    <g id="Component-Library" stroke="none" stroke-width="1" fill="none" fill-rule="evenodd">
        <g id="Iconography" transform="translate(-623.000000, -1543.000000)">
            <g id="Group-6" transform="translate(623.000000, 1543.000000)">
                <path d="M8.44043478,13.2568857 L8.44043478,11.2344571 C8.97965217,11.4670286 9.16747826,11.7145286 9.16747826,12.1961714 C9.16747826,12.8412429 8.80904348,13.1296 8.44043478,13.2568857 M6.53243478,8.5426 C6.53243478,8.03424286 6.83921739,7.78988571 7.16243478,7.66967143 L7.16243478,9.25445714 C6.66782609,9.05174286 6.53243478,8.86945714 6.53243478,8.5426 M10.6278261,12.1961714 C10.6278261,10.5760286 9.44765217,10.0001 8.44043478,9.67088571 L8.44043478,7.69167143 C8.85991304,7.91402857 8.90686957,8.3336 8.90686957,8.33988571 C8.90686957,8.74452857 9.234,9.07295714 9.63704348,9.07295714 C10.040087,9.07295714 10.3672174,8.74452857 10.3672174,8.33988571 C10.3672174,7.54631429 9.75052174,6.42195714 8.44043478,6.1501 L8.44043478,5.1491 C8.44043478,4.79474286 8.15478261,4.50795714 7.80182609,4.50795714 C7.44808696,4.50795714 7.16243478,4.79474286 7.16243478,5.1491 L7.16243478,6.15481429 C5.90634783,6.39367143 5.07208696,7.30588571 5.07208696,8.5426 C5.07208696,10.0040286 6.1833913,10.5037429 7.16243478,10.8125286 L7.16243478,13.2427429 C6.78991304,13.1091714 6.4353913,12.8153143 6.4353913,12.1749571 C6.4353913,11.7703143 6.10826087,11.4418857 5.70521739,11.4418857 C5.30217391,11.4418857 4.97504348,11.7703143 4.97504348,12.1749571 C4.97504348,13.7133857 5.994,14.5281714 7.16243478,14.7489571 L7.16243478,15.6132429 C7.16243478,15.9676 7.44808696,16.2543857 7.80182609,16.2543857 C8.15478261,16.2543857 8.44043478,15.9676 8.44043478,15.6132429 L8.44043478,14.7552429 C9.58147826,14.5415286 10.6278261,13.7251714 10.6278261,12.1961714" id="Fill-1" fill="#231F20"></path>
                <g id="Group-5" transform="translate(0.000000, 0.695279)">
                    <mask id="mask-2" fill="white">
                        <use xlink:href="#path-1"></use>
                    </mask>
                    <g id="Clip-4"></g>
                    <path d="M16.392287,16.8339286 L13.9372435,19.2995 C13.8636783,19.3725714 13.764287,19.4142143 13.6602,19.4142143 C13.556113,19.4142143 13.4575043,19.3725714 13.3839391,19.2995 L11.8578522,17.7665714 C11.7052435,17.6133571 11.7052435,17.3650714 11.8578522,17.2110714 C12.0104609,17.0578571 12.2585478,17.0578571 12.4111565,17.2110714 L13.6602,18.4658571 L15.8389826,16.2784286 C15.9915913,16.1252143 16.2396783,16.1252143 16.392287,16.2784286 C16.5448957,16.4316429 16.5448957,16.6807143 16.392287,16.8339286 M14.1250696,14.1004286 C12.1685478,14.1004286 10.5822,15.6930714 10.5822,17.6573571 C10.5822,17.6974286 10.5923739,17.7343571 10.5939391,17.7728571 L1.56498261,17.7728571 L1.56498261,1.66178571 L14.0898522,1.66178571 L14.0898522,12.2901429 C14.0898522,12.7246429 14.4404609,13.0758571 14.8724609,13.0758571 C15.3044609,13.0758571 15.6550696,12.7246429 15.6550696,12.2901429 L15.6550696,0.876071429 C15.6550696,0.442357143 15.3044609,0.0903571429 14.8724609,0.0903571429 L0.782373913,0.0903571429 C0.350373913,0.0903571429 -0.000234782609,0.442357143 -0.000234782609,0.876071429 L-0.000234782609,18.5585714 C-0.000234782609,18.9930714 0.350373913,19.3442857 0.782373913,19.3442857 L11.0243739,19.3442857 C11.6246348,20.4529286 12.7805478,21.2142857 14.1250696,21.2142857 C16.0815913,21.2142857 17.6679391,19.6216429 17.6679391,17.6573571 C17.6679391,15.6930714 16.0815913,14.1004286 14.1250696,14.1004286" id="Fill-3" fill="#231F20" mask="url(#mask-2)"></path>
                </g>
            </g>
        </g>
    </g>
</svg>