<?xml version="1.0" encoding="UTF-8"?>
<svg width="16px" height="18px" viewBox="0 0 16 18" version="1.1" xmlns="http://www.w3.org/2000/svg" xmlns:xlink="http://www.w3.org/1999/xlink">
    <!-- Generator: Sketch 52.4 (67378) - http://www.bohemiancoding.com/sketch -->
    <title>fraud_icn</title>
    <desc>Created with Sketch.</desc>
    <defs>
        <polygon id="path-1" points="0 0 16 0 16 18 0 18"></polygon>
    </defs>
    <g id="Component-Library" stroke="none" stroke-width="1" fill="none" fill-rule="evenodd">
        <g id="Iconography" transform="translate(-423.000000, -1427.000000)">
            <g id="fraud_icn" transform="translate(423.000000, 1427.000000)">
                <mask id="mask-2" fill="white">
                    <use xlink:href="#path-1"></use>
                </mask>
                <g id="Clip-2"></g>
                <path d="M1.88784405,3.99261052 C1.93580835,6.64364887 2.52360608,15.125137 8,16.1506944 C13.4763939,15.125137 14.0641917,6.64364887 14.1121559,3.99261052 C11.5747507,3.62293286 9.01947639,2.45794369 8,1.95342082 C6.98052361,2.45794369 4.42524931,3.62293286 1.88784405,3.99261052 M8,18 C7.94921428,18 7.89842855,17.9963307 7.8485833,17.9880749 C-0.409739725,16.6698943 -0.0128586955,3.68897949 0.00877226105,3.13675627 C0.0266413121,2.66800866 0.404712814,2.28824054 0.88529624,2.25521723 C3.91833254,2.05524271 7.50907133,0.134386546 7.54480944,0.114205631 C7.82695235,-0.0380685438 8.17304765,-0.0380685438 8.45519056,0.114205631 C8.49092867,0.134386546 12.0816675,2.05524271 15.1147038,2.25521723 C15.5952872,2.28824054 15.9742992,2.66800866 15.9912277,3.13675627 C16.0128587,3.68897949 16.4097397,16.6698943 8.1514167,17.9880749 C8.10157145,17.9963307 8.05078572,18 8,18" id="Fill-1" fill="#231F20" mask="url(#mask-2)"></path>
            </g>
        </g>
    </g>
</svg>