<?xml version="1.0" encoding="UTF-8"?>
<svg width="24px" height="17px" viewBox="0 0 24 17" version="1.1" xmlns="http://www.w3.org/2000/svg" xmlns:xlink="http://www.w3.org/1999/xlink">
    <!-- Generator: Sketch 52.4 (67378) - http://www.bohemiancoding.com/sketch -->
    <title>pay_success_icn</title>
    <desc>Created with Sketch.</desc>
    <defs>
        <polygon id="path-1" points="0 0 24 0 24 17 0 17"></polygon>
    </defs>
    <g id="Component-Library" stroke="none" stroke-width="1" fill="none" fill-rule="evenodd">
        <g id="Iconography" transform="translate(-423.000000, -1312.000000)">
            <g id="pay_success_icn" transform="translate(423.000000, 1312.000000)">
                <mask id="mask-2" fill="white">
                    <use xlink:href="#path-1"></use>
                </mask>
                <g id="Clip-2"></g>
                <path d="M22.4423897,11.709149 L19.5073954,14.6678486 C19.4252829,14.7506243 19.317484,14.7922243 19.2096851,14.7922243 C19.1018861,14.7922243 18.9945083,14.7506243 18.9119747,14.6678486 L17.0878147,12.8289553 C16.9235898,12.6634039 16.9235898,12.3947014 17.0878147,12.2287255 C17.2524607,12.0627497 17.5190104,12.0627497 17.6832354,12.2287255 L19.2096851,13.767504 L21.846969,11.1089193 C22.0116151,10.9429435 22.2777437,10.9429435 22.4423897,11.1089193 C22.6070357,11.2748951 22.6070357,11.5431732 22.4423897,11.709149 M19.7651022,8.46179584 C17.4259496,8.46179584 15.5302044,10.3728526 15.5302044,12.7308979 C15.5302044,12.8484818 15.5382051,12.9643678 15.5474691,13.0798292 L1.85658391,13.0798292 C1.47128695,13.0798292 1.15799632,12.6952407 1.15799632,12.2223582 L1.15799632,7.58819417 L20.3697868,7.58819417 L20.3697868,4.55393528 L1.15799632,4.55393528 L1.15799632,2.02439573 C1.15799632,1.55151318 1.47128695,1.16734918 1.85658391,1.16734918 L18.5216247,1.16734918 C18.9069217,1.16734918 19.2206334,1.55151318 19.2206334,2.02439573 L19.2206334,3.57548442 L20.3786297,3.57548442 L20.3786297,2.02439573 C20.3786297,0.907985417 19.5457145,0 18.5216247,0 L1.85658391,0 C0.832915168,0 0,0.907985417 0,2.02439573 L0,12.2223582 C0,13.3387685 0.832915168,14.2471784 1.85658391,14.2471784 L15.810229,14.2471784 C16.4174401,15.8551488 17.9569436,17 19.7651022,17 C22.1038337,17 24,15.0885188 24,12.7308979 C24,10.3728526 22.1038337,8.46179584 19.7651022,8.46179584" id="Fill-1" fill="#231F20" mask="url(#mask-2)"></path>
            </g>
        </g>
    </g>
</svg>