<?xml version="1.0" encoding="UTF-8"?>
<svg width="18px" height="21px" viewBox="0 0 18 21" version="1.1" xmlns="http://www.w3.org/2000/svg" xmlns:xlink="http://www.w3.org/1999/xlink">
    <!-- Generator: Sketch 52.4 (67378) - http://www.bohemiancoding.com/sketch -->
    <title>Group 6</title>
    <desc>Created with Sketch.</desc>
    <defs>
        <polygon id="path-1" points="6.66666667e-05 0.616875 17.3773333 0.616875 17.3773333 20.9998688 6.66666667e-05 20.9998688"></polygon>
    </defs>
    <g id="Component-Library" stroke="none" stroke-width="1" fill="none" fill-rule="evenodd">
        <g id="Iconography" transform="translate(-425.000000, -1349.000000)">
            <g id="Group-6" transform="translate(425.000000, 1349.000000)">
                <g id="Group-3">
                    <mask id="mask-2" fill="white">
                        <use xlink:href="#path-1"></use>
                    </mask>
                    <g id="Clip-2"></g>
                    <path d="M16.2094,16.8497437 L13.7854,19.2358688 C13.6847333,19.3349625 13.5534,19.3841813 13.4214,19.3841813 C13.2900667,19.3841813 13.1580667,19.3349625 13.0574,19.2358688 L11.5507333,17.7527437 C11.3494,17.5545562 11.3494,17.23365 11.5507333,17.0361187 C11.7520667,16.8379312 12.0780667,16.8379312 12.2787333,17.0361187 L13.4214,18.1609313 L15.4814,16.1331187 C15.6820667,15.9349312 16.0080667,15.9349312 16.2094,16.1331187 C16.4107333,16.33065 16.4107333,16.6515562 16.2094,16.8497437 M13.8800667,14.1144938 C11.9767333,14.1144938 10.4320667,15.6114 10.3874,17.4744938 L9.98473333,17.8269 L8.13806667,16.2105563 C7.8694,15.976275 7.4654,15.9756188 7.1974,16.2105563 L5.34873333,17.8269 L3.49873333,16.2105563 C3.23073333,15.976275 2.82673333,15.976275 2.55873333,16.2105563 L1.41606667,17.2087125 L1.41606667,2.01061875 L13.9100667,2.01061875 L13.9100667,12.36165 C13.9100667,12.7468688 14.2274,13.0585875 14.6180667,13.0585875 C15.0094,13.0585875 15.3260667,12.7468688 15.3260667,12.36165 L15.3260667,1.31368125 C15.3260667,0.92911875 15.0094,0.61674375 14.6180667,0.61674375 L0.708066667,0.61674375 C0.3174,0.61674375 6.66666667e-05,0.92911875 6.66666667e-05,1.31368125 L6.66666667e-05,18.4293375 C6.66666667e-05,18.49365 0.0120666667,18.5553375 0.0287333333,18.6144 C-0.0172666667,18.8237438 0.0227333333,19.0494938 0.178733333,19.2220875 C0.438733333,19.5101813 0.886066667,19.535775 1.17806667,19.2804938 L3.02873333,17.6634938 L4.87873333,19.2804938 C5.14673333,19.514775 5.55073333,19.514775 5.8194,19.2804938 L7.6674,17.66415 L9.51406667,19.2804938 C9.78273333,19.514775 10.1867333,19.514775 10.4547333,19.2804938 L10.7334,19.0521188 C11.2994,20.2038375 12.4940667,20.9998688 13.8800667,20.9998688 C15.8114,20.9998688 17.3774,19.4589938 17.3774,17.5571813 C17.3774,15.656025 15.8114,14.1144938 13.8800667,14.1144938" id="Fill-1" fill="#231F20" mask="url(#mask-2)"></path>
                </g>
                <path d="M8.06520836,11.4481605 L8.06520836,9.7264214 C8.542157,9.92441472 8.70829295,10.1351171 8.70829295,10.5451505 C8.70829295,11.0943144 8.39125017,11.3397993 8.06520836,11.4481605 M6.37754396,7.43478261 C6.37754396,7.00200669 6.64889935,6.79397993 6.93479164,6.6916388 L6.93479164,8.04080268 C6.49730029,7.86889632 6.37754396,7.71371237 6.37754396,7.43478261 M10,10.5451505 C10,9.16588629 8.95611242,8.67558528 8.06520836,8.39531773 L8.06520836,6.71036789 C8.43624533,6.89966555 8.47777932,7.25685619 8.47777932,7.26220736 C8.47777932,7.60668896 8.76713277,7.88628763 9.12363284,7.88628763 C9.48013291,7.88628763 9.76948636,7.60668896 9.76948636,7.26220736 C9.76948636,6.58729097 9.22400665,5.62943144 8.06520836,5.39799331 L8.06520836,4.5458194 C8.06520836,4.24414716 7.81254326,4 7.50034612,4 C7.18745674,4 6.93479164,4.24414716 6.93479164,4.5458194 L6.93479164,5.40200669 C5.82375744,5.60535117 5.08583691,6.3819398 5.08583691,7.43478261 C5.08583691,8.67892977 6.06880797,9.10434783 6.93479164,9.36722408 L6.93479164,11.4361204 C6.60528866,11.322408 6.29170705,11.0722408 6.29170705,10.5270903 C6.29170705,10.1826087 6.00235359,9.90301003 5.64585352,9.90301003 C5.28935345,9.90301003 5,10.1826087 5,10.5270903 C5,11.8367893 5.90128755,12.5304348 6.93479164,12.7183946 L6.93479164,13.4541806 C6.93479164,13.7558528 7.18745674,14 7.50034612,14 C7.81254326,14 8.06520836,13.7558528 8.06520836,13.4541806 L8.06520836,12.7237458 C9.07448429,12.541806 10,11.8468227 10,10.5451505" id="Fill-4" fill="#231F20"></path>
            </g>
        </g>
    </g>
</svg>