<?xml version="1.0" encoding="UTF-8"?>
<svg width="33px" height="15px" viewBox="0 0 33 15" version="1.1" xmlns="http://www.w3.org/2000/svg" xmlns:xlink="http://www.w3.org/1999/xlink">
    <!-- Generator: Sketch 52.4 (67378) - http://www.bohemiancoding.com/sketch -->
    <title>sales_icn</title>
    <desc>Created with Sketch.</desc>
    <defs>
        <polygon id="path-1" points="0.194920619 0.185908613 20.4250725 0.185908613 20.4250725 14.4642857 0.194920619 14.4642857"></polygon>
    </defs>
    <g id="Component-Library" stroke="none" stroke-width="1" fill="none" fill-rule="evenodd">
        <g id="Iconography" transform="translate(-408.000000, -1545.000000)">
            <g id="sales_icn" transform="translate(408.000000, 1545.000000)">
                <path d="M9.70266865,2.30769231 L5.65940031,2.30769231 C5.36164024,2.30769231 5.12068966,2.04965035 5.12068966,1.73076923 C5.12068966,1.41188811 5.36164024,1.15384615 5.65940031,1.15384615 L9.70266865,1.15384615 C10.0004287,1.15384615 10.2413793,1.41188811 10.2413793,1.73076923 C10.2413793,2.04965035 10.0004287,2.30769231 9.70266865,2.30769231" id="Fill-1" fill="#000000"></path>
                <path d="M10.216441,5.19230769 L0.593903793,5.19230769 C0.265636969,5.19230769 0,4.93426573 0,4.61538462 C0,4.2965035 0.265636969,4.03846154 0.593903793,4.03846154 L10.216441,4.03846154 C10.5447079,4.03846154 10.8103448,4.2965035 10.8103448,4.61538462 C10.8103448,4.93426573 10.5447079,5.19230769 10.216441,5.19230769" id="Fill-3" fill="#000000"></path>
                <path d="M9.70266865,8.07692308 L5.65940031,8.07692308 C5.36164024,8.07692308 5.12068966,7.81888112 5.12068966,7.5 C5.12068966,7.18111888 5.36164024,6.92307692 5.65940031,6.92307692 L9.70266865,6.92307692 C10.0004287,6.92307692 10.2413793,7.18111888 10.2413793,7.5 C10.2413793,7.81888112 10.0004287,8.07692308 9.70266865,8.07692308" id="Fill-5" fill="#000000"></path>
                <g id="Group-9" transform="translate(12.517241, 0.000000)">
                    <mask id="mask-2" fill="white">
                        <use xlink:href="#path-1"></use>
                    </mask>
                    <g id="Clip-8"></g>
                    <path d="M20.4251979,3.76939286 L20.4251979,2.21490756 C20.4251979,1.09605252 19.5983633,0.185653361 18.5821676,0.185653361 L2.03878691,0.185653361 C1.02217326,0.185653361 0.194920619,1.09605252 0.194920619,2.21490756 L0.194920619,12.4352017 C0.194920619,13.5540567 1.02217326,14.4644559 2.03878691,14.4644559 L18.5508165,14.4644559 C19.5670121,14.4644559 20.3938467,13.5540567 20.3938467,12.4352017 L20.3938467,8.75446639 L19.2443042,8.75446639 L19.2443042,12.4352017 C19.2443042,12.9086943 18.9333006,13.2945504 18.5508165,13.2945504 L2.03878691,13.2945504 C1.65630274,13.2945504 1.34446319,12.9086943 1.34446319,12.4352017 L1.34446319,7.79131513 L20.4164196,7.79131513 L20.4164196,4.74956092 L1.34446319,4.74956092 L1.34446319,2.21490756 C1.34446319,1.7409895 1.65630274,1.35555882 2.03878691,1.35555882 L18.5821676,1.35555882 C18.9579635,1.35555882 19.2756553,1.74907248 19.2756553,2.21490756 L19.2756553,3.76939286 L20.4251979,3.76939286 Z" id="Fill-7" fill="#000000" mask="url(#mask-2)"></path>
                </g>
            </g>
        </g>
    </g>
</svg>