<?xml version="1.0" encoding="UTF-8"?>
<svg width="25px" height="15px" viewBox="0 0 25 15" version="1.1" xmlns="http://www.w3.org/2000/svg" xmlns:xlink="http://www.w3.org/1999/xlink">
    <!-- Generator: Sketch 52.4 (67378) - http://www.bohemiancoding.com/sketch -->
    <title>virtual_terminal_icn</title>
    <desc>Created with Sketch.</desc>
    <defs>
        <polygon id="path-1" points="0.0330707775 0.1312 7.9012 0.1312 7.9012 8 0.0330707775 8"></polygon>
        <polygon id="path-3" points="8.57142857e-05 0.336428571 20.8522286 0.336428571 20.8522286 14.8610143 8.57142857e-05 14.8610143"></polygon>
    </defs>
    <g id="Component-Library" stroke="none" stroke-width="1" fill="none" fill-rule="evenodd">
        <g id="Iconography" transform="translate(-423.000000, -1389.000000)">
            <g id="virtual_terminal_icn" transform="translate(423.000000, 1389.000000)">
                <g id="Group-3" transform="translate(17.000000, 7.000000)">
                    <mask id="mask-2" fill="white">
                        <use xlink:href="#path-1"></use>
                    </mask>
                    <g id="Clip-2"></g>
                    <path d="M7.69688421,6.80909474 L5.05183158,4.16404211 L7.02151579,3.57330526 C7.21730526,3.51477895 7.35456842,3.33793684 7.36298947,3.13372632 C7.37183158,2.92951579 7.24972632,2.74214737 7.05898947,2.66762105 L2.22067368,0.766568421 L0.687621053,0.164463158 L0.6872,0.164463158 C0.635410526,0.143831579 0.581936842,0.135831579 0.528042105,0.134147368 C0.522568421,0.134147368 0.517515789,0.1312 0.512463158,0.1312 C0.502357895,0.1312 0.492673684,0.136252632 0.482568421,0.137094737 C0.440042105,0.139621053 0.3992,0.147621053 0.358778947,0.161094737 C0.343621053,0.166568421 0.328884211,0.170778947 0.314147368,0.177515789 C0.262778947,0.201094737 0.214357895,0.230147368 0.172673684,0.271410526 C0.172673684,0.271410526 0.172673684,0.271410526 0.172673684,0.271831579 C0.139831579,0.304673684 0.112884211,0.341305263 0.0914105263,0.380884211 C0.0733052632,0.414147368 0.0619368421,0.449515789 0.0522526316,0.485305263 C0.0505684211,0.491621053 0.0472,0.497515789 0.0455157895,0.503831579 C0.0244631579,0.596042105 0.0295157895,0.694147368 0.0653052632,0.786357895 L2.56888421,7.15814737 C2.64130526,7.34214737 2.81856842,7.46214737 3.0152,7.46214737 C3.02151579,7.46214737 3.02867368,7.46214737 3.03498947,7.46172632 C3.2392,7.45330526 3.41604211,7.31646316 3.47456842,7.12025263 L3.62698947,6.61204211 L4.03414737,5.25414737 L4.06530526,5.15056842 L6.71035789,7.79562105 C6.84635789,7.93204211 7.02530526,8.00025263 7.20383158,8.00025263 C7.38193684,8.00025263 7.56046316,7.93204211 7.69688421,7.79562105 C7.96930526,7.5232 7.96930526,7.08109474 7.69688421,6.80909474" id="Fill-1" fill="#231F20" mask="url(#mask-2)"></path>
                </g>
                <g id="Group-6">
                    <mask id="mask-4" fill="white">
                        <use xlink:href="#path-3"></use>
                    </mask>
                    <g id="Clip-5"></g>
                    <path d="M1.98308571,13.4831571 C1.6548,13.4831571 1.37794286,13.1351571 1.37794286,12.7241571 L1.37794286,8.06601429 L15.8820857,8.06601429 C15.8340857,7.65758571 15.9703714,7.24187143 16.2699429,6.9423 C16.5279429,6.6843 16.8708,6.54244286 17.2355143,6.54244286 C17.4069429,6.54244286 17.5745143,6.57415714 17.7343714,6.63672857 L20.8522286,7.86158571 L20.8522286,5.01587143 L1.37794286,5.01587143 L1.37794286,2.47401429 C1.37794286,2.06215714 1.6548,1.71458571 1.98308571,1.71458571 L18.8683714,1.71458571 C19.1970857,1.71458571 19.4743714,2.06215714 19.4743714,2.47401429 L19.4743714,4.03272857 L20.8522286,4.03272857 L20.8522286,2.47401429 C20.8522286,1.29544286 19.9620857,0.3363 18.8683714,0.3363 L1.98308571,0.3363 C0.889371429,0.3363 8.57142857e-05,1.29544286 8.57142857e-05,2.47401429 L8.57142857e-05,12.7241571 C8.57142857e-05,13.9023 0.889371429,14.8610143 1.98308571,14.8610143 L18.5006571,14.8610143 L17.9589429,13.4831571 L1.98308571,13.4831571 Z" id="Fill-4" fill="#231F20" mask="url(#mask-4)"></path>
                </g>
            </g>
        </g>
    </g>
</svg>