<?xml version="1.0" encoding="UTF-8"?>
<svg width="15px" height="20px" viewBox="0 0 15 20" version="1.1" xmlns="http://www.w3.org/2000/svg" xmlns:xlink="http://www.w3.org/1999/xlink">
    <!-- Generator: Sketch 52.4 (67378) - http://www.bohemiancoding.com/sketch -->
    <title>Group 6</title>
    <desc>Created with Sketch.</desc>
    <defs>
        <polygon id="path-1" points="0 0.460645161 14.7155769 0.460645161 14.7155769 19.3548387 0 19.3548387"></polygon>
    </defs>
    <g id="Component-Library" stroke="none" stroke-width="1" fill="none" fill-rule="evenodd">
        <g id="Iconography" transform="translate(-621.000000, -1346.000000)">
            <g id="Group-6" transform="translate(621.000000, 1346.000000)">
                <g id="Group-3" transform="translate(0.000000, 0.184710)">
                    <mask id="mask-2" fill="white">
                        <use xlink:href="#path-1"></use>
                    </mask>
                    <g id="Clip-2"></g>
                    <path d="M13.6256538,17.1350323 C12.9523846,17.4395484 11.0116154,18.1356774 7.35796154,18.1356774 C3.70142308,18.1356774 1.76123077,17.4382581 1.08969231,17.1350323 L1.08969231,9.38470968 C1.76353846,9.08019355 3.70430769,8.38406452 7.35796154,8.38406452 C11.0145,8.38406452 12.9546923,9.08148387 13.6256538,9.38470968 L13.6256538,17.1350323 Z M14.4414231,8.46470968 C14.3583462,8.41116129 12.3506538,7.16470968 7.35796154,7.16470968 C6.55546154,7.16470968 5.83084615,7.1976129 5.17776923,7.25180645 L5.17776923,5.946 C5.17776923,4.60148387 6.15565385,3.50793548 7.35796154,3.50793548 C8.56026923,3.50793548 9.53815385,4.60148387 9.53815385,5.946 C9.53815385,6.28277419 9.78219231,6.55567742 10.0827692,6.55567742 C10.3839231,6.55567742 10.6279615,6.28277419 10.6279615,5.946 C10.6279615,3.92922581 9.16084615,2.28922581 7.35796154,2.28922581 C5.5545,2.28922581 4.08796154,3.92922581 4.08796154,5.946 L4.08796154,7.36987097 C3.89873077,7.39567742 3.71642308,7.42277419 3.54276923,7.45180645 L3.54276923,5.946 C3.54276923,3.59309677 5.25392308,1.67954839 7.35796154,1.67954839 C9.46142308,1.67954839 11.1731538,3.59309677 11.1731538,5.946 C11.1731538,6.28277419 11.4171923,6.55567742 11.7183462,6.55567742 C12.0189231,6.55567742 12.2629615,6.28277419 12.2629615,5.946 C12.2629615,2.92148387 10.0625769,0.460193548 7.35796154,0.460193548 C4.65334615,0.460193548 2.45238462,2.92148387 2.45238462,5.946 L2.45238462,7.67116129 C0.984115385,8.02277419 0.321230769,8.4343871 0.2745,8.46470968 C0.104884615,8.57309677 -0.000115384615,8.7743871 -0.000115384615,8.99309677 L-0.000115384615,17.526 C-0.000115384615,17.7453548 0.104884615,17.9472903 0.2745,18.0556774 C0.357576923,18.1085806 2.36526923,19.3550323 7.35796154,19.3550323 C12.3506538,19.3550323 14.3583462,18.1085806 14.4414231,18.0556774 C14.6110385,17.9472903 14.7160385,17.7453548 14.7160385,17.526 L14.7160385,8.99309677 C14.7160385,8.7743871 14.6110385,8.57309677 14.4414231,8.46470968 Z" id="Fill-1" fill="#000000" mask="url(#mask-2)"></path>
                </g>
                <path d="M6.50059615,14.4656774 C6.50117308,14.4656774 6.50117308,14.4656774 6.50175,14.4656774 C6.50117308,14.4656774 6.50117308,14.4656774 6.50059615,14.4656774 M8.20828846,14.4682581 C8.20713462,14.4689032 8.20598077,14.4695484 8.20482692,14.4701935 C8.20598077,14.4695484 8.20713462,14.4689032 8.20828846,14.4682581 M7.13636538,15.8824516 L7.57828846,15.8824516 C7.38617308,13.532129 7.41559615,13.5185806 7.78194231,13.3469677 C8.18578846,13.156 8.44771154,12.716 8.44771154,12.2256774 C8.44771154,11.5534194 7.95905769,11.0069677 7.35790385,11.0069677 C6.75675,11.0069677 6.26809615,11.5534194 6.26809615,12.2256774 C6.26809615,12.7134194 6.52771154,13.1527742 6.93040385,13.3450323 C7.29444231,13.5192258 7.32328846,13.5327742 7.13636538,15.8824516 M8.17540385,17.1011613 L6.53982692,17.1011613 C6.38694231,17.1011613 6.24098077,17.0295484 6.13771154,16.9030968 C6.03444231,16.7772903 5.98367308,16.6076129 5.99751923,16.4372903 C6.06271154,15.6230968 6.12963462,14.7314839 6.15905769,14.2605161 C5.55271154,13.8147097 5.17771154,13.0547097 5.17771154,12.2256774 C5.17771154,10.8811613 6.15559615,9.7876129 7.35790385,9.7876129 C8.56021154,9.7876129 9.53809615,10.8811613 9.53809615,12.2256774 C9.53809615,13.0585806 9.16078846,13.8192258 8.55155769,14.2637419 C8.58271154,14.736 8.65136538,15.6237419 8.71828846,16.436 C8.73271154,16.6063226 8.68136538,16.776 8.57867308,16.9024516 C8.47482692,17.0295484 8.32886538,17.1011613 8.17540385,17.1011613" id="Fill-4" fill="#000000"></path>
            </g>
        </g>
    </g>
</svg>