<?xml version="1.0" encoding="UTF-8"?>
<svg width="20px" height="14px" viewBox="0 0 20 14" version="1.1" xmlns="http://www.w3.org/2000/svg" xmlns:xlink="http://www.w3.org/1999/xlink">
    <!-- Generator: Sketch 52.4 (67378) - http://www.bohemiancoding.com/sketch -->
    <title>Group 3</title>
    <desc>Created with Sketch.</desc>
    <defs>
        <polygon id="path-1" points="0 0 20 0 20 14 0 14"></polygon>
    </defs>
    <g id="Component-Library" stroke="none" stroke-width="1" fill="none" fill-rule="evenodd">
        <g id="Iconography" transform="translate(-619.000000, -1389.000000)">
            <g id="Group-3" transform="translate(619.000000, 1389.000000)">
                <mask id="mask-2" fill="white">
                    <use xlink:href="#path-1"></use>
                </mask>
                <g id="Clip-2"></g>
                <path d="M18.3869999,12.6924229 L1.6130001,12.6924229 C1.43548333,12.6924229 1.28999967,12.5463853 1.28999967,12.3658666 L1.28999967,7.84275849 L18.709333,7.84275849 L18.709333,12.3658666 C18.709333,12.5463853 18.5645167,12.6924229 18.3869999,12.6924229 Z M1.6130001,1.30690105 L18.3869999,1.30690105 C18.5645167,1.30690105 18.709333,1.45293862 18.709333,1.63345728 L18.709333,3.26759067 L1.28999967,3.26759067 L1.28999967,1.63345728 C1.28999967,1.45293862 1.43548333,1.30690105 1.6130001,1.30690105 Z M1.28999967,6.53585744 L18.709333,6.53585744 L18.709333,4.57516782 L1.28999967,4.57516782 L1.28999967,6.53585744 Z M18.3869999,0 L1.6130001,0 C0.723414195,0 0,0.732892259 0,1.63345728 L0,12.3658666 C0,13.2671077 0.723414195,14 1.6130001,14 L18.3869999,14 C19.2765858,14 20,13.2671077 20,12.3658666 L20,1.63345728 C20,0.732892259 19.2765858,0 18.3869999,0 Z" id="Fill-1" fill="#000000" mask="url(#mask-2)"></path>
            </g>
        </g>
    </g>
</svg>