<?xml version="1.0" encoding="UTF-8"?>
<svg width="20px" height="18px" viewBox="0 0 20 18" version="1.1" xmlns="http://www.w3.org/2000/svg" xmlns:xlink="http://www.w3.org/1999/xlink">
    <!-- Generator: Sketch 52.4 (67378) - http://www.bohemiancoding.com/sketch -->
    <title>Group 8</title>
    <desc>Created with Sketch.</desc>
    <defs>
        <polygon id="path-1" points="0 0.4068 19.8346154 0.4068 19.8346154 17.25 0 17.25"></polygon>
    </defs>
    <g id="Component-Library" stroke="none" stroke-width="1" fill="none" fill-rule="evenodd">
        <g id="Iconography" transform="translate(-619.000000, -1425.000000)">
            <g id="Group-8" transform="translate(619.000000, 1425.000000)">
                <g id="Group-3" transform="translate(0.000000, 0.343500)">
                    <mask id="mask-2" fill="white">
                        <use xlink:href="#path-1"></use>
                    </mask>
                    <g id="Clip-2"></g>
                    <path d="M1.75061538,16.0023 L18.0836923,16.0023 L9.91753846,2.27355 L1.75061538,16.0023 Z M19.1952308,17.2503 L0.639846154,17.2503 C0.410615385,17.2503 0.199846154,17.13105 0.0852307692,16.93755 C-0.0286153846,16.74405 -0.0286153846,16.5063 0.086,16.31355 L9.36369231,0.7173 C9.47830769,0.5253 9.68907692,0.4068 9.91753846,0.4068 C10.1452308,0.4068 10.3567692,0.5253 10.4706154,0.7173 L19.7483077,16.31355 C19.8629231,16.5063 19.8636923,16.74405 19.7490769,16.93755 C19.6352308,17.13105 19.4236923,17.2503 19.1952308,17.2503 Z" id="Fill-1" fill="#000000" mask="url(#mask-2)"></path>
                </g>
                <path d="M9.91730769,12.914775 C9.56423077,12.914775 9.27730769,12.635025 9.27730769,12.290775 L9.27730769,6.364275 C9.27730769,6.020025 9.56423077,5.741025 9.91730769,5.741025 C10.2703846,5.741025 10.5573077,6.020025 10.5573077,6.364275 L10.5573077,12.290775 C10.5573077,12.635025 10.2703846,12.914775 9.91730769,12.914775" id="Fill-4" fill="#000000"></path>
                <path d="M10.7165385,14.547375 C10.7165385,14.977875 10.3588462,15.326625 9.91730769,15.326625 C9.47576923,15.326625 9.11807692,14.977875 9.11807692,14.547375 C9.11807692,14.116875 9.47576923,13.768125 9.91730769,13.768125 C10.3588462,13.768125 10.7165385,14.116875 10.7165385,14.547375" id="Fill-6" fill="#000000"></path>
            </g>
        </g>
    </g>
</svg>