<?xml version="1.0" encoding="UTF-8"?>
<svg width="20px" height="23px" viewBox="0 0 20 23" version="1.1" xmlns="http://www.w3.org/2000/svg" xmlns:xlink="http://www.w3.org/1999/xlink">
    <!-- Generator: Sketch 52.4 (67378) - http://www.bohemiancoding.com/sketch -->
    <title>Group 9</title>
    <desc>Created with Sketch.</desc>
    <defs>
        <polygon id="path-1" points="0.14752 0.411144828 9.4592 0.411144828 9.4592 8.72366207 0.14752 8.72366207"></polygon>
        <polygon id="path-3" points="0.00032 0.465551724 16.00352 0.465551724 16.00352 19.9002345 0.00032 19.9002345"></polygon>
    </defs>
    <g id="Component-Library" stroke="none" stroke-width="1" fill="none" fill-rule="evenodd">
        <g id="Iconography" transform="translate(-622.000000, -1505.000000)">
            <g id="Group-9" transform="translate(622.000000, 1505.000000)">
                <g id="Group-3" transform="translate(10.400000, 13.810390)">
                    <mask id="mask-2" fill="white">
                        <use xlink:href="#path-1"></use>
                    </mask>
                    <g id="Clip-2"></g>
                    <path d="M9.17872,2.62628276 C8.89712,2.45021379 8.52832,2.53507586 8.35152,2.81345517 L8.22272,3.01648966 C7.60032,1.49214483 6.09792,0.411144828 4.34032,0.411144828 C2.02832,0.411144828 0.14752,2.27652414 0.14752,4.5678 C0.14752,6.85986897 2.02832,8.72366207 4.34032,8.72366207 C5.56432,8.72366207 6.72432,8.19545517 7.52112,7.27466207 C7.73712,7.02562759 7.70832,6.65048966 7.45712,6.43635172 C7.20512,6.22221379 6.82672,6.25076552 6.61152,6.5005931 C6.04192,7.15728276 5.21392,7.5340069 4.34032,7.5340069 C2.68992,7.5340069 1.34752,6.20397241 1.34752,4.5678 C1.34752,2.93242069 2.68992,1.6008 4.34032,1.6008 C5.59232,1.6008 6.66352,2.36931724 7.10992,3.45428276 L6.68672,3.19097241 C6.40512,3.01728276 6.03472,3.10055862 5.85952,3.37893793 C5.68352,3.65731724 5.76832,4.02452414 6.04912,4.1990069 L7.58032,5.15152414 C7.67952,5.2125931 7.78992,5.24193793 7.89872,5.24193793 C8.09792,5.24193793 8.29312,5.1435931 8.40752,4.96276552 L9.36752,3.44555862 C9.54432,3.16797241 9.45952,2.80076552 9.17872,2.62628276" id="Fill-1" fill="#231F20" mask="url(#mask-2)"></path>
                </g>
                <g id="Group-6" transform="translate(0.000000, 0.327631)">
                    <mask id="mask-4" fill="white">
                        <use xlink:href="#path-3"></use>
                    </mask>
                    <g id="Clip-5"></g>
                    <path d="M9.02672,19.9002345 L0.80032,19.9002345 C0.35872,19.9002345 0.00032,19.5457172 0.00032,19.107131 L0.00032,1.25833793 C0.00032,0.819751724 0.35872,0.465234483 0.80032,0.465234483 L15.20352,0.465234483 C15.64512,0.465234483 16.00352,0.819751724 16.00352,1.25833793 L16.00352,12.0651655 C16.00352,12.5037517 15.64512,12.858269 15.20352,12.858269 C14.76192,12.858269 14.40352,12.5037517 14.40352,12.0651655 L14.40352,2.05144138 L1.60032,2.05144138 L1.60032,18.3140276 L9.02672,18.3140276 C9.46832,18.3140276 9.82672,18.6685448 9.82672,19.107131 C9.82672,19.5457172 9.46832,19.9002345 9.02672,19.9002345" id="Fill-4" fill="#231F20" mask="url(#mask-4)"></path>
                </g>
                <path d="M8.65488,13.4132828 L8.65488,11.3718345 C9.20608,11.6065931 9.39808,11.8564207 9.39808,12.3425931 C9.39808,12.993731 9.03168,13.2848 8.65488,13.4132828 M6.70448,8.65466207 C6.70448,8.14152414 7.01808,7.89486897 7.34848,7.77352414 L7.34848,9.37321379 C6.84288,9.16938621 6.70448,8.98538621 6.70448,8.65466207 M10.89088,12.3425931 C10.89088,10.7072138 9.68448,10.125869 8.65488,9.79355862 L8.65488,7.79573103 C9.08368,8.02017931 9.13168,8.44369655 9.13168,8.45004138 C9.13168,8.85848966 9.46608,9.1900069 9.87808,9.1900069 C10.29008,9.1900069 10.62448,8.85848966 10.62448,8.45004138 C10.62448,7.6498 9.99408,6.51407586 8.65488,6.23966207 L8.65488,5.22924828 C8.65488,4.87155862 8.36288,4.58207586 8.00208,4.58207586 C7.64128,4.58207586 7.34848,4.87155862 7.34848,5.22924828 L7.34848,6.24442069 C6.06448,6.48552414 5.21168,7.40631724 5.21168,8.65466207 C5.21168,10.1298345 6.34768,10.6342483 7.34848,10.9459379 L7.34848,13.3990069 C6.96768,13.2641793 6.60528,12.9675586 6.60528,12.3211793 C6.60528,11.912731 6.27088,11.5812138 5.85888,11.5812138 C5.44688,11.5812138 5.11248,11.912731 5.11248,12.3211793 C5.11248,13.8740759 6.15408,14.6965241 7.34848,14.9193862 L7.34848,15.7918 C7.34848,16.1494897 7.64128,16.4389724 8.00208,16.4389724 C8.36288,16.4389724 8.65488,16.1494897 8.65488,15.7918 L8.65488,14.925731 C9.82128,14.7100069 10.89088,13.8859724 10.89088,12.3425931" id="Fill-7" fill="#231F20"></path>
            </g>
        </g>
    </g>
</svg>