<?xml version="1.0" encoding="UTF-8"?>
<svg width="22px" height="20px" viewBox="0 0 22 20" version="1.1" xmlns="http://www.w3.org/2000/svg" xmlns:xlink="http://www.w3.org/1999/xlink">
    <!-- Generator: Sketch 52.4 (67378) - http://www.bohemiancoding.com/sketch -->
    <title>Group 3</title>
    <desc>Created with Sketch.</desc>
    <defs>
        <polygon id="path-1" points="0 0 22 0 22 20 0 20"></polygon>
    </defs>
    <g id="Component-Library" stroke="none" stroke-width="1" fill="none" fill-rule="evenodd">
        <g id="Iconography" transform="translate(-619.000000, -1467.000000)">
            <g id="Group-3" transform="translate(619.000000, 1467.000000)">
                <mask id="mask-2" fill="white">
                    <use xlink:href="#path-1"></use>
                </mask>
                <g id="Clip-2"></g>
                <path d="M7.80645161,20 C7.61554839,20 7.42890323,19.9255166 7.29264516,19.7862051 L0.195870968,12.5447662 C-0.0652903226,12.2785571 -0.0652903226,11.859933 0.195870968,11.5937239 L7.29264516,4.35228499 C7.49277419,4.14745572 7.80077419,4.0826276 8.06974194,4.18745605 C8.33941935,4.2922845 8.51612903,4.54539003 8.51612903,4.82746132 L8.51612903,9.31025684 L14.1935484,9.31025684 C14.5852903,9.31025684 14.9032258,9.6192249 14.9032258,9.99991769 L14.9032258,13.4482219 L20.3102581,7.93093514 L14.9032258,2.41364835 L14.9032258,5.86195259 C14.9032258,6.24264538 14.5852903,6.55161344 14.1935484,6.55161344 L10.6451613,6.55161344 C10.2534194,6.55161344 9.93548387,6.24264538 9.93548387,5.86195259 C9.93548387,5.4812598 10.2534194,5.17229174 10.6451613,5.17229174 L13.483871,5.17229174 L13.483871,0.689496224 C13.483871,0.407424936 13.6605806,0.154319405 13.9295484,0.0494909556 C14.1992258,-0.0553374934 14.5072258,0.00949062639 14.7073548,0.214319899 L21.804129,7.45575881 C22.0652903,7.7219679 22.0652903,8.14059204 21.804129,8.40680113 L14.7073548,15.64824 C14.5072258,15.8523797 14.1992258,15.9178974 13.9295484,15.813069 C13.6605806,15.7082405 13.483871,15.4544453 13.483871,15.1723741 L13.483871,10.6895785 L7.80645161,10.6895785 C7.41470968,10.6895785 7.09677419,10.3806105 7.09677419,9.99991769 L7.09677419,6.55161344 L1.68974194,12.0689002 L7.09677419,17.586187 L7.09677419,14.1378828 C7.09677419,13.75719 7.41470968,13.4482219 7.80645161,13.4482219 L11.3548387,13.4482219 C11.7465806,13.4482219 12.0645161,13.75719 12.0645161,14.1378828 C12.0645161,14.5185756 11.7465806,14.8275436 11.3548387,14.8275436 L8.51612903,14.8275436 L8.51612903,19.3103392 C8.51612903,19.5924104 8.33941935,19.8462056 8.06974194,19.9510341 C7.98458065,19.9841378 7.89516129,20 7.80645161,20" id="Fill-1" fill="#000000" mask="url(#mask-2)"></path>
            </g>
        </g>
    </g>
</svg>