<?xml version="1.0" encoding="UTF-8"?>
<svg width="18px" height="20px" viewBox="0 0 18 20" version="1.1" xmlns="http://www.w3.org/2000/svg" xmlns:xlink="http://www.w3.org/1999/xlink">
    <!-- Generator: Sketch 52.4 (67378) - http://www.bohemiancoding.com/sketch -->
    <title>Group 6</title>
    <desc>Created with Sketch.</desc>
    <defs>
        <polygon id="path-1" points="0.000257142857 0.0446666667 17.4105 0.0446666667 17.4105 19.3333333 0.000257142857 19.3333333"></polygon>
    </defs>
    <g id="Component-Library" stroke="none" stroke-width="1" fill="none" fill-rule="evenodd">
        <g id="Iconography" transform="translate(-619.000000, -1307.000000)">
            <g id="Group-6" transform="translate(619.000000, 1307.000000)">
                <g id="Group-3" transform="translate(0.000000, 0.622067)">
                    <mask id="mask-2" fill="white">
                        <use xlink:href="#path-1"></use>
                    </mask>
                    <g id="Clip-2"></g>
                    <path d="M1.35668571,13.2963333 L8.70518571,17.8116667 L16.0536857,13.2963333 L16.0536857,6.08166667 L8.70518571,1.56566667 L1.35668571,6.08166667 L1.35668571,13.2963333 Z M8.70518571,19.3336667 C8.58561429,19.3336667 8.46604286,19.3003333 8.35932857,19.235 L0.332614286,14.3023333 C0.126257143,14.1756667 0.000257142857,13.9456667 0.000257142857,13.697 L0.000257142857,5.681 C0.000257142857,5.43233333 0.126257143,5.20233333 0.332614286,5.07566667 L8.35932857,0.143 C8.57275714,0.0116666667 8.83761429,0.0116666667 9.05104286,0.143 L17.0784,5.07566667 C17.2841143,5.20233333 17.4107571,5.43233333 17.4107571,5.681 L17.4107571,13.697 C17.4107571,13.9456667 17.2841143,14.1756667 17.0784,14.3023333 L9.05104286,19.235 C8.94432857,19.3003333 8.82475714,19.3336667 8.70518571,19.3336667 Z" id="Fill-1" fill="#000000" mask="url(#mask-2)"></path>
                </g>
                <path d="M15.02685,7.46006667 C14.8532786,7.11606667 14.4437786,6.98273333 14.1114214,7.1634 L8.70563571,10.1007333 L3.29920714,7.1634 C2.96685,6.98273333 2.55735,7.11606667 2.38377857,7.46006667 C2.20956429,7.80406667 2.33749286,8.2294 2.66920714,8.4094 L8.02677857,11.3207333 L8.02677857,16.3454 C8.02677857,16.7340667 8.33020714,17.0487333 8.70563571,17.0487333 C9.08042143,17.0487333 9.38385,16.7340667 9.38385,16.3454 L9.38385,11.3207333 L14.7407786,8.4094 C15.0724929,8.2294 15.2010643,7.80406667 15.02685,7.46006667" id="Fill-4" fill="#000000"></path>
            </g>
        </g>
    </g>
</svg>