<svg xmlns="http://www.w3.org/2000/svg" width="350" height="350" viewBox="0 0 350 350">
    <g fill="none" fill-rule="evenodd">
        <path fill="#E4EBEF" d="M350 175C350 78.35 271.65 0 175 0S0 78.35 0 175s78.35 175 175 175 175-78.35 175-175"/>
        <path fill="#FFF" d="M270.235 107.152v146.357a6.732 6.732 0 0 1-6.732 6.731H128.1a6.732 6.732 0 0 1-6.732-6.731V80.889a6.732 6.732 0 0 1 6.732-6.732h104.552"/>
        <path fill="#4A4A4A" d="M271.588 107.891l-37.216-33.735v33.735z"/>
        <path stroke="#231F1F" stroke-linecap="round" stroke-linejoin="round" stroke-width="5" d="M139.2 158.807h61.95M139.2 112.624h73.998M139.2 126.997h61.95M139.2 143.744h73.998"/>
        <path fill="#58A1AC" d="M198.013 243.976H73.977a1.218 1.218 0 0 1-1.215-1.215v-57.967c0-.668.546-1.215 1.215-1.215h124.036c.668 0 1.215.547 1.215 1.215v57.967c0 .67-.547 1.215-1.215 1.215"/>
        <path fill="#E11D3E" d="M112.85 131.055H92.89v-8.85a.366.366 0 0 0-.55-.318l-26.377 15.229a.367.367 0 0 0 0 .635L92.34 152.98a.366.366 0 0 0 .55-.317v-8.851h19.96v-12.757zM206.69 220.616h21.399v9.49c0 .302.327.49.59.34l28.279-16.328a.393.393 0 0 0 0-.68l-28.28-16.327a.393.393 0 0 0-.59.34v9.489H206.69v13.676z"/>
        <path fill="#FFF" d="M158.33 213.778c0 12.335-10.001 22.334-22.335 22.334-12.336 0-22.335-9.999-22.335-22.334 0-12.335 9.999-22.336 22.335-22.336 12.334 0 22.335 10.001 22.335 22.336M182.376 213.778a5.781 5.781 0 1 1-11.563 0 5.781 5.781 0 0 1 11.563 0M102.528 213.778a5.78 5.78 0 1 1-11.561 0 5.78 5.78 0 0 1 11.561 0"/>
        <path fill="#58A1AC" d="M134.708 197.845h2.572v3.675c3.776.502 6.483 3.04 6.483 7.084h-5.58c0-1.237-.702-2.139-2.406-2.139-1.503 0-2.438.734-2.438 1.837 0 .435.133 1.27 2.138 1.872l2.638.835c6.047 1.87 6.382 5.379 6.382 7.015 0 4.544-3.675 6.548-7.217 6.916v4.01h-2.572v-3.977c-4.41-.434-7.216-3.107-7.216-7.082h5.645c.067 1.236.903 2.239 2.84 2.239 1.437 0 2.84-.636 2.84-2.072 0-.368 0-1.137-2.305-1.905l-2.706-.901c-5.146-1.404-6.013-4.678-6.013-6.783 0-3.841 2.873-6.548 6.915-6.982v-3.642z"/>
    </g>
</svg>
