<svg xmlns="http://www.w3.org/2000/svg" xmlns:xlink="http://www.w3.org/1999/xlink" width="349" height="350" viewBox="0 0 349 350">
    <defs>
        <path id="a" d="M5.572.535A4.925 4.925 0 0 0 .647 5.458v109.228a4.924 4.924 0 0 0 4.925 4.923h53.49a4.923 4.923 0 0 0 4.925-4.923V5.458A4.924 4.924 0 0 0 59.063.535H5.573z"/>
        <path id="c" d="M1.174 79.754h50.178V.597H1.174z"/>
        <path id="e" d="M.333 5.361a5.341 5.341 0 1 0 10.683.002A5.341 5.341 0 0 0 .333 5.361z"/>
    </defs>
    <g fill="none" fill-rule="evenodd">
        <path fill="#E4EBEF" d="M348.933 174.942c0 96.315-78.08 174.394-174.395 174.394C78.223 349.336.144 271.257.144 174.942.144 78.626 78.223.547 174.538.547c96.315 0 174.395 78.08 174.395 174.395z"/>
        <path fill="#58A1AC" d="M79.271 234.71h164.093V127.356H79.271z"/>
        <path fill="#000" d="M143.612 235.198h35.311v-75.294h-35.311z"/>
        <path fill="#FFF" d="M94.653 194.483h35.311v-34.579H94.653zM193.335 194.483h35.311v-34.579h-35.311z"/>
        <path fill="#000" d="M254.73 127.356H67.367a.12.12 0 0 1-.115-.16l11.797-35.11a.122.122 0 0 1 .115-.08h163.787c.052 0 .098.032.115.081l11.779 35.11a.121.121 0 0 1-.115.16"/>
        <path fill="#000" d="M67.245 127.356c0 7.364 5.97 13.333 13.333 13.333 7.364 0 13.334-5.97 13.334-13.333H67.245zM94.069 127.356c0 7.364 5.969 13.333 13.332 13.333 7.364 0 13.334-5.97 13.334-13.333H94.07zM120.892 127.356c0 7.364 5.97 13.333 13.333 13.333s13.334-5.97 13.334-13.333h-26.667zM147.715 127.356c0 7.364 5.97 13.333 13.333 13.333s13.333-5.97 13.333-13.333h-26.666zM174.538 127.356c0 7.364 5.97 13.333 13.333 13.333 7.364 0 13.334-5.97 13.334-13.333h-26.667zM201.361 127.356c0 7.364 5.97 13.333 13.333 13.333 7.365 0 13.334-5.97 13.334-13.333h-26.667zM228.185 127.356c0 7.364 5.97 13.333 13.332 13.333 7.365 0 13.334-5.97 13.334-13.333h-26.666z"/>
        <path fill="#FFF" d="M174.38 197.552a3.068 3.068 0 1 1-6.134 0 3.068 3.068 0 0 1 6.135 0"/>
        <g transform="translate(216.993 151.413)">
            <mask id="b" fill="#fff">
                <use xlink:href="#a"/>
            </mask>
            <path fill="#060706" d="M-2.32 122.578h69.277V-2.432H-2.32z" mask="url(#b)"/>
        </g>
        <g transform="translate(223.048 167.157)">
            <mask id="d" fill="#fff">
                <use xlink:href="#c"/>
            </mask>
            <path fill="#F4F6F6" d="M-1.795 82.722H54.32V-2.37H-1.795z" mask="url(#d)"/>
        </g>
        <path fill="#FFF" d="M256.267 160.34h-13.913a1.078 1.078 0 1 1 0-2.159h13.913a1.08 1.08 0 0 1 0 2.158"/>
        <g transform="translate(243.637 253.144)">
            <mask id="f" fill="#fff">
                <use xlink:href="#e"/>
            </mask>
            <path fill="#FFF" d="M-2.635 13.672h16.62v-16.62h-16.62z" mask="url(#f)"/>
        </g>
        <path fill="#E31837" d="M251.386 186.294v4.242c4.358.588 7.5 3.572 7.5 8.167h-5.733c0-1.806-1.218-3.063-3.496-3.063-2.003 0-3.494 1.1-3.494 2.71 0 .705.274 2.002 2.905 2.748l3.221 1.021c6.557 1.885 7.499 5.576 7.422 8.168-.08 4.87-4.045 7.421-8.325 7.852v4.517h-2.867v-4.517c-5.106-.51-8.364-3.808-8.364-8.284h5.772c.079 1.728 1.452 3.26 4.045 3.26 2.317 0 3.927-1.101 3.965-2.868.04-1.217-.51-2.278-3.259-3.062l-3.259-.903c-5.969-1.847-6.989-5.341-6.989-7.775 0-4.438 3.494-7.54 8.089-8.011v-4.202h2.867z"/>
    </g>
</svg>
