<?xml version="1.0" encoding="UTF-8" standalone="no"?>
<svg width="54px" height="52px" viewBox="0 0 54 52" version="1.1" xmlns="http://www.w3.org/2000/svg" xmlns:xlink="http://www.w3.org/1999/xlink">
    <!-- Generator: Sketch 43.2 (39069) - http://www.bohemiancoding.com/sketch -->
    <title>card-view-icon-hover</title>
    <desc>Created with Sketch.</desc>
    <defs></defs>
    <g id="Page-1" stroke="none" stroke-width="1" fill="none" fill-rule="evenodd">
        <g id="Module-Library" transform="translate(-950.000000, -146.000000)">
            <g id="view-toggle-copy" transform="translate(950.000000, 146.000000)">
                <g id="card-view-icon-hover">
                    <path d="M0,2.00659927 C0,0.898385094 0.892217249,1.10105791e-13 2.00209026,1.10472744e-13 C2.00209026,1.10472744e-13 54,1.13672145e-13 54,3.75462692e-13 C54,6.37253238e-13 54,52 54,52 C54,52 2.00209026,52 2.00209026,52 C0.896366344,52 0,51.0974426 0,49.9934007 L0,2.00659927 Z" id="Rectangle-2" fill="#F9F9F9"></path>
                    <path d="M30,28 L38,28 L38,36 L30,36 L30,28 Z M30,16 L38,16 L38,24 L30,24 L30,16 Z M16,28 L24,28 L24,36 L16,36 L16,28 Z M16,16 L24,16 L24,24 L16,24 L16,16 Z" id="Grid---Disabled" fill="#E31837"></path>
                </g>
            </g>
        </g>
    </g>
</svg>