<?xml version="1.0" encoding="UTF-8" standalone="no"?>
<svg width="27px" height="24px" viewBox="0 0 27 24" version="1.1" xmlns="http://www.w3.org/2000/svg" xmlns:xlink="http://www.w3.org/1999/xlink">
    <!-- Generator: Sketch 45.1 (43504) - http://www.bohemiancoding.com/sketch -->
    <title>shopping-cart-icon</title>
    <desc>Created with Sketch.</desc>
    <defs></defs>
    <g id="Symbols" stroke="none" stroke-width="1" fill="none" fill-rule="evenodd">
        <g id="Sticky-Nav/Publications---Desktop" transform="translate(-812.000000, -32.000000)" fill="#B0B4B9">
            <g id="Group-7">
                <path d="M831.8,51.8 C832.4744,51.8 833,52.3268 833,53 C833,53.6732 832.4744,54.2 831.8,54.2 C831.1256,54.2 830.6,53.6732 830.6,53 C830.6,52.3268 831.1256,51.8 831.8,51.8 L831.8,51.8 Z M822.8,51.8 C823.4732,51.8 824,52.3268 824,53 C824,53.6732 823.4732,54.2 822.8,54.2 C822.1268,54.2 821.6,53.6732 821.6,53 C821.6,52.3268 822.1268,51.8 822.8,51.8 L822.8,51.8 Z M831.8,50 C830.1536,50 828.8,51.3536 828.8,53 C828.8,54.6464 830.1536,56 831.8,56 C833.4464,56 834.8,54.6464 834.8,53 C834.8,51.3536 833.4464,50 831.8,50 L831.8,50 Z M822.8,50 C821.1536,50 819.8,51.3536 819.8,53 C819.8,54.6464 821.1536,56 822.8,56 C824.4464,56 825.8,54.6464 825.8,53 C825.8,51.3536 824.4464,50 822.8,50 L822.8,50 Z M819.0308,36.8 L836.966,36.8 L835.5692,42.8564 L821.8904,43.9436 L819.0308,36.8 Z M812.9,32 C812.4032,32 812,32.4032 812,32.9 C812,33.3968 812.4032,33.8 812.9,33.8 L815.8904,33.8 C817.3796,37.4888 818.8472,41.1848 820.3244,44.8808 L818.966,48.1532 C818.852,48.4256 818.8844,48.7544 819.0488,49.0004 C819.2132,49.2464 819.5048,49.4012 819.8,49.4 L834.8,49.4 C835.2752,49.406 835.7132,48.9752 835.7132,48.5 C835.7132,48.0248 835.2752,47.5928 834.8,47.6 L821.15,47.6 L821.9276,45.7436 L836.3756,44.5904 C836.7536,44.5604 837.0956,44.2664 837.1808,43.8968 L838.9808,36.0968 C839.0996,35.5712 838.6376,34.9988 838.1,35 L818.3096,35 L817.334,32.5628 C817.2008,32.2328 816.8564,32 816.5,32 L812.9,32 Z" id="shopping-cart-icon"></path>
            </g>
        </g>
    </g>
</svg>