<svg id="Layer_1" data-name="Layer 1" xmlns="http://www.w3.org/2000/svg" xmlns:xlink="http://www.w3.org/1999/xlink" viewBox="0 0 288 288"><defs><style>.cls-1,.cls-8{fill:#231f20;}.cls-1,.cls-2,.cls-3,.cls-5,.cls-7{clip-rule:evenodd;}.cls-2,.cls-4{fill:none;}.cls-16,.cls-3{fill:#4a4a4b;}.cls-30,.cls-32,.cls-5{fill:#4a4a4a;}.cls-12,.cls-6,.cls-7{fill:#e01d3e;}.cls-12,.cls-16,.cls-30,.cls-8{fill-rule:evenodd;}.cls-9{clip-path:url(#clip-path);}.cls-10{clip-path:url(#clip-path-2);}.cls-11{clip-path:url(#clip-path-3);}.cls-13{clip-path:url(#clip-path-4);}.cls-14{clip-path:url(#clip-path-5);}.cls-15{clip-path:url(#clip-path-6);}.cls-17{clip-path:url(#clip-path-7);}.cls-18{clip-path:url(#clip-path-8);}.cls-19{fill:#e4eaef;}.cls-20{clip-path:url(#clip-path-9);}.cls-21{fill:#060807;}.cls-22{clip-path:url(#clip-path-10);}.cls-23{fill:#a7a1ab;}.cls-24{isolation:isolate;}.cls-25{clip-path:url(#clip-path-11);}.cls-26{clip-path:url(#clip-path-12);}.cls-27{clip-path:url(#clip-path-13);}.cls-28{fill:#fefefe;}.cls-29{clip-path:url(#clip-path-14);}.cls-31{clip-path:url(#clip-path-15);}.cls-33{clip-path:url(#clip-path-16);}.cls-34{clip-path:url(#clip-path-17);}.cls-35{clip-path:url(#clip-path-18);}.cls-36{clip-path:url(#clip-path-19);}.cls-37{clip-path:url(#clip-path-20);}.cls-38{clip-path:url(#clip-path-21);}.cls-39{clip-path:url(#clip-path-22);}</style><clipPath id="clip-path"><path class="cls-1" d="M-553.06,232.34H-665a6.84,6.84,0,0,1-6.84-6.84V72.85A6.85,6.85,0,0,1-665,66h111.89a6.85,6.85,0,0,1,6.85,6.85V225.49a6.84,6.84,0,0,1-6.85,6.84"/></clipPath><clipPath id="clip-path-2"><rect class="cls-4" x="-657.05" y="79.95" width="96.16" height="135.76"/></clipPath><clipPath id="clip-path-3"><rect class="cls-6" x="-645.12" y="66.01" width="73.41" height="18.07"/></clipPath><clipPath id="clip-path-4"><path class="cls-7" d="M-595.26,61.34a13.92,13.92,0,0,1-13.92,13.92A13.92,13.92,0,0,1-623.1,61.34a13.92,13.92,0,0,1,13.92-13.92,13.92,13.92,0,0,1,13.92,13.92"/></clipPath><clipPath id="clip-path-5"><path class="cls-2" d="M-602.64,61.34a6.54,6.54,0,0,1-6.54,6.54,6.54,6.54,0,0,1-6.54-6.54,6.54,6.54,0,0,1,6.54-6.54,6.54,6.54,0,0,1,6.54,6.54"/></clipPath><clipPath id="clip-path-6"><path class="cls-2" d="M-489.83,110.45l-5.65-5.65a1.71,1.71,0,0,0-2.42,0l-5,5a1.71,1.71,0,0,0,0,2.42l5.66,5.65a1.71,1.71,0,0,0,2.42,0l5-5a1.71,1.71,0,0,0,0-2.42"/></clipPath><clipPath id="clip-path-7"><polygon class="cls-3" points="-579.18 194.15 -577.1 189.33 -574.36 192.07 -579.18 194.15"/></clipPath><clipPath id="clip-path-8"><rect class="cls-4" x="-502.92" y="109.24" width="5.87" height="11.42" transform="translate(-227.65 -319.83) rotate(-44.99)"/></clipPath><clipPath id="clip-path-9"><polygon class="cls-2" points="200.76 87.11 200.76 129.21 131.5 129.21 131.5 179.59 85.42 179.59 61.26 203.53 61.26 179.59 45.97 179.59 45.97 87.11 200.76 87.11"/></clipPath><clipPath id="clip-path-10"><polygon class="cls-2" points="200.5 179.3 131.23 179.3 131.23 200.05 198.76 200.05 216.85 217.98 216.85 200.05 234.44 200.05 234.44 128.91 200.5 128.91 200.5 179.3"/></clipPath><clipPath id="clip-path-11"><rect class="cls-4" x="130.68" y="128.24" width="70.13" height="51.15"/></clipPath><clipPath id="clip-path-12"><rect class="cls-4" x="131.23" y="128.91" width="69" height="50.1"/></clipPath><clipPath id="clip-path-13"><rect class="cls-4" x="-3.8" y="4.49" width="288.75" height="286.28"/></clipPath><clipPath id="clip-path-14"><path class="cls-2" d="M-154.47,935.84a78.59,78.59,0,0,0-78.59-78.59,78.58,78.58,0,0,0-78.58,78.59,78.58,78.58,0,0,0,78.58,78.58,78.59,78.59,0,0,0,78.59-78.58"/></clipPath><clipPath id="clip-path-15"><path class="cls-5" d="M-234.43,852.66h0A82.77,82.77,0,0,0-317,935.36a82.63,82.63,0,0,0,82.53,82.53,82.63,82.63,0,0,0,82.53-82.53A82.67,82.67,0,0,0-234.43,852.66ZM-231,964.84V938.75h33a138.2,138.2,0,0,1-3.9,30.84A124.52,124.52,0,0,0-231,964.84Zm17.45,43.22c6.78-7,12.54-17.12,16.44-29.83a120,120,0,0,1,18.64,8A74.83,74.83,0,0,1-213.58,1008.06ZM-231,1010.6v-39a129.35,129.35,0,0,1,27.28,4.57C-209.86,995.69-220,1008.4-231,1010.6Zm33.38-119.48c-3.9-12-9.49-21.86-15.93-28.64A75.4,75.4,0,0,1-179.69,883,90.15,90.15,0,0,1-197.66,891.13ZM-198,931.8h-33v-28a109.34,109.34,0,0,0,28.81-4.07A149.06,149.06,0,0,1-198,931.8Zm-33-34.91V859.95c10.67,2.2,20.67,14.41,26.77,33.22A100.11,100.11,0,0,1-231,896.89Zm72.19,41.86a75.49,75.49,0,0,1-15.08,42,127.72,127.72,0,0,0-21.35-9.32,153.83,153.83,0,0,0,4.24-32.7Zm0-7H-191a136.51,136.51,0,0,0-4.57-34.06,123.43,123.43,0,0,0,20.51-9.32A74,74,0,0,1-158.85,931.8Zm-114.9,39a114.85,114.85,0,0,0-21.18,10,75.45,75.45,0,0,1-15.08-42h32.2A159.06,159.06,0,0,0-273.75,970.78Zm-36.26-39a74.49,74.49,0,0,1,16.27-43.55,124.33,124.33,0,0,0,20.67,8.81A149.81,149.81,0,0,0-277.81,932H-310Zm38.13,45.76c3.9,13.05,9.66,23.55,16.61,30.5a74.84,74.84,0,0,1-35.08-21.86A101.2,101.2,0,0,1-271.88,977.55Zm1-38.81h33v25.93a120.82,120.82,0,0,0-29.32,4.07A141,141,0,0,1-270.87,938.75Zm33,32.7v39.15c-11.19-2.21-21.35-15.25-27.45-35.25A113.1,113.1,0,0,1-237.82,971.45Zm0-67.79V931.8h-33a145.4,145.4,0,0,1,4.4-32.88A129.5,129.5,0,0,0-237.82,903.67ZM-289,883a74.5,74.5,0,0,1,33.72-20.34c-6.44,6.61-11.86,16.1-15.76,28A133.81,133.81,0,0,1-289,883Zm51.18-23v36.77a121,121,0,0,1-26.61-4.41C-258.33,874.18-248.49,862.15-237.82,859.95Z"/></clipPath><clipPath id="clip-path-16"><polygon class="cls-2" points="-172.6 1023.72 -182.99 1018.71 -193.38 1023.72 -193.38 990.64 -172.6 990.64 -172.6 1023.72"/></clipPath><clipPath id="clip-path-17"><path class="cls-2" d="M-165.25,984A17.74,17.74,0,0,0-183,966.21,17.74,17.74,0,0,0-200.73,984,17.74,17.74,0,0,0-183,1001.69,17.74,17.74,0,0,0-165.25,984"/></clipPath><clipPath id="clip-path-18"><polygon class="cls-2" points="-182.33 974.43 -179.97 981.7 -172.32 981.7 -178.51 986.2 -176.15 993.47 -182.33 988.98 -188.51 993.47 -186.15 986.2 -192.34 981.7 -184.69 981.7 -182.33 974.43"/></clipPath><clipPath id="clip-path-19"><path class="cls-2" d="M-156.51,935.84a78.59,78.59,0,0,0-78.59-78.59,78.58,78.58,0,0,0-78.58,78.59,78.58,78.58,0,0,0,78.58,78.58,78.59,78.59,0,0,0,78.59-78.58"/></clipPath><clipPath id="clip-path-20"><polygon class="cls-2" points="-174.64 1023.72 -185.03 1018.71 -195.43 1023.72 -195.43 990.64 -174.64 990.64 -174.64 1023.72"/></clipPath><clipPath id="clip-path-21"><path class="cls-2" d="M-167.3,984A17.74,17.74,0,0,0-185,966.21,17.74,17.74,0,0,0-202.77,984,17.74,17.74,0,0,0-185,1001.69,17.74,17.74,0,0,0-167.3,984"/></clipPath><clipPath id="clip-path-22"><polygon class="cls-2" points="-184.37 974.43 -182.01 981.7 -174.36 981.7 -180.55 986.2 -178.19 993.47 -184.37 988.98 -190.56 993.47 -188.19 986.2 -194.38 981.7 -186.74 981.7 -184.37 974.43"/></clipPath></defs><title>Icon</title><path class="cls-8" d="M-553.06,232.34H-665a6.84,6.84,0,0,1-6.84-6.84V72.85A6.85,6.85,0,0,1-665,66h111.89a6.85,6.85,0,0,1,6.85,6.85V225.49a6.84,6.84,0,0,1-6.85,6.84"/><rect class="cls-6" x="-645.12" y="66.01" width="73.41" height="18.07"/><path class="cls-12" d="M-595.26,61.34a13.92,13.92,0,0,1-13.92,13.92A13.92,13.92,0,0,1-623.1,61.34a13.92,13.92,0,0,1,13.92-13.92,13.92,13.92,0,0,1,13.92,13.92"/><polygon class="cls-16" points="-579.18 194.15 -577.1 189.33 -574.36 192.07 -579.18 194.15"/><circle class="cls-19" cx="144" cy="144" r="144"/><g class="cls-20"><rect class="cls-21" x="41.84" y="82.99" width="163.04" height="124.67"/></g><g class="cls-22"><rect class="cls-23" x="127.11" y="124.79" width="111.46" height="97.32"/></g><g class="cls-24"><g class="cls-25"><g class="cls-26"><g class="cls-27"><rect class="cls-6" x="127.11" y="124.79" width="77.25" height="58.35"/></g></g><path class="cls-28" d="M181.2,143.44H143.77a2,2,0,0,1,0-4H181.2a2,2,0,1,1,0,4Z"/><path class="cls-28" d="M188.48,155.82H143.77a2,2,0,0,1,0-4h44.71a2,2,0,0,1,0,4Z"/><path class="cls-28" d="M181.2,168.19H143.77a2,2,0,0,1,0-4H181.2a2,2,0,1,1,0,4Z"/></g></g><path class="cls-30" d="M-234.43,852.66h0A82.77,82.77,0,0,0-317,935.36a82.63,82.63,0,0,0,82.53,82.53,82.63,82.63,0,0,0,82.53-82.53A82.67,82.67,0,0,0-234.43,852.66ZM-231,964.84V938.75h33a138.2,138.2,0,0,1-3.9,30.84A124.52,124.52,0,0,0-231,964.84Zm17.45,43.22c6.78-7,12.54-17.12,16.44-29.83a120,120,0,0,1,18.64,8A74.83,74.83,0,0,1-213.58,1008.06ZM-231,1010.6v-39a129.35,129.35,0,0,1,27.28,4.57C-209.86,995.69-220,1008.4-231,1010.6Zm33.38-119.48c-3.9-12-9.49-21.86-15.93-28.64A75.4,75.4,0,0,1-179.69,883,90.15,90.15,0,0,1-197.66,891.13ZM-198,931.8h-33v-28a109.34,109.34,0,0,0,28.81-4.07A149.06,149.06,0,0,1-198,931.8Zm-33-34.91V859.95c10.67,2.2,20.67,14.41,26.77,33.22A100.11,100.11,0,0,1-231,896.89Zm72.19,41.86a75.49,75.49,0,0,1-15.08,42,127.72,127.72,0,0,0-21.35-9.32,153.83,153.83,0,0,0,4.24-32.7Zm0-7H-191a136.51,136.51,0,0,0-4.57-34.06,123.43,123.43,0,0,0,20.51-9.32A74,74,0,0,1-158.85,931.8Zm-114.9,39a114.85,114.85,0,0,0-21.18,10,75.45,75.45,0,0,1-15.08-42h32.2A159.06,159.06,0,0,0-273.75,970.78Zm-36.26-39a74.49,74.49,0,0,1,16.27-43.55,124.33,124.33,0,0,0,20.67,8.81A149.81,149.81,0,0,0-277.81,932H-310Zm38.13,45.76c3.9,13.05,9.66,23.55,16.61,30.5a74.84,74.84,0,0,1-35.08-21.86A101.2,101.2,0,0,1-271.88,977.55Zm1-38.81h33v25.93a120.82,120.82,0,0,0-29.32,4.07A141,141,0,0,1-270.87,938.75Zm33,32.7v39.15c-11.19-2.21-21.35-15.25-27.45-35.25A113.1,113.1,0,0,1-237.82,971.45Zm0-67.79V931.8h-33a145.4,145.4,0,0,1,4.4-32.88A129.5,129.5,0,0,0-237.82,903.67ZM-289,883a74.5,74.5,0,0,1,33.72-20.34c-6.44,6.61-11.86,16.1-15.76,28A133.81,133.81,0,0,1-289,883Zm51.18-23v36.77a121,121,0,0,1-26.61-4.41C-258.33,874.18-248.49,862.15-237.82,859.95Z"/><g class="cls-31"><rect class="cls-32" x="-1297.14" y="-432.92" width="2122.11" height="8565.74"/></g></svg>