<svg xmlns="http://www.w3.org/2000/svg" width="120" height="120" viewBox="0 0 120 120">
    <g fill="none" fill-rule="evenodd">
        <ellipse cx="59.535" cy="60" fill="#ECEFF1" rx="59.535" ry="60"/>
        <path fill="#A8A8A8" fill-rule="nonzero" d="M52.885 58.173h-4.743a1.18 1.18 0 0 0-1.185 1.174v4.696a1.18 1.18 0 0 0 1.185 1.174h4.743a1.18 1.18 0 0 0 1.186-1.174v-4.696a1.18 1.18 0 0 0-1.186-1.174zM51.7 62.87h-2.372v-2.348H51.7v2.348zm1.185 4.696h-4.743a1.18 1.18 0 0 0-1.185 1.174v4.695a1.18 1.18 0 0 0 1.185 1.174h4.743a1.18 1.18 0 0 0 1.186-1.174V68.74a1.18 1.18 0 0 0-1.186-1.174zM51.7 72.26h-2.372v-2.348H51.7v2.348zm1.185-23.478h-4.743a1.18 1.18 0 0 0-1.185 1.174v4.696a1.18 1.18 0 0 0 1.185 1.173h4.743a1.18 1.18 0 0 0 1.186-1.173v-4.696a1.18 1.18 0 0 0-1.186-1.174zM51.7 53.478h-2.372V51.13H51.7v2.348zm15.415 11.739h4.743a1.18 1.18 0 0 0 1.185-1.174v-4.696a1.18 1.18 0 0 0-1.185-1.174h-4.743a1.18 1.18 0 0 0-1.186 1.174v4.696a1.18 1.18 0 0 0 1.186 1.174zM68.3 60.52h2.372v2.348H68.3v-2.348zm-15.415-21.13h-4.743a1.18 1.18 0 0 0-1.185 1.174v4.695a1.18 1.18 0 0 0 1.185 1.174h4.743a1.18 1.18 0 0 0 1.186-1.174v-4.695a1.18 1.18 0 0 0-1.186-1.174zM51.7 44.086h-2.372V41.74H51.7v2.347zm4.743-3.521v4.695a1.18 1.18 0 0 0 1.185 1.174h4.744a1.18 1.18 0 0 0 1.185-1.174v-4.695a1.18 1.18 0 0 0-1.185-1.174h-4.744a1.18 1.18 0 0 0-1.185 1.174zm2.371 1.174h2.372v2.347h-2.372V41.74zm8.3 14.087h4.744a1.18 1.18 0 0 0 1.185-1.174v-4.696a1.18 1.18 0 0 0-1.185-1.174h-4.743a1.18 1.18 0 0 0-1.186 1.174v4.696a1.18 1.18 0 0 0 1.186 1.173zM68.3 51.13h2.372v2.348H68.3V51.13zm17.787-11.74h-8.3V35.87c0-.524-.351-.984-.861-1.13l-16.601-4.695a1.221 1.221 0 0 0-.65 0l-16.6 4.696c-.51.145-.862.605-.862 1.129v3.522h-8.3a1.18 1.18 0 0 0-1.186 1.174v44.608a1.18 1.18 0 0 0 1.186 1.174h52.174a1.18 1.18 0 0 0 1.186-1.174V40.565a1.18 1.18 0 0 0-1.186-1.174zm-43.874 4.696h-3.557a1.18 1.18 0 0 0-1.186 1.174 1.18 1.18 0 0 0 1.186 1.174h3.557v4.696h-3.557a1.18 1.18 0 0 0-1.186 1.174 1.18 1.18 0 0 0 1.186 1.174h3.557v4.695h-3.557a1.18 1.18 0 0 0-1.186 1.174 1.18 1.18 0 0 0 1.186 1.174h3.557v4.696h-3.557a1.18 1.18 0 0 0-1.186 1.174 1.18 1.18 0 0 0 1.186 1.174h3.557v4.695h-3.557a1.18 1.18 0 0 0-1.186 1.174 1.18 1.18 0 0 0 1.186 1.174h3.557v4.696h-3.557a1.18 1.18 0 0 0-1.186 1.174 1.18 1.18 0 0 0 1.186 1.174h3.557v2.347H35.1V41.74h7.114v2.347zM65.93 84H54.07v-4.695H65.93v4.695zm9.486 0H68.3v-5.87a1.18 1.18 0 0 0-1.185-1.173h-14.23A1.18 1.18 0 0 0 51.7 78.13V84h-7.115V36.753L60 32.394l15.415 4.36V84zm9.486 0h-7.114v-2.347h3.557a1.18 1.18 0 0 0 1.186-1.174 1.18 1.18 0 0 0-1.186-1.174h-3.557v-4.696h3.557a1.18 1.18 0 0 0 1.186-1.174 1.18 1.18 0 0 0-1.186-1.174h-3.557v-4.695h3.557a1.18 1.18 0 0 0 1.186-1.174 1.18 1.18 0 0 0-1.186-1.174h-3.557V60.52h3.557a1.18 1.18 0 0 0 1.186-1.174 1.18 1.18 0 0 0-1.186-1.174h-3.557v-4.695h3.557a1.18 1.18 0 0 0 1.186-1.174 1.18 1.18 0 0 0-1.186-1.174h-3.557v-4.696h3.557a1.18 1.18 0 0 0 1.186-1.174 1.18 1.18 0 0 0-1.186-1.174h-3.557V41.74H84.9v42.26zm-17.786-9.39h4.743a1.18 1.18 0 0 0 1.185-1.175V68.74a1.18 1.18 0 0 0-1.185-1.174h-4.743a1.18 1.18 0 0 0-1.186 1.174v4.695a1.18 1.18 0 0 0 1.186 1.174zm1.185-4.697h2.372v2.348H68.3v-2.348zm-5.928-11.739h-4.744a1.18 1.18 0 0 0-1.185 1.174v4.696a1.18 1.18 0 0 0 1.185 1.174h4.744a1.18 1.18 0 0 0 1.185-1.174v-4.696a1.18 1.18 0 0 0-1.185-1.174zm-1.186 4.696h-2.372v-2.348h2.372v2.348zm1.186 4.696h-4.744a1.18 1.18 0 0 0-1.185 1.174v4.695a1.18 1.18 0 0 0 1.185 1.174h4.744a1.18 1.18 0 0 0 1.185-1.174V68.74a1.18 1.18 0 0 0-1.185-1.174zm-1.186 4.695h-2.372v-2.348h2.372v2.348zm5.929-25.826h4.743a1.18 1.18 0 0 0 1.185-1.174v-4.695a1.18 1.18 0 0 0-1.185-1.174h-4.743a1.18 1.18 0 0 0-1.186 1.174v4.695a1.18 1.18 0 0 0 1.186 1.174zM68.3 41.74h2.372v2.347H68.3V41.74zm-5.928 7.043h-4.744a1.18 1.18 0 0 0-1.185 1.174v4.696a1.18 1.18 0 0 0 1.185 1.173h4.744a1.18 1.18 0 0 0 1.185-1.173v-4.696a1.18 1.18 0 0 0-1.185-1.174zm-1.186 4.696h-2.372V51.13h2.372v2.348z"/>
    </g>
</svg>
