<?xml version="1.0" encoding="UTF-8" standalone="no"?>
<svg width="19px" height="20px" viewBox="0 0 19 20" version="1.1" xmlns="http://www.w3.org/2000/svg" xmlns:xlink="http://www.w3.org/1999/xlink">
    <!-- Generator: Sketch 43.2 (39069) - http://www.bohemiancoding.com/sketch -->
    <title>Icon - Filter</title>
    <desc>Created with Sketch.</desc>
    <defs></defs>
    <g id="Symbols" stroke="none" stroke-width="1" fill="none" fill-rule="evenodd">
        <g id="Button/-Filter" transform="translate(-59.000000, -4.000000)" fill-rule="nonzero" fill="#343434">
            <g id="Icon/-Filter" transform="translate(59.000000, 4.000000)">
                <path d="M2.35911367,10.3666605 L0.836153045,10.3666605 C0.45953571,10.3666605 0.154227049,10.0607645 0.154227049,9.68342261 C0.154227049,9.30608073 0.45953571,9.00018472 0.836153045,9.00018472 L2.33093278,9.00018472 C2.61732281,7.60344581 3.85038124,6.55295064 5.32834055,6.55295064 C6.80629985,6.55295064 8.03935828,7.60344581 8.32574831,9.00018472 L17.7479178,9.00018472 C18.1245351,9.00018472 18.4298437,9.30608073 18.4298437,9.68342261 C18.4298437,10.0607645 18.1245351,10.3666605 17.7479178,10.3666605 L8.29756743,10.3666605 C7.96547136,11.7009979 6.76214993,12.6896692 5.32834055,12.6896692 C3.89453116,12.6896692 2.69120973,11.7009979 2.35911367,10.3666605 Z M16.2249572,15.2859734 L17.7479178,15.2859734 C18.1245351,15.2859734 18.4298437,15.5918694 18.4298437,15.9692113 C18.4298437,16.3465531 18.1245351,16.6524492 17.7479178,16.6524492 L16.253138,16.6524492 C15.9667479,18.049188 14.7336895,19.0996831 13.2557303,19.0996831 C11.777771,19.0996831 10.5447126,18.049188 10.2583225,16.6524492 L0.836153045,16.6524492 C0.45953571,16.6524492 0.154227049,16.3465531 0.154227049,15.9692113 C0.154227049,15.5918694 0.45953571,15.2859734 0.836153045,15.2859734 L10.2865033,15.2859734 C10.6185993,13.9516359 11.8219208,12.9629645 13.2557303,12.9629645 C14.6895397,12.9629645 15.8928612,13.9516359 16.2249572,15.2859734 Z M16.2249572,2.44110091 L17.7479178,2.44110091 C18.1245351,2.44110091 18.4298437,2.74699692 18.4298437,3.1243388 C18.4298437,3.50168068 18.1245351,3.8075767 17.7479178,3.8075767 L16.253138,3.8075767 C15.9667479,5.20431553 14.7336895,6.25481063 13.2557303,6.25481063 C11.777771,6.25481063 10.5447126,5.20431553 10.2583225,3.8075767 L0.836153045,3.8075767 C0.45953571,3.8075767 0.154227049,3.50168068 0.154227049,3.1243388 C0.154227049,2.74699692 0.45953571,2.44110091 0.836153045,2.44110091 L10.2865033,2.44110091 C10.6185993,1.10676347 11.8219208,0.118092056 13.2557303,0.118092056 C14.6895397,0.118092056 15.8928612,1.10676347 16.2249572,2.44110091 Z M13.2557303,1.48456785 C12.3190439,1.48456785 11.5594393,2.24637769 11.5594393,3.18645133 C11.5594393,4.12652499 12.3190439,4.88833484 13.2557303,4.88833484 C14.1924166,4.88833484 14.9520212,4.12652499 14.9520212,3.18645133 C14.9520212,2.24637769 14.1924166,1.48456785 13.2557303,1.48456785 Z M13.2557303,14.3294403 C12.3190439,14.3294403 11.5594393,15.0912502 11.5594393,16.0313238 C11.5594393,16.9713975 12.3190439,17.7332073 13.2557303,17.7332073 C14.1924166,17.7332073 14.9520212,16.9713975 14.9520212,16.0313238 C14.9520212,15.0912502 14.1924166,14.3294403 13.2557303,14.3294403 Z M5.32834055,11.3231934 C6.26502692,11.3231934 7.02463146,10.5613836 7.02463146,9.62130992 C7.02463146,8.68123628 6.26502692,7.91942644 5.32834055,7.91942644 C4.39165417,7.91942644 3.63204963,8.68123628 3.63204963,9.62130992 C3.63204963,10.5613836 4.39165417,11.3231934 5.32834055,11.3231934 Z" id="Combined-Shape"></path>
            </g>
        </g>
    </g>
</svg>