<svg xmlns="http://www.w3.org/2000/svg" width="22" height="22" viewBox="0 0 22 22">
    <path fill="#000" fill-rule="nonzero" stroke="#000" stroke-width=".5" d="M20.383 15.921l-2.019-2.019a2.075 2.075 0 0 0-1.487-.617c-.556 0-1.088.218-1.487.617l-.677.677c-.69.69-2.817-.387-4.86-2.43-.992-.992-1.814-2.08-2.261-3-.254-.507-.605-1.438-.17-1.861L8.1 6.61c.4-.4.617-.92.617-1.488s-.218-1.088-.617-1.487L6.08 1.616A2.075 2.075 0 0 0 4.593 1c-.556 0-1.088.218-1.487.617l-1.33 1.342c-.774.762-1.354 2.334.218 5.43 1.04 2.043 2.817 4.376 5.03 6.59C10.335 18.29 14.29 21 16.997 21c.81 0 1.5-.242 2.043-.774l1.342-1.342c.823-.81.823-2.14 0-2.963zm-.665 2.286l-1.342 1.342c-1.04 1.04-3.155.193-4.328-.4-1.947-.99-4.208-2.72-6.348-4.848C3.166 9.767.905 5.184 2.453 3.636l1.342-1.342c.218-.218.508-.339.81-.339.302 0 .593.121.81.339l2.02 2.02c.217.217.338.507.338.81 0 .302-.121.592-.339.81l-.677.677c-1.402 1.402.436 4.22 2.43 6.215 1.5 1.5 3.483 2.914 4.958 2.914.483 0 .906-.145 1.245-.496l.677-.677c.218-.218.508-.338.81-.338.302 0 .593.12.81.338l2.02 2.02c.447.459.447 1.184.011 1.62z"/>
</svg>
