<?xml version="1.0" encoding="UTF-8" standalone="no"?>
<svg width="39px" height="40px" viewBox="0 0 39 40" version="1.1" xmlns="http://www.w3.org/2000/svg" xmlns:xlink="http://www.w3.org/1999/xlink">
    <!-- Generator: Sketch 43.1 (39012) - http://www.bohemiancoding.com/sketch -->
    <title>Icon - magnifying glass</title>
    <desc>Created with Sketch.</desc>
    <defs></defs>
    <g id="Symbols" stroke="none" stroke-width="1" fill="none" fill-rule="evenodd">
        <g id="Icon---magnifying-glass" transform="translate(1.000000, 1.000000)" stroke="#FFFFFF" stroke-width="2" fill="#FFFFFF">
            <path d="M22.4565848,0 C14.6615512,0 8.32459937,6.47178145 8.32459937,14.4326659 C8.32459937,18.1064399 9.67699047,21.4603814 11.8965626,24.0102255 L0.258456968,35.8959504 C0.0404188878,36.1077261 -0.0485559966,36.4232942 0.0258158609,36.7210609 C0.100187718,37.0188277 0.326297475,37.2523141 0.61702117,37.3315538 C0.907744865,37.4107935 1.21770289,37.323418 1.42746311,37.1030944 L13.0785577,25.2041041 C15.5760661,27.4743803 18.8562591,28.8653319 22.4565848,28.8653319 C30.2516188,28.8653319 36.5885702,22.3935632 36.5885702,14.4326659 C36.5885702,6.47178145 30.2516188,0 22.4565848,0 L22.4565848,0 Z M22.4565848,1.6979607 C29.3530897,1.6979607 34.9259837,7.38942733 34.9259837,14.4326659 C34.9259837,21.4759003 29.3530897,27.1673712 22.4565848,27.1673712 C15.5600799,27.1673712 9.98718589,21.4759003 9.98718589,14.4326659 C9.98718589,7.38942733 15.5600799,1.6979607 22.4565848,1.6979607 L22.4565848,1.6979607 Z" id="Shape" transform="translate(18.294285, 18.680144) scale(-1, 1) translate(-18.294285, -18.680144) "></path>
        </g>
    </g>
</svg>