<svg xmlns="http://www.w3.org/2000/svg" width="21" height="21" viewBox="0 0 21 21">
    <path fill="#343434" fill-rule="nonzero" d="M16.046 20.593a.675.675 0 0 1-.378-.116l-5.38-3.52-5.38 3.52a.672.672 0 0 1-.78-.028.75.75 0 0 1-.267-.768l1.535-6.44L.532 8.964a.753.753 0 0 1-.212-.785.705.705 0 0 1 .614-.502l6.327-.466 2.377-6.16a.7.7 0 0 1 .648-.458.7.7 0 0 1 .648.458l2.376 6.16 6.332.466a.705.705 0 0 1 .61.504.753.753 0 0 1-.213.783l-4.859 4.272 1.535 6.445a.759.759 0 0 1-.123.626.688.688 0 0 1-.546.286zM5.63 18.283l4.285-2.804a.672.672 0 0 1 .741 0l4.29 2.805-1.225-5.138a.752.752 0 0 1 .225-.736l3.874-3.4-5.04-.371a.702.702 0 0 1-.598-.456L10.288 3.28 8.394 8.183a.702.702 0 0 1-.598.456l-5.045.37 3.874 3.4c.204.18.293.466.23.737L5.63 18.284z"/>
</svg>
