<?xml version="1.0" encoding="UTF-8" standalone="no"?>
<svg width="40px" height="40px" viewBox="0 0 40 40" version="1.1" xmlns="http://www.w3.org/2000/svg" xmlns:xlink="http://www.w3.org/1999/xlink">
    <!-- Generator: Sketch 44.1 (41455) - http://www.bohemiancoding.com/sketch -->
    <title>icon-email-circle</title>
    <desc>Created with Sketch.</desc>
    <defs></defs>
    <g id="Batch-3" stroke="none" stroke-width="1" fill="none" fill-rule="evenodd">
        <g id="1.0-Our-Leadership" transform="translate(-740.000000, -1155.000000)">
            <g id="Profile1" transform="translate(240.000000, 907.000000)">
                <g id="Stacked-Group" transform="translate(380.000000, 0.000000)">
                    <g transform="translate(0.000000, 36.000000)" id="social-icons">
                        <g transform="translate(0.000000, 212.000000)">
                            <g id="icon-email-circle" transform="translate(120.000000, 0.000000)">
                                <circle id="Oval-4-Copy" fill="#CFD8DC" cx="20" cy="20" r="20"></circle>
                                <path d="M27.7258574,13 L12.3063383,13 C11.0213784,13 10,14.0449438 10,15.3595506 L10,25.6404494 C10,26.9550562 11.0213784,28 12.3063383,28 L27.6929097,28 C28.9778697,28 29.9992481,26.9550562 29.9992481,25.6404494 L29.9992481,15.3595506 C30.0321958,14.0449438 28.9778697,13 27.7258574,13 Z M12.3063383,14.3483146 L27.6929097,14.3483146 C27.7917528,14.3483146 27.8905959,14.3483146 27.989439,14.3820225 L20.0160979,20.6516854 L12.0427568,14.3820225 C12.1415999,14.3483146 12.2404429,14.3483146 12.3063383,14.3483146 Z M28.7142881,25.6067416 C28.7142881,26.1797753 28.2859682,26.6179775 27.7258574,26.6179775 L12.3063383,26.6179775 C11.7462276,26.6179775 11.3179076,26.1797753 11.3179076,25.6067416 L11.3179076,15.494382 L20.0160979,22.3370787 L28.7142881,15.5280899 L28.7142881,25.6067416 Z" id="Shape" fill="#FFFFFF" fill-rule="nonzero"></path>
                            </g>
                        </g>
                    </g>
                </g>
            </g>
        </g>
    </g>
</svg>