<svg xmlns="http://www.w3.org/2000/svg" width="34" height="34" viewBox="0 0 34 34">
    <g fill="none" fill-rule="evenodd">
        <circle cx="17" cy="17" r="17" fill="#CFD8DC"/>
        <path fill="#FFF" d="M22.284 22.36h-2.338v-3.682c0-.878-.016-2.008-1.216-2.008-1.218 0-1.405.957-1.405 1.945v3.745h-2.338v-7.572h2.245v1.035h.031c.312-.595 1.076-1.223 2.214-1.223 2.37 0 2.807 1.568 2.807 3.607v4.153zm-9.934-8.607c-.75 0-1.357-.611-1.357-1.364a1.36 1.36 0 0 1 1.357-1.365c.748 0 1.356.612 1.356 1.365s-.608 1.364-1.356 1.364zm-1.17 8.607h2.34v-7.572h-2.34v7.572zM23.45 8.84H10.005c-.643 0-1.165.512-1.165 1.144v13.578c0 .632.522 1.145 1.165 1.145H23.45c.643 0 1.167-.513 1.167-1.145V9.984c0-.632-.524-1.144-1.167-1.144zm2.037 13.221l-.008.001.13.199h-.068l-.121-.192-.002-.002h-.078v.194h-.064v-.446h.17c.104 0 .155.041.155.126 0 .07-.04.11-.114.12zm-.066.344c-.2 0-.358-.16-.358-.367a.357.357 0 1 1 .716 0 .357.357 0 0 1-.358.367zm0-.788a.416.416 0 0 0-.42.421c0 .237.185.422.42.422s.419-.185.419-.422a.416.416 0 0 0-.42-.42z"/>
    </g>
</svg>
