<svg xmlns="http://www.w3.org/2000/svg" width="36" height="36" viewBox="0 0 36 36">
    <g fill="none" fill-rule="evenodd">
        <circle cx="18" cy="18" r="18" fill="#CFD8DC"/>
        <path fill="#FFF" d="M23.752 13.607l-.031-.031c-.679-.607-1.46-.894-2.375-.853l-.03-.072h.02c.822-.185 1.316-.37 1.46-.576.051-.164-.01-.247-.196-.277a5.208 5.208 0 0 0-1.13.267c.431-.267.596-.452.503-.545-.431.01-.894.216-1.377.627.185-.288.247-.452.205-.473a4.218 4.218 0 0 0-.606.494c-.36.39-.658.75-.884 1.079l-.01.03a9.557 9.557 0 0 0-1.224 2.725l-.082.072-.02.01a4.338 4.338 0 0 0-1.265-1.048c-.586-.37-1.275-.72-2.076-1.06a17.552 17.552 0 0 0-2.642-1.068c0 .956.483 1.727 1.45 2.282v.01c-.34 0-.67.052-.988.144.062.884.72 1.501 1.964 1.84l-.01.02a1.452 1.452 0 0 0-1.203.474c.41.77 1.13 1.13 2.179 1.11-.206.103-.37.216-.473.34a.679.679 0 0 0-.195.678c.226.39.637.565 1.223.544l.041.042-.02.01c-1.028 1.017-2.262 1.48-3.722 1.388l-.02.01c-.884-.01-1.84-.422-2.858-1.234 1.028 1.43 2.395 2.457 4.091 3.105 1.943.617 3.886.658 5.819.133h.03c1.882-.524 3.475-1.593 4.791-3.207.607-.853.987-1.655 1.141-2.436.977.03 1.686-.237 2.128-.812l-.01-.02c-.33.112-.967.081-1.923-.104v-.102c0-.01 0-.01.01 0 1.039-.114 1.645-.432 1.851-.967-.73.267-1.44.278-2.148.02-.124-.935-.586-1.798-1.388-2.57"/>
    </g>
</svg>
