<?xml version="1.0" encoding="UTF-8" standalone="no"?>
<svg width="42px" height="39px" viewBox="0 0 42 39" version="1.1" xmlns="http://www.w3.org/2000/svg" xmlns:xlink="http://www.w3.org/1999/xlink">
    <!-- Generator: Sketch 43.1 (39012) - http://www.bohemiancoding.com/sketch -->
    <title>Slice</title>
    <desc>Created with Sketch.</desc>
    <defs></defs>
    <g id="Page-1" stroke="none" stroke-width="1" fill="none" fill-rule="evenodd">
        <g id="Group-2" transform="translate(-3.000000, 0.000000)">
            <g id="ICSC-LOGO" transform="translate(2.857143, 0.000000)">
                <g id="Page-1">
                    <polygon id="Fill-1" fill="#E31837" points="0.218685622 30.0787975 0.21576959 39.6507325 9.81784772 30.2096467 9.8215969 20.7698071"></polygon>
                    <polygon id="Fill-2" fill="#E31837" points="21.851522 9.30807646 21.8481893 18.8808423 21.8586037 18.8746114 21.8565209 20.0514239 27.3182496 25.4262131 21.8556877 30.7241543 21.851522 40.2973355 31.4565161 30.8566652 31.4565161 29.4958328 31.4581824 21.4155794 31.4581824 19.925144 26.0876839 14.7136048 31.4527669 9.44141808 31.4565161 -8.30788967e-05"></polygon>
                    <polygon id="Fill-3" fill="#E31837" points="20.5390158 19.9573786 20.5423484 10.5158774 10.9390205 19.8256986 10.9361045 29.3947258 10.9361045 30.8004208 20.5356832 40.2485682 20.5373495 30.6749716 15.0522925 25.3529375"></polygon>
                    <polygon id="Fill-4" fill="#E31837" points="42.2465442 10.6010749 32.6419666 19.9113114 32.6419666 21.249297 32.6419666 21.2484662 32.6382174 30.6907982 42.2377961 40.1368687 42.2411287 30.5628567 36.85605 25.3371941 42.2432116 20.0438222"></polygon>
                    <g id="Group-12" transform="translate(0.038128, 42.081538)" fill="#000000">
                        <polygon id="Fill-5" points="0.57663776 13.3433015 3.82926362 13.3433015 3.82926362 0.368870299 0.57663776 0.368870299"></polygon>
                        <path d="M14.4255422,4.68731133 C13.9685582,3.4847443 12.8542173,2.73744963 11.7207138,2.73744963 C9.92985335,2.73744963 8.50474666,3.94043205 8.50474666,6.85608591 C8.50474666,8.75153093 9.27207976,10.9747222 11.8306899,10.9747222 C12.7079991,10.9747222 13.9868876,10.3183989 14.498443,9.15197121 L17.0753825,10.3910929 C15.9606249,12.4136487 14.0235463,13.7080179 11.8306899,13.7080179 C7.68242552,13.7080179 5.25170422,10.5003417 5.25170422,6.85608591 C5.25170422,3.21141473 7.51787798,0.00415394481 11.5749122,0.00415394481 C14.1331058,0.00415394481 15.8144067,1.24369108 17.0203944,3.39418831 L14.4255422,4.68731133 Z" id="Fill-6"></path>
                        <path d="M20.4591881,9.46185549 C21.5918584,10.4824797 22.6707904,11.0835555 24.2233694,11.0835555 C25.0827658,11.0835555 26.6540907,10.7192546 26.6540907,9.5893816 C26.6540907,8.93347371 26.1608646,8.60531207 25.1923253,8.44123125 L22.487497,8.00382086 C20.0755216,7.62124255 18.7595578,6.34556609 18.7595578,4.43267451 C18.7595578,1.29810775 21.2998386,0.00415394481 24.0775678,0.00415394481 C26.2337654,0.00415394481 28.3533044,0.878974722 29.815903,2.50109017 L27.3489395,4.26859369 C26.4899597,3.22969209 25.228984,2.62861628 23.8580322,2.62861628 C23.1086119,2.62861628 22.0121837,3.10216599 22.0121837,3.94043205 C22.0121837,4.63289465 22.5791437,4.97933365 23.8213735,5.17913839 L25.0644364,5.37977393 C27.6592887,5.79932235 29.797157,6.6010337 29.797157,9.07927718 C29.797157,12.9790006 26.2704241,13.7080179 23.8401194,13.7080179 C21.6289337,13.7080179 19.7464265,12.9972779 17.9738954,11.0652782 L20.4591881,9.46185549 Z" id="Fill-8"></path>
                        <path d="M40.1407822,4.68731133 C39.6837983,3.4847443 38.5694573,2.73744963 37.4359539,2.73744963 C35.6450934,2.73744963 34.2199867,3.94043205 34.2199867,6.85608591 C34.2199867,8.75153093 34.9877364,10.9747222 37.5459299,10.9747222 C38.4228225,10.9747222 39.7021276,10.3183989 40.2140996,9.15197121 L42.7902059,10.3910929 C41.675865,12.4136487 39.7387863,13.7080179 37.5459299,13.7080179 C33.3976656,13.7080179 30.9669443,10.5003417 30.9669443,6.85608591 C30.9669443,3.21141473 33.233118,0.00415394481 37.2901522,0.00415394481 C39.8487624,0.00415394481 41.5296468,1.24369108 42.7356345,3.39418831 L40.1407822,4.68731133 Z" id="Fill-10"></path>
                    </g>
                </g>
            </g>
        </g>
    </g>
</svg>