<?xml version="1.0" encoding="UTF-8" standalone="no"?>
<svg width="154px" height="205px" viewBox="0 0 154 205" version="1.1" xmlns="http://www.w3.org/2000/svg" xmlns:xlink="http://www.w3.org/1999/xlink">
    <!-- Generator: Sketch 43.1 (39012) - http://www.bohemiancoding.com/sketch -->
    <title>ICSC_Logo_RGB</title>
    <desc>Created with Sketch.</desc>
    <defs></defs>
    <g id="Page-1" stroke="none" stroke-width="1" fill="none" fill-rule="evenodd">
        <g id="ICSC_Logo_RGB" fill-rule="nonzero">
            <g id="Group" fill="#E31837">
                <polygon id="Shape" points="39.1 111.8 73.1 145.9 73.1 111.8 53.8 92.5 73.1 73.1 73.1 39.1 39.1 73.1"></polygon>
                <polygon id="Shape" points="150.5 39.1 116.5 73.1 116.5 111.8 150.5 145.9 150.5 111.8 131.2 92.5 150.5 73.1"></polygon>
                <polygon id="Shape" points="77.8 73.1 97.1 92.5 77.8 111.8 77.8 145.9 111.8 111.8 111.8 73.1 92.5 53.8 111.8 34.4 111.8 0.4 77.8 34.4"></polygon>
                <polygon id="Shape" points="0.4 145.9 34.4 111.8 34.4 77.8 0.4 111.8"></polygon>
            </g>
            <g id="Group" transform="translate(0.000000, 154.000000)" fill="#000000">
                <g>
                    <path d="M42.2,12.1 C46.2,12.1 49.9,14 52.2,17 L61.6,9.7 C57.1,4 50,0.3 42.1,0.3 C28.4,0.3 17.4,11.4 17.4,25.2 C17.4,38.9 28.5,50.1 42.1,50.1 C50,50.1 57,46.4 61.5,40.6 L52.2,33.4 C49.8,36.3 46.2,38.2 42.1,38.2 C34.9,38.2 29.3,32.4 29.3,25.2 C29.4,17.9 35,12.1 42.2,12.1 Z" id="Shape"></path>
                    <path d="M134,38.2 C126.8,38.2 121.2,32.4 121.2,25.2 C121.2,17.9 126.8,12.1 134,12.1 C138,12.1 141.7,14 144,17 L153.4,9.7 C148.9,4 141.8,0.3 133.9,0.3 C120.2,0.3 109.2,11.4 109.2,25.2 C109.2,38.9 120.3,50.1 133.9,50.1 C141.8,50.1 148.8,46.4 153.3,40.6 L144,33.4 C141.7,36.3 138.1,38.2 134,38.2 Z" id="Shape"></path>
                    <rect id="Rectangle-path" x="0.4" y="1.2" width="11.8" height="48.5"></rect>
                </g>
                <path d="M102.4,25.6 C101.8,25 101.2,24.4 100.6,23.9 C97.7,21.7 94.1,20.9 90.7,20 C88.6,19.4 86.4,18.9 84.3,18.2 C82.9,17.7 81.2,17.1 80.5,15.6 C79.8,14.1 80.4,12.2 81.7,11.3 C84.2,9.4 88.3,9.9 91.1,10.8 C93.2,11.4 95.1,12.6 96.6,14.3 C97.3,13.8 105.3,7.8 105.4,7.9 C102.2,4.1 98.2,1.4 93.3,0.6 C89,-0.1 84.3,-0.1 80.1,1.1 C78,1.7 76,2.7 74.2,4.1 C70.7,6.8 68.4,11.1 68.4,15.5 C68.3,17.7 68.8,19.9 69.7,21.9 C70.7,23.9 72.3,25.5 74.2,26.6 C77.9,28.9 82.5,29.6 86.6,30.7 C88.6,31.2 91.1,31.7 92.4,33.4 C93.1,34.2 93.3,35.4 93.1,36.4 C92.9,37.5 92.2,38.3 91.3,38.9 C87.6,41 82.4,40.2 78.8,38.4 C76.9,37.4 75.1,36 73.8,34.3 L65.1,40.9 C66.7,43 68.4,44.8 70.6,46.2 C74.4,48.7 79,49.7 83.4,49.9 C87.8,50.2 92.4,49.7 96.5,47.8 C100.5,45.9 103.9,42.5 105.1,38.1 C105.7,36 105.7,33.7 105.4,31.5 C104.9,29.4 103.8,27.3 102.4,25.6 Z" id="Shape"></path>
            </g>
        </g>
    </g>
</svg>