<svg xmlns="http://www.w3.org/2000/svg" xmlns:xlink="http://www.w3.org/1999/xlink" width="190" height="189" viewBox="0 0 190 189">
    <defs>
        <path id="a" d="M0 .492v187.827h189.504V.492z"/>
        <path id="c" d="M0 188.509h189.505V.681H0z"/>
    </defs>
    <g fill="none" fill-rule="evenodd">
        <g transform="translate(0 .19)">
            <mask id="b" fill="#fff">
                <use xlink:href="#a"/>
            </mask>
            <path fill="#A7A0AA" d="M189.504 94.405c0-51.868-42.422-93.913-94.752-93.913S0 42.537 0 94.405c0 51.867 42.422 93.914 94.752 93.914s94.752-42.047 94.752-93.914" mask="url(#b)"/>
        </g>
        <path fill="#060707" d="M115.059 141.968H51.436c-2.489 0-4.504-1.998-4.504-4.464v-91.23c0-2.466 2.015-4.463 4.504-4.463h63.623c2.488 0 4.504 1.997 4.504 4.462v91.23c0 2.467-2.016 4.465-4.504 4.465"/>
        <path fill="#F4F5F6" d="M109.303 129.63H57.191c-1.824 0-3.302-1.465-3.302-3.272v-72.84c0-1.807 1.478-3.271 3.302-3.271h52.112c1.824 0 3.302 1.464 3.302 3.27v72.84c0 1.808-1.478 3.273-3.302 3.273"/>
        <path fill="#7C7DAC" d="M138.07 148.856h-22.953c-2.487 0-4.504-1.997-4.504-4.462V93.769c0-2.464 2.017-4.462 4.504-4.462h22.953c2.487 0 4.502 1.998 4.502 4.462v50.625c0 2.465-2.015 4.462-4.502 4.462"/>
        <mask id="d" fill="#fff">
            <use xlink:href="#c"/>
        </mask>
        <path fill="#060707" d="M113.934 136.797h25.319V97.21h-25.32z" mask="url(#d)"/>
        <path stroke="#221F20" stroke-linecap="round" stroke-linejoin="round" stroke-width="1.5" d="M123.084 92.962h7.02" mask="url(#d)"/>
        <path fill="#060707" d="M129.288 142.597c0-1.476-1.206-2.672-2.694-2.672-1.49 0-2.696 1.196-2.696 2.672 0 1.474 1.206 2.672 2.696 2.672 1.488 0 2.694-1.198 2.694-2.672" mask="url(#d)"/>
        <path stroke="#FEFEFE" stroke-linecap="round" stroke-linejoin="round" stroke-width="2" d="M117.615 102h6.92M117.615 106h6.92M117.615 115h13.975M117.615 119h16.694M117.615 123h13.975M117.615 128h16.694M117.615 132h13.975" mask="url(#d)"/>
        <path fill="#58A0A9" d="M83.022 69.138c-11.083 0-20.067 8.907-20.067 19.89 0 10.984 8.984 19.89 20.067 19.89s20.067-8.906 20.067-19.89H83.022v-19.89z" mask="url(#d)"/>
        <path fill="#E31837" d="M85.924 65.93c11.083 0 20.067 8.905 20.067 19.89H85.924V65.93z" mask="url(#d)"/>
    </g>
</svg>
