<?xml version="1.0" encoding="UTF-8" standalone="no"?>
<svg width="30px" height="28px" viewBox="0 0 30 28" version="1.1" xmlns="http://www.w3.org/2000/svg" xmlns:xlink="http://www.w3.org/1999/xlink">
    <!-- Generator: Sketch 43.1 (39012) - http://www.bohemiancoding.com/sketch -->
    <title>Combined Shape</title>
    <desc>Created with Sketch.</desc>
    <defs></defs>
    <g id="Symbols" stroke="none" stroke-width="1" fill="none" fill-rule="evenodd" opacity="1">
        <g id="Nav/-Footer" transform="translate(-501.000000, -182.000000)" fill="#4a4a4a">
            <g id="Group-2" transform="translate(101.000000, 181.000000)">
                <path d="M423.725058,24.8596944 L419.598221,24.8596944 L419.598221,18.3615556 C419.598221,16.81125 419.569992,14.8181944 417.452436,14.8181944 C415.303364,14.8181944 414.974285,16.5063611 414.974285,18.2493611 L414.974285,24.8596944 L410.847641,24.8596944 L410.847641,11.4972778 L414.809165,11.4972778 L414.809165,13.3229167 L414.864076,13.3229167 C415.41512,12.2725278 416.762181,11.1647778 418.771268,11.1647778 C422.953016,11.1647778 423.725058,13.9323056 423.725058,17.5301111 L423.725058,24.8596944 Z M406.193735,9.67066667 C404.87007,9.67066667 403.798724,8.59130556 403.798724,7.26208333 C403.798724,5.93383333 404.87007,4.85486111 406.193735,4.85486111 C407.513921,4.85486111 408.586814,5.93383333 408.586814,7.26208333 C408.586814,8.59130556 407.513921,9.67066667 406.193735,9.67066667 Z M404.127997,24.8596944 L408.257734,24.8596944 L408.257734,11.4972778 L404.127997,11.4972778 L404.127997,24.8596944 Z M425.781709,1 L402.055104,1 C400.921307,1 400,1.90377778 400,3.01813889 L400,26.9795278 C400,28.0948611 400.921307,29 402.055104,29 L425.781709,29 C426.91744,29 427.842614,28.0948611 427.842614,26.9795278 L427.842614,3.01813889 C427.842614,1.90377778 426.91744,1 425.781709,1 L425.781709,1 Z M429.377224,24.3311944 L429.362336,24.3331389 L429.592614,24.6835278 L429.472738,24.6835278 L429.258701,24.3453889 L429.255607,24.3413056 L429.117363,24.3413056 L429.117363,24.6835278 L429.005414,24.6835278 L429.005414,23.8973889 L429.303171,23.8973889 C429.488012,23.8973889 429.577726,23.9699167 429.577726,24.1194444 C429.577726,24.2421389 429.508894,24.3148611 429.377224,24.3311944 Z M429.260441,24.9374722 C428.906226,24.9374722 428.62877,24.6565 428.62877,24.2911389 C428.62877,23.92675 428.906226,23.6455833 429.260441,23.6455833 C429.614269,23.6455833 429.891725,23.92675 429.891725,24.2911389 C429.891725,24.6565 429.614269,24.9374722 429.260441,24.9374722 Z M429.260441,23.5477778 C428.845321,23.5477778 428.519915,23.8746389 428.519915,24.2911389 C428.519915,24.7088056 428.845321,25.0346944 429.260441,25.0346944 C429.675174,25.0346944 430,24.7088056 430,24.2911389 C430,23.8746389 429.675174,23.5477778 429.260441,23.5477778 L429.260441,23.5477778 Z" id="Combined-Shape"></path>
            </g>
        </g>
    </g>
</svg>