<?xml version="1.0" encoding="UTF-8" standalone="no"?>
<svg width="22px" height="22px" viewBox="0 0 22 22" version="1.1" xmlns="http://www.w3.org/2000/svg" xmlns:xlink="http://www.w3.org/1999/xlink">
    <!-- Generator: Sketch 43.2 (39069) - http://www.bohemiancoding.com/sketch -->
    <title>List - Disabled</title>
    <desc>Created with Sketch.</desc>
    <defs></defs>
    <g id="Symbols" stroke="none" stroke-width="1" fill="none" fill-rule="evenodd">
        <g id="Icon/-Grid---List-Toggle---GRID" transform="translate(-64.000000, -14.000000)" fill="#CFD8DC">
            <path d="M64,31.5538367 C64,31.4780798 64.1404877,31.4166667 64.3280678,31.4166667 L85.6719322,31.4166667 C85.8531191,31.4166667 86,31.4814581 86,31.5538367 L86,35.86283 C86,35.9385869 85.8595123,36 85.6719322,36 L64.3280678,36 C64.146881,36 64,35.9352086 64,35.86283 L64,31.5538367 L64,31.5538367 Z M64,22.8455034 C64,22.7697465 64.1404877,22.7083333 64.3280678,22.7083333 L85.6719322,22.7083333 C85.8531191,22.7083333 86,22.7731248 86,22.8455034 L86,27.1544966 C86,27.2302535 85.8595123,27.2916667 85.6719322,27.2916667 L64.3280678,27.2916667 C64.146881,27.2916667 64,27.2268752 64,27.1544966 L64,22.8455034 L64,22.8455034 Z M64,14.1371701 C64,14.0614131 64.1404877,14 64.3280678,14 L85.6719322,14 C85.8531191,14 86,14.0647914 86,14.1371701 L86,18.4461633 C86,18.5219202 85.8595123,18.5833333 85.6719322,18.5833333 L64.3280678,18.5833333 C64.146881,18.5833333 64,18.5185419 64,18.4461633 L64,14.1371701 L64,14.1371701 Z" id="List---Disabled"></path>
        </g>
    </g>
</svg>