<?xml version="1.0" encoding="UTF-8" standalone="no"?>
<svg width="15px" height="15px" viewBox="0 0 15 15" version="1.1" xmlns="http://www.w3.org/2000/svg" xmlns:xlink="http://www.w3.org/1999/xlink">
    <!-- Generator: Sketch 43.2 (39069) - http://www.bohemiancoding.com/sketch -->
    <title>search-icon-hover</title>
    <desc>Created with Sketch.</desc>
    <defs></defs>
    <g id="Page-1" stroke="none" stroke-width="1" fill="none" fill-rule="evenodd">
        <g id="Module-Library" transform="translate(-1147.000000, -221.000000)" fill-rule="nonzero" fill="#E31837">
            <g id="search-icon-hover" transform="translate(1147.000000, 221.000000)">
                <path d="M9.29289322,10.7071068 L13.3205858,14.7347994 C13.7111101,15.1253236 14.3442751,15.1253236 14.7347994,14.7347994 C15.1253236,14.3442751 15.1253236,13.7111101 14.7347994,13.3205858 L10.7071068,9.29289322 C10.3165825,8.90236893 9.68341751,8.90236893 9.29289322,9.29289322 C8.90236893,9.68341751 8.90236893,10.3165825 9.29289322,10.7071068 Z" id="Line"></path>
                <path d="M6,12 C2.6862915,12 0,9.3137085 0,6 C0,2.6862915 2.6862915,0 6,0 C9.3137085,0 12,2.6862915 12,6 C12,9.3137085 9.3137085,12 6,12 Z M6,10 C8.209139,10 10,8.209139 10,6 C10,3.790861 8.209139,2 6,2 C3.790861,2 2,3.790861 2,6 C2,8.209139 3.790861,10 6,10 Z" id="Oval"></path>
            </g>
        </g>
    </g>
</svg>