<?xml version="1.0" encoding="utf-8"?>
<!-- Generator: Adobe Illustrator 21.0.2, SVG Export Plug-In . SVG Version: 6.00 Build 0)  -->
<svg version="1.1" id="Layer_1" xmlns="http://www.w3.org/2000/svg" xmlns:xlink="http://www.w3.org/1999/xlink" x="0px" y="0px"
	 viewBox="0 0 1398 600" width="1398" height="600" style="enable-background:new 0 0 1398 600;" xml:space="preserve">
<style type="text/css">
	.st0{fill:#343434;}
	.st1{filter:url(#Adobe_OpacityMaskFilter);}
	.st2{fill:#FFFFFF;}
	.st3{mask:url(#mask-2);fill:#4A4A4A;}
</style>
<rect class="st0" width="1398" height="600"/>
<title>pattern-fill-1</title>
<desc>Created with Sketch.</desc>
<g id="Hero_x2F_Publications_x2F_Landing" transform="translate(-1.000000, 0.000000)">
	<g id="pattern-fill-1" transform="translate(1.000000, 0.000000)">
		<defs>
			<filter id="Adobe_OpacityMaskFilter" filterUnits="userSpaceOnUse" x="-1" y="0" width="1679.3" height="840.3">
				<feColorMatrix  type="matrix" values="1 0 0 0 0  0 1 0 0 0  0 0 1 0 0  0 0 0 1 0"/>
			</filter>
		</defs>
		<mask maskUnits="userSpaceOnUse" x="-1" y="0" width="1679.3" height="840.3" id="mask-2">
			<g class="st1">
				<rect id="path-1" class="st2" width="1398" height="600"/>
			</g>
		</mask>
		<path id="Fill-1" class="st3" d="M1627.8,149.5V91.1l1.5,0.9l49,28.3L1627.8,149.5z M1678.3,242l-51.2,29.6l-52.2-30.2
			c-0.2-0.1-0.5-0.1-0.7,0h0L1469.4,302l-104.8-60.6c-0.2-0.1-0.5-0.1-0.7,0l-52.2,30.2l-51.2-29.6l51.5-29.8
			c0.2-0.1,0.4-0.4,0.4-0.6c0-0.3-0.1-0.5-0.4-0.6L1208,150.7l51.2-29.6l104.8,60.6l0,0l52.6,30.4c0,0,0,0,0,0l52.6,30.4
			c0,0,0,0,0,0c0,0,0.1,0,0.1,0c0,0,0.1,0,0.1,0.1c0,0,0.1,0,0.1,0c0,0,0,0,0.1,0c0,0,0,0,0.1,0c0.1,0,0.2,0,0.3-0.1c0,0,0,0,0,0
			l52.6-30.4c0,0,0,0,0,0l52.2-30.2l52.2,30.2h0L1678.3,242z M1678.3,424.5l-50.5,29.2v-58.4L1678.3,424.5z M1599.9,316.7
			l-24.6-14.3l0-59.2l51.2,29.6l0,59.2L1599.9,316.7z M1574.6,362.8l-51.2-29.6l51.2-29.6l51.2,29.6L1574.6,362.8z M1573.9,423.3
			l-51.2-29.6v-59.2l51.2,29.6V423.3z M1470.1,423.3V303.2l103.7-60v59.2l-52.2,30.2c0,0,0,0,0,0c-0.2,0.1-0.3,0.4-0.3,0.6v60.4
			L1470.1,423.3z M1522,454.1l-51.2-29.6l51.2-29.6l51.2,29.6L1522,454.1z M1470.1,484.9v-59.2l51.2,29.6v59.2L1470.1,484.9z
			 M1573.9,486.6v59.2l-51.9,30l-103.7-60l51.2-29.6l52.2,30.2c0.2,0.1,0.5,0.1,0.7,0L1573.9,486.6z M1574.6,668.7l51.2,29.6
			l-103.7,60l-103.7-60l51.2-29.6l52.2,30.2c0.2,0.1,0.5,0.1,0.7,0L1574.6,668.7z M1417.6,637.9l51.2-29.6l0,39.6v19.6l-51.2,29.6
			V637.9z M1468.7,425.7v59.2l-51.2,29.6v-59.2L1468.7,425.7z M1365.7,424.5l51.2-29.6l51.2,29.6l-51.2,29.6L1365.7,424.5z
			 M1363.6,302.4l-3.9,2.3l-47.2,27.3v-59.2l51.2-29.6V302.4z M1416.2,334.5v59.2l-51.2,29.6v-59.2L1416.2,334.5z M1402.5,325.7
			l13,7.5l-51.2,29.6l-51.2-29.6l48.5-28.1l2.7-1.5L1402.5,325.7z M1417.2,332.6C1417.2,332.6,1417.2,332.6,1417.2,332.6l-52.2-30.2
			v-59.2l103.7,60v120.1l-51.2-29.6v-60.4C1417.6,333,1417.4,332.8,1417.2,332.6L1417.2,332.6z M1468,607l-50.5,29.2v-58.4L1468,607
			z M1470.1,607c0-0.3-0.1-0.5-0.4-0.6l-52.2-30.2V517l103.7,60v120.1l-51.2-29.6L1470.1,607C1470.1,607,1470.1,607,1470.1,607
			C1470.1,607,1470.1,607,1470.1,607L1470.1,607z M1416.2,514.5l-51.5-29.8l0,0l-52.2-30.2v-60.4c0,0,0,0,0,0c0-0.1,0-0.2-0.1-0.3
			c0,0-0.1-0.1-0.1-0.1c0,0-0.1-0.1-0.1-0.1l-52.2-30.2V243.2l51.2,29.6v60.4c0,0.3,0.1,0.5,0.4,0.6c0,0,0,0,0,0l52.2,30.2v60.4
			c0,0.2,0.1,0.5,0.4,0.6c0,0,0,0,0,0l52.2,30.2V514.5z M1362.9,607l-50.5,29.2v-58.4L1362.9,607z M1363.6,546.6v59.2l-51.2-29.6
			V517L1363.6,546.6z M1364.3,486.2l51.2,29.6l-51.2,29.6l-51.2-29.6l10.7-6.2L1364.3,486.2z M1319.1,510.7l-6.7,3.9v-58.4
			l50.5,29.2L1319.1,510.7z M1416.2,637l-52.2,30.2c0,0,0,0,0,0l-52.5,30.4c0,0,0,0,0,0c-0.2,0.1-0.4,0.4-0.4,0.6v60.4l-51.2,29.6
			V667.9c0-0.3-0.1-0.5-0.3-0.6c-0.2-0.1-0.5-0.1-0.7,0l-51.5,29.8v-59.2l52.2-30.2c0.2-0.1,0.4-0.4,0.4-0.6c0,0,0,0,0,0v-60.4
			L1311,517v120.5c0,0.2,0.1,0.5,0.4,0.6c0.1,0.1,0.2,0.1,0.4,0.1s0.2,0,0.3-0.1l52.6-30.4c0.2-0.1,0.4-0.4,0.4-0.6v-60.4l51.2-29.6
			V637z M1415.5,759.1l-50.5,29.2v-58.4L1415.5,759.1z M1468,789.6l-51.2,29.6l-51.2-29.6l51.2-29.6L1468,789.6z M1363.6,727.5
			l-50.5-29.2l50.5-29.2V727.5z M1363.6,788.3l-51.2-29.6v-59.2l51.2,29.6V788.3z M1258.5,788.3l-51.2-29.6v-60l51.2-29.6V788.3z
			 M1155.5,607l51.2-29.6l51.2,29.6l-51.2,29.6L1155.5,607z M1205.9,697.1l-51.5-29.8c0,0-0.1,0-0.1,0c-0.1,0-0.1-0.1-0.2-0.1
			c-0.1,0-0.1,0-0.2,0c-0.1,0-0.1,0-0.2,0c0,0,0,0,0,0c0,0,0,0,0,0c-0.1,0-0.1,0.1-0.1,0.1c0,0-0.1,0.1-0.1,0.1
			c0,0.1-0.1,0.2-0.1,0.2c0,0,0,0.1,0,0.1v120.5l-51.2-29.6v-60.4c0-0.1,0-0.2-0.1-0.4c-0.1-0.1-0.1-0.2-0.3-0.3c0,0,0,0,0,0
			l-52.2-30.2v-59.2l51.5,29.8c0.1,0.1,0.2,0.1,0.4,0.1c0.1,0,0.2,0,0.3-0.1c0.2-0.1,0.3-0.4,0.3-0.6V515.8c0-0.3-0.1-0.5-0.3-0.6
			c0,0,0,0,0,0l-52.2-30.2v-59.2l103.7,60V607c0,0.3,0.1,0.5,0.3,0.6c0,0,0,0,0,0l52.2,30.2V697.1z M1205.9,758.7l-51.2,29.6l0-6.4
			l0-112.9l47.7,27.6l3.4,2V758.7z M1101.5,819.2l-51.2-29.6l51.2-29.6l51.2,29.6L1101.5,819.2z M996.4,758.3l-103.7-60l51.2-29.6
			l52.2,30.2c0.2,0.1,0.5,0.1,0.7,0l52.2-30.2l51.2,29.6L996.4,758.3z M995.7,638.7v58.4l-50.5-29.2L995.7,638.7z M1100.8,577.8
			v58.4l-50.5-29.2L1100.8,577.8z M891.9,637.9L1100.8,517v59.2l-38.4,22.2l-13.8,8c0,0,0,0,0,0c-0.2,0.1-0.3,0.4-0.3,0.6v0
			c0,0,0,0,0,0v0v60.4l-51.2,29.6v-59.6c0-0.3-0.1-0.5-0.4-0.6c-0.2-0.1-0.5-0.1-0.7,0l-52.6,30.4c0,0,0,0,0,0l-51.5,29.8V637.9z
			 M891.2,636.6L840.1,607l104.1-60.2c0.2-0.1,0.3-0.4,0.3-0.6c0,0,0,0,0,0l0,0c0-0.3-0.1-0.5-0.4-0.6l-51.5-29.8l51.2-29.6
			l52.2,30.2c0.2,0.1,0.5,0.1,0.7,0l52.2-30.2l45.2,26.2l5.9,3.4L891.2,636.6z M917.3,775l25.1,14.5l-51.2,29.6l-51.2-29.6
			l51.2-29.6L917.3,775z M786.1,819.2l-51.2-29.6l4.5-2.6l46.6-27l51.2,29.6L786.1,819.2z M734.2,667.5v-59.2l51.5,29.8
			c0.1,0.1,0.2,0.1,0.4,0.1s0.2,0,0.4-0.1c0.2-0.1,0.3-0.4,0.3-0.6V517l51.9,30v0l51.9-30v59.2L837.3,607l53.3,30.8v59.2v2.4v59.2
			l-51.9,30l-51.9-30v-60.4c0-0.3-0.1-0.5-0.3-0.6L734.2,667.5z M681,758.3l-103.7-60l51.2-29.6l52.2,30.2c0.2,0.1,0.5,0.1,0.7,0
			l52.2-30.2l51.2,29.6L681,758.3z M576.5,637.9l51.2-29.6l0,39.6v19.6l-51.2,29.6V637.9z M524.7,424.5l51.2-29.6l51.2,29.6
			l-51.2,29.6L524.7,424.5z M575.1,514.5l-51.5-29.8l0,0l-52.2-30.2v-60.4c0,0,0,0,0,0c0-0.1,0-0.2-0.1-0.3c0,0-0.1-0.1-0.1-0.1
			c0,0-0.1-0.1-0.1-0.1l-52.2-30.2V243.2l51.2,29.6v60.4c0,0.3,0.1,0.5,0.4,0.6c0,0,0,0,0,0l52.2,30.2v60.4c0,0.2,0.1,0.5,0.4,0.6
			c0,0,0,0,0,0l52.2,30.2V514.5z M521.8,607l-50.5,29.2v-58.4L521.8,607z M522.5,546.6v59.2l-51.2-29.6V517L522.5,546.6z
			 M523.3,486.2l51.2,29.6l-51.2,29.6l-51.2-29.6l10.7-6.2L523.3,486.2z M478.1,510.7l-6.7,3.9v-58.4l50.5,29.2L478.1,510.7z
			 M575.1,637l-52.2,30.2c0,0,0,0,0,0l-52.5,30.4c0,0,0,0,0,0c-0.2,0.1-0.4,0.4-0.4,0.6v60.4l-51.2,29.6V667.9
			c0-0.3-0.1-0.5-0.3-0.6c-0.2-0.1-0.5-0.1-0.7,0l-51.5,29.8v-59.2l52.2-30.2c0.2-0.1,0.4-0.4,0.4-0.6c0,0,0,0,0,0v-60.4L470,517
			v120.5c0,0.2,0.1,0.5,0.4,0.6c0.1,0.1,0.2,0.1,0.4,0.1s0.2,0,0.4-0.1l52.6-30.4c0.2-0.1,0.4-0.4,0.4-0.6v-60.4l51.2-29.6V637z
			 M574.4,759.1L524,788.3v-58.4L574.4,759.1z M627,789.6l-51.2,29.6l-51.2-29.6l51.2-29.6L627,789.6z M522.5,727.5l-50.5-29.2
			l50.5-29.2V727.5z M522.5,788.3l-51.2-29.6v-59.2l51.2,29.6V788.3z M417.4,788.3l-51.2-29.6v-60l51.2-29.6V788.3z M314.4,607
			l51.2-29.6l51.2,29.6l-51.2,29.6L314.4,607z M364.9,697.1l-51.5-29.8c0,0-0.1,0-0.1,0c-0.1,0-0.1-0.1-0.2-0.1c-0.1,0-0.1,0-0.2,0
			c-0.1,0-0.1,0-0.2,0c0,0,0,0,0,0s0,0,0,0c-0.1,0-0.1,0.1-0.1,0.1c0,0-0.1,0.1-0.1,0.1c0,0.1-0.1,0.2-0.1,0.2c0,0,0,0.1,0,0.1
			v120.5l-51.2-29.6v-60.4c0-0.1,0-0.2-0.1-0.4c-0.1-0.1-0.1-0.2-0.3-0.3c0,0,0,0,0,0l-52.2-30.2v-59.2l51.5,29.8
			c0.1,0.1,0.2,0.1,0.4,0.1c0.1,0,0.2,0,0.4-0.1c0.2-0.1,0.3-0.4,0.3-0.6V515.8c0-0.3-0.1-0.5-0.3-0.6c0,0,0,0,0,0l-52.2-30.2v-59.2
			l103.7,60V607c0,0.3,0.1,0.5,0.3,0.6c0,0,0,0,0,0l52.2,30.2V697.1z M364.9,758.7l-51.2,29.6l0-6.4l0-112.9l47.7,27.6l3.4,2V758.7z
			 M260.4,819.2l-51.2-29.6l51.2-29.6l51.2,29.6L260.4,819.2z M155.3,758.3l-103.7-60l51.2-29.6l52.2,30.2c0.2,0.1,0.5,0.1,0.7,0
			l52.2-30.2l51.2,29.6L155.3,758.3z M154.6,638.7v58.4l-50.5-29.2L154.6,638.7z M259.7,577.8v58.4L209.3,607L259.7,577.8z
			 M50.9,637.9L259.7,517v59.2l-38.4,22.2l-13.8,8c0,0,0,0,0,0c-0.2,0.1-0.3,0.4-0.3,0.6v0c0,0,0,0,0,0v0v60.4L156,697.1v-59.6
			c0-0.3-0.1-0.5-0.4-0.6c-0.2-0.1-0.5-0.1-0.7,0l-52.6,30.4c0,0,0,0,0,0l-51.5,29.8V637.9z M50.2,636.6L-1,607l4.9-2.8l99.2-57.4
			c0.2-0.1,0.3-0.4,0.3-0.6c0,0,0,0,0,0l0,0c0-0.3-0.1-0.5-0.3-0.6l-51.5-29.8l51.2-29.6l52.2,30.2c0.2,0.1,0.5,0.1,0.7,0l52.2-30.2
			l45.2,26.2l5.9,3.4L50.2,636.6z M76.3,775l25.1,14.5l-51.2,29.6L-1,789.6L50.2,760L76.3,775z M101.3,546.2l-50.5,29.2V517
			L101.3,546.2z M102,425.7v59.2l-50,28.9l-1.2,0.7v-59.2L102,425.7z M-1,424.5l51.2-29.6l51.2,29.6l-51.2,29.6L-1,424.5z
			 M50.9,334.5l51.2,29.6v59.2l-51.2-29.6V334.5z M102.7,303.6l51.2,29.6l-51.2,29.6l-51.2-29.6L102.7,303.6z M50.9,211.1l0-59.2
			l51.2,29.6l0,59.2L50.9,211.1z M50.2,89.1L-1,59.4l51.2-29.6l51.2,29.6L50.2,89.1z M102,121.5v58.4l-50.5-29.2L102,121.5z
			 M50.9,149.5l0-59.2L102,60.7v59.2L50.9,149.5z M128.7,197l25.2,14.6l-25.5,14.8l-25,14.4l0-58.4L128.7,197z M103.4,60.7
			l51.2,29.6v60.4c0,0.3,0.1,0.5,0.4,0.6c0,0,0,0,0,0l52.2,30.2v59.2l-51.5-29.8c0,0,0,0,0,0l-52.2-30.2v-60.4c0,0,0,0,0,0
			L103.4,60.7z M156,90.3l51.2-29.6v59.2L156,149.5V90.3z M207.9,121.1l51.2,29.6l-51.2,29.6l-51.2-29.6L207.9,121.1z M208.6,105.1
			l0-44.4l51.2,29.6l0,59.2l-51.2-29.6V105.1z M104.1,242l26.7-15.4l24.5-14.2l52.2,30.2c0,0,0,0,0,0c0.2,0.1,0.5,0.1,0.7,0
			l51.5-29.8l0,59.2l-51.9,30L104.1,242z M156,393.7v-60.4v0c0-0.1,0-0.2-0.1-0.4c-0.1-0.1-0.1-0.2-0.3-0.3h0l-52.2-30.2v-59.2
			l103.7,60v120.1L156,393.7z M156,455.3l51.2-29.6v59.2L156,514.5V455.3z M103.4,423.3v-59.2l51.2-29.6v59.2L103.4,423.3z
			 M154.6,455.3v59.2l-51.2-29.6v-59.2L154.6,455.3z M104.1,424.5l51.2-29.6l51.2,29.6l-51.2,29.6L104.1,424.5z M260.8,151.3
			C260.8,151.3,260.8,151.3,260.8,151.3c0.2-0.1,0.4-0.4,0.4-0.6V90.3l51.2-29.6v120.5c0,0.3,0.1,0.5,0.3,0.6c0.2,0.1,0.5,0.1,0.7,0
			l51.5-29.8l0,59.2l-52.2,30.2c0,0,0,0,0,0c-0.2,0.1-0.3,0.4-0.3,0.6v60.4l-52.2,30.2c0,0,0,0,0,0c-0.2,0.1-0.3,0.4-0.3,0.6v60.4
			l-51.2,29.6V303.2l52.2-30.2c0.2-0.1,0.4-0.4,0.4-0.6v-60.8c0-0.3-0.1-0.5-0.4-0.6c-0.2-0.1-0.5-0.1-0.7,0l-51.5,29.8l0-44.4
			v-14.8L260.8,151.3z M313.7,121.5l50.5,29.2l-50.5,29.2V121.5z M313.7,60.7l51.2,29.6l0,59.2l-51.2-29.6L313.7,60.7z M364.9,30.2
			v58.4l-50.5-29.2L364.9,30.2z M368.6,214.1l48.1,27.9l-51.2,29.6L314.4,242l51.2-29.6L368.6,214.1z M418.8,423.3v-58.4l50.5,29.2
			L418.8,423.3z M419.5,424.5l50.5-29.2v58.4L419.5,424.5z M418.8,484.9v-59.2l51.2,29.6v59.2L418.8,484.9z M367,515.8l51.2-29.6
			l51.2,29.6l-51.2,29.6L367,515.8z M366.3,517l51.2,29.6v59.2l-51.2-29.6V517z M313.7,526.2v-40.5l103.7-60l0,44.5v14.8L375,509.5
			l-9.8,5.7c0,0,0,0,0,0c-0.2,0.1-0.4,0.4-0.4,0.6v0v0v60.4l-50.2,29.1l-0.9,0.5L313.7,526.2z M312.6,425.1
			C312.6,425.1,312.6,425.1,312.6,425.1c0.1,0.1,0.2,0.1,0.4,0.1s0.2,0,0.4-0.1l52.2-30.2l51.2,29.6l-103.7,60l-103.7-60l51.2-29.6
			L312.6,425.1z M312.3,364.1v14.7l0,44.5l-51.2-29.6v-59.2L312.3,364.1z M331.6,314.4l32.5,18.8L313,362.8l-51.2-29.6l51.2-29.6
			L331.6,314.4z M364.9,332l-51.2-29.6v-59.2l51.2,29.6L364.9,332z M417.4,364.9V394l0,29.3L367,394.1L417.4,364.9z M365.2,393.5
			C365.2,393.5,365.2,393.5,365.2,393.5l-51.5,29.8v-59.2l52.2-30.2c0,0,0,0,0,0c0.2-0.1,0.3-0.4,0.3-0.6v-60.4l51.2-29.6v120.1
			L365.2,393.5z M366.3,151.9l103,59.6l-51.2,29.6l-47.7-27.6l-4.2-2.4L366.3,151.9z M416.7,120.3l-50.5,29.2l0-58.4L416.7,120.3z
			 M522.9,181.7L522.9,181.7l52.6,30.4c0,0,0,0,0,0l52.6,30.4c0,0,0,0,0,0c0,0,0,0,0.1,0c0,0,0.1,0,0.1,0.1c0,0,0.1,0,0.1,0
			c0,0,0,0,0.1,0c0,0,0,0,0.1,0c0.1,0,0.2,0,0.3-0.1c0,0,0,0,0,0l52.6-30.4c0,0,0,0,0,0l52.2-30.2l52.2,30.2h0l51.5,29.8l-51.2,29.6
			l-52.2-30.2c-0.2-0.1-0.5-0.1-0.7,0h0L628.4,302l-104.8-60.6c-0.2-0.1-0.5-0.1-0.7,0l-52.2,30.2L419.5,242l51.5-29.8
			c0.2-0.1,0.4-0.4,0.4-0.6c0-0.3-0.1-0.5-0.4-0.6L367,150.7l51.2-29.6L522.9,181.7z M419.5,59.4l51.2-29.6l52.2,30.2c0,0,0,0,0,0
			c0.1,0.1,0.2,0.1,0.4,0.1s0.2,0,0.4-0.1l52.2-30.2L627,59.4l-103.7,60L419.5,59.4z M627.7,119.9l-52.2,30.2
			c-0.2,0.1-0.4,0.4-0.4,0.6v59.6L524,180.7v-60l103.7-60V119.9z M627.7,181.5v59.2l-51.2-29.6v-59.2L627.7,181.5z M680.2,151.9
			v59.2l-51.2,29.6v-59.2L680.2,151.9z M628.4,121.1l51.2,29.6l-51.2,29.6l-51.2-29.6L628.4,121.1z M629.1,60.7l51.2,29.6l0,59.2
			l-51.2-29.6V60.7z M680.9,29.8l51.2,29.6l-51.2,29.6l-51.2-29.6L680.9,29.8z M724.5,176.7l7.6,4.4l-50.5,29.2v-58.4L724.5,176.7z
			 M785.4,151.9v58.4l-50.5-29.2L785.4,151.9z M733.5,121.1l51.2,29.6l-51.2,29.6l-51.2-29.6L733.5,121.1z M785.4,91.1v58.4
			l-50.5-29.2L785.4,91.1z M786.8,151.9l51.9,30v0l51.8-30l0,58.8v0.4l-51.9,30l-42.9-24.8l-9-5.2V151.9z M786.8,91.1l1.5,0.9
			l49,28.3l-50.5,29.2V91.1z M889.8,150.7l-51.1,29.6l-51.2-29.6l51.2-29.6L889.8,150.7z M891.2,212.4l51.2,29.6l-155.6,90v-59.2
			l96.2-55.7L891.2,212.4z M840.1,59.4l51.2-29.6l51.2,29.6l-51.2,29.6L840.1,59.4z M943.1,119.9l-51.2,29.6l0-59.2l51.2-29.6V119.9
			z M892.6,150.7l50.5-29.2v58.4L892.6,150.7z M891.9,211.1l0-59.2l51.2,29.6l0,59.2L891.9,211.1z M891.9,393.7v-59.2l51.2,29.6
			v59.2L891.9,393.7z M891.9,455.3l51.2-29.6v59.2l-50,28.9l-1.2,0.7V455.3z M891.9,517l50.5,29.2l-50.5,29.2V517z M840.1,424.5
			l51.2-29.6l51.2,29.6l-51.2,29.6L840.1,424.5z M837.2,424.5l-50.5,29.2v-58.4L837.2,424.5z M889.8,394.1l-51.2,29.6l-51.9-30
			v-59.2L889.8,394.1z M943.1,243.2v59.2l-52.2,30.2c0,0,0,0,0,0c-0.2,0.1-0.3,0.4-0.3,0.6v59.6l-103-59.6L943.1,243.2z
			 M680.2,455.3v59.2l-51.2-29.6v-59.2L680.2,455.3z M732.8,302.4l-52.2,30.2c0,0,0,0,0,0c-0.2,0.1-0.4,0.4-0.4,0.6v60.4l-51.2,29.6
			V303.2l103.7-60V302.4z M732.1,424.5l-51.2,29.6l-51.2-29.6l51.2-29.6L732.1,424.5z M681.6,393.7v-59.2l51.2,29.6v59.2
			L681.6,393.7z M734.2,302.4l0-59.2l51.2,29.6l0,59.2l-26.5-15.3L734.2,302.4z M784.7,333.2l-51.2,29.6l-51.2-29.6l51.2-29.6
			L784.7,333.2z M576.5,514.5v-59.2l51.2-29.6v59.2L576.5,514.5z M577.2,515.8l51.2-29.6l52.2,30.2c0.2,0.1,0.5,0.1,0.7,0l51.5-29.8
			v59.2l-51.9,30L577.2,515.8z M524,364.1l51.2-29.6v59.2L524,423.3V364.1z M471.4,332v-59.2l51.2-29.6v59.2l-3.9,2.3L471.4,332z
			 M520.6,305.2l2.7-1.5l38.2,22.1l13,7.5l-51.2,29.6l-51.2-29.6L520.6,305.2z M576.2,332.6C576.2,332.6,576.2,332.6,576.2,332.6
			L524,302.4v-59.2l103.7,60v120.1l-51.2-29.6v-60.4C576.5,333,576.4,332.8,576.2,332.6L576.2,332.6z M627,607l-50.5,29.2v-58.4
			L627,607z M629.1,607c0-0.3-0.1-0.5-0.4-0.6l-52.2-30.2V517l103.7,60v120.1l-51.2-29.6L629.1,607C629.1,607,629.1,607,629.1,607
			C629.1,607,629.1,607,629.1,607L629.1,607z M785.4,577.8v58.4L734.9,607l23.5-13.6L785.4,577.8z M889.8,515.8l-51.2,29.6
			l-51.2-29.6l51.2-29.6L889.8,515.8z M838.6,484.5l-52.9,30.7c0,0,0,0,0,0c-0.2,0.1-0.3,0.4-0.3,0.6v60.4l-52.2,30.2c0,0,0,0,0,0
			c-0.2,0.1-0.4,0.4-0.4,0.6v60.4l-51.2,29.6V577l52.2-30.2c0.2-0.1,0.4-0.4,0.4-0.6v-60.9c0-0.2-0.1-0.5-0.4-0.6
			c-0.2-0.1-0.5-0.1-0.7,0l-51.5,29.8v-59.2l52.2-30.2c0,0,0,0,0,0c0.2-0.1,0.4-0.4,0.4-0.6v-60.4l51.2-29.6v120.5
			c0,0.3,0.1,0.5,0.3,0.6c0.1,0.1,0.2,0.1,0.4,0.1s0.2,0,0.4-0.1l52.2-30.2l51.9,30v59.2L838.6,484.5z M943.8,303.6l51.2,29.6
			l-51.2,29.6l-51.2-29.6L943.8,303.6z M969.7,197l25.2,14.6l-25.5,14.8l-25,14.4l0-58.4L969.7,197z M944.5,60.7l51.2,29.6v60.4
			c0,0.3,0.1,0.5,0.3,0.6c0,0,0,0,0,0l52.2,30.2v59.2l-51.5-29.8c0,0,0,0,0,0l-52.2-30.2v-60.4c0,0,0,0,0,0L944.5,60.7z M997.1,90.3
			l51.2-29.6v59.2l-51.2,29.6V90.3z M1048.9,121.1l51.2,29.6l-51.2,29.6l-51.2-29.6L1048.9,121.1z M1049.6,105.1l0-44.4l51.2,29.6
			l0,59.2l-51.2-29.6V105.1z M945.2,242l26.7-15.4l24.5-14.2l52.2,30.2c0,0,0,0,0,0c0.2,0.1,0.5,0.1,0.7,0l51.5-29.8l0,59.2
			l-51.9,30L945.2,242z M997.1,393.7v-60.4v0c0-0.1,0-0.2-0.1-0.4c-0.1-0.1-0.1-0.2-0.3-0.3h0l-52.2-30.2v-59.2l103.7,60v120.1
			L997.1,393.7z M997.1,455.3l51.2-29.6v59.2l-51.2,29.6V455.3z M944.5,423.3v-59.2l51.2-29.6v59.2L944.5,423.3z M995.7,455.3v59.2
			l-51.2-29.6v-59.2L995.7,455.3z M945.2,424.5l51.2-29.6l51.2,29.6l-51.2,29.6L945.2,424.5z M1101.8,151.3
			C1101.8,151.3,1101.8,151.3,1101.8,151.3c0.2-0.1,0.4-0.4,0.4-0.6V90.3l51.2-29.6v120.5c0,0.3,0.1,0.5,0.3,0.6
			c0.2,0.1,0.5,0.1,0.7,0l51.5-29.8l0,59.2l-52.2,30.2c0,0,0,0,0,0c-0.2,0.1-0.3,0.4-0.3,0.6v60.4l-52.2,30.2c0,0,0,0,0,0
			c-0.2,0.1-0.3,0.4-0.3,0.6v60.4l-51.2,29.6V303.2l52.2-30.2c0.2-0.1,0.4-0.4,0.4-0.6v-60.8c0-0.3-0.1-0.5-0.4-0.6
			c-0.2-0.1-0.5-0.1-0.7,0l-51.5,29.8l0-44.4v-14.8L1101.8,151.3z M1154.8,121.5l50.5,29.2l-50.5,29.2V121.5z M1154.8,60.7
			l51.2,29.6l0,59.2l-51.2-29.6L1154.8,60.7z M1205.9,30.2v58.4l-50.5-29.2L1205.9,30.2z M1209.6,214.1l48.1,27.9l-51.2,29.6
			l-51.2-29.6l51.2-29.6L1209.6,214.1z M1259.9,423.3v-58.4l50.5,29.2L1259.9,423.3z M1260.6,424.5l50.5-29.2v58.4L1260.6,424.5z
			 M1259.9,484.9v-59.2l51.2,29.6v59.2L1259.9,484.9z M1208,515.8l51.2-29.6l51.2,29.6l-51.2,29.6L1208,515.8z M1207.3,517
			l51.2,29.6v59.2l-51.2-29.6V517z M1154.8,526.2v-40.5l103.7-60l0,44.5v14.8l-42.4,24.5l-9.8,5.7c0,0,0,0,0,0
			c-0.2,0.1-0.4,0.4-0.4,0.6v0v0v60.4l-50.2,29.1l-0.9,0.5L1154.8,526.2z M1153.7,425.1C1153.7,425.1,1153.7,425.1,1153.7,425.1
			c0.1,0.1,0.2,0.1,0.4,0.1c0.1,0,0.2,0,0.3-0.1l52.2-30.2l51.2,29.6l-103.7,60l-103.7-60l51.2-29.6L1153.7,425.1z M1153.3,364.1
			v14.7l0,44.5l-51.2-29.6v-59.2L1153.3,364.1z M1172.7,314.4l32.5,18.8l-51.2,29.6l-51.2-29.6l51.2-29.6L1172.7,314.4z M1205.9,332
			l-51.2-29.6v-59.2l51.2,29.6L1205.9,332z M1258.5,364.9V394l0,29.3l-50.5-29.2L1258.5,364.9z M1206.3,393.5
			C1206.3,393.5,1206.3,393.5,1206.3,393.5l-51.5,29.8v-59.2l52.2-30.2c0,0,0,0,0,0c0.2-0.1,0.3-0.4,0.3-0.6v-60.4l51.2-29.6v120.1
			L1206.3,393.5z M1207.3,151.9l103,59.6l-51.2,29.6l-47.7-27.6l-4.2-2.4L1207.3,151.9z M1257.8,120.3l-50.5,29.2l0-58.4
			L1257.8,120.3z M1260.6,59.4l51.2-29.6l52.2,30.2c0,0,0,0,0,0c0.1,0.1,0.2,0.1,0.3,0.1s0.2,0,0.4-0.1l52.2-30.2l51.2,29.6
			l-103.7,60L1260.6,59.4z M1468.7,119.9l-52.2,30.2c-0.2,0.1-0.3,0.4-0.3,0.6v59.6l-51.2-29.6v-60l103.7-60V119.9z M1468.7,181.5
			v59.2l-51.2-29.6v-59.2L1468.7,181.5z M1521.3,151.9v59.2l-51.2,29.6v-59.2L1521.3,151.9z M1469.4,121.1l51.2,29.6l-51.2,29.6
			l-51.2-29.6L1469.4,121.1z M1470.1,60.7l51.2,29.6l0,59.2l-51.2-29.6V60.7z M1522,29.8l51.2,29.6L1522,89.1l-51.2-29.6L1522,29.8z
			 M1565.5,176.7l7.6,4.4l-50.5,29.2v-58.4L1565.5,176.7z M1626.4,151.9v58.4l-50.5-29.2L1626.4,151.9z M1574.6,121.1l51.2,29.6
			l-51.2,29.6l-51.2-29.6L1574.6,121.1z M1626.4,91.1v58.4l-50.5-29.2L1626.4,91.1z M1599.5,593.4l26.9-15.6v58.4L1576,607
			L1599.5,593.4z M1678.3,789.6l-51.2,29.6l-51.2-29.6l4.5-2.6l46.6-27L1678.3,789.6z M1678.3,118.7l-46.6-27l-3.9-2.2V0h-1.4v89.5
			l-52.2,30.2c0,0,0,0,0,0l-51.5,29.8V90.3l52.2-30.2c0,0,0,0,0,0c0.2-0.1,0.4-0.4,0.4-0.6V0h-1.4v58.2l-51.2-29.6V0h-1.4v28.6
			l-51.2,29.6V0h-1.4v58.2l-51.5-29.8c0,0,0,0,0,0L1368.1,0h-2.8l48.3,27.9l1.9,1.1L1365,58.2V0h-1.4v58.2l-51.2-29.6V0h-1.4v28.6
			l-51.2,29.6V0h-1.4v59.4c0,0.1,0,0.2,0.1,0.4c0.1,0.1,0.1,0.2,0.3,0.3c0,0,0,0,0,0l104.8,60.6l0,59.2l-104.1-60.2h0l-52.2-30.2V0
			h-1.4v28.6l-51.2,29.6l0-11.1V0h-1.4l0,46.5v11.7L1102.9,29L1153,0h-2.8l-49.1,28.4c-0.2,0.1-0.4,0.4-0.4,0.6l0,0
			c0,0.3,0.1,0.5,0.3,0.6l51.5,29.8l-51.2,29.6l-52.2-30.2c-0.2-0.1-0.5-0.1-0.7,0l-52.2,30.2l-51.2-29.6l51.5-29.8h0L1047.9,0h-2.8
			l-48,27.8V0h-1.4v28.6l-51.2,29.6V0h-1.4v58.2L892.6,29l5.6-3.2L942.8,0H940l-45.4,26.3l-3.6,2.1c0,0,0,0,0,0l-50.8,29.4l-2.8,1.6
			l53.3,30.8l0,59.2l-99.9-57.8l-3.9-2.2V0h-1.4v89.5l-52.2,30.2c0,0,0,0,0,0l-51.5,29.8V90.3l52.2-30.2c0,0,0,0,0,0
			c0.2-0.1,0.4-0.4,0.4-0.6V0h-1.4v58.2l-51.2-29.6V0h-1.4v28.6l-51.2,29.6V0h-1.4v58.2l-51.5-29.8c0,0,0,0,0,0L527.1,0h-2.8
			l48.3,27.9l1.9,1.1L524,58.2V0h-1.4v58.2l-51.2-29.6V0H470v28.6l-51.2,29.6V0h-1.4v59.4c0,0.1,0,0.2,0.1,0.4
			c0.1,0.1,0.1,0.2,0.3,0.3c0,0,0,0,0,0l104.8,60.6l0,59.2l-104.1-60.2h0l-52.2-30.2V0h-1.4v28.6l-51.2,29.6l0-11.1V0h-1.4l0,46.5
			v11.7L261.8,29L312,0h-2.8l-49.1,28.4c-0.2,0.1-0.4,0.4-0.4,0.6l0,0c0,0.3,0.1,0.5,0.3,0.6l51.5,29.8l-51.2,29.6l-52.2-30.2
			c-0.2-0.1-0.5-0.1-0.7,0l-52.2,30.2l-51.2-29.6l51.5-29.8h0L206.9,0H204l-48,27.8V0h-1.4v28.6l-51.2,29.6V0H102v58.2L51.6,29
			l5.6-3.2L101.7,0h-2.8L53.5,26.3l-3.6,2.1c0,0,0,0,0,0L-1,57.8v3.2l50.5,29.2l0,59.2L-1,120.3v1.6l49.8,28.8L-1,179.5v1.6l0.4-0.2
			l50.1-29l0,58.8v0.4L-1,240.4v1.6l42.9-24.9l8.2-4.8l51.2,29.6L-1,301.2v1.6l103-59.6v59.2l-52.2,30.2c0,0,0,0,0,0
			c-0.2,0.1-0.4,0.4-0.4,0.6v60.4L-1,422.9v3.2l50.5,29.2v59.2L-1,485.3v1.6l49.8,28.8L-1,544.6v1.6L49.5,517v59.2L-1,605.4v3.2
			l50.5,29.2v59.2L-1,667.9v1.6l49.8,28.8L-1,727.1v1.6l50.5-29.2v59.2L-1,787.9v3.2l50.5,29.2v20h1.4v-20l51.2-29.6v49.6h1.4v-50.8
			v0v0c0-0.2-0.1-0.5-0.3-0.6c0,0,0,0,0,0l-19.9-11.5l-32.3-18.7v-59.2l103.7,60v80.8h1.4v-80.8l103.7-60l0,59.2l-52.2,30.2
			c0,0,0,0,0,0c-0.2,0.1-0.3,0.4-0.3,0.6v50.8h1.4v-49.6l51.2,29.6v20h1.4v-20l51.2-29.6v49.6h1.4v-49.7l100,49.7h3.2l-102.4-50.8
			l51.1-29.6l52.2,30.2v0c0.1,0.1,0.2,0.1,0.4,0.1c0.1,0,0.2,0,0.4-0.1l52.2-30.2l51.1,29.6l-102.4,50.8h3.2l100-49.7v49.7h1.4
			v-49.6l51.2,29.6v20h1.4v-20l51.2-29.6v49.6h1.4v-50.8c0-0.2-0.1-0.5-0.4-0.6L524,728.3v-60l51.2-29.6v59.6c0,0.3,0.1,0.5,0.4,0.6
			l104.8,60.6v80.8h1.4v-80.8l103.7-60v59.2l-52.2,30.2c0,0,0,0,0,0c-0.2,0.1-0.4,0.4-0.4,0.6v0.6l0,50.2h1.4v-22.8l0-26.7
			l51.2,29.6v20h1.4v-20l50.5-29.2l1.4-0.8l1.4,0.8l50.5,29.2v20h1.4v-20l51.2-29.6v49.6h1.4v-50.8v0v0c0-0.2-0.1-0.5-0.4-0.6
			c0,0,0,0,0,0l-19.9-11.5l-32.3-18.7v-59.2l103.7,60v80.8h1.4v-80.8l103.7-60l0,59.2l-52.2,30.2c0,0,0,0,0,0
			c-0.2,0.1-0.4,0.4-0.4,0.6v50.8h1.4v-49.6l51.2,29.6v20h1.4v-20l51.2-29.6v49.6h1.4v-49.7l100,49.7h3.2l-102.4-50.8l51.1-29.6
			l52.2,30.2v0c0.1,0.1,0.2,0.1,0.4,0.1c0.1,0,0.2,0,0.3-0.1l52.2-30.2l51.1,29.6l-102.4,50.8h3.2l100-49.7v49.7h1.4v-49.6
			l51.2,29.6v20h1.4v-20l51.2-29.6v49.6h1.4v-50.8c0-0.2-0.1-0.5-0.3-0.6L1365,728.3v-60l51.2-29.6v59.6c0,0.3,0.1,0.5,0.3,0.6
			l104.8,60.6v80.8h1.4v-80.8l103.7-60v59.2l-52.2,30.2c0,0,0,0,0,0c-0.2,0.1-0.4,0.4-0.4,0.6v0.6l0,50.2h1.4v-22.8l0-26.7
			l51.2,29.6v20h1.4v-20l50.5-29.2v-3.2l-50.5-29.2v-60.4c0-0.3-0.1-0.5-0.4-0.6l-52.2-30.2v-59.2l51.5,29.8
			c0.1,0.1,0.2,0.1,0.4,0.1s0.2,0,0.3-0.1c0.2-0.1,0.4-0.4,0.4-0.6V517l50.5,29.2v-1.6l-49.8-28.8l49.8-28.8v-1.6l-51.5,29.8
			c0,0,0,0,0,0c-0.2,0.1-0.4,0.4-0.4,0.6v60.4l-52.2,30.2c0,0,0,0,0,0c-0.2,0.1-0.4,0.4-0.4,0.6v60.4l-51.2,29.6V577l52.2-30.2
			c0.2-0.1,0.4-0.4,0.4-0.6v-60.9c0-0.2-0.1-0.5-0.4-0.6c-0.2-0.1-0.5-0.1-0.7,0l-51.5,29.8v-59.2l52.2-30.2c0,0,0,0,0,0
			c0.2-0.1,0.4-0.4,0.4-0.6v-60.4l51.2-29.6v120.5c0,0.3,0.1,0.5,0.4,0.6c0.1,0.1,0.2,0.1,0.4,0.1s0.2,0,0.3-0.1l50.8-29.4v-3.2
			l-50.5-29.2v-59.2l50.5,29.2V362l-49.8-28.8l48.6-28.1l1.2-0.7v-1.6l-50.5,29.2v-59.2l50.5-29.2v-3.2l-41.5-24l-9-5.2v-59.2
			l50.5,29.2v-1.6l-49.8-28.8l49.8-28.8V118.7z"/>
	</g>
</g>
</svg>
