<?xml version="1.0" encoding="UTF-8" standalone="no"?>
<svg width="1398px" height="600px" viewBox="0 0 1398 600" version="1.1" xmlns="http://www.w3.org/2000/svg" xmlns:xlink="http://www.w3.org/1999/xlink">
    <!-- Generator: Sketch 44.1 (41455) - http://www.bohemiancoding.com/sketch -->
    <title>pattern-fill-1</title>
    <desc>Created with Sketch.</desc>
    <defs>
        <rect id="path-1" x="0" y="0" width="1398" height="600"></rect>
    </defs>
    <g id="Symbols" stroke="none" stroke-width="1" fill="none" fill-rule="evenodd">
        <g id="Hero/Publications/Landing" transform="translate(-1.000000, 0.000000)">
            <g id="pattern-fill-1" transform="translate(1.000000, 0.000000)">
                <mask id="mask-2" fill="white">
                    <use xlink:href="#path-1"></use>
                </mask>
                <use id="Mask" fill="#FFFFFF" xlink:href="#path-1"></use>
                <path d="M1627.835,149.49 L1627.835,91.085 L1629.326,91.948 L1678.292,120.288 L1627.835,149.49 Z M1678.292,241.974 L1627.135,271.584 L1574.919,241.362 C1574.703,241.238 1574.435,241.238 1574.218,241.362 L1574.217,241.362 L1469.44,302.007 L1364.66,241.364 C1364.444,241.239 1364.175,241.239 1363.959,241.364 L1311.746,271.584 L1260.582,241.971 L1312.095,212.16 C1312.31,212.035 1312.446,211.803 1312.446,211.553 C1312.446,211.3 1312.31,211.069 1312.095,210.943 L1208.022,150.71 L1259.181,121.099 L1363.957,181.74 L1363.959,181.741 L1416.523,212.16 C1416.526,212.161 1416.528,212.16 1416.531,212.161 L1469.083,242.58 C1469.086,242.582 1469.086,242.585 1469.088,242.586 C1469.112,242.599 1469.139,242.594 1469.164,242.606 C1469.203,242.622 1469.237,242.655 1469.28,242.663 C1469.315,242.674 1469.347,242.66 1469.382,242.664 C1469.401,242.666 1469.419,242.68 1469.439,242.68 C1469.457,242.68 1469.474,242.667 1469.492,242.666 C1469.589,242.66 1469.678,242.638 1469.762,242.593 C1469.77,242.589 1469.782,242.59 1469.79,242.586 L1522.355,212.16 C1522.357,212.158 1522.357,212.157 1522.36,212.156 L1574.566,181.943 L1626.783,212.158 L1626.784,212.158 L1678.292,241.974 Z M1678.297,424.5 L1627.835,453.703 L1627.835,395.298 L1678.297,424.5 Z M1599.918,316.675 L1575.269,302.409 L1575.27,243.188 L1626.431,272.801 L1626.432,332.02 L1599.918,316.675 Z M1574.569,362.846 L1523.409,333.237 L1574.567,303.627 L1625.73,333.237 L1574.569,362.846 Z M1573.866,423.285 L1522.705,393.673 L1522.705,334.454 L1573.866,364.066 L1573.866,423.285 Z M1470.14,423.285 L1470.14,303.225 L1573.866,243.188 L1573.866,302.41 L1521.662,332.623 C1521.659,332.625 1521.656,332.625 1521.653,332.626 C1521.438,332.751 1521.303,332.983 1521.303,333.234 L1521.303,393.676 L1470.14,423.285 Z M1522.004,454.108 L1470.845,424.5 L1522.004,394.893 L1573.162,424.5 L1522.004,454.108 Z M1470.14,484.933 L1470.14,425.716 L1521.301,455.328 L1521.301,514.547 L1470.14,484.933 Z M1573.866,486.56 L1573.866,545.786 L1522.007,575.802 L1418.28,515.764 L1469.439,486.154 L1521.653,516.377 C1521.87,516.503 1522.138,516.503 1522.355,516.377 L1573.866,486.56 Z M1574.567,668.684 L1625.726,698.295 L1522.008,758.325 L1418.283,698.291 L1469.439,668.684 L1521.653,698.907 C1521.87,699.032 1522.138,699.032 1522.355,698.907 L1574.567,668.684 Z M1417.575,637.859 L1468.736,608.246 L1468.738,647.879 L1468.738,667.463 L1417.575,697.078 L1417.575,637.859 Z M1468.738,425.716 L1468.738,484.936 L1417.575,514.55 L1417.575,455.328 L1468.738,425.716 Z M1365.713,424.502 L1416.874,394.893 L1468.036,424.5 L1416.877,454.108 L1365.713,424.502 Z M1363.608,302.41 L1359.684,304.682 L1312.446,332.018 L1312.446,272.801 L1363.608,243.193 L1363.608,302.41 Z M1416.173,334.454 L1416.173,393.676 L1365.011,423.285 L1365.011,364.066 L1416.173,334.454 Z M1402.496,325.727 L1415.471,333.237 L1364.311,362.846 L1313.151,333.237 L1361.654,305.165 L1364.309,303.627 L1402.496,325.727 Z M1417.225,332.628 C1417.224,332.626 1417.222,332.626 1417.221,332.626 L1365.011,302.409 L1365.011,243.193 L1468.738,303.225 L1468.738,423.284 L1417.575,393.67 L1417.575,333.236 C1417.575,332.985 1417.44,332.752 1417.225,332.628 L1417.225,332.628 Z M1468.035,607.028 L1417.575,636.234 L1417.575,577.826 L1468.035,607.028 Z M1470.139,607.024 C1470.139,606.772 1470.003,606.541 1469.788,606.416 L1417.575,576.197 L1417.575,516.981 L1521.303,577.022 L1521.303,697.075 L1470.14,667.46 L1470.139,607.035 C1470.139,607.032 1470.14,607.031 1470.14,607.03 C1470.14,607.028 1470.139,607.027 1470.139,607.024 L1470.139,607.024 Z M1416.173,514.547 L1364.664,484.739 L1364.66,484.734 L1312.446,454.515 L1312.446,394.078 C1312.446,394.067 1312.438,394.058 1312.438,394.049 C1312.43,393.929 1312.401,393.816 1312.34,393.718 C1312.31,393.669 1312.263,393.641 1312.224,393.6 C1312.18,393.557 1312.15,393.502 1312.095,393.471 L1259.88,363.251 L1259.88,243.19 L1311.043,272.801 L1311.043,333.241 C1311.043,333.492 1311.179,333.723 1311.394,333.849 C1311.399,333.852 1311.405,333.85 1311.409,333.853 L1363.608,364.066 L1363.608,424.504 C1363.608,424.753 1363.744,424.987 1363.959,425.11 C1363.961,425.112 1363.964,425.112 1363.967,425.113 L1416.173,455.328 L1416.173,514.547 Z M1362.905,607.028 L1312.446,636.233 L1312.446,577.826 L1362.905,607.028 Z M1363.608,546.596 L1363.608,605.809 L1312.446,576.197 L1312.446,516.981 L1363.608,546.596 Z M1364.309,486.154 L1415.473,515.765 L1364.312,545.376 L1313.15,515.764 L1323.846,509.572 L1364.309,486.154 Z M1319.124,510.684 L1312.446,514.55 L1312.446,456.14 L1362.907,485.342 L1319.124,510.684 Z M1416.173,637.042 L1363.959,667.26 C1363.957,667.261 1363.957,667.262 1363.956,667.262 L1311.416,697.675 C1311.409,697.677 1311.401,697.676 1311.394,697.68 C1311.179,697.805 1311.043,698.037 1311.043,698.288 L1311.043,758.728 L1259.88,788.339 L1259.88,667.866 C1259.88,667.614 1259.747,667.382 1259.53,667.257 C1259.314,667.131 1259.046,667.131 1258.829,667.257 L1207.316,697.073 L1207.316,637.859 L1259.53,607.637 C1259.748,607.512 1259.881,607.28 1259.881,607.03 C1259.881,607.028 1259.88,607.028 1259.88,607.027 L1259.88,546.597 L1311.043,516.981 L1311.043,637.454 C1311.043,637.703 1311.179,637.936 1311.394,638.061 C1311.502,638.124 1311.625,638.156 1311.745,638.156 C1311.865,638.156 1311.988,638.124 1312.095,638.061 L1364.66,607.637 C1364.875,607.512 1365.011,607.28 1365.011,607.03 L1365.011,546.596 L1416.173,516.981 L1416.173,637.042 Z M1415.473,759.135 L1365.011,788.339 L1365.011,729.93 L1415.473,759.135 Z M1468.035,789.555 L1416.878,819.165 L1365.718,789.552 L1416.874,759.951 L1468.035,789.555 Z M1363.608,727.494 L1313.151,698.292 L1363.608,669.09 L1363.608,727.494 Z M1363.608,788.335 L1312.446,758.724 L1312.446,699.51 L1363.608,729.123 L1363.608,788.335 Z M1258.48,788.335 L1207.316,758.724 L1207.316,698.7 L1258.48,669.088 L1258.48,788.335 Z M1155.458,607.027 L1206.615,577.42 L1257.776,607.028 L1206.618,636.637 L1155.458,607.027 Z M1205.915,697.075 L1154.401,667.257 C1154.359,667.232 1154.308,667.239 1154.264,667.225 C1154.19,667.199 1154.116,667.169 1154.039,667.169 C1153.982,667.17 1153.931,667.198 1153.876,667.214 C1153.817,667.229 1153.755,667.229 1153.701,667.261 C1153.689,667.267 1153.685,667.28 1153.676,667.286 C1153.666,667.292 1153.65,667.289 1153.641,667.298 C1153.589,667.335 1153.56,667.393 1153.522,667.44 C1153.494,667.474 1153.459,667.501 1153.438,667.54 C1153.398,667.615 1153.384,667.698 1153.372,667.785 C1153.368,667.814 1153.35,667.84 1153.35,667.869 L1153.35,788.335 L1102.187,758.724 L1102.187,698.292 C1102.187,698.165 1102.154,698.044 1102.093,697.941 C1102.033,697.834 1101.945,697.746 1101.836,697.683 C1101.836,697.683 1101.835,697.683 1101.833,697.681 L1049.622,667.46 L1049.622,608.246 L1101.136,638.061 C1101.245,638.124 1101.365,638.156 1101.487,638.156 C1101.608,638.156 1101.728,638.124 1101.837,638.061 C1102.054,637.936 1102.187,637.703 1102.187,637.454 L1102.187,515.762 C1102.187,515.511 1102.054,515.279 1101.837,515.155 C1101.835,515.153 1101.832,515.153 1101.829,515.152 L1049.622,484.933 L1049.622,425.716 L1153.35,485.75 L1153.35,607.031 C1153.35,607.283 1153.483,607.514 1153.7,607.638 C1153.701,607.64 1153.703,607.638 1153.705,607.64 L1205.915,637.859 L1205.915,697.075 Z M1205.915,758.728 L1154.752,788.339 L1154.75,781.953 L1154.752,669.088 L1202.47,696.702 L1205.915,698.697 L1205.915,758.728 Z M1101.491,819.165 L1050.33,789.552 L1101.487,759.951 L1152.646,789.555 L1101.491,819.165 Z M996.36,758.325 L892.628,698.295 L943.791,668.684 L996.006,698.907 C996.221,699.032 996.491,699.032 996.706,698.907 L1048.92,668.684 L1100.081,698.294 L996.36,758.325 Z M995.656,638.667 L995.656,697.075 L945.199,667.869 L995.656,638.667 Z M1100.787,577.826 L1100.787,636.23 L1050.329,607.028 L1100.787,577.826 Z M891.927,637.859 L1100.787,516.981 L1100.787,576.2 L1062.392,598.425 L1048.588,606.412 C1048.582,606.415 1048.577,606.413 1048.571,606.416 C1048.355,606.541 1048.222,606.772 1048.222,607.024 L1048.222,607.027 C1048.222,607.028 1048.22,607.028 1048.22,607.03 L1048.22,607.031 L1048.22,667.463 L997.057,697.078 L997.057,637.447 C997.057,637.195 996.924,636.964 996.706,636.838 C996.491,636.712 996.221,636.712 996.006,636.838 L943.44,667.257 C943.434,667.261 943.431,667.268 943.426,667.272 L891.927,697.078 L891.927,637.859 Z M891.229,636.637 L840.069,607.027 L944.143,546.799 C944.359,546.673 944.492,546.442 944.492,546.191 C944.492,546.19 944.491,546.188 944.491,546.187 L944.492,546.186 C944.492,545.934 944.359,545.702 944.141,545.578 L892.631,515.764 L943.792,486.154 L996.006,516.377 C996.223,516.503 996.491,516.503 996.708,516.377 L1048.922,486.154 L1094.163,512.34 L1100.083,515.764 L891.229,636.637 Z M917.313,775.047 L942.384,789.556 L891.23,819.166 L840.071,789.555 L891.226,759.951 L917.313,775.047 Z M786.079,819.165 L734.917,789.552 L739.462,786.925 L786.075,759.951 L837.236,789.555 L786.079,819.165 Z M734.21,667.46 L734.21,608.245 L785.724,638.061 C785.832,638.124 785.955,638.156 786.075,638.156 C786.195,638.156 786.318,638.124 786.426,638.061 C786.641,637.936 786.776,637.703 786.776,637.454 L786.776,516.981 L838.671,546.966 L838.671,546.965 L890.526,516.982 L890.526,576.2 L837.263,607.03 L890.526,637.859 L890.526,697.075 L890.526,699.51 L890.526,758.728 L838.653,788.735 L786.776,758.724 L786.776,698.291 C786.776,698.04 786.641,697.806 786.426,697.683 L734.21,667.46 Z M680.95,758.325 L577.224,698.291 L628.381,668.684 L680.595,698.907 C680.811,699.032 681.08,699.032 681.296,698.907 L733.509,668.684 L784.667,698.295 L680.95,758.325 Z M576.517,637.859 L627.678,608.246 L627.679,647.879 L627.679,667.463 L576.517,697.078 L576.517,637.859 Z M524.655,424.502 L575.816,394.893 L626.978,424.5 L575.819,454.108 L524.655,424.502 Z M575.115,514.547 L523.606,484.739 L523.602,484.734 L471.387,454.515 L471.387,394.078 C471.387,394.067 471.379,394.058 471.379,394.049 C471.372,393.929 471.343,393.816 471.281,393.718 C471.252,393.669 471.204,393.641 471.165,393.6 C471.122,393.557 471.091,393.502 471.037,393.471 L418.821,363.251 L418.821,243.19 L469.985,272.801 L469.985,333.241 C469.985,333.492 470.12,333.723 470.335,333.849 C470.341,333.852 470.346,333.85 470.351,333.853 L522.55,364.066 L522.55,424.504 C522.55,424.753 522.685,424.987 522.9,425.11 C522.903,425.112 522.906,425.112 522.909,425.113 L575.115,455.328 L575.115,514.547 Z M521.847,607.028 L471.387,636.233 L471.387,577.826 L521.847,607.028 Z M522.55,546.596 L522.55,605.809 L471.387,576.197 L471.387,516.981 L522.55,546.596 Z M523.251,486.154 L574.415,515.765 L523.254,545.376 L472.091,515.764 L482.787,509.572 L523.251,486.154 Z M478.065,510.684 L471.387,514.55 L471.387,456.14 L521.848,485.342 L478.065,510.684 Z M575.115,637.042 L522.9,667.26 C522.899,667.261 522.899,667.262 522.897,667.262 L470.358,697.675 C470.351,697.677 470.342,697.676 470.335,697.68 C470.12,697.805 469.985,698.037 469.985,698.288 L469.985,758.728 L418.821,788.339 L418.821,667.866 C418.821,667.614 418.689,667.382 418.472,667.257 C418.255,667.131 417.987,667.131 417.771,667.257 L366.258,697.073 L366.258,637.859 L418.472,607.637 C418.69,607.512 418.823,607.28 418.823,607.03 C418.823,607.028 418.821,607.028 418.821,607.027 L418.821,546.597 L469.985,516.981 L469.985,637.454 C469.985,637.703 470.12,637.936 470.335,638.061 C470.443,638.124 470.566,638.156 470.686,638.156 C470.806,638.156 470.929,638.124 471.037,638.061 L523.602,607.637 C523.817,607.512 523.952,607.28 523.952,607.03 L523.952,546.596 L575.115,516.981 L575.115,637.042 Z M574.415,759.135 L523.952,788.339 L523.952,729.93 L574.415,759.135 Z M626.977,789.555 L575.82,819.165 L524.659,789.552 L575.816,759.951 L626.977,789.555 Z M522.55,727.494 L472.093,698.292 L522.55,669.09 L522.55,727.494 Z M522.55,788.335 L471.387,758.724 L471.387,699.51 L522.55,729.123 L522.55,788.335 Z M417.421,788.335 L366.258,758.724 L366.258,698.7 L417.421,669.088 L417.421,788.335 Z M314.4,607.027 L365.556,577.42 L416.717,607.028 L365.559,636.637 L314.4,607.027 Z M364.856,697.075 L313.342,667.257 C313.3,667.232 313.25,667.239 313.205,667.225 C313.131,667.199 313.057,667.169 312.98,667.169 C312.923,667.17 312.873,667.198 312.817,667.214 C312.758,667.229 312.697,667.229 312.642,667.261 C312.631,667.267 312.627,667.28 312.617,667.286 C312.607,667.292 312.592,667.289 312.582,667.298 C312.531,667.335 312.501,667.393 312.463,667.44 C312.436,667.474 312.401,667.501 312.379,667.54 C312.339,667.615 312.325,667.698 312.314,667.785 C312.31,667.814 312.292,667.84 312.292,667.869 L312.292,788.335 L261.128,758.724 L261.128,698.292 C261.128,698.165 261.096,698.044 261.034,697.941 C260.974,697.834 260.886,697.746 260.777,697.683 C260.777,697.683 260.776,697.683 260.774,697.681 L208.563,667.46 L208.563,608.246 L260.077,638.061 C260.186,638.124 260.306,638.156 260.428,638.156 C260.55,638.156 260.67,638.124 260.779,638.061 C260.995,637.936 261.128,637.703 261.128,637.454 L261.128,515.762 C261.128,515.511 260.995,515.279 260.779,515.155 C260.776,515.153 260.773,515.153 260.77,515.152 L208.563,484.933 L208.563,425.716 L312.292,485.75 L312.292,607.031 C312.292,607.283 312.424,607.514 312.641,607.638 C312.642,607.64 312.645,607.638 312.647,607.64 L364.856,637.859 L364.856,697.075 Z M364.856,758.728 L313.693,788.339 L313.691,781.953 L313.693,669.088 L361.411,696.702 L364.856,698.697 L364.856,758.728 Z M260.432,819.165 L209.272,789.552 L260.428,759.951 L311.587,789.555 L260.432,819.165 Z M155.301,758.325 L51.57,698.295 L102.732,668.684 L154.948,698.907 C155.163,699.032 155.432,699.032 155.648,698.907 L207.862,668.684 L259.022,698.294 L155.301,758.325 Z M154.597,638.667 L154.597,697.075 L104.14,667.869 L154.597,638.667 Z M259.728,577.826 L259.728,636.23 L209.27,607.028 L259.728,577.826 Z M50.869,637.859 L259.728,516.981 L259.728,576.2 L221.334,598.425 L207.529,606.412 C207.524,606.415 207.518,606.413 207.512,606.416 C207.296,606.541 207.163,606.772 207.163,607.024 L207.163,607.027 C207.163,607.028 207.162,607.028 207.162,607.03 L207.162,607.031 L207.162,667.463 L155.998,697.078 L155.998,637.447 C155.998,637.195 155.866,636.964 155.648,636.838 C155.432,636.712 155.163,636.712 154.948,636.838 L102.382,667.257 C102.376,667.261 102.373,667.268 102.367,667.272 L50.869,697.078 L50.869,637.859 Z M50.17,636.637 L-0.989,607.027 L3.916,604.189 L103.084,546.799 C103.301,546.673 103.433,546.442 103.433,546.191 C103.433,546.19 103.432,546.188 103.432,546.187 L103.433,546.186 C103.433,545.934 103.301,545.702 103.083,545.578 L51.573,515.764 L102.733,486.154 L154.948,516.377 C155.164,516.503 155.432,516.503 155.649,516.377 L207.863,486.154 L253.105,512.34 L259.024,515.764 L50.17,636.637 Z M76.255,775.047 L101.325,789.556 L50.171,819.166 L-0.988,789.555 L50.167,759.951 L76.255,775.047 Z M101.327,546.188 L50.869,575.386 L50.869,516.981 L101.327,546.188 Z M102.032,425.717 L102.032,484.934 L52.028,513.879 L50.869,514.55 L50.869,455.328 L102.032,425.717 Z M-0.991,424.5 L50.169,394.891 L101.331,424.5 L50.169,454.109 L-0.991,424.5 Z M50.869,334.452 L102.032,364.066 L102.032,423.284 L50.869,393.672 L50.869,334.452 Z M102.733,303.627 L153.894,333.237 L102.733,362.846 L51.575,333.237 L102.733,303.627 Z M50.869,211.146 L50.867,151.926 L102.031,181.536 L102.032,240.754 L50.869,211.146 Z M50.167,89.055 L-0.989,59.446 L50.169,29.835 L101.325,59.444 L50.167,89.055 Z M102.031,121.504 L102.031,179.913 L51.573,150.71 L102.031,121.504 Z M50.869,149.49 L50.867,90.272 L102.031,60.663 L102.031,119.881 L50.869,149.49 Z M128.663,196.951 L153.894,211.553 L128.388,226.316 L103.433,240.754 L103.432,182.349 L128.663,196.951 Z M103.433,60.661 L154.597,90.272 L154.597,150.711 C154.597,150.964 154.73,151.195 154.948,151.321 C154.95,151.323 154.956,151.322 154.96,151.323 L207.162,181.536 L207.162,240.759 L155.65,210.947 C155.649,210.946 155.649,210.945 155.648,210.943 L103.433,180.725 L103.433,120.286 C103.433,120.286 103.432,120.285 103.432,120.284 L103.433,60.661 Z M155.998,90.272 L207.162,60.663 L207.162,119.881 L155.998,149.49 L155.998,90.272 Z M207.862,121.099 L259.022,150.708 L207.862,180.32 L156.704,150.71 L207.862,121.099 Z M208.562,105.051 L208.563,60.66 L259.728,90.272 L259.727,149.49 L208.562,119.881 L208.562,105.051 Z M104.14,241.974 L130.792,226.547 L155.297,212.367 L207.508,242.583 C207.51,242.583 207.51,242.585 207.511,242.586 C207.728,242.711 207.996,242.711 208.212,242.586 L259.725,212.769 L259.727,271.99 L207.865,302.007 L104.14,241.974 Z M155.998,393.672 L155.998,333.24 L155.998,333.237 C155.998,333.11 155.966,332.989 155.905,332.884 C155.845,332.779 155.757,332.691 155.649,332.628 L155.648,332.628 L103.433,302.407 L103.433,243.188 L207.162,303.225 L207.162,423.284 L155.998,393.672 Z M155.998,455.328 L207.162,425.717 L207.162,484.934 L155.998,514.55 L155.998,455.328 Z M103.433,423.285 L103.433,364.066 L154.597,334.454 L154.597,393.673 L103.433,423.285 Z M154.597,455.328 L154.597,514.548 L103.433,484.933 L103.433,425.716 L154.597,455.328 Z M104.139,424.5 L155.298,394.891 L206.46,424.5 L155.298,454.109 L104.139,424.5 Z M260.767,151.323 C260.77,151.321 260.776,151.322 260.779,151.321 C260.995,151.195 261.128,150.962 261.128,150.711 L261.128,90.274 L312.292,60.663 L312.292,181.132 C312.292,181.383 312.424,181.615 312.641,181.741 C312.857,181.865 313.126,181.865 313.342,181.741 L364.856,151.926 L364.855,211.146 L312.642,241.362 C312.642,241.364 312.642,241.362 312.641,241.364 C312.424,241.488 312.292,241.72 312.292,241.971 L312.292,302.41 L260.086,332.623 C260.083,332.625 260.08,332.623 260.077,332.625 C259.861,332.751 259.728,332.982 259.728,333.234 L259.728,393.675 L208.563,423.285 L208.563,303.225 L260.777,273.004 C260.995,272.878 261.128,272.647 261.128,272.396 L261.128,211.551 C261.128,211.299 260.995,211.068 260.777,210.942 C260.562,210.817 260.293,210.817 260.077,210.942 L208.562,240.76 L208.563,196.387 L208.563,181.538 L260.767,151.323 Z M313.691,121.508 L364.154,150.707 L313.691,179.915 L313.691,121.508 Z M313.693,60.658 L364.855,90.271 L364.856,149.49 L313.691,119.881 L313.693,60.658 Z M364.854,30.242 L364.854,88.645 L314.4,59.446 L364.854,30.242 Z M368.578,214.113 L416.716,241.974 L365.558,271.584 L314.394,241.972 L365.558,212.363 L368.578,214.113 Z M418.821,423.285 L418.821,364.877 L469.283,394.081 L418.821,423.285 Z M419.525,424.5 L469.985,395.298 L469.985,453.703 L419.525,424.5 Z M418.821,484.933 L418.821,425.716 L469.985,455.328 L469.985,514.548 L418.821,484.933 Z M366.965,515.764 L418.121,486.154 L469.283,515.764 L418.124,545.376 L366.965,515.764 Z M366.258,516.981 L417.421,546.596 L417.421,605.811 L366.258,576.197 L366.258,516.981 Z M313.693,526.225 L313.693,485.75 L417.42,425.716 L417.421,470.167 L417.421,484.934 L375.015,509.482 L365.224,515.148 C365.218,515.151 365.211,515.149 365.207,515.152 C364.989,515.277 364.856,515.509 364.856,515.76 L364.856,515.764 L364.856,515.767 L364.856,576.2 L314.62,605.278 L313.691,605.814 L313.693,526.225 Z M312.634,425.103 C312.637,425.105 312.638,425.109 312.641,425.11 C312.748,425.173 312.87,425.205 312.991,425.205 C313.112,425.205 313.233,425.173 313.341,425.11 L365.556,394.891 L416.719,424.5 L312.994,484.531 L209.269,424.5 L260.428,394.891 L312.634,425.103 Z M312.292,364.066 L312.292,378.761 L312.29,423.284 L261.128,393.672 L261.128,334.454 L312.292,364.066 Z M331.62,314.406 L364.152,333.237 L312.994,362.846 L261.836,333.237 L312.991,303.627 L331.62,314.406 Z M364.855,332.018 L313.691,302.407 L313.691,243.19 L364.856,272.801 L364.855,332.018 Z M417.421,364.877 L417.421,394.013 L417.42,423.284 L366.963,394.081 L417.421,364.877 Z M365.206,393.469 C365.203,393.47 365.201,393.474 365.199,393.474 L313.691,423.284 L313.691,364.066 L365.899,333.85 C365.901,333.847 365.904,333.849 365.907,333.847 C366.124,333.721 366.256,333.489 366.256,333.238 L366.256,272.801 L417.421,243.19 L417.421,363.251 L365.206,393.469 Z M366.258,151.926 L469.285,211.553 L418.121,241.16 L370.445,213.568 L366.256,211.146 L366.258,151.926 Z M416.717,120.286 L366.258,149.49 L366.256,91.086 L416.717,120.286 Z M522.899,181.74 L522.9,181.741 L575.465,212.16 C575.468,212.161 575.469,212.16 575.472,212.161 L628.024,242.58 C628.027,242.582 628.027,242.585 628.03,242.586 C628.054,242.599 628.08,242.594 628.105,242.606 C628.145,242.622 628.178,242.655 628.221,242.663 C628.256,242.674 628.288,242.66 628.323,242.664 C628.343,242.666 628.361,242.68 628.381,242.68 C628.399,242.68 628.416,242.667 628.434,242.666 C628.53,242.66 628.62,242.638 628.703,242.593 C628.712,242.589 628.723,242.59 628.731,242.586 L681.296,212.16 C681.299,212.158 681.299,212.157 681.302,212.156 L733.508,181.943 L785.724,212.158 L785.726,212.158 L837.233,241.974 L786.076,271.584 L733.861,241.362 C733.644,241.238 733.376,241.238 733.159,241.362 L733.158,241.362 L628.382,302.007 L523.602,241.364 C523.385,241.239 523.117,241.239 522.9,241.364 L470.688,271.584 L419.524,241.971 L471.037,212.16 C471.252,212.035 471.387,211.803 471.387,211.553 C471.387,211.3 471.252,211.069 471.037,210.943 L366.963,150.71 L418.123,121.099 L522.899,181.74 Z M419.529,59.444 L470.686,29.836 L522.899,60.056 C522.899,60.056 522.9,60.056 522.9,60.058 C523.008,60.119 523.131,60.152 523.251,60.152 C523.371,60.152 523.494,60.119 523.602,60.058 L575.816,29.836 L626.974,59.444 L523.251,119.476 L419.529,59.444 Z M627.679,119.881 L575.465,150.098 C575.25,150.224 575.115,150.456 575.115,150.707 L575.115,210.332 L523.952,180.723 L523.952,120.697 L627.679,60.663 L627.679,119.881 Z M627.679,181.536 L627.679,240.753 L576.517,211.143 L576.517,151.926 L627.679,181.536 Z M680.244,151.926 L680.244,211.145 L629.082,240.753 L629.082,181.536 L680.244,151.926 Z M628.381,121.099 L679.54,150.71 L628.381,180.318 L577.221,150.71 L628.381,121.099 Z M629.082,60.66 L680.243,90.272 L680.244,149.49 L629.082,119.881 L629.082,60.66 Z M680.945,29.835 L732.104,59.446 L680.945,89.054 L629.789,59.446 L680.945,29.835 Z M724.473,176.712 L732.107,181.13 L681.647,210.332 L681.647,151.926 L724.473,176.712 Z M785.374,151.926 L785.374,210.334 L734.912,181.13 L785.374,151.926 Z M733.512,121.1 L784.67,150.71 L733.509,180.32 L682.352,150.71 L733.512,121.1 Z M785.374,91.086 L785.374,149.49 L734.914,120.289 L785.374,91.086 Z M786.776,151.926 L838.675,181.963 L838.675,181.965 L890.524,151.926 L890.526,210.762 L890.526,211.146 L838.65,241.165 L795.776,216.355 L786.776,211.145 L786.776,151.926 Z M786.776,91.085 L788.267,91.948 L837.233,120.288 L786.776,149.49 L786.776,91.085 Z M889.82,150.708 L838.675,180.34 L787.481,150.71 L838.64,121.096 L889.82,150.708 Z M891.227,212.362 L942.387,241.974 L786.776,332.02 L786.776,272.802 L882.998,217.126 L891.227,212.362 Z M840.069,59.446 L891.227,29.835 L942.384,59.444 L891.226,89.055 L840.069,59.446 Z M943.089,119.881 L891.927,149.49 L891.926,90.272 L943.089,60.663 L943.089,119.881 Z M892.631,150.71 L943.089,121.504 L943.089,179.913 L892.631,150.71 Z M891.927,211.146 L891.926,151.926 L943.089,181.536 L943.091,240.754 L891.927,211.146 Z M891.927,393.672 L891.927,334.452 L943.091,364.066 L943.091,423.284 L891.927,393.672 Z M891.927,455.328 L943.091,425.717 L943.091,484.934 L893.087,513.879 L891.927,514.55 L891.927,455.328 Z M891.927,516.981 L942.385,546.188 L891.927,575.386 L891.927,516.981 Z M840.068,424.5 L891.227,394.891 L942.389,424.5 L891.227,454.109 L840.068,424.5 Z M837.239,424.5 L786.776,453.703 L786.776,395.298 L837.239,424.5 Z M889.825,394.08 L838.653,423.681 L786.776,393.672 L786.776,334.454 L889.825,394.08 Z M943.091,243.188 L943.091,302.41 L890.886,332.622 C890.882,332.625 890.879,332.623 890.875,332.625 C890.658,332.751 890.526,332.982 890.526,333.234 L890.526,392.861 L787.482,333.238 L943.091,243.188 Z M680.243,455.328 L680.243,514.547 L629.082,484.933 L629.082,425.716 L680.243,455.328 Z M732.808,302.41 L680.603,332.623 C680.6,332.625 680.598,332.625 680.595,332.626 C680.38,332.751 680.244,332.983 680.244,333.234 L680.244,393.676 L629.082,423.285 L629.082,303.225 L732.808,243.188 L732.808,302.41 Z M732.104,424.5 L680.945,454.108 L629.786,424.5 L680.945,394.893 L732.104,424.5 Z M681.647,393.673 L681.647,334.454 L732.808,364.066 L732.808,423.285 L681.647,393.673 Z M734.21,302.409 L734.211,243.188 L785.372,272.801 L785.374,332.02 L758.86,316.675 L734.21,302.409 Z M784.671,333.237 L733.51,362.846 L682.351,333.237 L733.509,303.627 L784.671,333.237 Z M576.517,514.55 L576.517,455.328 L627.679,425.716 L627.679,484.936 L576.517,514.55 Z M577.221,515.764 L628.381,486.154 L680.595,516.377 C680.811,516.503 681.08,516.503 681.296,516.377 L732.808,486.56 L732.808,545.786 L680.948,575.802 L577.221,515.764 Z M523.952,364.066 L575.115,334.454 L575.115,393.676 L523.952,423.285 L523.952,364.066 Z M471.387,332.018 L471.387,272.801 L522.55,243.193 L522.55,302.41 L518.625,304.682 L471.387,332.018 Z M520.595,305.165 L523.251,303.627 L561.437,325.727 L574.413,333.237 L523.252,362.846 L472.093,333.237 L520.595,305.165 Z M576.167,332.628 C576.165,332.626 576.164,332.626 576.162,332.626 L523.952,302.409 L523.952,243.193 L627.679,303.225 L627.679,423.284 L576.517,393.67 L576.517,333.236 C576.517,332.985 576.382,332.752 576.167,332.628 L576.167,332.628 Z M626.977,607.028 L576.517,636.234 L576.517,577.826 L626.977,607.028 Z M629.08,607.024 C629.08,606.772 628.945,606.541 628.73,606.416 L576.517,576.197 L576.517,516.981 L680.244,577.022 L680.244,697.075 L629.082,667.46 L629.08,607.035 C629.08,607.032 629.082,607.031 629.082,607.03 C629.082,607.028 629.08,607.027 629.08,607.024 L629.08,607.024 Z M785.374,577.826 L785.374,636.229 L734.916,607.028 L758.433,593.419 L785.374,577.826 Z M889.823,515.764 L838.671,545.338 L787.481,515.764 L838.639,486.154 L889.823,515.764 Z M838.604,484.493 L785.739,515.149 C785.734,515.152 785.729,515.151 785.724,515.153 C785.509,515.278 785.374,515.511 785.374,515.761 L785.374,576.201 L733.176,606.41 C733.171,606.415 733.164,606.413 733.158,606.416 C732.943,606.541 732.808,606.772 732.808,607.024 L732.808,667.463 L681.647,697.078 L681.647,577.022 L733.86,546.803 C734.075,546.677 734.21,546.446 734.21,546.194 L734.21,485.341 C734.21,485.091 734.075,484.859 733.86,484.734 C733.643,484.607 733.375,484.607 733.158,484.734 L681.647,514.548 L681.647,455.328 L733.85,425.113 C733.853,425.112 733.857,425.112 733.86,425.11 C734.075,424.987 734.21,424.753 734.21,424.504 L734.21,364.066 L785.374,334.454 L785.374,454.923 C785.374,455.174 785.509,455.406 785.724,455.531 C785.832,455.594 785.955,455.625 786.075,455.625 C786.195,455.625 786.318,455.594 786.426,455.531 L838.652,425.311 L890.526,455.328 L890.526,514.548 L838.604,484.493 Z M943.792,303.627 L994.953,333.237 L943.792,362.846 L892.634,333.237 L943.792,303.627 Z M969.722,196.951 L994.953,211.553 L969.446,226.316 L944.492,240.754 L944.491,182.349 L969.722,196.951 Z M944.492,60.661 L995.656,90.272 L995.656,150.711 C995.656,150.964 995.788,151.195 996.006,151.321 C996.009,151.323 996.014,151.322 996.019,151.323 L1048.22,181.536 L1048.22,240.759 L996.709,210.947 C996.708,210.946 996.708,210.945 996.706,210.943 L944.492,180.725 L944.492,120.286 C944.492,120.286 944.491,120.285 944.491,120.284 L944.492,60.661 Z M997.057,90.272 L1048.22,60.663 L1048.22,119.881 L997.057,149.49 L997.057,90.272 Z M1048.92,121.099 L1100.081,150.708 L1048.92,180.32 L997.762,150.71 L1048.92,121.099 Z M1049.62,105.051 L1049.622,60.66 L1100.787,90.272 L1100.785,149.49 L1049.62,119.881 L1049.62,105.051 Z M945.199,241.974 L971.851,226.547 L996.356,212.367 L1048.567,242.583 C1048.568,242.583 1048.568,242.585 1048.57,242.586 C1048.786,242.711 1049.054,242.711 1049.271,242.586 L1100.784,212.769 L1100.785,271.99 L1048.923,302.007 L945.199,241.974 Z M997.057,393.672 L997.057,333.24 L997.057,333.237 C997.057,333.11 997.025,332.989 996.963,332.884 C996.903,332.779 996.815,332.691 996.708,332.628 L996.706,332.628 L944.492,302.407 L944.492,243.188 L1048.22,303.225 L1048.22,423.284 L997.057,393.672 Z M997.057,455.328 L1048.22,425.717 L1048.22,484.934 L997.057,514.55 L997.057,455.328 Z M944.492,423.285 L944.492,364.066 L995.656,334.454 L995.656,393.673 L944.492,423.285 Z M995.656,455.328 L995.656,514.548 L944.492,484.933 L944.492,425.716 L995.656,455.328 Z M945.198,424.5 L996.357,394.891 L1047.519,424.5 L996.357,454.109 L945.198,424.5 Z M1101.826,151.323 C1101.829,151.321 1101.835,151.322 1101.837,151.321 C1102.054,151.195 1102.187,150.962 1102.187,150.711 L1102.187,90.274 L1153.35,60.663 L1153.35,181.132 C1153.35,181.383 1153.483,181.615 1153.7,181.741 C1153.916,181.865 1154.184,181.865 1154.401,181.741 L1205.915,151.926 L1205.914,211.146 L1153.701,241.362 C1153.701,241.364 1153.701,241.362 1153.7,241.364 C1153.483,241.488 1153.35,241.72 1153.35,241.971 L1153.35,302.41 L1101.144,332.623 C1101.141,332.625 1101.139,332.623 1101.136,332.625 C1100.919,332.751 1100.787,332.982 1100.787,333.234 L1100.787,393.675 L1049.622,423.285 L1049.622,303.225 L1101.836,273.004 C1102.054,272.878 1102.187,272.647 1102.187,272.396 L1102.187,211.551 C1102.187,211.299 1102.054,211.068 1101.836,210.942 C1101.621,210.817 1101.351,210.817 1101.136,210.942 L1049.62,240.76 L1049.622,196.387 L1049.622,181.538 L1101.826,151.323 Z M1154.75,121.508 L1205.212,150.707 L1154.75,179.915 L1154.75,121.508 Z M1154.752,60.658 L1205.914,90.271 L1205.915,149.49 L1154.75,119.881 L1154.752,60.658 Z M1205.912,30.242 L1205.912,88.645 L1155.458,59.446 L1205.912,30.242 Z M1209.637,214.113 L1257.774,241.974 L1206.616,271.584 L1155.453,241.972 L1206.616,212.363 L1209.637,214.113 Z M1259.88,423.285 L1259.88,364.877 L1310.342,394.081 L1259.88,423.285 Z M1260.584,424.5 L1311.043,395.298 L1311.043,453.703 L1260.584,424.5 Z M1259.88,484.933 L1259.88,425.716 L1311.043,455.328 L1311.043,514.548 L1259.88,484.933 Z M1208.023,515.764 L1259.18,486.154 L1310.342,515.764 L1259.183,545.376 L1208.023,515.764 Z M1207.316,516.981 L1258.48,546.596 L1258.48,605.811 L1207.316,576.197 L1207.316,516.981 Z M1154.752,526.225 L1154.752,485.75 L1258.478,425.716 L1258.48,470.167 L1258.48,484.934 L1216.073,509.482 L1206.283,515.148 C1206.277,515.151 1206.27,515.149 1206.266,515.152 C1206.048,515.277 1205.915,515.509 1205.915,515.76 L1205.915,515.764 L1205.915,515.767 L1205.915,576.2 L1155.679,605.278 L1154.75,605.814 L1154.752,526.225 Z M1153.692,425.103 C1153.695,425.105 1153.697,425.109 1153.7,425.11 C1153.807,425.173 1153.929,425.205 1154.05,425.205 C1154.17,425.205 1154.292,425.173 1154.399,425.11 L1206.615,394.891 L1257.777,424.5 L1154.053,484.531 L1050.327,424.5 L1101.487,394.891 L1153.692,425.103 Z M1153.35,364.066 L1153.35,378.761 L1153.349,423.284 L1102.187,393.672 L1102.187,334.454 L1153.35,364.066 Z M1172.679,314.406 L1205.211,333.237 L1154.053,362.846 L1102.895,333.237 L1154.05,303.627 L1172.679,314.406 Z M1205.914,332.018 L1154.75,302.407 L1154.75,243.19 L1205.915,272.801 L1205.914,332.018 Z M1258.48,364.877 L1258.48,394.013 L1258.478,423.284 L1208.022,394.081 L1258.48,364.877 Z M1206.264,393.469 C1206.262,393.47 1206.26,393.474 1206.257,393.474 L1154.75,423.284 L1154.75,364.066 L1206.957,333.85 C1206.96,333.847 1206.963,333.849 1206.966,333.847 C1207.182,333.721 1207.315,333.489 1207.315,333.238 L1207.315,272.801 L1258.48,243.19 L1258.48,363.251 L1206.264,393.469 Z M1207.316,151.926 L1310.343,211.553 L1259.18,241.16 L1211.503,213.568 L1207.315,211.146 L1207.316,151.926 Z M1257.776,120.286 L1207.316,149.49 L1207.315,91.086 L1257.776,120.286 Z M1260.588,59.444 L1311.745,29.836 L1363.957,60.056 C1363.957,60.056 1363.959,60.056 1363.959,60.058 C1364.066,60.119 1364.189,60.152 1364.309,60.152 C1364.429,60.152 1364.553,60.119 1364.66,60.058 L1416.874,29.836 L1468.032,59.444 L1364.309,119.476 L1260.588,59.444 Z M1468.738,119.881 L1416.523,150.098 C1416.308,150.224 1416.173,150.456 1416.173,150.707 L1416.173,210.332 L1365.011,180.723 L1365.011,120.697 L1468.738,60.663 L1468.738,119.881 Z M1468.738,181.536 L1468.738,240.753 L1417.575,211.143 L1417.575,151.926 L1468.738,181.536 Z M1521.303,151.926 L1521.303,211.145 L1470.14,240.753 L1470.14,181.536 L1521.303,151.926 Z M1469.439,121.099 L1520.599,150.71 L1469.439,180.318 L1418.28,150.71 L1469.439,121.099 Z M1470.14,60.66 L1521.301,90.272 L1521.303,149.49 L1470.14,119.881 L1470.14,60.66 Z M1522.004,29.835 L1573.162,59.446 L1522.004,89.054 L1470.847,59.446 L1522.004,29.835 Z M1565.531,176.712 L1573.166,181.13 L1522.705,210.332 L1522.705,151.926 L1565.531,176.712 Z M1626.432,151.926 L1626.432,210.334 L1575.97,181.13 L1626.432,151.926 Z M1574.57,121.1 L1625.728,150.71 L1574.567,180.32 L1523.411,150.71 L1574.57,121.1 Z M1626.432,91.086 L1626.432,149.49 L1575.973,120.289 L1626.432,91.086 Z M1599.491,593.419 L1626.432,577.826 L1626.432,636.229 L1575.974,607.028 L1599.491,593.419 Z M1678.294,789.555 L1627.138,819.165 L1575.976,789.552 L1580.521,786.925 L1627.134,759.951 L1678.294,789.555 Z M1678.301,118.666 L1631.694,91.695 L1627.835,89.461 L1627.835,0 L1626.432,0 L1626.432,89.461 L1574.22,119.678 C1574.218,119.679 1574.218,119.678 1574.217,119.679 L1522.705,149.49 L1522.705,90.274 L1574.91,60.058 C1574.913,60.056 1574.915,60.058 1574.918,60.056 C1575.133,59.93 1575.269,59.699 1575.269,59.447 L1575.269,0 L1573.866,0 L1573.866,58.226 L1522.705,28.616 L1522.705,0 L1521.303,0 L1521.303,28.616 L1470.14,58.224 L1470.14,0 L1468.738,0 L1468.738,58.224 L1417.225,28.413 C1417.222,28.412 1417.219,28.412 1417.217,28.41 L1368.129,0 L1365.321,0 L1413.604,27.943 L1415.47,29.022 L1365.011,58.224 L1365.011,0 L1363.608,0 L1363.608,58.224 L1312.446,28.616 L1312.446,0 L1311.043,0 L1311.043,28.616 L1259.88,58.224 L1259.88,0 L1258.477,0 L1258.477,59.444 C1258.477,59.571 1258.511,59.691 1258.571,59.796 C1258.631,59.904 1258.719,59.993 1258.829,60.058 C1258.832,60.059 1258.836,60.059 1258.84,60.06 L1363.605,120.697 L1363.608,179.912 L1259.53,119.678 L1259.528,119.678 L1207.315,89.459 L1207.315,0 L1205.912,0 L1205.912,28.618 L1154.752,58.224 L1154.75,47.118 L1154.75,0 L1153.347,0 L1153.35,46.545 L1153.35,58.224 L1102.891,29.022 L1153.04,0 L1150.232,0 L1101.136,28.413 C1100.918,28.538 1100.785,28.77 1100.785,29.021 L1100.787,29.024 C1100.787,29.275 1100.919,29.507 1101.136,29.633 L1152.648,59.442 L1101.485,89.054 L1049.271,58.832 C1049.056,58.708 1048.786,58.708 1048.571,58.832 L996.356,89.054 L945.2,59.446 L996.705,29.633 L996.706,29.633 L1047.91,0 L1045.095,0 L997.057,27.802 L997.057,0 L995.656,0 L995.656,28.614 L944.492,58.224 L944.492,0 L943.091,0 L943.091,58.224 L892.631,29.022 L898.229,25.782 L942.782,0 L939.97,0 L894.529,26.301 L890.882,28.41 C890.881,28.412 890.878,28.412 890.875,28.413 L840.058,57.823 L837.262,59.445 L890.524,90.272 L890.526,149.49 L790.635,91.695 L786.776,89.461 L786.776,0 L785.374,0 L785.374,89.461 L733.161,119.678 C733.159,119.679 733.159,119.678 733.158,119.679 L681.647,149.49 L681.647,90.274 L733.851,60.058 C733.854,60.056 733.857,60.058 733.86,60.056 C734.075,59.93 734.21,59.699 734.21,59.447 L734.21,0 L732.808,0 L732.808,58.226 L681.647,28.616 L681.647,0 L680.244,0 L680.244,28.616 L629.082,58.224 L629.082,0 L627.679,0 L627.679,58.224 L576.167,28.413 C576.164,28.412 576.161,28.412 576.158,28.41 L527.071,0 L524.262,0 L572.545,27.943 L574.412,29.022 L523.952,58.224 L523.952,0 L522.55,0 L522.55,58.224 L471.387,28.616 L471.387,0 L469.985,0 L469.985,28.616 L418.821,58.224 L418.821,0 L417.418,0 L417.418,59.444 C417.418,59.571 417.452,59.691 417.512,59.796 C417.572,59.904 417.66,59.993 417.771,60.058 C417.773,60.059 417.778,60.059 417.782,60.06 L522.547,120.697 L522.55,179.912 L418.472,119.678 L418.469,119.678 L366.256,89.459 L366.256,0 L364.854,0 L364.854,28.618 L313.693,58.224 L313.691,47.118 L313.691,0 L312.289,0 L312.292,46.545 L312.292,58.224 L261.832,29.022 L311.981,0 L309.173,0 L260.077,28.413 C259.859,28.538 259.727,28.77 259.727,29.021 L259.728,29.024 C259.728,29.275 259.861,29.507 260.077,29.633 L311.589,59.442 L260.427,89.054 L208.212,58.832 C207.997,58.708 207.728,58.708 207.512,58.832 L155.297,89.054 L104.142,59.446 L155.646,29.633 L155.648,29.633 L206.852,0 L204.037,0 L155.998,27.802 L155.998,0 L154.597,0 L154.597,28.614 L103.433,58.224 L103.433,0 L102.032,0 L102.032,58.224 L51.573,29.022 L57.171,25.782 L101.723,0 L98.911,0 L53.47,26.301 L49.824,28.41 C49.822,28.412 49.819,28.412 49.817,28.413 L-1,57.823 L-1,61.063 L49.466,90.272 L49.467,149.49 L-1,120.284 L-1,121.906 L48.762,150.708 L-1,179.511 L-1,181.136 L-0.645,180.93 L49.466,151.926 L49.467,210.762 L49.467,211.146 L-1,240.356 L-1,241.98 L41.94,217.126 L50.169,212.362 L101.328,241.974 L-1,301.2 L-1,302.823 L102.032,243.188 L102.032,302.41 L49.828,332.622 C49.824,332.625 49.821,332.623 49.817,332.625 C49.6,332.751 49.467,332.982 49.467,333.234 L49.467,393.675 L-1,422.884 L-1,426.117 L49.467,455.328 L49.467,514.548 L-1,485.335 L-1,486.963 L48.765,515.764 L-1,544.568 L-1,546.194 L49.467,516.982 L49.467,576.2 L-1,605.412 L-1,608.647 L49.467,637.859 L49.467,697.075 L-1,667.864 L-1,669.492 L48.763,698.294 L-1,727.095 L-1,728.722 L49.467,699.51 L49.467,758.728 L-1,787.939 L-1,791.178 L49.467,820.39 L49.467,840.344 L50.869,840.344 L50.869,820.39 L102.032,790.772 L102.032,840.344 L103.433,840.344 L103.433,789.559 L103.433,789.556 L103.433,789.552 C103.433,789.303 103.301,789.071 103.083,788.946 C103.079,788.943 103.075,788.945 103.07,788.942 L83.128,777.404 L50.869,758.731 L50.869,699.51 L154.597,759.549 L154.597,840.344 L155.998,840.344 L155.998,759.549 L259.727,699.512 L259.728,758.728 L207.539,788.935 C207.531,788.939 207.52,788.936 207.512,788.942 C207.295,789.066 207.162,789.299 207.162,789.548 L207.162,840.344 L208.563,840.344 L208.563,790.772 L259.728,820.387 L259.728,840.344 L261.128,840.344 L261.128,820.387 L312.292,790.774 L312.292,840.344 L313.693,840.344 L313.693,790.689 L413.722,840.344 L416.892,840.344 L314.483,789.505 L365.556,759.951 L417.771,790.164 L417.771,790.166 C417.879,790.229 418,790.26 418.121,790.26 C418.243,790.26 418.364,790.229 418.472,790.166 L470.686,759.951 L521.764,789.508 L419.359,840.344 L422.521,840.344 L522.55,790.689 L522.55,840.344 L523.952,840.344 L523.952,790.772 L575.115,820.387 L575.115,840.344 L576.517,840.344 L576.517,820.387 L627.679,790.772 L627.679,840.344 L629.082,840.344 L629.082,789.552 C629.082,789.303 628.946,789.071 628.731,788.946 L523.952,728.303 L523.952,668.278 L575.115,638.666 L575.115,698.295 C575.115,698.546 575.25,698.778 575.465,698.903 L680.244,759.549 L680.244,840.344 L681.647,840.344 L681.647,759.549 L785.374,699.515 L785.374,758.728 L733.185,788.935 C733.176,788.939 733.167,788.936 733.158,788.942 C732.943,789.066 732.808,789.299 732.808,789.548 L732.808,790.157 L732.809,840.344 L734.211,840.344 L734.211,817.498 L734.21,790.772 L785.374,820.387 L785.374,840.344 L786.776,840.344 L786.776,820.387 L837.243,791.176 L838.651,790.369 L840.058,791.178 L890.526,820.39 L890.526,840.344 L891.927,840.344 L891.927,820.39 L943.091,790.772 L943.091,840.344 L944.492,840.344 L944.492,789.559 L944.492,789.556 L944.492,789.552 C944.492,789.303 944.359,789.071 944.141,788.946 C944.137,788.943 944.133,788.945 944.129,788.942 L924.187,777.404 L891.927,758.731 L891.927,699.51 L995.656,759.549 L995.656,840.344 L997.057,840.344 L997.057,759.549 L1100.785,699.512 L1100.787,758.728 L1048.598,788.935 C1048.589,788.939 1048.578,788.936 1048.571,788.942 C1048.353,789.066 1048.22,789.299 1048.22,789.548 L1048.22,840.344 L1049.622,840.344 L1049.622,790.772 L1100.787,820.387 L1100.787,840.344 L1102.187,840.344 L1102.187,820.387 L1153.35,790.774 L1153.35,840.344 L1154.752,840.344 L1154.752,790.689 L1254.78,840.344 L1257.95,840.344 L1155.542,789.505 L1206.615,759.951 L1258.829,790.164 L1258.829,790.166 C1258.938,790.229 1259.058,790.26 1259.18,790.26 C1259.301,790.26 1259.423,790.229 1259.53,790.166 L1311.745,759.951 L1362.823,789.508 L1260.418,840.344 L1263.579,840.344 L1363.608,790.689 L1363.608,840.344 L1365.011,840.344 L1365.011,790.772 L1416.173,820.387 L1416.173,840.344 L1417.575,840.344 L1417.575,820.387 L1468.738,790.772 L1468.738,840.344 L1470.14,840.344 L1470.14,789.552 C1470.14,789.303 1470.005,789.071 1469.79,788.946 L1365.011,728.303 L1365.011,668.278 L1416.173,638.666 L1416.173,698.295 C1416.173,698.546 1416.308,698.778 1416.523,698.903 L1521.303,759.549 L1521.303,840.344 L1522.705,840.344 L1522.705,759.549 L1626.432,699.515 L1626.432,758.728 L1574.243,788.935 C1574.235,788.939 1574.225,788.936 1574.217,788.942 C1574.002,789.066 1573.866,789.299 1573.866,789.548 L1573.866,790.157 L1573.868,840.344 L1575.27,840.344 L1575.27,817.498 L1575.269,790.772 L1626.432,820.387 L1626.432,840.344 L1627.835,840.344 L1627.835,820.387 L1678.301,791.176 L1678.301,787.933 L1627.835,758.724 L1627.835,698.291 C1627.835,698.04 1627.699,697.806 1627.484,697.683 L1575.269,667.46 L1575.269,608.245 L1626.783,638.061 C1626.891,638.124 1627.014,638.156 1627.134,638.156 C1627.254,638.156 1627.377,638.124 1627.484,638.061 C1627.699,637.936 1627.835,637.703 1627.835,637.454 L1627.835,516.981 L1678.301,546.194 L1678.301,544.567 L1628.539,515.764 L1678.301,486.963 L1678.301,485.337 L1626.797,515.149 C1626.793,515.152 1626.787,515.151 1626.783,515.153 C1626.568,515.278 1626.432,515.511 1626.432,515.761 L1626.432,576.201 L1574.235,606.41 C1574.23,606.415 1574.222,606.413 1574.217,606.416 C1574.002,606.541 1573.866,606.772 1573.866,607.024 L1573.866,667.463 L1522.705,697.078 L1522.705,577.022 L1574.918,546.803 C1575.133,546.677 1575.269,546.446 1575.269,546.194 L1575.269,485.341 C1575.269,485.091 1575.133,484.859 1574.918,484.734 C1574.702,484.607 1574.433,484.607 1574.217,484.734 L1522.705,514.548 L1522.705,455.328 L1574.908,425.113 C1574.911,425.112 1574.915,425.112 1574.918,425.11 C1575.133,424.987 1575.269,424.753 1575.269,424.504 L1575.269,364.066 L1626.432,334.454 L1626.432,454.923 C1626.432,455.174 1626.568,455.406 1626.783,455.531 C1626.891,455.594 1627.014,455.625 1627.134,455.625 C1627.254,455.625 1627.377,455.594 1627.484,455.531 L1678.301,426.119 L1678.301,422.882 L1627.835,393.672 L1627.835,334.454 L1678.301,363.663 L1678.301,362.038 L1628.541,333.238 L1677.129,305.115 L1678.301,304.437 L1678.301,302.814 L1627.835,332.02 L1627.835,272.802 L1678.301,243.592 L1678.301,240.351 L1636.835,216.355 L1627.835,211.145 L1627.835,151.926 L1678.301,181.133 L1678.301,179.51 L1628.539,150.71 L1678.301,121.906 L1678.301,118.666 Z" id="Fill-1" fill="#ECEFF1" mask="url(#mask-2)"></path>
            </g>
        </g>
    </g>
</svg>