<?xml version="1.0" encoding="UTF-8" standalone="no"?>
<svg width="600px" height="600px" viewBox="0 0 600 600" version="1.1" xmlns="http://www.w3.org/2000/svg" xmlns:xlink="http://www.w3.org/1999/xlink">
    <!-- Generator: Sketch 43.2 (39069) - http://www.bohemiancoding.com/sketch -->
    <title>Fill 1</title>
    <desc>Created with Sketch.</desc>
    <defs></defs>
    <g id="Page-1" stroke="none" stroke-width="1" fill="none" fill-rule="evenodd">
        <path d="M36.626,21.302 L73.243,42.443 L36.625,63.585 L0.008,42.444 L36.626,21.302 Z M73.748,85.594 L37.127,106.735 L37.126,64.454 L73.748,43.313 L73.748,85.594 Z M37.631,107.606 L73.748,86.753 L73.748,128.457 L37.631,107.606 Z M37.127,150.757 L37.126,108.474 L73.748,129.616 L73.749,171.897 L37.127,150.757 Z M74.251,216.788 L110.871,237.929 L74.251,259.07 L37.633,237.929 L74.251,216.788 Z M92.811,140.622 L110.871,151.047 L92.614,161.588 L74.752,171.897 L74.751,130.196 L92.811,140.622 Z M74.752,43.312 L111.374,64.454 L111.374,107.607 C111.374,107.787 111.469,107.952 111.625,108.042 C111.627,108.044 111.631,108.043 111.634,108.044 L148.999,129.616 L148.999,171.9 L112.128,150.615 C112.127,150.614 112.127,150.613 112.126,150.612 L74.752,129.037 L74.752,85.884 C74.752,85.884 74.751,85.883 74.751,85.882 L74.752,43.312 Z M112.377,64.454 L148.999,43.313 L148.999,85.594 L112.377,106.735 L112.377,64.454 Z M149.5,86.464 L186.12,107.605 L149.5,128.747 L112.882,107.606 L149.5,86.464 Z M150.001,75.006 L150.002,43.311 L186.625,64.454 L186.624,106.735 L150.001,85.594 L150.001,75.006 Z M187.369,108.044 C187.371,108.042 187.375,108.043 187.377,108.042 C187.532,107.952 187.627,107.786 187.627,107.607 L187.627,64.455 L224.249,43.313 L224.249,129.327 C224.249,129.506 224.344,129.672 224.499,129.762 C224.654,129.851 224.846,129.851 225.001,129.762 L261.874,108.474 L261.873,150.757 L224.5,172.331 C224.5,172.332 224.5,172.331 224.499,172.332 C224.344,172.421 224.249,172.587 224.249,172.766 L224.249,215.919 L186.881,237.491 C186.879,237.492 186.877,237.491 186.875,237.492 C186.72,237.582 186.625,237.747 186.625,237.927 L186.625,281.081 L150.002,302.223 L150.002,216.501 L187.376,194.923 C187.532,194.833 187.627,194.668 187.627,194.489 L187.627,151.046 C187.627,150.866 187.532,150.701 187.376,150.611 C187.222,150.522 187.029,150.522 186.875,150.611 L150.001,171.901 L150.002,140.219 L150.002,129.617 L187.369,108.044 Z M225.251,86.756 L261.371,107.604 L225.251,128.458 L225.251,86.756 Z M225.252,43.31 L261.873,64.453 L261.874,106.735 L225.251,85.594 L225.252,43.31 Z M261.872,21.593 L261.872,63.292 L225.758,42.444 L261.872,21.593 Z M264.538,152.875 L298.994,172.768 L262.376,193.909 L225.754,172.767 L262.376,151.626 L264.538,152.875 Z M262.877,108.474 L336.622,151.047 L300,172.187 L265.874,152.486 L262.876,150.757 L262.877,108.474 Z M298.995,85.884 L262.877,106.735 L262.876,65.035 L298.995,85.884 Z M374.998,129.761 L374.999,129.762 L412.624,151.481 C412.626,151.482 412.627,151.481 412.629,151.482 L450.245,173.201 C450.247,173.202 450.247,173.204 450.249,173.205 C450.266,173.214 450.285,173.211 450.303,173.219 C450.331,173.231 450.355,173.254 450.386,173.26 C450.411,173.268 450.434,173.258 450.459,173.261 C450.473,173.262 450.486,173.272 450.5,173.272 C450.513,173.272 450.525,173.263 450.538,173.262 C450.607,173.258 450.671,173.242 450.731,173.21 C450.737,173.207 450.745,173.208 450.751,173.205 L488.376,151.481 C488.378,151.48 488.378,151.479 488.38,151.478 L525.748,129.906 L563.124,151.48 L563.125,151.48 L599.993,172.768 L563.376,193.909 L526.001,172.331 C525.846,172.242 525.654,172.242 525.499,172.331 L525.498,172.331 L450.501,215.631 L375.501,172.332 C375.346,172.243 375.154,172.243 374.999,172.332 L337.626,193.909 L301.004,172.766 L337.876,151.481 C338.03,151.392 338.127,151.226 338.127,151.047 C338.127,150.867 338.03,150.702 337.876,150.612 L263.382,107.606 L300.001,86.464 L374.998,129.761 Z M301.008,42.443 L337.625,21.303 L374.998,42.88 C374.998,42.88 374.999,42.88 374.999,42.881 C375.076,42.925 375.164,42.948 375.25,42.948 C375.336,42.948 375.424,42.925 375.501,42.881 L412.875,21.303 L449.493,42.443 L375.25,85.305 L301.008,42.443 Z M449.998,85.594 L412.624,107.169 C412.47,107.259 412.373,107.425 412.373,107.604 L412.373,150.176 L375.752,129.035 L375.752,86.177 L449.998,43.313 L449.998,85.594 Z M449.998,129.616 L449.998,171.896 L413.377,150.755 L413.377,108.474 L449.998,129.616 Z M487.623,108.474 L487.623,150.756 L451.002,171.896 L451.002,129.616 L487.623,108.474 Z M450.5,86.464 L487.119,107.606 L450.5,128.746 L413.881,107.606 L450.5,86.464 Z M451.002,43.311 L487.622,64.454 L487.623,106.735 L451.002,85.594 L451.002,43.311 Z M488.125,21.302 L524.743,42.444 L488.125,63.584 L451.508,42.444 L488.125,21.302 Z M519.281,126.171 L524.746,129.326 L488.627,150.176 L488.627,108.474 L519.281,126.171 Z M562.873,108.474 L562.873,150.177 L526.753,129.326 L562.873,108.474 Z M525.751,86.465 L562.369,107.606 L525.749,128.747 L489.132,107.606 L525.751,86.465 Z M562.873,65.035 L562.873,106.735 L526.755,85.886 L562.873,65.035 Z M599.997,303.09 L563.877,323.941 L563.877,282.24 L599.997,303.09 Z M543.895,226.104 L526.251,215.918 L526.252,173.635 L562.872,194.778 L562.873,237.06 L543.895,226.104 Z M525.75,259.07 L489.131,237.929 L525.749,216.788 L562.37,237.929 L525.75,259.07 Z M525.247,302.223 L488.627,281.08 L488.627,238.798 L525.247,259.941 L525.247,302.223 Z M451.002,302.223 L451.002,216.501 L525.247,173.635 L525.247,215.919 L487.88,237.491 C487.878,237.492 487.876,237.492 487.874,237.493 C487.72,237.582 487.623,237.748 487.623,237.927 L487.623,281.082 L451.002,302.223 Z M488.125,324.23 L451.506,303.09 L488.125,281.951 L524.743,303.09 L488.125,324.23 Z M451.002,346.239 L451.002,303.958 L487.622,325.101 L487.622,367.383 L451.002,346.239 Z M525.247,347.401 L525.247,389.688 L488.127,411.119 L413.881,368.252 L450.5,347.111 L487.874,368.69 C488.029,368.78 488.221,368.78 488.376,368.69 L525.247,347.401 Z M525.749,477.436 L562.367,498.578 L488.128,541.439 L413.883,498.575 L450.5,477.436 L487.874,499.015 C488.029,499.104 488.221,499.104 488.376,499.015 L525.749,477.436 Z M413.377,455.427 L449.997,434.284 L449.998,462.581 L449.998,476.564 L413.377,497.709 L413.377,455.427 Z M449.998,303.958 L449.998,346.241 L413.377,367.385 L413.377,325.101 L449.998,303.958 Z M376.255,303.092 L412.875,281.951 L449.496,303.09 L412.877,324.23 L376.255,303.092 Z M374.748,215.919 L371.939,217.541 L338.127,237.059 L338.127,194.778 L374.748,173.638 L374.748,215.919 Z M412.373,238.798 L412.373,281.082 L375.752,302.223 L375.752,259.941 L412.373,238.798 Z M402.583,232.567 L411.871,237.929 L375.251,259.07 L338.632,237.929 L373.349,217.886 L375.25,216.788 L402.583,232.567 Z M413.126,237.494 C413.125,237.493 413.124,237.493 413.123,237.493 L375.752,215.918 L375.752,173.638 L449.998,216.501 L449.998,302.222 L413.377,281.078 L413.377,237.928 C413.377,237.749 413.28,237.583 413.126,237.494 Z M449.495,433.414 L413.377,454.267 L413.377,412.564 L449.495,433.414 Z M451.001,433.411 C451.001,433.231 450.904,433.066 450.75,432.977 L413.377,411.401 L413.377,369.121 L487.623,411.99 L487.623,497.707 L451.002,476.562 L451.001,433.419 C451.001,433.417 451.002,433.416 451.002,433.415 C451.002,433.414 451.001,433.413 451.001,433.411 Z M412.373,367.383 L375.504,346.1 L375.501,346.097 L338.127,324.521 L338.127,281.369 C338.127,281.361 338.121,281.355 338.121,281.348 C338.116,281.263 338.095,281.182 338.051,281.112 C338.03,281.077 337.996,281.057 337.968,281.028 C337.937,280.997 337.915,280.958 337.876,280.936 L300.501,259.359 L300.501,173.636 L337.123,194.778 L337.123,237.932 C337.123,238.111 337.22,238.276 337.374,238.366 C337.378,238.368 337.382,238.367 337.385,238.369 L374.748,259.941 L374.748,303.093 C374.748,303.271 374.845,303.438 374.999,303.526 C375.001,303.527 375.003,303.527 375.005,303.528 L412.373,325.101 L412.373,367.383 Z M374.245,433.414 L338.127,454.266 L338.127,412.564 L374.245,433.414 Z M374.748,390.266 L374.748,432.544 L338.127,411.401 L338.127,369.121 L374.748,390.266 Z M375.25,347.111 L411.872,368.253 L375.252,389.395 L338.631,368.252 L346.287,363.831 L375.25,347.111 Z M342.907,364.625 L338.127,367.385 L338.127,325.681 L374.246,346.531 L342.907,364.625 Z M412.373,454.844 L374.999,476.419 C374.998,476.42 374.998,476.421 374.997,476.421 L337.39,498.135 C337.385,498.137 337.379,498.136 337.374,498.139 C337.22,498.228 337.123,498.394 337.123,498.573 L337.123,541.727 L300.501,562.869 L300.501,476.852 C300.501,476.672 300.406,476.506 300.251,476.417 C300.096,476.327 299.904,476.327 299.749,476.417 L262.877,497.705 L262.877,455.427 L300.251,433.849 C300.407,433.76 300.502,433.594 300.502,433.415 C300.502,433.414 300.501,433.414 300.501,433.413 L300.501,390.267 L337.123,369.121 L337.123,455.138 C337.123,455.316 337.22,455.482 337.374,455.571 C337.451,455.616 337.539,455.639 337.625,455.639 C337.711,455.639 337.799,455.616 337.876,455.571 L375.501,433.849 C375.655,433.76 375.752,433.594 375.752,433.415 L375.752,390.266 L412.373,369.121 L412.373,454.844 Z M411.872,542.017 L375.752,562.869 L375.752,521.165 L411.872,542.017 Z M449.495,563.737 L412.878,584.878 L376.258,563.735 L412.875,542.6 L449.495,563.737 Z M374.748,519.426 L338.632,498.576 L374.748,477.726 L374.748,519.426 Z M374.748,562.866 L338.127,541.724 L338.127,499.445 L374.748,520.589 L374.748,562.866 Z M299.499,562.866 L262.877,541.724 L262.877,498.867 L299.499,477.724 L299.499,562.866 Z M225.758,433.413 L262.375,412.274 L298.995,433.414 L262.377,454.555 L225.758,433.413 Z M224.494,303.521 C224.496,303.522 224.497,303.525 224.499,303.526 C224.576,303.571 224.663,303.594 224.75,303.594 C224.836,303.594 224.923,303.571 225,303.526 L262.375,281.95 L298.996,303.09 L224.752,345.952 L150.507,303.09 L187.126,281.95 L224.494,303.521 Z M224.249,259.941 L224.249,270.433 L224.248,302.222 L187.627,281.079 L187.627,238.798 L224.249,259.941 Z M238.084,224.484 L261.37,237.929 L224.752,259.07 L188.134,237.929 L224.75,216.788 L238.084,224.484 Z M261.873,237.059 L225.251,215.917 L225.251,173.636 L261.874,194.778 L261.873,237.059 Z M299.499,259.359 L262.124,280.934 C262.122,280.935 262.121,280.938 262.119,280.938 L225.251,302.222 L225.251,259.941 L262.62,238.367 C262.622,238.365 262.624,238.366 262.626,238.365 C262.781,238.275 262.876,238.109 262.876,237.93 L262.876,194.778 L299.499,173.636 L299.499,259.359 Z M262.877,369.121 L299.499,390.266 L299.499,432.545 L262.877,411.401 L262.877,369.121 Z M263.382,281.371 L299.499,260.52 L299.499,281.323 L299.498,302.222 L263.382,281.371 Z M261.874,411.403 L225.916,432.164 L225.251,432.547 L225.252,375.721 L225.252,346.822 L299.498,303.958 L299.499,335.696 L299.499,346.24 L269.145,363.767 L262.137,367.812 C262.133,367.814 262.128,367.813 262.125,367.815 C261.969,367.904 261.874,368.07 261.874,368.249 L261.874,368.252 L261.874,368.254 L261.874,411.403 Z M336.621,368.252 L300.002,389.395 L263.383,368.252 L300,347.111 L336.621,368.252 Z M337.123,325.101 L337.123,367.384 L300.501,346.239 L300.501,303.958 L337.123,325.101 Z M337.123,282.24 L337.123,323.941 L301.005,303.09 L337.123,282.24 Z M300.501,302.223 L300.501,260.52 L336.621,281.371 L300.501,302.223 Z M261.874,497.707 L225.001,476.417 C224.971,476.399 224.935,476.404 224.903,476.394 C224.85,476.376 224.797,476.354 224.742,476.354 C224.701,476.355 224.665,476.375 224.625,476.386 C224.583,476.397 224.539,476.397 224.5,476.42 C224.492,476.424 224.489,476.433 224.482,476.438 C224.475,476.442 224.464,476.44 224.457,476.446 C224.42,476.473 224.399,476.514 224.372,476.548 C224.352,476.572 224.327,476.591 224.312,476.619 C224.283,476.673 224.273,476.732 224.265,476.794 C224.262,476.815 224.249,476.833 224.249,476.854 L224.249,562.866 L187.627,541.724 L187.627,498.576 C187.627,498.485 187.604,498.399 187.56,498.325 C187.517,498.249 187.454,498.186 187.376,498.141 C187.376,498.141 187.375,498.141 187.374,498.14 L150.002,476.562 L150.002,434.284 L186.875,455.571 C186.953,455.616 187.039,455.639 187.126,455.639 C187.213,455.639 187.299,455.616 187.377,455.571 C187.532,455.482 187.627,455.316 187.627,455.138 L187.627,368.251 C187.627,368.072 187.532,367.906 187.377,367.817 C187.375,367.816 187.373,367.816 187.371,367.815 L150.002,346.239 L150.002,303.958 L224.249,346.822 L224.249,433.416 C224.249,433.596 224.344,433.761 224.499,433.85 C224.5,433.851 224.502,433.85 224.503,433.851 L261.874,455.427 L261.874,497.707 Z M261.874,541.727 L225.252,562.869 L225.251,558.309 L225.252,477.724 L259.408,497.441 L261.874,498.865 L261.874,541.727 Z M187.129,584.878 L150.509,563.735 L187.126,542.6 L223.745,563.737 L187.129,584.878 Z M111.878,541.439 L37.629,498.578 L74.25,477.436 L111.625,499.015 C111.779,499.104 111.972,499.104 112.126,499.015 L149.5,477.436 L186.12,498.577 L111.878,541.439 Z M111.374,456.004 L111.374,497.707 L75.258,476.854 L111.374,456.004 Z M186.625,412.564 L186.625,454.264 L150.508,433.414 L186.625,412.564 Z M37.127,455.427 L186.625,369.121 L186.625,411.403 L159.143,427.271 L149.262,432.974 C149.258,432.976 149.254,432.975 149.25,432.977 C149.095,433.066 149,433.231 149,433.411 L149,433.413 C149,433.414 148.999,433.414 148.999,433.415 C148.999,433.415 148.999,433.415 148.999,433.416 L148.999,476.564 L112.377,497.709 L112.377,455.133 C112.377,454.953 112.282,454.788 112.126,454.698 C111.972,454.608 111.779,454.608 111.625,454.698 L73.999,476.417 C73.995,476.42 73.993,476.425 73.989,476.428 L37.127,497.709 L37.127,455.427 Z M111.374,325.101 L111.374,367.384 L74.752,346.239 L74.752,303.958 L111.374,325.101 Z M111.374,281.08 L74.752,302.223 L74.752,259.941 L111.374,238.798 L111.374,281.08 Z M111.876,324.231 L75.257,303.09 L111.876,281.95 L148.497,303.09 L111.876,324.231 Z M112.377,325.101 L148.999,303.959 L148.999,346.24 L112.377,367.385 L112.377,325.101 Z M75.258,172.768 L94.335,161.753 L111.875,151.629 L149.247,173.203 C149.248,173.203 149.248,173.204 149.249,173.205 C149.404,173.294 149.596,173.294 149.751,173.205 L186.623,151.916 L186.624,194.199 L149.502,215.631 L75.258,172.768 Z M148.999,216.501 L148.999,302.222 L112.377,281.079 L112.377,237.931 L112.377,237.929 C112.377,237.838 112.354,237.752 112.31,237.677 C112.267,237.602 112.204,237.539 112.127,237.494 L112.126,237.494 L74.752,215.917 L74.752,173.635 L148.999,216.501 Z M36.627,454.555 L0.008,433.413 L3.519,431.387 L74.502,390.411 C74.657,390.321 74.752,390.156 74.752,389.977 C74.752,389.976 74.751,389.975 74.751,389.974 L74.752,389.973 C74.752,389.793 74.657,389.628 74.501,389.539 L37.631,368.252 L74.251,347.111 L111.625,368.69 C111.78,368.78 111.972,368.78 112.127,368.69 L149.501,347.111 L181.884,365.807 L186.121,368.252 L36.627,454.555 Z M55.298,553.378 L73.243,563.738 L36.628,584.879 L0.009,563.737 L36.625,542.6 L55.298,553.378 Z M73.244,389.975 L37.127,410.822 L37.127,369.121 L73.244,389.975 Z M73.749,303.959 L73.749,346.24 L37.957,366.906 L37.127,367.385 L37.127,325.101 L73.749,303.959 Z M0.007,303.09 L36.626,281.95 L73.247,303.09 L36.626,324.231 L0.007,303.09 Z M37.127,238.797 L73.749,259.941 L73.749,302.222 L37.127,281.079 L37.127,238.797 Z M563.877,65.034 L564.944,65.65 L599.993,85.885 L563.877,106.735 L563.877,65.034 Z M543.589,423.697 L562.873,412.564 L562.873,454.263 L526.756,433.414 L543.589,423.697 Z M599.995,563.737 L563.378,584.878 L526.757,563.735 L530.01,561.859 L563.375,542.6 L599.995,563.737 Z M36.124,106.735 L0,85.882 L0,87.04 L35.619,107.605 L0,128.17 L0,129.33 L0.254,129.183 L36.123,108.474 L36.124,150.483 L36.124,150.757 L0,171.613 L0,172.772 L30.736,155.027 L36.626,151.625 L73.245,172.768 L0,215.055 L0,216.214 L73.749,173.635 L73.749,215.919 L36.382,237.49 C36.379,237.492 36.377,237.491 36.374,237.492 C36.219,237.582 36.124,237.747 36.124,237.927 L36.124,281.081 L0,301.936 L0,304.245 L36.124,325.101 L36.124,367.384 L0,346.526 L0,347.688 L35.621,368.252 L0,388.818 L0,389.979 L36.124,369.122 L36.124,411.403 L0,432.26 L0,434.57 L36.124,455.427 L36.124,497.707 L0,476.85 L0,478.013 L35.62,498.577 L0,519.141 L0,520.303 L36.124,499.445 L36.124,541.727 L0,562.583 L0,564.896 L36.124,585.753 L36.124,600 L37.127,600 L37.127,585.753 L73.749,564.606 L73.749,600 L74.752,600 L74.752,563.74 L74.752,563.738 L74.752,563.735 C74.752,563.557 74.657,563.391 74.501,563.302 C74.498,563.3 74.495,563.301 74.492,563.299 L60.218,555.061 L37.127,541.729 L37.127,499.445 L111.374,542.313 L111.374,600 L112.377,600 L112.377,542.313 L186.624,499.447 L186.625,541.727 L149.269,563.294 C149.263,563.297 149.255,563.295 149.25,563.299 C149.094,563.388 148.999,563.554 148.999,563.732 L148.999,600 L150.002,600 L150.002,564.606 L186.625,585.751 L186.625,600 L187.627,600 L187.627,585.751 L224.249,564.607 L224.249,600 L225.252,600 L225.252,564.547 L296.851,600 L299.12,600 L225.818,563.701 L262.375,542.6 L299.749,564.172 L299.749,564.173 C299.827,564.218 299.913,564.24 300,564.24 C300.087,564.24 300.174,564.218 300.251,564.173 L337.625,542.6 L374.186,563.703 L300.886,600 L303.149,600 L374.748,564.547 L374.748,600 L375.752,600 L375.752,564.606 L412.373,585.751 L412.373,600 L413.377,600 L413.377,585.751 L449.998,564.606 L449.998,600 L451.002,600 L451.002,563.735 C451.002,563.557 450.905,563.391 450.751,563.302 L375.752,520.004 L375.752,477.146 L412.373,456.003 L412.373,498.578 C412.373,498.757 412.47,498.923 412.624,499.012 L487.623,542.313 L487.623,600 L488.627,600 L488.627,542.313 L562.873,499.449 L562.873,541.727 L525.517,563.294 C525.511,563.297 525.504,563.295 525.498,563.299 C525.344,563.388 525.247,563.554 525.247,563.732 L525.247,564.167 L525.248,600 L526.252,600 L526.252,583.688 L526.251,564.606 L562.873,585.751 L562.873,600 L563.877,600 L563.877,585.751 L600,564.894 L600,562.579 L563.877,541.724 L563.877,498.575 C563.877,498.396 563.78,498.229 563.626,498.141 L526.251,476.562 L526.251,434.283 L563.124,455.571 C563.201,455.616 563.289,455.639 563.375,455.639 C563.461,455.639 563.549,455.616 563.626,455.571 C563.78,455.482 563.877,455.316 563.877,455.138 L563.877,369.121 L600,389.979 L600,388.817 L564.381,368.252 L600,347.688 L600,346.527 L563.134,367.813 C563.131,367.815 563.127,367.814 563.124,367.816 C562.97,367.905 562.873,368.071 562.873,368.25 L562.873,411.404 L525.511,432.973 C525.507,432.976 525.502,432.975 525.498,432.977 C525.344,433.066 525.247,433.231 525.247,433.411 L525.247,476.564 L488.627,497.709 L488.627,411.99 L526,390.414 C526.154,390.324 526.251,390.159 526.251,389.979 L526.251,346.53 C526.251,346.352 526.154,346.186 526,346.097 C525.845,346.006 525.653,346.006 525.498,346.097 L488.627,367.384 L488.627,325.101 L525.993,303.528 C525.995,303.527 525.998,303.527 526,303.526 C526.154,303.438 526.251,303.271 526.251,303.093 L526.251,259.941 L562.873,238.798 L562.873,324.812 C562.873,324.991 562.97,325.157 563.124,325.246 C563.201,325.291 563.289,325.313 563.375,325.313 C563.461,325.313 563.549,325.291 563.626,325.246 L600,304.246 L600,301.935 L563.877,281.079 L563.877,238.798 L600,259.653 L600,258.493 L564.382,237.93 L599.161,217.85 L600,217.366 L600,216.207 L563.877,237.06 L563.877,194.779 L600,173.923 L600,171.609 L570.319,154.476 L563.877,150.756 L563.877,108.474 L600,129.328 L600,128.169 L564.381,107.606 L600,87.04 L600,84.727 L566.639,65.47 L563.877,63.875 L563.877,0 L562.873,0 L562.873,63.875 L525.5,85.449 C525.499,85.45 525.499,85.449 525.498,85.45 L488.627,106.735 L488.627,64.455 L525.994,42.881 C525.996,42.88 525.998,42.881 526,42.88 C526.154,42.79 526.251,42.625 526.251,42.445 L526.251,0 L525.247,0 L525.247,41.573 L488.627,20.432 L488.627,0 L487.623,0 L487.623,20.432 L451.002,41.572 L451.002,0 L449.998,0 L449.998,41.572 L413.126,20.287 C413.124,20.286 413.122,20.286 413.12,20.285 L377.984,0 L375.974,0 L410.534,19.951 L411.87,20.722 L375.752,41.572 L375.752,0 L374.748,0 L374.748,41.572 L338.127,20.432 L338.127,0 L337.123,0 L337.123,20.432 L300.501,41.572 L300.501,0 L299.497,0 L299.497,42.443 C299.497,42.533 299.521,42.619 299.564,42.694 C299.607,42.771 299.67,42.835 299.749,42.881 C299.751,42.882 299.754,42.882 299.757,42.883 L374.746,86.177 L374.748,128.456 L300.251,85.449 L300.249,85.449 L262.876,63.873 L262.876,0 L261.872,0 L261.872,20.433 L225.252,41.572 L225.251,33.642 L225.251,0 L224.247,0 L224.249,33.233 L224.249,41.572 L188.131,20.722 L224.027,0 L222.017,0 L186.875,20.287 C186.719,20.376 186.624,20.542 186.624,20.721 L186.625,20.723 C186.625,20.902 186.72,21.068 186.875,21.158 L223.746,42.441 L187.125,63.584 L149.751,42.006 C149.597,41.917 149.404,41.917 149.25,42.006 L111.875,63.584 L75.259,42.444 L112.125,21.158 L112.126,21.158 L148.777,0 L146.762,0 L112.377,19.851 L112.377,0 L111.374,0 L111.374,20.43 L74.752,41.572 L74.752,0 L73.749,0 L73.749,41.572 L37.631,20.722 L41.638,18.408 L73.528,0 L71.515,0 L38.989,18.779 L36.379,20.285 C36.378,20.286 36.376,20.286 36.374,20.287 L0,41.285 L0,43.599 L36.123,64.454 L36.124,106.735 L36.124,106.735 Z" id="Fill-1" fill="#C00D29"></path>
    </g>
</svg>