<?xml version="1.0" encoding="UTF-8" standalone="no"?>
<svg width="30px" height="22px" viewBox="0 0 30 22" version="1.1" xmlns="http://www.w3.org/2000/svg" xmlns:xlink="http://www.w3.org/1999/xlink">
    <!-- Generator: Sketch 43.1 (39012) - http://www.bohemiancoding.com/sketch -->
    <title>Image</title>
    <desc>Created with Sketch.</desc>
    <defs></defs>
    <g id="Symbols" stroke="none" stroke-width="1" fill="none" fill-rule="evenodd" opacity="0.6">
        <g id="Nav/-Footer" transform="translate(-355.000000, -185.000000)" fill="#808080">
            <g id="Group-2" transform="translate(101.000000, 181.000000)">
                <path d="M277.986294,7.47801256 L277.934894,7.42661336 C276.804112,6.41576242 275.501999,5.93603655 273.977156,6.00456882 L273.925757,5.88463735 L273.960023,5.88463735 C275.330668,5.57624215 276.153055,5.26784694 276.392918,4.92518561 C276.478584,4.65105654 276.375785,4.513992 276.06739,4.4625928 C275.382067,4.54825814 274.748144,4.70245574 274.182753,4.90805254 C274.902342,4.4625928 275.176471,4.1541976 275.022273,4 C274.302684,4.01713307 273.531696,4.3597944 272.726442,5.04511708 C273.034837,4.56539121 273.137636,4.29126214 273.069103,4.256996 C272.692176,4.513992 272.349515,4.78812107 272.058252,5.07938321 C271.458595,5.73043975 270.961736,6.33009709 270.584809,6.87835523 L270.567676,6.92975443 C269.608224,8.42033124 268.940034,9.92804112 268.528841,11.4700171 L268.391776,11.5899486 L268.35751,11.6070817 C267.774986,10.9046259 267.089663,10.3221017 266.250143,9.85950885 C265.273558,9.24271845 264.125642,8.66019417 262.789263,8.09480297 C261.350086,7.37521416 259.876642,6.77555682 258.386065,6.31296402 C258.386065,7.90633923 259.191319,9.19131925 260.801828,10.1165049 L260.801828,10.1336379 C260.236436,10.1336379 259.688178,10.2193033 259.157053,10.3735009 C259.259852,11.8469446 260.356368,12.8749286 262.429469,13.4403198 L262.412336,13.474586 C261.607082,13.4231868 260.938892,13.6973158 260.407767,14.262707 C261.09309,15.547687 262.292404,16.1473444 264.039977,16.1130782 C263.697316,16.2844089 263.423187,16.4728726 263.251856,16.6784694 C262.926328,17.0039977 262.823529,17.3809252 262.926328,17.8092519 C263.303255,18.4603084 263.988578,18.7515705 264.965163,18.7173044 L265.033695,18.7858367 L264.999429,18.8029697 C263.286122,20.4991433 261.230154,21.2701314 258.797259,21.1159338 L258.762993,21.1330668 C257.289549,21.1159338 255.696174,20.4306111 254,19.0770988 C255.713307,21.4585951 257.992005,23.1719018 260.818961,24.251285 C264.05711,25.279269 267.29526,25.3478013 270.516276,24.4740148 L270.567676,24.4740148 C273.703027,23.6002284 276.358652,21.8183895 278.551685,19.128498 C279.562536,17.7064535 280.196459,16.3700742 280.453455,15.0679612 C282.081097,15.1193604 283.263278,14.6739006 284,13.7144489 L283.982867,13.6801828 C283.434609,13.8686465 282.372359,13.8172473 280.778983,13.5088521 L280.778983,13.3375214 C280.778983,13.3203883 280.778983,13.3203883 280.796117,13.3375214 C282.526556,13.1490577 283.537407,12.6179326 283.880069,11.7270131 C282.663621,12.1724729 281.481439,12.1896059 280.299258,11.7612793 C280.093661,10.2021702 279.322673,8.76299258 277.986294,7.47801256" id="Image"></path>
            </g>
        </g>
    </g>
</svg>