<?xml version="1.0" encoding="utf-8"?>
<!-- Generator: Adobe Illustrator 22.0.1, SVG Export Plug-In . SVG Version: 6.00 Build 0)  -->
<svg version="1.1" xmlns="http://www.w3.org/2000/svg" xmlns:xlink="http://www.w3.org/1999/xlink" x="0px" y="0px"
	 viewBox="0 0 1400 1000" style="enable-background:new 0 0 1400 1000;" xml:space="preserve">
<style type="text/css">
	.st0{fill:#281F56;}
	.st1{clip-path:url(#SVGID_2_);fill:none;stroke:url(#SVGID_3_);stroke-width:4;stroke-miterlimit:10;}
	.st2{fill:#E74683;}
	.st3{fill:url(#SVGID_4_);}
	.st4{fill:#FFFFFF;}
	.st5{fill:none;stroke:#FFFFFF;stroke-width:2;stroke-miterlimit:10;}
	.st6{fill:#58595B;}
</style>
<g id="BG">
</g>
<g id="Pattern">
	<linearGradient id="SVGID_2_" gradientUnits="userSpaceOnUse" x1="-54.9426" y1="362.0425" x2="1452.1912" y2="627.7908">
		<stop  offset="0.35" style="stop-color:#281F56"/>
		<stop  offset="0.58" style="stop-color:#690894"/>
		<stop  offset="0.6386" style="stop-color:#6E0B93"/>
		<stop  offset="0.7047" style="stop-color:#7B1491"/>
		<stop  offset="0.7744" style="stop-color:#92228E"/>
		<stop  offset="0.8462" style="stop-color:#B13689"/>
		<stop  offset="0.86" style="stop-color:#B83A88"/>
	</linearGradient>
	<path style="fill:url(#SVGID_2_);" d="M356.1,18.1L338,0h5.7l15.2,15.2c3.6,3.6,8.4,5.6,13.4,5.6s9.9-2,13.4-5.6L401.1,0h5.7
		l-18.1,18.1c-4.3,4.3-10.1,6.7-16.3,6.7C366.2,24.8,360.5,22.4,356.1,18.1z M1233.7,53.1l-53.7,53.7l23,23
		c4.3,4.3,6.7,10.1,6.7,16.3s-2.4,11.9-6.7,16.3l-67.6,67.6l53.7,53.7l67.6-67.6c9-9,23.6-9,32.5,0l23,23l53.7-53.7l-23-23
		c-4.3-4.3-6.7-10.1-6.7-16.3s2.4-11.9,6.7-16.3l56.9-56.9v5.7l-54.1,54.1c-3.6,3.6-5.6,8.4-5.6,13.4c0,5.1,2,9.9,5.6,13.4l23,23
		l31-31v5.7l-28.2,28.2l28.2,28.2v5.7l-31-31l-53.7,53.7l53.7,53.7l31-31v5.7l-28.2,28.2l23,23c2.3,2.3,4,5,5.2,8v16.6
		c-1.1,3-2.9,5.7-5.2,8l-67.6,67.6l53.7,53.7l19-19v5.7l-16.2,16.2l16.2,16.2v5.7l-19-19l-53.7,53.7l23,23
		c4.3,4.3,6.7,10.1,6.7,16.3s-2.4,11.9-6.7,16.3l-67.6,67.6l53.7,53.7l63.6-63.6v5.7l-60.8,60.8l23,23c7.4,7.4,19.5,7.4,26.9,0
		l10.9-10.9v5.7l-8,8c-9,9-23.6,9-32.5,0l-23-23l-53.7,53.7l23,23c4.3,4.3,6.7,10.1,6.7,16.3s-2.4,11.9-6.7,16.3l-67.6,67.6
		l53.7,53.7l67.6-67.6c9-9,23.6-9,32.5,0l8,8v5.7l-10.9-10.9c-3.6-3.6-8.4-5.6-13.4-5.6c-5.1,0-9.9,2-13.4,5.6l-67.6,67.6l23,23
		c7.4,7.4,19.5,7.4,26.9,0l55.4-55.4v5.7l-52.6,52.6c-9,9-23.6,9-32.5,0l-23-23l-46.3,46.3h-5.7l49.1-49.1l-53.7-53.7l-53.7,53.7
		l49.1,49.1h-5.7l-46.3-46.3l-46.3,46.3h-5.7l49.1-49.1l-23-23c-3.6-3.6-8.4-5.6-13.4-5.6c-5.1,0-9.9,2-13.4,5.6l-67.6,67.6l4.5,4.5
		h-5.7l-1.7-1.7l-1.7,1.7h-5.7l4.5-4.5l-53.7-53.7l-53.7,53.7l4.5,4.5H944l-1.7-1.7l-1.7,1.7H935l4.5-4.5l-23-23
		c-7.4-7.4-19.5-7.4-26.9,0L862,1000h-5.7l30.4-30.4c9-9,23.6-9,32.5,0l23,23l53.7-53.7l-23-23c-4.3-4.3-6.7-10.1-6.7-16.3
		c0-6.2,2.4-11.9,6.7-16.3l67.6-67.6L986.9,762l-67.6,67.6c-9,9-23.6,9-32.5,0l-23-23L810,860.3l23,23c4.3,4.3,6.7,10.1,6.7,16.3
		c0,6.2-2.4,11.9-6.7,16.3l-67.6,67.6L782,1000h-5.7l-13.7-13.7l-13.7,13.7h-5.7l16.5-16.5l-23-23c-9-9-9-23.6,0-32.5l67.6-67.6
		l-53.7-53.7L683,874.2c-4.3,4.3-10.1,6.7-16.3,6.7c-6.2,0-11.9-2.4-16.3-6.7l-23-23l-53.7,53.7l23,23c9,9,9,23.6,0,32.5l-39.6,39.6
		h-5.7l42.4-42.4c3.6-3.6,5.6-8.4,5.6-13.4s-2-9.9-5.6-13.4l-23-23l-67.6,67.6c-3.6,3.6-5.6,8.4-5.6,13.4c0,4.1,1.3,8,3.7,11.3h-4.8
		c-1.9-3.4-3-7.2-3-11.3c0-6.2,2.4-11.9,6.7-16.3l67.6-67.6l-53.7-53.7l-67.6,67.6c-9,9-23.6,9-32.5,0l-23-23l-53.7,53.7l23,23
		c4.3,4.3,6.7,10.1,6.7,16.3c0,4-1,7.9-3,11.3h-4.8c2.4-3.2,3.7-7.1,3.7-11.3c0-5.1-2-9.9-5.6-13.4l-23-23l-47.7,47.7h-5.7
		l50.6-50.6L278,895.7l-67.6,67.6c-9,9-23.6,9-32.5,0l-23-23L101.1,994l6,6h-5.7l-3.2-3.2l-3.2,3.2h-5.7l6-6l-53.7-53.7L0,981.9
		v-5.7l38.9-38.9l-23-23c-3.6-3.6-8.4-5.6-13.4-5.6c-0.8,0-1.6,0.1-2.4,0.2v-4c0.8-0.1,1.6-0.1,2.4-0.1c6.2,0,11.9,2.4,16.3,6.7
		l23,23l53.7-53.7l-23-23c-9-9-9-23.6,0-32.5l67.6-67.6l-53.7-53.7l-67.6,67.6c-4.3,4.3-10.1,6.7-16.3,6.7c-0.8,0-1.6,0-2.4-0.1v-4
		c0.8,0.1,1.6,0.2,2.4,0.2c5.1,0,9.9-2,13.4-5.6l67.6-67.6l-23-23c-3.6-3.6-8.4-5.6-13.4-5.6c-5.1,0-9.9,2-13.4,5.6L0,711.6v-5.7
		l30.7-30.7c4.3-4.3,10.1-6.7,16.3-6.7c6.2,0,11.9,2.4,16.3,6.7l23,23l53.7-53.7l-23-23c-4.3-4.3-6.7-10.1-6.7-16.3
		s2.4-11.9,6.7-16.3l67.6-67.6l-53.7-53.7l-67.6,67.6c-4.3,4.3-10.1,6.7-16.3,6.7c-6.2,0-11.9-2.4-16.3-6.7l-23-23L0,519.9v-5.7
		l4.8-4.8L0,504.6v-5.7l7.7,7.7L75.3,439c9-9,23.6-9,32.5,0l23,23l53.7-53.7l-23-23c-4.3-4.3-6.7-10.1-6.7-16.3s2.4-11.9,6.7-16.3
		l67.6-67.6l-53.7-53.7l-67.6,67.6c-9,9-23.6,9-32.5,0l-23-23L0,328.1v-5.7l49.4-49.4L0,223.7V218l52.2,52.2l67.6-67.6
		c4.3-4.3,10.1-6.7,16.3-6.7c6.2,0,11.9,2.4,16.3,6.7l23,23l53.7-53.7l-23-23c-4.3-4.3-6.7-10.1-6.7-16.3s2.4-11.9,6.7-16.3
		l67.6-67.6L224.9,0h5.7l46,46l46-46h5.7l-48.8,48.8l23,23c9,9,9,23.6,0,32.5l-67.6,67.6l53.7,53.7l67.6-67.6
		c4.3-4.3,10.1-6.7,16.3-6.7c6.2,0,11.9,2.4,16.3,6.7l23,23l53.7-53.7l-23-23c-9-9-9-23.6,0-32.5L510,4.2L505.8,0h5.7l1.4,1.4
		l1.4-1.4h5.7l-4.2,4.2l23,23c4.3,4.3,6.7,10.1,6.7,16.3s-2.4,11.9-6.7,16.3l-67.6,67.6l53.7,53.7l67.6-67.6c9-9,23.6-9,32.5,0
		l23,23l53.7-53.7l-23-23c-4.3-4.3-6.7-10.1-6.7-16.3s2.4-11.9,6.7-16.3L705.9,0h5.7l-30.1,30.1c-3.6,3.6-5.6,8.4-5.6,13.4
		c0,5.1,2,9.9,5.6,13.4l23,23l67.6-67.6c3.3-3.3,5.3-7.7,5.5-12.4h4c-0.3,5.8-2.6,11.1-6.7,15.2l-67.6,67.6l53.7,53.7L828.7,69
		c9-9,23.6-9,32.5,0l23,23L938,38.3l-23-23c-4.1-4.1-6.4-9.5-6.7-15.2h4c0.3,4.7,2.2,9.1,5.5,12.4l23,23L976.3,0h5.7l-38.3,38.3
		L997.4,92l67.6-67.6c9-9,23.6-9,32.5,0l23,23L1168,0h5.7l-50.3,50.3l53.7,53.7l53.7-53.7L1180.6,0h5.7l47.4,47.4L1281.2,0h5.7
		l-50.3,50.3l23,23c7.4,7.4,19.5,7.4,26.9,0l67.6-67.6l-5.7-5.7h5.7l2.9,2.9l2.9-2.9h5.7l-5.7,5.7l40.2,40.2v5.7l-43-43l-67.6,67.6
		c-9,9-23.6,9-32.5,0L1233.7,53.1z M172.6,228.5l-23-23c-7.4-7.4-19.5-7.4-26.9,0l-67.6,67.6l23,23c7.4,7.4,19.5,7.4,26.9,0
		L172.6,228.5z M128,464.8l-23-23c-7.4-7.4-19.5-7.4-26.9,0l-67.6,67.6l23,23c3.6,3.6,8.4,5.6,13.4,5.6c5.1,0,9.9-2,13.4-5.6
		L128,464.8z M1000.3,94.8l23,23c3.6,3.6,8.4,5.6,13.4,5.6c5.1,0,9.9-2,13.4-5.6l67.6-67.6l-23-23c-7.4-7.4-19.5-7.4-26.9,0
		L1000.3,94.8z M997.4,97.7l-53.7,53.7l23,23c9,9,9,23.6,0,32.5l-67.6,67.6l53.7,53.7l67.6-67.6c4.3-4.3,10.1-6.7,16.3-6.7
		c6.2,0,11.9,2.4,16.3,6.7l23,23l53.7-53.7l-23-23c-9-9-9-23.6,0-32.5l67.6-67.6l-53.7-53.7l-67.6,67.6c-4.3,4.3-10.1,6.7-16.3,6.7
		c-6.2,0-11.9-2.4-16.3-6.7L997.4,97.7z M1144.6,525.7l-53.7,53.7l23,23c9,9,9,23.6,0,32.5l-67.6,67.6l53.7,53.7l67.6-67.6
		c9-9,23.6-9,32.5,0l23,23l53.7-53.7l-23-23c-4.3-4.3-6.7-10.1-6.7-16.3c0-6.2,2.4-11.9,6.7-16.3l67.6-67.6l-53.7-53.7l-67.6,67.6
		c-9,9-23.6,9-32.5,0L1144.6,525.7z M1170.5,545.9c7.4,7.4,19.5,7.4,26.9,0l67.6-67.6l-23-23c-7.4-7.4-19.5-7.4-26.9,0l-67.6,67.6
		L1170.5,545.9z M1197.3,691.6c-7.4-7.4-19.5-7.4-26.9,0l-67.6,67.6l23,23c3.6,3.6,8.4,5.6,13.4,5.6c5.1,0,9.9-2,13.4-5.6l67.6-67.6
		L1197.3,691.6z M1111.1,632.2c7.4-7.4,7.4-19.5,0-26.9l-23-23l-67.6,67.6c-3.6,3.6-5.6,8.4-5.6,13.4s2,9.9,5.6,13.4l23,23
		L1111.1,632.2z M1141.8,522.9l-53.7-53.7l-53.7,53.7l53.7,53.7L1141.8,522.9z M1088,463.5l67.6-67.6c3.6-3.6,5.6-8.4,5.6-13.4
		c0-5.1-2-9.9-5.6-13.4l-23-23l-67.6,67.6c-7.4,7.4-7.4,19.5,0,26.9L1088,463.5z M1129.8,343.1l-53.7-53.7l-67.6,67.6
		c-4.3,4.3-10.1,6.7-16.3,6.7c-6.2,0-11.9-2.4-16.3-6.7l-23-23l-53.7,53.7l23,23c9,9,9,23.6,0,32.5l-67.6,67.6l53.7,53.7l67.6-67.6
		c4.3-4.3,10.1-6.7,16.3-6.7c6.2,0,11.9,2.4,16.3,6.7l23,23l53.7-53.7l-23-23c-9-9-9-23.6,0-32.5L1129.8,343.1z M1005.6,499.8
		c-3.6-3.6-8.4-5.6-13.4-5.6s-9.9,2-13.4,5.6l-67.6,67.6l23,23c3.6,3.6,8.4,5.6,13.4,5.6c5.1,0,9.9-2,13.4-5.6l67.6-67.6
		L1005.6,499.8z M851.7,621.2l53.7-53.7l-53.7-53.7L798,567.4L851.7,621.2z M851.7,626.8l-67.6,67.6c-3.6,3.6-5.6,8.4-5.6,13.4
		c0,5.1,2,9.9,5.6,13.4l23,23l67.6-67.6c3.6-3.6,5.6-8.4,5.6-13.4s-2-9.9-5.6-13.4L851.7,626.8z M795.2,564.6l53.7-53.7l-23-23
		c-4.3-4.3-6.7-10.1-6.7-16.3s2.4-11.9,6.7-16.3l67.6-67.6L839.7,334l-67.6,67.6c-9,9-23.6,9-32.5,0l-23-23l-53.7,53.7l23,23
		c4.3,4.3,6.7,10.1,6.7,16.3s-2.4,11.9-6.7,16.3l-67.6,67.6l53.7,53.7l67.6-67.6c9-9,23.6-9,32.5,0L795.2,564.6z M769.3,544.4
		c-3.6-3.6-8.4-5.6-13.4-5.6c-5.1,0-9.9,2-13.4,5.6L674.8,612l23,23c7.4,7.4,19.5,7.4,26.9,0l67.6-67.6L769.3,544.4z M615.4,665.7
		l53.7-53.7l-53.7-53.7L561.7,612L615.4,665.7z M615.4,671.4L547.8,739c-3.6,3.6-5.6,8.4-5.6,13.4c0,5.1,2,9.9,5.6,13.4l23,23
		l67.6-67.6c3.6-3.6,5.6-8.4,5.6-13.4c0-5.1-2-9.9-5.6-13.4L615.4,671.4z M558.9,609.2l53.7-53.7l-23-23c-9-9-9-23.6,0-32.5
		l67.6-67.6l-53.7-53.7l-67.6,67.6c-9,9-23.6,9-32.5,0l-23-23l-53.7,53.7l23,23c9,9,9,23.6,0,32.5L382,600l53.7,53.7l67.6-67.6
		c9-9,23.6-9,32.5,0L558.9,609.2z M533,589c-7.4-7.4-19.5-7.4-26.9,0l-67.6,67.6l23,23c3.6,3.6,8.4,5.6,13.4,5.6
		c5.1,0,9.9-2,13.4-5.6L556,612L533,589z M432.9,656.6l-53.7-53.7l-53.7,53.7l53.7,53.7L432.9,656.6z M311.5,783.5
		c-3.6,3.6-5.6,8.4-5.6,13.4s2,9.9,5.6,13.4l23,23l67.6-67.6c3.6-3.6,5.6-8.4,5.6-13.4c0-5.1-2-9.9-5.6-13.4l-23-23L311.5,783.5z
		 M322.6,653.7l53.7-53.7l-23-23c-4.3-4.3-6.7-10.1-6.7-16.3c0-6.2,2.4-11.9,6.7-16.3l67.6-67.6l-53.7-53.7l-67.6,67.6
		c-9,9-23.6,9-32.5,0l-23-23l-53.7,53.7l23,23c4.3,4.3,6.7,10.1,6.7,16.3c0,6.2-2.4,11.9-6.7,16.3l-67.6,67.6l53.7,53.7l67.6-67.6
		c9-9,23.6-9,32.5,0L322.6,653.7z M296.7,633.5c-7.4-7.4-19.5-7.4-26.9,0l-67.6,67.6l23,23c7.4,7.4,19.5,7.4,26.9,0l67.6-67.6
		L296.7,633.5z M269.8,487.8c7.4,7.4,19.5,7.4,26.9,0l67.6-67.6l-23-23c-7.4-7.4-19.5-7.4-26.9,0l-67.6,67.6L269.8,487.8z
		 M423.7,366.5L370,420.3l53.7,53.7l53.7-53.7L423.7,366.5z M423.7,360.9l67.6-67.6c3.6-3.6,5.6-8.4,5.6-13.4c0-5.1-2-9.9-5.6-13.4
		l-23-23l-67.6,67.6c-3.6,3.6-5.6,8.4-5.6,13.4s2,9.9,5.6,13.4L423.7,360.9z M423.7,479.7l-67.6,67.6c-3.6,3.6-5.6,8.4-5.6,13.4
		s2,9.9,5.6,13.4l23,23l67.6-67.6c7.4-7.4,7.4-19.5,0-26.9L423.7,479.7z M506.1,443.3c7.4,7.4,19.5,7.4,26.9,0l67.6-67.6l-23-23
		c-3.6-3.6-8.4-5.6-13.4-5.6s-9.9,2-13.4,5.6l-67.6,67.6L506.1,443.3z M660,322l-53.7,53.7l53.7,53.7l53.7-53.7L660,322z M660,316.3
		l67.6-67.6c3.6-3.6,5.6-8.4,5.6-13.4c0-5.1-2-9.9-5.6-13.4l-23-23L637,266.4c-3.6,3.6-5.6,8.4-5.6,13.4c0,5.1,2,9.9,5.6,13.4
		L660,316.3z M660,435.1l-67.6,67.6c-7.4,7.4-7.4,19.5,0,26.9l23,23L683,485c3.6-3.6,5.6-8.4,5.6-13.4c0-5.1-2-9.9-5.6-13.4
		L660,435.1z M742.4,398.7c3.6,3.6,8.4,5.6,13.4,5.6c5.1,0,9.9-2,13.4-5.6l67.6-67.6l-23-23c-7.4-7.4-19.5-7.4-26.9,0l-67.6,67.6
		L742.4,398.7z M896.3,277.4l-53.7,53.7l53.7,53.7l53.7-53.7L896.3,277.4z M896.3,271.7l67.6-67.6c7.4-7.4,7.4-19.5,0-26.9l-23-23
		l-67.6,67.6c-3.6,3.6-5.6,8.4-5.6,13.4c0,5.1,2,9.9,5.6,13.4L896.3,271.7z M896.3,390.5l-67.6,67.6c-3.6,3.6-5.6,8.4-5.6,13.4
		c0,5.1,2,9.9,5.6,13.4l23,23l67.6-67.6c7.4-7.4,7.4-19.5,0-26.9L896.3,390.5z M978.7,354.2c3.6,3.6,8.4,5.6,13.4,5.6
		s9.9-2,13.4-5.6l67.6-67.6l-23-23c-3.6-3.6-8.4-5.6-13.4-5.6c-5.1,0-9.9,2-13.4,5.6l-67.6,67.6L978.7,354.2z M887.1,94.8l53.7,53.7
		l53.7-53.7l-53.7-53.7L887.1,94.8z M764,139.4l23,23c3.6,3.6,8.4,5.6,13.4,5.6c5.1,0,9.9-2,13.4-5.6l67.6-67.6l-23-23
		c-7.4-7.4-19.5-7.4-26.9,0L764,139.4z M707.4,196l23,23c4.3,4.3,6.7,10.1,6.7,16.3s-2.4,11.9-6.7,16.3l-67.6,67.6l53.7,53.7
		l67.6-67.6c9-9,23.6-9,32.5,0l23,23l53.7-53.7l-23-23c-4.3-4.3-6.7-10.1-6.7-16.3s2.4-11.9,6.7-16.3l67.6-67.6l-53.7-53.7
		l-67.6,67.6c-9,9-23.6,9-32.5,0l-23-23L707.4,196z M650.8,139.4l53.7,53.7l53.7-53.7l-53.7-53.7L650.8,139.4z M527.7,184l23,23
		c3.6,3.6,8.4,5.6,13.4,5.6s9.9-2,13.4-5.6l67.6-67.6l-23-23c-7.4-7.4-19.5-7.4-26.9,0L527.7,184z M524.8,186.8l-53.7,53.7l23,23
		c4.3,4.3,6.7,10.1,6.7,16.3s-2.4,11.9-6.7,16.3l-67.6,67.6l53.7,53.7l67.6-67.6c4.3-4.3,10.1-6.7,16.3-6.7c6.2,0,11.9,2.4,16.3,6.7
		l23,23l53.7-53.7l-23-23c-4.3-4.3-6.7-10.1-6.7-16.3s2.4-11.9,6.7-16.3l67.6-67.6L648,142.2l-67.6,67.6c-4.3,4.3-10.1,6.7-16.3,6.7
		c-6.2,0-11.9-2.4-16.3-6.7L524.8,186.8z M468.3,124.6L535.8,57c3.6-3.6,5.6-8.4,5.6-13.4c0-5.1-2-9.9-5.6-13.4l-23-23l-67.6,67.6
		c-7.4,7.4-7.4,19.5,0,26.9L468.3,124.6z M414.5,184l53.7,53.7L522,184l-53.7-53.7L414.5,184z M291.4,228.5l23,23
		c7.4,7.4,19.5,7.4,26.9,0l67.6-67.6l-23-23c-3.6-3.6-8.4-5.6-13.4-5.6s-9.9,2-13.4,5.6L291.4,228.5z M288.5,231.3l-53.7,53.7l23,23
		c4.3,4.3,6.7,10.1,6.7,16.3c0,6.2-2.4,11.9-6.7,16.3l-67.6,67.6L244,462l67.6-67.6c4.3-4.3,10.1-6.7,16.3-6.7
		c6.2,0,11.9,2.4,16.3,6.7l23,23l53.7-53.7l-23-23c-4.3-4.3-6.7-10.1-6.7-16.3c0-6.2,2.4-11.9,6.7-16.3l67.6-67.6l-53.7-53.7
		l-67.6,67.6c-9,9-23.6,9-32.5,0L288.5,231.3z M232,169.1l67.6-67.6c3.6-3.6,5.6-8.4,5.6-13.4c0-5.1-2-9.9-5.6-13.4l-23-23
		l-67.6,67.6c-3.6,3.6-5.6,8.4-5.6,13.4c0,5.1,2,9.9,5.6,13.4L232,169.1z M232,282.3l53.7-53.7L232,174.8l-53.7,53.7L232,282.3z
		 M187.4,405.4l67.6-67.6c3.6-3.6,5.6-8.4,5.6-13.4s-2-9.9-5.6-13.4l-23-23l-67.6,67.6c-3.6,3.6-5.6,8.4-5.6,13.4
		c0,5.1,2,9.9,5.6,13.4L187.4,405.4z M187.4,518.6l53.7-53.7l-53.7-53.7l-53.7,53.7L187.4,518.6z M142.8,641.7l67.6-67.6
		c3.6-3.6,5.6-8.4,5.6-13.4s-2-9.9-5.6-13.4l-23-23l-67.6,67.6c-3.6,3.6-5.6,8.4-5.6,13.4c0,5.1,2,9.9,5.6,13.4L142.8,641.7z
		 M142.8,754.9l53.7-53.7l-53.7-53.7l-53.7,53.7L142.8,754.9z M98.3,878l67.6-67.6c3.6-3.6,5.6-8.4,5.6-13.4s-2-9.9-5.6-13.4l-23-23
		l-67.6,67.6c-7.4,7.4-7.4,19.5,0,26.9L98.3,878z M152,937.4l-53.7-53.7l-53.7,53.7l53.7,53.7L152,937.4z M275.2,892.9l-23-23
		c-7.4-7.4-19.5-7.4-26.9,0l-67.6,67.6l23,23c7.4,7.4,19.5,7.4,26.9,0L275.2,892.9z M278,890l53.7-53.7l-23-23
		c-4.3-4.3-6.7-10.1-6.7-16.3c0-6.2,2.4-11.9,6.7-16.3l67.6-67.6l-53.7-53.7L255,727c-9,9-23.6,9-32.5,0l-23-23l-53.7,53.7l23,23
		c4.3,4.3,6.7,10.1,6.7,16.3c0,6.2-2.4,11.9-6.7,16.3l-67.6,67.6l53.7,53.7l67.6-67.6c9-9,23.6-9,32.5,0L278,890z M388.3,892.9
		l-53.7-53.7l-53.7,53.7l53.7,53.7L388.3,892.9z M511.5,848.3l-23-23c-3.6-3.6-8.4-5.6-13.4-5.6c-5.1,0-9.9,2-13.4,5.6L394,892.9
		l23,23c7.4,7.4,19.5,7.4,26.9,0L511.5,848.3z M514.3,845.5l53.7-53.7l-23-23c-9-9-9-23.6,0-32.5l67.6-67.6l-53.7-53.7l-67.6,67.6
		c-4.3,4.3-10.1,6.7-16.3,6.7c-6.2,0-11.9-2.4-16.3-6.7l-23-23L382,713.1l23,23c9,9,9,23.6,0,32.5l-67.6,67.6l53.7,53.7l67.6-67.6
		c4.3-4.3,10.1-6.7,16.3-6.7c6.2,0,11.9,2.4,16.3,6.7L514.3,845.5z M624.6,848.3l-53.7-53.7l-53.7,53.7l53.7,53.7L624.6,848.3z
		 M747.8,803.7l-23-23c-3.6-3.6-8.4-5.6-13.4-5.6c-5.1,0-9.9,2-13.4,5.6l-67.6,67.6l23,23c3.6,3.6,8.4,5.6,13.4,5.6s9.9-2,13.4-5.6
		L747.8,803.7z M750.6,800.9l53.7-53.7l-23-23c-4.3-4.3-6.7-10.1-6.7-16.3s2.4-11.9,6.7-16.3l67.6-67.6l-53.7-53.7l-67.6,67.6
		c-9,9-23.6,9-32.5,0l-23-23l-53.7,53.7l23,23c4.3,4.3,6.7,10.1,6.7,16.3s-2.4,11.9-6.7,16.3l-67.6,67.6l53.7,53.7l67.6-67.6
		c4.3-4.3,10.1-6.7,16.3-6.7c6.2,0,11.9,2.4,16.3,6.7L750.6,800.9z M807.2,863.1l-67.6,67.6c-3.6,3.6-5.6,8.4-5.6,13.4
		s2,9.9,5.6,13.4l23,23l67.6-67.6c3.6-3.6,5.6-8.4,5.6-13.4c0-5.1-2-9.9-5.6-13.4L807.2,863.1z M860.9,803.7L807.2,750l-53.7,53.7
		l53.7,53.7L860.9,803.7z M984.1,759.2l-23-23c-3.6-3.6-8.4-5.6-13.4-5.6c-5.1,0-9.9,2-13.4,5.6l-67.6,67.6l23,23
		c7.4,7.4,19.5,7.4,26.9,0L984.1,759.2z M986.9,756.3l53.7-53.7l-23-23c-4.3-4.3-6.7-10.1-6.7-16.3c0-6.2,2.4-11.9,6.7-16.3
		l67.6-67.6l-53.7-53.7l-67.6,67.6c-9,9-23.6,9-32.5,0l-23-23L854.6,624l23,23c4.3,4.3,6.7,10.1,6.7,16.3c0,6.2-2.4,11.9-6.7,16.3
		L810,747.2l53.7,53.7l67.6-67.6c9-9,23.6-9,32.5,0L986.9,756.3z M1043.5,812.9l53.7-53.7l-53.7-53.7l-53.7,53.7L1043.5,812.9z
		 M998.9,936.1l67.6-67.6c7.4-7.4,7.4-19.5,0-26.9l-23-23l-67.6,67.6c-3.6,3.6-5.6,8.4-5.6,13.4c0,5.1,2,9.9,5.6,13.4L998.9,936.1z
		 M1232.4,894.3l-23-23c-9-9-9-23.6,0-32.5l67.6-67.6l-53.7-53.7l-67.6,67.6c-4.3,4.3-10.1,6.7-16.3,6.7c-6.2,0-11.9-2.4-16.3-6.7
		l-23-23l-53.7,53.7l23,23c9,9,9,23.6,0,32.5l-67.6,67.6l53.7,53.7l67.6-67.6c4.3-4.3,10.1-6.7,16.3-6.7c6.2,0,11.9,2.4,16.3,6.7
		l23,23L1232.4,894.3z M1279.8,774l-67.6,67.6c-7.4,7.4-7.4,19.5,0,26.9l23,23l67.6-67.6c3.6-3.6,5.6-8.4,5.6-13.4
		c0-5.1-2-9.9-5.6-13.4L1279.8,774z M1279.8,660.9l-53.7,53.7l53.7,53.7l53.7-53.7L1279.8,660.9z M1324.3,537.7l-67.6,67.6
		c-3.6,3.6-5.6,8.4-5.6,13.4c0,5.1,2,9.9,5.6,13.4l23,23l67.6-67.6c3.6-3.6,5.6-8.4,5.6-13.4c0-5.1-2-9.9-5.6-13.4L1324.3,537.7z
		 M1324.3,424.6l-53.7,53.7l53.7,53.7l53.7-53.7L1324.3,424.6z M1368.9,301.4l-67.6,67.6c-3.6,3.6-5.6,8.4-5.6,13.4
		c0,5.1,2,9.9,5.6,13.4l23,23l67.6-67.6c3.6-3.6,5.6-8.4,5.6-13.4s-2-9.9-5.6-13.4L1368.9,301.4z M1192,286.6l23,23
		c7.4,7.4,19.5,7.4,26.9,0l67.6-67.6l-23-23c-7.4-7.4-19.5-7.4-26.9,0L1192,286.6z M1189.2,289.4l-53.7,53.7l23,23
		c4.3,4.3,6.7,10.1,6.7,16.3s-2.4,11.9-6.7,16.3l-67.6,67.6l53.7,53.7l67.6-67.6c9-9,23.6-9,32.5,0l23,23l53.7-53.7l-23-23
		c-4.3-4.3-6.7-10.1-6.7-16.3s2.4-11.9,6.7-16.3l67.6-67.6l-53.7-53.7l-67.6,67.6c-9,9-23.6,9-32.5,0L1189.2,289.4z M1132.6,232.8
		l-53.7,53.7l53.7,53.7l53.7-53.7L1132.6,232.8z M1177.2,109.7l-67.6,67.6c-7.4,7.4-7.4,19.5,0,26.9l23,23l67.6-67.6
		c3.6-3.6,5.6-8.4,5.6-13.4c0-5.1-2-9.9-5.6-13.4L1177.2,109.7z M0,130.7v5.7l40.2-40.2l22.7,22.7l0,0l0.3,0.3
		c3.6,3.6,5.6,8.4,5.6,13.4c0,5.1-2,9.9-5.6,13.4L0,209.3v5.7l66.1-66.1c4.3-4.3,6.7-10.1,6.7-16.3s-2.4-11.9-6.7-16.3l-23-23
		l53.7-53.7l23,23c4.3,4.3,10.1,6.7,16.3,6.7c6.2,0,11.9-2.4,16.3-6.7L215,0h-5.7l-59.8,59.8c-3.6,3.6-8.4,5.6-13.4,5.6
		c-5.1,0-9.9-2-13.4-5.6l-23-23L136.4,0h-5.7L96.8,34L62.8,0h-5.7L94,36.8L40.2,90.5l0,0L0,50.3L0,56l37.4,37.4L0,130.7z"/>
</g>
<g id="Copy">
</g>
<g id="Mask">
</g>
</svg>
