<svg xmlns="http://www.w3.org/2000/svg" xmlns:xlink="http://www.w3.org/1999/xlink" viewBox="0 0 1799 1285"><defs><style>.cls-1{fill:url(#linear-gradient);}</style><linearGradient id="linear-gradient" x1="-83.18" y1="476.02" x2="1875.32" y2="821.36" gradientUnits="userSpaceOnUse"><stop offset="0.3" stop-color="#281f56"/><stop offset="0.58" stop-color="#690894"/><stop offset="0.64" stop-color="#6e0b93"/><stop offset="0.7" stop-color="#7b1491"/><stop offset="0.77" stop-color="#92228e"/><stop offset="0.85" stop-color="#b13689"/><stop offset="0.86" stop-color="#b83a88"/></linearGradient></defs><title>Login_Pattern_XL</title><g id="Layer_5" data-name="Layer 5"><path class="cls-1" d="M1782.53,229.45a19.07,19.07,0,0,0,0,26.92l17,17V279l-19.79-19.79a23.06,23.06,0,0,1,0-32.58l19.79-19.8v5.66Zm17,1016.25-39.3,39.3h5.65l33.65-33.65ZM142.23,18.62a23,23,0,0,0,16.29-6.74L170.4,0h-5.66l-9.05,9.05a19.06,19.06,0,0,1-26.92,0l-9.05-9h-5.66l11.88,11.88A23,23,0,0,0,142.23,18.62ZM59.73,1184.13-.5,1244.36v-5.66l57.4-57.4L3.07,1127.48l-3.57,3.57v-5.66l.74-.74-.74-.74v-5.66l3.57,3.57L56.9,1068l-23.07-23.07a23.07,23.07,0,0,1,0-32.59l67.7-67.69L47.7,890.82-.5,939v-5.66L44.87,888,21.8,864.92a19.06,19.06,0,0,0-22.3-3.4v-4.4a23.07,23.07,0,0,1,25.13,5L47.7,885.16l53.83-53.82L78.46,808.27a23.08,23.08,0,0,1,0-32.59L146.16,708,92.33,654.16l-67.7,67.7a23.08,23.08,0,0,1-25.13,5v-4.4A19.06,19.06,0,0,0,21.8,719l67.7-67.7L66.43,628.26a19.06,19.06,0,0,0-26.92,0l-40,40v-5.66l37.18-37.18a23.07,23.07,0,0,1,32.58,0L92.33,648.5l53.83-53.82-23.07-23.07a23.07,23.07,0,0,1,0-32.59l67.7-67.69L137,417.5l-67.7,67.7a23.06,23.06,0,0,1-32.58,0L13.61,462.13-.5,476.24v-5.66L10.78,459.3-.5,448v-5.66l14.11,14.11,67.7-67.7a23.07,23.07,0,0,1,32.58,0L137,411.84,190.79,358,167.72,335a23.06,23.06,0,0,1,0-32.58l67.7-67.7-53.83-53.83-67.7,67.7a23.06,23.06,0,0,1-32.58,0L58.24,225.47,4.41,279.29l23.07,23.08a23.06,23.06,0,0,1,0,32.58l-28,28v-5.66l25.15-25.15a19.06,19.06,0,0,0,0-26.93L1.58,282.12-.5,284.21v-9.83l2.08,2.09,53.83-53.83L1.58,168.81-.5,170.9v-9.83l2.08,2.09,67.7-67.7a19.05,19.05,0,0,0,0-26.93L46.21,45.46-.5,92.18V86.52L43.39,42.63.75,0H6.41l39.8,39.81L86,0h5.66L49,42.63,72.11,65.7a23.08,23.08,0,0,1,0,32.59L4.41,166l53.83,53.82,67.7-67.7a23.07,23.07,0,0,1,32.58,0l23.07,23.07,53.83-53.82L212.35,98.29a23.06,23.06,0,0,1,0-32.59L278.05,0h9.64l21.08,21.08a23.06,23.06,0,0,1,0,32.58l-67.7,67.7,53.83,53.82,67.7-67.7a23.07,23.07,0,0,1,32.58,0l23.07,23.07,53.83-53.82L449,53.66a23.06,23.06,0,0,1,0-32.58L470.08,0h5.66L451.83,23.9a19.08,19.08,0,0,0,0,26.93L474.9,73.9,542.6,6.2A18.76,18.76,0,0,0,546.73,0H551a23,23,0,0,1-5.55,9l-67.7,67.7,53.83,53.82,67.7-67.7a23.08,23.08,0,0,1,32.58,0l23.07,23.07L708.74,32.1,685.67,9a22.88,22.88,0,0,1-5.56-9h4.24a19.11,19.11,0,0,0,4.14,6.2l23.07,23.07L740.83,0h5.66l-32.1,32.1,53.83,53.82,67.7-67.7a23.07,23.07,0,0,1,32.58,0l23.07,23.07L932.86,0h5.66L894.4,44.12,948.22,98l53.83-53.83L957.93,0h5.65l41.3,41.29L1046.17,0h5.66l-44.12,44.12,23.07,23.07a19.05,19.05,0,0,0,26.92,0L1124.89,0h6.67l53.32,53.32L1238.2,0h6.67l22.57,22.56a19,19,0,0,0,26.92,0L1316.92,0h5.66l-25.39,25.39a23.06,23.06,0,0,1-32.58,0L1241.54,2.32l-53.83,53.83,23.07,23.07a23.06,23.06,0,0,1,0,32.58l-67.7,67.7,53.83,53.83,67.7-67.7a23.06,23.06,0,0,1,32.58,0l23.07,23.07,53.83-53.83L1351,111.8a23.06,23.06,0,0,1,0-32.58l67.69-67.7L1407.2,0h5.65l8.69,8.69L1430.23,0h5.66l-11.52,11.52,23.07,23.07a23.07,23.07,0,0,1,0,32.58l-67.7,67.7,53.83,53.83,67.7-67.7a23.06,23.06,0,0,1,32.58,0l23.07,23.07,53.83-53.83-23.07-23.07a23,23,0,0,1,0-32.58L1622.26,0h5.66L1590.5,37.42a19.06,19.06,0,0,0,0,26.92l23.07,23.07,67.7-67.7A19,19,0,0,0,1685.77,0h4.2a23.23,23.23,0,0,1,.87,6.25,22.85,22.85,0,0,1-6.74,16.29l-67.7,67.7,53.83,53.83,67.7-67.7a23,23,0,0,1,32.58,0l23.07,23.07,5.92-5.93v5.66l-3.09,3.09,3.09,3.1V111l-5.92-5.92-67.7,67.7a23.06,23.06,0,0,1-32.58,0l-23.07-23.07-53.83,53.83,23.07,23.07a23.07,23.07,0,0,1,0,32.58l-67.7,67.7,53.83,53.83,67.7-67.7a23.06,23.06,0,0,1,32.58,0L1749,336.1l50.55-50.55v5.65l-47.72,47.73,47.72,47.72v5.65L1749,341.75l-67.7,67.7a23.06,23.06,0,0,1-32.58,0l-23.07-23.07-53.83,53.83,23.07,23.07a23.07,23.07,0,0,1,0,32.58l-67.7,67.7L1581,617.39l67.7-67.7a23,23,0,0,1,32.58,0l23.07,23.07,53.83-53.83-23.07-23.07a23,23,0,0,1,0-32.58l64.42-64.43v5.66l-61.6,61.6a19.06,19.06,0,0,0,0,26.92L1761,516.1l38.53-38.52v5.65l-35.7,35.7,35.7,35.7v5.65L1761,521.76l-53.82,53.82L1761,629.41l38.53-38.52v5.65l-35.7,35.7,23.07,23.07a23.07,23.07,0,0,1,0,32.58l-67.7,67.7L1773,809.42l26.5-26.5v5.65l-23.67,23.67,23.07,23.07c.19.2.4.37.6.55V841a23,23,0,0,1-3.43-2.83L1773,815.07l-53.83,53.83L1742.24,892a23.06,23.06,0,0,1,0,32.58l-67.7,67.7,53.83,53.83,67.7-67.7a22.42,22.42,0,0,1,3.43-2.83v5.11c-.2.18-.41.35-.6.54l-67.7,67.7,23.07,23.07a19,19,0,0,0,26.92,0l18.31-18.3v5.65L1784,1074.8a23.06,23.06,0,0,1-32.58,0l-23.07-23.07-53.83,53.83,23.07,23.07a23,23,0,0,1,0,32.58l-67.7,67.7,53.83,53.83,67.7-67.7a23,23,0,0,1,32.58,0l15.48,15.48v5.65l-18.31-18.3a19,19,0,0,0-26.92,0L1687.13,1285h-6.78l-53.26-53.26L1573.82,1285H1567l-22.51-22.51a19.07,19.07,0,0,0-26.92,0L1495.1,1285h-5.65l25.33-25.33a23,23,0,0,1,32.58,0l23.07,23.07,53.83-53.83-23.07-23.07a23.06,23.06,0,0,1,0-32.58l67.7-67.7-53.83-53.83-67.7,67.7a23.06,23.06,0,0,1-32.58,0l-23.07-23.07-53.83,53.83,23.07,23.07a23.06,23.06,0,0,1,0,32.58l-67.7,67.7,11.47,11.46h-5.66l-8.63-8.63-8.64,8.63h-5.65l11.46-11.46-23.07-23.07a23.07,23.07,0,0,1,0-32.58l67.7-67.7-53.83-53.83-67.7,67.7a23.06,23.06,0,0,1-32.58,0L1255.05,1141l-53.83,53.83,23.07,23.07a23,23,0,0,1,0,32.58L1189.76,1285h-5.65l37.36-37.36a19.06,19.06,0,0,0,0-26.92l-23.07-23.07-67.7,67.7a18.92,18.92,0,0,0-4.51,19.65H1122a23.24,23.24,0,0,1-.86-6.19,22.85,22.85,0,0,1,6.74-16.29l67.7-67.7L1141.74,1141l-67.7,67.7a23.06,23.06,0,0,1-32.58,0l-23.07-23.07-53.83,53.83,23.07,23.07A23,23,0,0,1,993.5,1285h-4.18a19.05,19.05,0,0,0-4.51-19.65l-23.07-23.07L919,1285h-5.65l45.55-45.55-53.83-53.83-67.7,67.7a23.06,23.06,0,0,1-32.58,0l-23.07-23.07-53.83,53.83.93.92h-7.51l.93-.92-53.83-53.83L613.67,1285H608l57.57-57.58-23.07-23.07a19,19,0,0,0-26.92,0l-67.7,67.7,13,13h-5.66l-10.12-10.12L535,1285h-5.66l13-13-53.82-53.83-53.83,53.83,13,13h-5.66l-10.12-10.12L421.64,1285H416l12.95-13L405.86,1249a19,19,0,0,0-26.92,0l-36,36h-5.66l38.85-38.85a23.07,23.07,0,0,1,32.58,0l23.07,23.07,53.83-53.82-23.07-23.07a23.08,23.08,0,0,1,0-32.59l67.7-67.69-53.83-53.83-67.7,67.7a23.06,23.06,0,0,1-32.58,0L353,1082.85l-53.83,53.83,23.07,23.06a23.06,23.06,0,0,1,0,32.59L254.59,1260l25,25H273.9l-22.14-22.15L229.61,1285H224l25-25L225.86,1237a23.07,23.07,0,0,1,0-32.59l67.7-67.69-53.83-53.83-67.7,67.7a23.06,23.06,0,0,1-32.58,0l-23.07-23.07L62.55,1181.3l23.07,23.07a23.07,23.07,0,0,1,0,32.59l-48,48H31.92l50.88-50.87a19.08,19.08,0,0,0,0-26.93Zm1568.7-800.58,23.07,23.07a19,19,0,0,0,26.92,0l67.7-67.69-23.07-23.07a19,19,0,0,0-26.92,0Zm44.63-236.66L1696.13,170a19,19,0,0,0,26.92,0l67.7-67.7L1767.68,79.2a19,19,0,0,0-26.92,0ZM178.76,178l-23.07-23.07a19,19,0,0,0-26.92,0l-67.7,67.7,23.07,23.07a19,19,0,0,0,26.92,0ZM134.13,414.67,111.06,391.6a19,19,0,0,0-26.92,0l-67.7,67.7,23.07,23.07a19.06,19.06,0,0,0,26.92,0ZM236.9,1080,213.83,1057a19,19,0,0,0-26.92,0l-67.7,67.7,23.07,23.07a19,19,0,0,0,26.92,0Zm2.83-2.83,53.83-53.82-23.07-23.07a23.08,23.08,0,0,1,0-32.59L338.19,900l-53.83-53.83-67.7,67.7a23.08,23.08,0,0,1-32.58,0L161,890.82l-53.83,53.83,23.07,23.06a23.07,23.07,0,0,1,0,32.59L62.55,1068l53.83,53.82,67.7-67.7a23.06,23.06,0,0,1,32.58,0ZM250.27,417.5l-53.83,53.83,23.07,23.07a23.07,23.07,0,0,1,0,32.58l-67.7,67.7,53.83,53.82,67.7-67.7a23.07,23.07,0,0,1,32.58,0L329,603.87l53.83-53.82L359.75,527a23.07,23.07,0,0,1,0-32.58l67.7-67.7-53.83-53.83-67.7,67.7a23.06,23.06,0,0,1-32.58,0Zm25.9,20.24a19,19,0,0,0,26.92,0l67.7-67.7L347.72,347a19.07,19.07,0,0,0-26.92,0l-67.7,67.7Zm154.1-121.53L376.45,370l53.82,53.83L484.1,370Zm0-5.65,67.7-67.7a19.05,19.05,0,0,0,0-26.93L474.9,192.86l-67.7,67.7a19.08,19.08,0,0,0,0,26.93Zm56.66,62.31L433.1,426.7l23.07,23.07a23.07,23.07,0,0,1,0,32.58l-67.7,67.7,53.83,53.82,67.7-67.7a23.08,23.08,0,0,1,32.58,0l23.07,23.07,53.83-53.82-23.07-23.07a23.06,23.06,0,0,1,0-32.58l67.7-67.7-53.83-53.83-67.7,67.7a23.06,23.06,0,0,1-32.58,0Zm25.9,20.24a19,19,0,0,0,26.92,0l67.7-67.7-23.07-23.07a19.07,19.07,0,0,0-26.92,0L489.76,370Zm154.1-121.52-53.82,53.82,53.82,53.83,53.83-53.83Zm0-5.66,67.7-67.7a19.05,19.05,0,0,0,0-26.93l-23.07-23.07-67.7,67.7a19.07,19.07,0,0,0,0,26.93Zm56.66,62.31-53.83,53.83,23.07,23.07a23.07,23.07,0,0,1,0,32.58l-67.7,67.7L679,559.24l67.7-67.7a23.07,23.07,0,0,1,32.58,0l23.07,23.07,53.83-53.82-23.07-23.07a23,23,0,0,1,0-32.58l67.7-67.7-53.83-53.83-67.7,67.7a23.06,23.06,0,0,1-32.58,0Zm25.9,20.24a19.05,19.05,0,0,0,26.92,0l67.7-67.7L821,257.71a19.07,19.07,0,0,0-26.92,0l-67.7,67.7Zm210.76-64.87-53.83,53.83,23.07,23.07a23.06,23.06,0,0,1,0,32.58l-67.7,67.7,53.83,53.82,67.7-67.7a23.08,23.08,0,0,1,32.58,0L1039,470l53.83-53.83-23.07-23.07a23.06,23.06,0,0,1,0-32.58l67.7-67.7L1083.6,239l-67.7,67.7a23.06,23.06,0,0,1-32.58,0Zm25.9,20.24a19,19,0,0,0,26.92,0l67.7-67.7-23.07-23.07a19.07,19.07,0,0,0-26.92,0l-67.7,67.7Zm166.13,171.79-53.83,53.83,23.07,23.07a23.06,23.06,0,0,1,0,32.58l-67.7,67.7,53.83,53.82,67.7-67.69a23,23,0,0,1,32.58,0L1231,662l53.83-53.82-23.07-23.07a23.06,23.06,0,0,1,0-32.58l67.7-67.7L1275.63,431l-67.7,67.7a23.06,23.06,0,0,1-32.58,0Zm25.9,20.24a19,19,0,0,0,26.92,0l67.7-67.7-23.07-23.07a19.06,19.06,0,0,0-26.92,0l-67.7,67.7Zm154.1-121.52-53.82,53.82L1332.28,482l53.83-53.83Zm0-5.66L1400,301a19,19,0,0,0,0-26.92L1376.91,251l-67.7,67.7a19.07,19.07,0,0,0,0,26.92ZM1388.94,431l-53.83,53.83,23.07,23.07a23.07,23.07,0,0,1,0,32.58l-67.7,67.7L1344.31,662l67.7-67.69a23.06,23.06,0,0,1,32.58,0l23.07,23.07,53.83-53.83-23.07-23.07a23.06,23.06,0,0,1,0-32.58l67.7-67.7-53.83-53.83-67.7,67.7a23.06,23.06,0,0,1-32.58,0Zm25.9,20.24a19.05,19.05,0,0,0,26.92,0l67.7-67.7-23.07-23.07a19.07,19.07,0,0,0-26.92,0l-67.7,67.7Zm64.85,459.45,53.82-53.83-53.83-53.82-53.82,53.82Zm0,5.66-67.7,67.7a19,19,0,0,0,0,26.92l23.07,23.07,67.7-67.7a19.06,19.06,0,0,0,0-26.92Zm0-119,67.7-67.7a19,19,0,0,0,0-26.92l-23.07-23.07-67.7,67.7a19.06,19.06,0,0,0,0,26.92Zm41.81-120.52L1467.66,623l-67.7,67.7a23.06,23.06,0,0,1-32.58,0l-23.07-23.07-53.83,53.83,23.07,23.07a23.07,23.07,0,0,1,0,32.58l-67.7,67.7,53.83,53.83,67.7-67.7a23,23,0,0,1,32.58,0L1423,854.05l53.83-53.83-23.07-23.07a23.07,23.07,0,0,1,0-32.58ZM1397.13,833.8a19.06,19.06,0,0,0-26.92,0l-67.7,67.7,23.07,23.07a19,19,0,0,0,26.92,0l67.7-67.7ZM1243,955.33l53.82-53.83L1243,847.68,1189.2,901.5Zm0,5.66-67.7,67.7a19,19,0,0,0,0,26.92l23.07,23.07,67.7-67.7a19.07,19.07,0,0,0,0-26.92Zm-56.66-62.31,53.83-53.83-23.07-23.07a23.06,23.06,0,0,1,0-32.58l67.7-67.7L1231,667.67l-67.7,67.7a23.06,23.06,0,0,1-32.58,0l-23.07-23.07-53.83,53.83,23.07,23.07a23,23,0,0,1,0,32.58l-67.7,67.7L1063,943.3l67.7-67.69a23.06,23.06,0,0,1,32.58,0Zm-25.9-20.25a19.07,19.07,0,0,0-26.92,0l-67.7,67.7,23.07,23.07a19,19,0,0,0,26.92,0l67.7-67.7ZM1006.37,1000l53.82-53.83-53.82-53.82-53.83,53.82Zm0,5.66-67.7,67.69a19.06,19.06,0,0,0,0,26.93l23.07,23.07,67.7-67.7a19.06,19.06,0,0,0,0-26.92ZM949.71,943.3l53.83-53.82-23.07-23.07a23.06,23.06,0,0,1,0-32.58l67.7-67.7L994.34,712.3,926.64,780a23.06,23.06,0,0,1-32.58,0L871,756.93l-53.83,53.83,23.07,23.07a23.06,23.06,0,0,1,0,32.58l-67.7,67.7,53.83,53.82,67.7-67.7a23.07,23.07,0,0,1,32.58,0Zm-25.9-20.24a19.07,19.07,0,0,0-26.92,0l-67.7,67.7,23.07,23.07a19,19,0,0,0,26.92,0l67.7-67.7Zm-154.1,121.53,53.82-53.83-53.82-53.82-53.83,53.82Zm0,5.65-67.7,67.7a19.06,19.06,0,0,0,0,26.93l23.07,23.07,67.7-67.7a19.07,19.07,0,0,0,0-26.93Zm-56.66-62.31,53.83-53.82L743.81,911a23,23,0,0,1,0-32.58l67.7-67.7-53.83-53.83L690,824.63a23.06,23.06,0,0,1-32.58,0l-23.07-23.07L580.5,855.39l23.07,23.07a23,23,0,0,1,0,32.58l-67.7,67.7,53.83,53.82,67.7-67.7a23.07,23.07,0,0,1,32.58,0Zm-25.9-20.24a19.06,19.06,0,0,0-26.92,0l-67.7,67.7,23.07,23.07a19,19,0,0,0,26.92,0l67.7-67.7ZM521,795.9l53.83-53.82L551.78,719a23.07,23.07,0,0,1,0-32.58l67.7-67.7L565.65,564.9,498,632.6a23.06,23.06,0,0,1-32.58,0L442.3,609.53l-53.83,53.83,23.07,23.07a23,23,0,0,1,0,32.58l-67.7,67.7,53.83,53.82,67.7-67.7a23.08,23.08,0,0,1,32.58,0Zm-25.9-20.24a19.07,19.07,0,0,0-26.92,0l-67.7,67.7,23.07,23.07a19,19,0,0,0,26.92,0l67.7-67.7ZM341,897.19l53.82-53.83L341,789.53l-53.83,53.83Zm0,5.65-67.7,67.7a19.05,19.05,0,0,0,0,26.93l23.07,23.07,67.7-67.7a19.08,19.08,0,0,0,0-26.93Zm44.62-350L331.82,606.7l53.83,53.83,53.82-53.83Zm0-5.65,67.7-67.7a19.05,19.05,0,0,0,0-26.93l-23.07-23.07-67.7,67.7a19.07,19.07,0,0,0,0,26.93Zm0,119L318,733.88a19.06,19.06,0,0,0,0,26.93L341,783.88l67.69-67.7a19.05,19.05,0,0,0,0-26.93Zm82.55-36.41a19.06,19.06,0,0,0,26.92,0l67.7-67.7L539.75,539a19.07,19.07,0,0,0-26.92,0l-67.7,67.7ZM622.3,508.24l-53.82,53.83L622.3,615.9l53.83-53.83Zm0-5.65,67.7-67.7A19.05,19.05,0,0,0,690,408L666.93,384.9l-67.7,67.69a19.08,19.08,0,0,0,0,26.93ZM679,564.9l-53.83,53.83L648.2,641.8a23.06,23.06,0,0,1,0,32.58l-67.7,67.7,53.83,53.82L702,728.2a23.07,23.07,0,0,1,32.58,0l23.07,23.07,53.83-53.82-23.07-23.07a23.06,23.06,0,0,1,0-32.58l67.7-67.7-53.83-53.83L734.61,588A23.06,23.06,0,0,1,702,588Zm25.9,20.24a19,19,0,0,0,26.92,0l67.7-67.7-23.07-23.07a19.07,19.07,0,0,0-26.92,0l-67.7,67.7ZM859,463.62l-53.82,53.82L859,571.27l53.83-53.83Zm0-5.66,67.7-67.7a19,19,0,0,0,0-26.92l-23.07-23.07L835.89,408a19.07,19.07,0,0,0,0,26.93Zm56.66,62.31L861.79,574.1l23.07,23.07a23,23,0,0,1,0,32.58l-67.7,67.7L871,751.27l67.7-67.69a23,23,0,0,1,32.58,0l23.07,23.06,53.83-53.82-23.07-23.07a23.06,23.06,0,0,1,0-32.58l67.7-67.7L1039,475.64l-67.7,67.7a23.06,23.06,0,0,1-32.58,0Zm25.9,20.24a19.05,19.05,0,0,0,26.92,0l67.7-67.7-23.07-23.07a19.07,19.07,0,0,0-26.92,0l-67.7,67.7ZM1051,763.3l53.82-53.83L1051,655.65l-53.83,53.82Zm0,5.66-67.7,67.7a19,19,0,0,0,0,26.92l23.07,23.07,67.7-67.7a19.06,19.06,0,0,0,0-26.92Zm0-119,67.69-67.7a19,19,0,0,0,0-26.92l-23.07-23.07L1027.93,600a19.06,19.06,0,0,0,0,26.93ZM968.44,686.4a19.07,19.07,0,0,0-26.92,0l-67.7,67.7,23.07,23.07a19,19,0,0,0,26.92,0l67.7-67.7ZM814.33,807.93l53.83-53.83-53.82-53.82L760.51,754.1Zm0,5.66-67.69,67.69a19.05,19.05,0,0,0,0,26.93l23.07,23.07,67.69-67.7a19,19,0,0,0,0-26.92Zm0-119L882,626.92A19.05,19.05,0,0,0,882,600L859,576.93l-67.69,67.69a19.06,19.06,0,0,0,0,26.93ZM731.78,731a19.07,19.07,0,0,0-26.92,0l-67.7,67.7,23.07,23.07a19.06,19.06,0,0,0,26.92,0l67.7-67.7Zm-86.41-59.48a19.06,19.06,0,0,0,0-26.93L622.3,621.55l-67.69,67.7a19.05,19.05,0,0,0,0,26.93l23.07,23.07ZM523.85,798.73l53.83,53.83,53.82-53.83L577.68,744.9Zm53.83,59.48L510,925.91a19.06,19.06,0,0,0,0,26.93l23.07,23.07,67.7-67.7a19.07,19.07,0,0,0,0-26.93Zm555.87-125.67a19,19,0,0,0,26.92,0l67.7-67.7-23.07-23.07a19.07,19.07,0,0,0-26.92,0l-67.7,67.7ZM1287.65,611l-53.82,53.82,53.82,53.83,53.83-53.83Zm0-5.66,67.7-67.7a19,19,0,0,0,0-26.92l-23.07-23.07-67.7,67.7a19.07,19.07,0,0,0,0,26.92Zm0,119L1220,792a19,19,0,0,0,0,26.92L1243,842l67.69-67.7a19,19,0,0,0,0-26.92Zm82.56-36.42a19,19,0,0,0,26.92,0l67.7-67.7-23.07-23.07a19.07,19.07,0,0,0-26.92,0l-67.7,67.7Zm-220.76-215.1L1095.62,419l-53.82,53.82,53.82,53.83Zm-53.83-59.48,67.7-67.7a19,19,0,0,0,0-26.92l-23.07-23.07-67.7,67.7a19.07,19.07,0,0,0,0,26.92ZM957.42,280.78,903.59,227l-53.82,53.82,53.82,53.83ZM303.09,583.63a19.06,19.06,0,0,0-26.92,0l-67.7,67.7,23.07,23.07a19,19,0,0,0,26.92,0l67.7-67.7Zm-97.45,70.53L151.81,708l23.07,23.07a23,23,0,0,1,0,32.58l-67.7,67.7L161,885.16l67.7-67.7a23.06,23.06,0,0,1,32.58,0l23.07,23.07,53.83-53.82-23.07-23.07a23.06,23.06,0,0,1,0-32.58l67.7-67.7L329,609.53l-67.7,67.7a23.06,23.06,0,0,1-32.58,0Zm52.82,166.13a19,19,0,0,0-26.92,0L163.84,888l23.07,23.07a19.06,19.06,0,0,0,26.92,0l67.7-67.7Zm37.93,319.21-67.7,67.7a19.06,19.06,0,0,0,0,26.93l23.07,23.07,67.7-67.7a19.07,19.07,0,0,0,0-26.93ZM350.21,1080l-53.82-53.83L242.56,1080l53.83,53.83Zm123.35-44.63-23.07-23.07a19,19,0,0,0-26.92,0l-67.7,67.7,23.07,23.07a19.06,19.06,0,0,0,26.92,0Zm2.83-2.83,53.83-53.82-23.07-23.07a23.06,23.06,0,0,1,0-32.58l67.7-67.7L521,801.56l-67.7,67.7a23.06,23.06,0,0,1-32.58,0l-23.07-23.07L343.84,900l23.07,23.07a23.06,23.06,0,0,1,0,32.58l-67.7,67.7L353,1077.19l67.7-67.7a23.07,23.07,0,0,1,32.58,0Zm56.66,56.66,53.82-53.83-53.82-53.83-53.83,53.83Zm-44.63,123.35,67.7-67.7a19.08,19.08,0,0,0,0-26.93l-23.07-23.07-67.7,67.7a19.05,19.05,0,0,0,0,26.93Zm180,12,53.83-53.82-23.07-23.07a23.06,23.06,0,0,1,0-32.58l67.7-67.7-53.83-53.83-67.7,67.7a23.06,23.06,0,0,1-32.58,0l-23.07-23.07-53.83,53.83,23.07,23.07a23.06,23.06,0,0,1,0,32.58l-67.7,67.7,53.83,53.82,67.7-67.7a23.07,23.07,0,0,1,32.58,0Zm110.48,2.83-53.82-53.82-53.83,53.82,53.83,53.83Zm123.35-44.63-23.07-23.07a19.07,19.07,0,0,0-26.92,0l-67.7,67.7,23.07,23.07a19.06,19.06,0,0,0,26.92,0Zm2.83-2.83,53.83-53.82-23.07-23.07a23.06,23.06,0,0,1,0-32.58l67.7-67.7L949.71,949l-67.7,67.7a23.06,23.06,0,0,1-32.58,0l-23.07-23.07-53.83,53.83,23.07,23.07a23,23,0,0,1,0,32.58l-67.7,67.7,53.83,53.82,67.7-67.7a23.08,23.08,0,0,1,32.58,0Zm110.48,2.83L961.74,1129l-53.83,53.82,53.83,53.83Zm123.35-44.63-23.07-23.07a19.06,19.06,0,0,0-26.92,0l-67.7,67.7,23.07,23.07a19,19,0,0,0,26.92,0Zm2.83-2.83,53.83-53.82-23.07-23.07a23.07,23.07,0,0,1,0-32.58l67.7-67.7-53.83-53.83-67.7,67.7a23.06,23.06,0,0,1-32.58,0L1063,949l-53.83,53.83,23.07,23.07a23,23,0,0,1,0,32.58l-67.7,67.7,53.83,53.82,67.7-67.7a23.07,23.07,0,0,1,32.58,0Zm110.48,2.83-53.82-53.82-53.83,53.82L1198.4,1192Zm123.35-44.63-23.07-23.07a19.07,19.07,0,0,0-26.92,0l-67.7,67.7,23.07,23.07a19.05,19.05,0,0,0,26.92,0Zm2.83-2.82,53.83-53.83-23.07-23.07a23.06,23.06,0,0,1,0-32.58l67.7-67.7L1423,859.7l-67.7,67.7a23.06,23.06,0,0,1-32.58,0l-23.07-23.07-53.83,53.83,23.07,23.07a23.06,23.06,0,0,1,0,32.58l-67.7,67.7,53.83,53.83,67.7-67.7a23.06,23.06,0,0,1,32.58,0Zm56.66,62.31-67.7,67.7a19,19,0,0,0,0,26.92l23.07,23.07,67.7-67.7a19.07,19.07,0,0,0,0-26.92Zm53.82-59.49-53.82-53.82-53.83,53.82,53.83,53.83Zm123.35-44.63-23.07-23.07a19.06,19.06,0,0,0-26.92,0l-67.7,67.7,23.07,23.07a19,19,0,0,0,26.92,0Zm2.83-2.82,53.83-53.83-23.07-23.07a23.07,23.07,0,0,1,0-32.58l67.7-67.7-53.83-53.83-67.7,67.7a23.06,23.06,0,0,1-32.58,0l-23.07-23.07-53.83,53.83,23.07,23.07a23,23,0,0,1,0,32.58l-67.7,67.7,53.83,53.83,67.7-67.7a23,23,0,0,1,32.58,0Zm-52.82-166.14a19,19,0,0,0,26.92,0l67.7-67.7-23.07-23.07a19.07,19.07,0,0,0-26.92,0l-67.7,67.7Zm109.48,228.45-67.7,67.7a19,19,0,0,0,0,26.92l23.07,23.07,67.7-67.7a19.06,19.06,0,0,0,0-26.92Zm0-113.31-53.83,53.82,53.83,53.83,53.82-53.83Zm44.62-123.35-67.69,67.7a19,19,0,0,0,0,26.92l23.07,23.07,67.69-67.7a19,19,0,0,0,0-26.92Zm0-113.31-53.83,53.82,53.82,53.83,53.83-53.83ZM1761,635.07l-67.69,67.7a19,19,0,0,0,0,26.92l23.07,23.07,67.69-67.7a19,19,0,0,0,0-26.92ZM1583.8,620.21l23.07,23.07a19,19,0,0,0,26.92,0l67.7-67.7-23.07-23.07a19.06,19.06,0,0,0-26.92,0ZM1581,623l-53.83,53.83,23.07,23.07a23.06,23.06,0,0,1,0,32.58l-67.7,67.7,53.83,53.83,67.7-67.7a23.06,23.06,0,0,1,32.58,0l23.07,23.07,53.83-53.83-23.07-23.07a23.06,23.06,0,0,1,0-32.58l67.7-67.7-53.83-53.83-67.7,67.7a23.06,23.06,0,0,1-32.58,0Zm-56.66-56.65-53.82,53.82L1524.31,674l53.83-53.83ZM1568.94,443l-67.7,67.7a19.07,19.07,0,0,0,0,26.92l23.07,23.07L1592,493a19,19,0,0,0,0-26.92Zm0-113.31-53.82,53.82,53.82,53.83,53.83-53.83Zm44.63-123.35-67.7,67.7a19.06,19.06,0,0,0,0,26.92l23.07,23.07,67.7-67.7a19,19,0,0,0,0-26.92Zm-53.82-59.49,53.82,53.83,53.83-53.83-53.83-53.82ZM1436.4,191.52l23.07,23.07a19,19,0,0,0,26.92,0l67.7-67.7L1531,123.83a19,19,0,0,0-26.92,0Zm-2.83,2.83-53.83,53.83,23.07,23.07a23.06,23.06,0,0,1,0,32.58l-67.7,67.7,53.83,53.83,67.7-67.7a23,23,0,0,1,32.58,0l23.07,23.07,53.83-53.83-23.07-23.07a23,23,0,0,1,0-32.58l67.7-67.7-53.83-53.83-67.7,67.7a23.06,23.06,0,0,1-32.58,0ZM1376.91,132l67.7-67.7a19.06,19.06,0,0,0,0-26.92l-23.07-23.07-67.7,67.7a19.07,19.07,0,0,0,0,26.92Zm-53.82,59.48,53.82,53.83,53.83-53.83-53.83-53.82Zm-123.35,44.63,23.07,23.07a19.05,19.05,0,0,0,26.92,0l67.7-67.7-23.07-23.07a19.07,19.07,0,0,0-26.92,0Zm-2.83,2.83-53.83,53.83,23.07,23.07a23.07,23.07,0,0,1,0,32.58l-67.7,67.7L1152.28,470l67.7-67.69a23,23,0,0,1,32.58,0l23.07,23.07,53.83-53.83-23.07-23.07a23.06,23.06,0,0,1,0-32.58l67.7-67.7-53.83-53.83-67.7,67.7a23.06,23.06,0,0,1-32.58,0Zm-56.66-56.65-53.82,53.82L1140.25,290l53.83-53.83ZM1184.88,59l-67.7,67.7a19.06,19.06,0,0,0,0,26.92l23.07,23.07L1208,109a19,19,0,0,0,0-26.92Zm-233.83,41.8,23.07,23.07a23.07,23.07,0,0,1,0,32.58l-67.7,67.7L960.25,278l67.7-67.7a23.07,23.07,0,0,1,32.58,0l23.07,23.07,53.83-53.82-23.07-23.07a23,23,0,0,1,0-32.58l67.69-67.7L1128.23,2.32,1060.53,70A23.06,23.06,0,0,1,1028,70L1004.88,47Zm-2.83,2.83-67.7,67.69a19.08,19.08,0,0,0,0,26.93l23.07,23.07,67.7-67.7a19,19,0,0,0,0-26.92ZM771.05,88.75l23.07,23.07a19,19,0,0,0,26.92,0l67.7-67.7L865.67,21.05a19.06,19.06,0,0,0-26.92,0Zm-2.83,2.83-53.83,53.83,23.07,23.07a23.07,23.07,0,0,1,0,32.58l-67.7,67.7,53.83,53.82,67.7-67.7a23.08,23.08,0,0,1,32.58,0L846.94,278l53.83-53.82L877.7,201.06a23.06,23.06,0,0,1,0-32.58l67.69-67.7L891.57,47l-67.7,67.7a23.06,23.06,0,0,1-32.58,0ZM657.74,88.75l53.82,53.83,53.83-53.83L711.56,34.93ZM534.39,133.38l23.07,23.07a19,19,0,0,0,26.92,0l67.7-67.7L629,65.68a19.07,19.07,0,0,0-26.92,0Zm-2.83,2.83L477.73,190l23.07,23.07a23.07,23.07,0,0,1,0,32.58l-67.7,67.7,53.83,53.82,67.7-67.7a23.07,23.07,0,0,1,32.58,0l23.07,23.07,53.83-53.82L641,245.69a23,23,0,0,1,0-32.58l67.7-67.7L654.91,91.58l-67.7,67.7a23.06,23.06,0,0,1-32.58,0Zm-110.48-2.83,53.82,53.83,53.83-53.83L474.9,79.56ZM297.73,178l23.07,23.07a19.06,19.06,0,0,0,26.92,0l67.7-67.7-23.07-23.07a19,19,0,0,0-26.92,0Zm-2.83,2.83-53.83,53.83,23.07,23.07a23.07,23.07,0,0,1,0,32.58L196.44,358l53.83,53.82,67.7-67.7a23.08,23.08,0,0,1,32.58,0l23.07,23.07,53.83-53.82-23.07-23.07a23.06,23.06,0,0,1,0-32.58l67.7-67.7-53.83-53.83-67.7,67.7a23.06,23.06,0,0,1-32.58,0Zm-56.66-62.31,67.7-67.7a19.06,19.06,0,0,0,0-26.93L282.87.83l-67.7,67.7a19.07,19.07,0,0,0,0,26.93Zm0,113.31L292.07,178l-53.83-53.83L184.42,178ZM193.61,355.19l67.7-67.7a19.05,19.05,0,0,0,0-26.93l-23.07-23.07-67.7,67.7a19.08,19.08,0,0,0,0,26.93Zm0,113.31,53.83-53.83-53.83-53.83-53.82,53.83ZM149,591.85l67.69-67.7a19.05,19.05,0,0,0,0-26.93l-23.07-23.07-67.69,67.7a19.06,19.06,0,0,0,0,26.93Zm0,113.31,53.83-53.83L149,597.5,95.16,651.33ZM104.36,828.51l67.7-67.7a19.07,19.07,0,0,0,0-26.93L149,710.81l-67.69,67.7a19.05,19.05,0,0,0,0,26.93Zm0,113.31L158.18,888l-53.82-53.83L50.53,888ZM59.73,1065.17l67.7-67.7a19.08,19.08,0,0,0,0-26.93l-23.07-23.07-67.7,67.7a19.06,19.06,0,0,0,0,26.93Zm0,113.31,53.82-53.83-53.82-53.83L5.9,1124.65Z"/></g></svg>