<?xml version="1.0" encoding="UTF-8"?>
<svg width="11px" height="11px" viewBox="0 0 11 11" version="1.1" xmlns="http://www.w3.org/2000/svg" xmlns:xlink="http://www.w3.org/1999/xlink">
    <!-- Generator: Sketch 52.4 (67378) - http://www.bohemiancoding.com/sketch -->
    <title>Close</title>
    <desc>Created with Sketch.</desc>
    <g id="Component-Library" stroke="none" stroke-width="1" fill="none" fill-rule="evenodd">
        <g id="Alerts" transform="translate(-1212.000000, -175.000000)" fill="#FFFFFF" fill-rule="nonzero">
            <g id="Information-class-alert" transform="translate(509.000000, 161.000000)">
                <path d="M708.697065,21.0765205 C708.598533,20.9779879 708.401467,20.9779879 708.302935,21.0765205 L704.509433,24.8700228 C704.361634,25.0178216 704.01677,25.0670879 703.819705,24.8700228 L703.129977,24.1802951 C702.932912,23.9832301 702.982178,23.6383662 703.129977,23.4905674 L706.92348,19.6970651 C707.022012,19.5985325 707.022012,19.4014675 706.92348,19.3029349 L703.129977,15.5094326 C702.982178,15.3616338 702.932912,15.0167699 703.129977,14.8197049 L703.819705,14.1299772 C704.01677,13.9329121 704.361634,13.9821784 704.509433,14.1299772 L708.302935,17.9234795 C708.401467,18.0220121 708.598533,18.0220121 708.697065,17.9234795 L712.490567,14.1299772 C712.638366,13.9821784 712.98323,13.9329121 713.180295,14.1299772 L713.870023,14.8197049 C714.067088,15.0167699 714.017822,15.3616338 713.870023,15.5094326 L710.07652,19.3029349 C709.977988,19.4014675 709.977988,19.5985325 710.07652,19.6970651 L713.870023,23.4905674 C714.017822,23.6383662 714.067088,23.9832301 713.870023,24.1802951 L713.180295,24.8700228 C712.98323,25.0670879 712.638366,25.0178216 712.490567,24.8700228 L708.697065,21.0765205 Z" id="Close"></path>
            </g>
        </g>
    </g>
</svg>