<?xml version="1.0" encoding="UTF-8"?>
<svg width="19px" height="20px" viewBox="0 0 19 20" version="1.1" xmlns="http://www.w3.org/2000/svg" xmlns:xlink="http://www.w3.org/1999/xlink">
    <!-- Generator: Sketch 52.4 (67378) - http://www.bohemiancoding.com/sketch -->
    <title>Group 9</title>
    <desc>Created with Sketch.</desc>
    <g id="Layout" stroke="none" stroke-width="1" fill="none" fill-rule="evenodd" stroke-linecap="round" stroke-linejoin="round">
        <g id="T8_Article@2x-Copy" transform="translate(-313.000000, -695.000000)" stroke="#E74683" stroke-width="1.5">
            <g id="What-are-CardX's-fees?" transform="translate(216.000000, 187.000000)">
                <g id="support-tip" transform="translate(95.000000, 508.000000)">
                    <g id="Group-9" transform="translate(2.000000, 0.000000)">
                        <path d="M17.358,12.0201 L15.661,11.0541 C15.761,10.5971 15.818,10.1241 15.818,9.6361 C15.818,9.1491 15.761,8.6751 15.661,8.2181 L17.358,7.2521 C17.733,7.0391 17.861,6.5661 17.645,6.1971 L16.469,4.1891 C16.253,3.8201 15.774,3.6931 15.399,3.9061 L13.739,4.8511 C13.026,4.1811 12.167,3.6651 11.21,3.3661 L11.21,1.5221 C11.21,1.0961 10.864,0.7501 10.437,0.7501 L8.063,0.7501 C7.636,0.7501 7.291,1.0961 7.291,1.5221 L7.291,3.3661 C6.333,3.6651 5.475,4.1811 4.761,4.8511 L3.102,3.9061 C2.727,3.6931 2.248,3.8201 2.031,4.1891 L0.855,6.1971 C0.639,6.5661 0.767,7.0391 1.142,7.2521 L2.839,8.2181 C2.739,8.6751 2.682,9.1491 2.682,9.6361 C2.682,10.1241 2.739,10.5971 2.839,11.0541 L1.142,12.0201 C0.767,12.2331 0.639,12.7061 0.855,13.0761 L2.031,15.0831 C2.248,15.4531 2.727,15.5801 3.102,15.3661 L4.761,14.4221 C5.475,15.0911 6.333,15.6081 7.291,15.9071 L7.291,17.7501 C7.291,18.1771 7.636,18.5221 8.063,18.5221 L10.437,18.5221 C10.864,18.5221 11.21,18.1771 11.21,17.7501 L11.21,15.9071 C12.167,15.6081 13.026,15.0911 13.739,14.4221 L15.399,15.3661 C15.774,15.5801 16.253,15.4531 16.469,15.0831 L17.645,13.0761 C17.861,12.7061 17.733,12.2331 17.358,12.0201 Z" id="Stroke-3"></path>
                        <path d="M12.7277,9.6363 C12.7277,11.5563 11.1707,13.1133 9.2497,13.1133 C7.3297,13.1133 5.7727,11.5563 5.7727,9.6363 C5.7727,7.7163 7.3297,6.1593 9.2497,6.1593 C11.1707,6.1593 12.7277,7.7163 12.7277,9.6363 Z" id="Stroke-7"></path>
                    </g>
                </g>
            </g>
        </g>
    </g>
</svg>