<?xml version="1.0" encoding="UTF-8"?>
<svg width="15px" height="15px" viewBox="0 0 15 15" version="1.1" xmlns="http://www.w3.org/2000/svg" xmlns:xlink="http://www.w3.org/1999/xlink">
    <!-- Generator: Sketch 52.4 (67378) - http://www.bohemiancoding.com/sketch -->
    <title>Shape Copy</title>
    <desc>Created with Sketch.</desc>
    <g id="Layout" stroke="none" stroke-width="1" fill="none" fill-rule="evenodd">
        <g id="LongLightbox@2x" transform="translate(-962.000000, -103.000000)" fill="#919193" fill-rule="nonzero">
            <path d="M969.768725,112.649801 C969.634363,112.515438 969.365637,112.515438 969.231275,112.649801 L964.058317,117.822758 C963.856773,118.024302 963.386504,118.091483 963.117779,117.822758 L962.177242,116.882221 C961.908517,116.613496 961.975698,116.143227 962.177242,115.941683 L967.350199,110.768725 C967.484562,110.634363 967.484562,110.365637 967.350199,110.231275 L962.177242,105.058317 C961.975698,104.856773 961.908517,104.386504 962.177242,104.117779 L963.117779,103.177242 C963.386504,102.908517 963.856773,102.975698 964.058317,103.177242 L969.231275,108.350199 C969.365637,108.484562 969.634363,108.484562 969.768725,108.350199 L974.941683,103.177242 C975.143227,102.975698 975.613496,102.908517 975.882221,103.177242 L976.822758,104.117779 C977.091483,104.386504 977.024302,104.856773 976.822758,105.058317 L971.649801,110.231275 C971.515438,110.365637 971.515438,110.634363 971.649801,110.768725 L976.822758,115.941683 C977.024302,116.143227 977.091483,116.613496 976.822758,116.882221 L975.882221,117.822758 C975.613496,118.091483 975.143227,118.024302 974.941683,117.822758 L969.768725,112.649801 Z" id="Shape-Copy"></path>
        </g>
    </g>
</svg>