<?xml version="1.0" encoding="UTF-8"?>
<svg width="182px" height="147px" viewBox="0 0 182 147" version="1.1" xmlns="http://www.w3.org/2000/svg" xmlns:xlink="http://www.w3.org/1999/xlink">
    <!-- Generator: Sketch 52.4 (67378) - http://www.bohemiancoding.com/sketch -->
    <title>line drawing_gradient</title>
    <desc>Created with Sketch.</desc>
    <defs>
        <polygon id="path-1" points="0 0.15984 13.6008833 0.15984 13.6008833 3.75984 0 3.75984"></polygon>
        <polygon id="path-3" points="0.222208333 0.236475189 99.7467708 0.236475189 99.7467708 116.201259 0.222208333 116.201259"></polygon>
    </defs>
    <g id="Layout" stroke="none" stroke-width="1" fill="none" fill-rule="evenodd">
        <g id="Carousel_1" transform="translate(-704.000000, -74.000000)">
            <g id="Welcome">
                <g id="1" transform="translate(186.000000, 47.000000)">
                    <g id="line-drawing_gradient" transform="translate(518.000000, 27.000000)">
                        <g id="Group-3" transform="translate(0.000000, 68.000000)">
                            <mask id="mask-2" fill="white">
                                <use xlink:href="#path-1"></use>
                            </mask>
                            <g id="Clip-2"></g>
                            <path d="M11.8508833,3.75984 L1.74988333,3.75984 C0.783883333,3.75984 -0.000116666667,2.95464 -0.000116666667,1.95984 C-0.000116666667,0.96504 0.783883333,0.15984 1.74988333,0.15984 L11.8508833,0.15984 C12.8168833,0.15984 13.6008833,0.96504 13.6008833,1.95984 C13.6008833,2.95464 12.8168833,3.75984 11.8508833,3.75984" id="Fill-1" fill="#FFFFFF" mask="url(#mask-2)"></path>
                        </g>
                        <path d="M20.3273289,58 L10.6726711,58 C9.74935666,58 9,57.329 9,56.5 C9,55.671 9.74935666,55 10.6726711,55 L20.3273289,55 C21.2506433,55 22,55.671 22,56.5 C22,57.329 21.2506433,58 20.3273289,58" id="Fill-4" fill="#FFFFFF"></path>
                        <g id="Group-8" transform="translate(82.000000, 0.000000)">
                            <mask id="mask-4" fill="white">
                                <use xlink:href="#path-3"></use>
                            </mask>
                            <g id="Clip-7"></g>
                            <path d="M78.9673125,31.0718866 L3.65970833,31.0718866 L3.65970833,9.76557214 L93.1687708,9.76557214 L90.087625,12.8708898 C89.4161667,13.5478675 89.4161667,14.645357 90.087625,15.3211795 C90.4233542,15.6596684 90.8633542,15.8294904 91.3033542,15.8294904 C91.7422083,15.8294904 92.1822083,15.6596684 92.5179375,15.3211795 L99.747,8.03269399 L92.5179375,0.744208487 C91.8464792,0.0672307563 90.7590833,0.0672307563 90.087625,0.744208487 C89.4161667,1.42003097 89.4161667,2.51752046 90.087625,3.19449819 L93.1687708,6.29981584 L0.222208333,6.29981584 L0.222208333,32.8047648 C0.222208333,33.7624688 0.992208333,34.5376429 1.94095833,34.5376429 L78.9673125,34.5376429 C88.1374167,34.5376429 95.5979375,42.0594894 95.5979375,51.3038167 L95.5979375,95.9693287 C95.5979375,105.213656 88.1374167,112.735502 78.9673125,112.735502 C78.0185625,112.735502 77.2485625,113.510677 77.2485625,114.468381 C77.2485625,115.426085 78.0185625,116.201259 78.9673125,116.201259 C90.032625,116.201259 99.0354375,107.125598 99.0354375,95.9693287 L99.0354375,51.3038167 C99.0354375,40.1475471 90.032625,31.0718866 78.9673125,31.0718866" id="Fill-6" fill="#FFFFFF" mask="url(#mask-4)"></path>
                        </g>
                        <path d="M173.275184,68 L59.7248157,68 C58.7727174,68 58,68.671 58,69.5 C58,70.329 58.7727174,71 59.7248157,71 L173.275184,71 C174.227283,71 175,70.329 175,69.5 C175,68.671 174.227283,68 173.275184,68" id="Fill-9" fill="#FFFFFF"></path>
                        <path d="M47.2724865,68 L20.7275135,68 C19.7739261,68 19,68.671 19,69.5 C19,70.329 19.7739261,71 20.7275135,71 L47.2724865,71 C48.2260739,71 49,70.329 49,69.5 C49,68.671 48.2260739,68 47.2724865,68" id="Fill-11" fill="#FFFFFF"></path>
                        <path d="M149.29591,112.688822 L71.679071,112.688822 C62.4386688,112.688822 54.9221101,105.164654 54.9221101,95.9174736 L54.9221101,58.5624228 L173.268074,58.5624228 C174.224097,58.5624228 175,57.7870094 175,56.8290098 C175,55.8710102 174.224097,55.0955967 173.268074,55.0955967 L54.9221101,55.0955967 L54.9221101,51.2381749 C54.9221101,41.9909942 62.4386688,34.4668261 71.679071,34.4668261 C72.6350941,34.4668261 73.4109969,33.6914126 73.4109969,32.733413 C73.4109969,31.7754134 72.6350941,31 71.679071,31 C60.5289317,31 51.4582582,40.0784618 51.4582582,51.2381749 L51.4582582,55.0955967 L28.7319259,55.0955967 C27.7759028,55.0955967 27,55.8710102 27,56.8290098 C27,57.7870094 27.7759028,58.5624228 28.7319259,58.5624228 L51.4582582,58.5624228 L51.4582582,95.9174736 C51.4582582,107.077187 60.5289317,116.155649 71.679071,116.155649 L147.563984,116.155649 L147.563984,137.46854 L57.3710534,137.46854 L60.4735101,134.362263 C61.1501159,133.686232 61.1501159,132.588404 60.4735101,131.911217 C59.7969044,131.234031 58.7011726,131.234031 58.0245668,131.911217 L50.7412409,139.201953 L58.0245668,146.492688 C58.3628697,146.831281 58.8062427,147 59.2496158,147 C59.6929888,147 60.1352072,146.831281 60.4735101,146.492688 C61.1501159,145.816657 61.1501159,144.718828 60.4735101,144.041642 L57.3710534,140.935366 L151.027836,140.935366 L151.027836,114.422236 C151.027836,113.464236 150.251933,112.688822 149.29591,112.688822" id="Fill-13" fill="#FFFFFF"></path>
                    </g>
                </g>
            </g>
        </g>
    </g>
</svg>