<?xml version="1.0" encoding="UTF-8"?>
<svg width="161px" height="136px" viewBox="0 0 161 136" version="1.1" xmlns="http://www.w3.org/2000/svg" xmlns:xlink="http://www.w3.org/1999/xlink">
    <!-- Generator: Sketch 52.4 (67378) - http://www.bohemiancoding.com/sketch -->
    <title>chat bubbles</title>
    <desc>Created with Sketch.</desc>
    <defs>
        <path d="M0.97375,6.87527273 C0.97375,10.5432727 3.8925,13.5163636 7.495,13.5163636 C11.0975,13.5163636 14.0175,10.5432727 14.0175,6.87527273 C14.0175,3.20727273 11.0975,0.235454545 7.495,0.235454545 C3.8925,0.235454545 0.97375,3.20727273 0.97375,6.87527273" id="path-1"></path>
        <path d="M0.726736111,6.87527273 C0.726736111,10.5432727 3.67791667,13.5163636 7.32044444,13.5163636 C10.9629722,13.5163636 13.9154167,10.5432727 13.9154167,6.87527273 C13.9154167,3.20727273 10.9629722,0.235454545 7.32044444,0.235454545 C3.67791667,0.235454545 0.726736111,3.20727273 0.726736111,6.87527273" id="path-3"></path>
        <path d="M0.469636364,6.87527273 C0.469636364,10.5432727 3.444,13.5163636 7.11072727,13.5163636 C10.7787273,13.5163636 13.7530909,10.5432727 13.7530909,6.87527273 C13.7530909,3.20727273 10.7787273,0.235454545 7.11072727,0.235454545 C3.444,0.235454545 0.469636364,3.20727273 0.469636364,6.87527273" id="path-5"></path>
        <path d="M69.5582891,0.151111111 C67.7319453,0.151111111 66.2452109,1.6382963 66.2452109,3.46925926 L66.2452109,44.6482963 L3.31433594,44.6482963 C1.48673437,44.6482963 0,46.1342222 0,47.9651852 L0,114.330667 C0,116.16037 1.48673437,117.648815 3.31433594,117.648815 L16.6219922,117.648815 L16.7804766,132.715852 C16.7943125,134.063259 17.6106328,135.258296 18.8596406,135.759481 C19.2621406,135.921926 19.68225,136 20.0985859,136 C20.9715078,136 21.8280781,135.653704 22.4645312,135.000148 L39.9669922,117.07963 C40.6940078,116.334148 40.6801719,115.139111 39.9368047,114.408741 C39.1921797,113.680889 37.9985156,113.693481 37.2689844,114.438963 L20.5413359,131.56363 L20.3903984,117.156444 C20.3727891,115.34437 18.8873125,113.871037 17.0773203,113.871037 L3.7734375,113.871037 L3.7734375,48.4248148 L59.5825781,48.4248148 L59.5825781,48.4034074 L90.7511719,48.4034074 L90.7511719,48.4248148 L90.7511719,69.3751111 L90.7511719,73.1516296 L90.7511719,81.5206667 L90.7511719,113.871037 L47.6346172,113.871037 C46.5931484,113.871037 45.7478984,114.717259 45.7478984,115.759926 C45.7478984,116.802593 46.5931484,117.648815 47.6346172,117.648815 L91.2115312,117.648815 C93.037875,117.648815 94.5246094,116.16037 94.5246094,114.330667 L94.5246094,73.1516296 L113.135203,73.1516296 C114.176672,73.1516296 115.021922,72.3066667 115.021922,71.264 C115.021922,70.2213333 114.176672,69.3751111 113.135203,69.3751111 L94.5246094,69.3751111 L94.5246094,47.9651852 C94.5246094,46.1342222 93.037875,44.6482963 91.2115312,44.6482963 L70.0186484,44.6482963 L70.0186484,3.92888889 L156.996383,3.92888889 L156.996383,69.3751111 L143.693758,69.3751111 C141.882508,69.3751111 140.397031,70.8484444 140.379422,72.658 L140.229742,87.068963 L123.500836,69.943037 C122.77382,69.1975556 121.580156,69.184963 120.833016,69.9128148 C120.089648,70.6431852 120.075812,71.8382222 120.804086,72.584963 L138.305289,90.502963 C138.943,91.1577778 139.79957,91.5040741 140.672492,91.5040741 C141.08757,91.5040741 141.50768,91.4247407 141.91018,91.2635556 C143.160445,90.7623704 143.975508,89.5673333 143.989344,88.2199259 L144.147828,73.1516296 L157.456742,73.1516296 C159.283086,73.1516296 160.76982,71.6657037 160.76982,69.8347407 L160.76982,3.46925926 C160.76982,1.6382963 159.283086,0.151111111 157.456742,0.151111111 L69.5582891,0.151111111 Z" id="path-7"></path>
    </defs>
    <g id="Layout" stroke="none" stroke-width="1" fill="none" fill-rule="evenodd">
        <g id="Carousel_3" transform="translate(-731.000000, -87.000000)">
            <g id="Welcome">
                <g id="3" transform="translate(186.000000, 47.000000)">
                    <g id="chat-bubbles" transform="translate(545.000000, 40.000000)">
                        <g id="Group-3" transform="translate(21.000000, 76.000000)">
                            <mask id="mask-2" fill="white">
                                <use xlink:href="#path-1"></use>
                            </mask>
                            <g id="Clip-2"></g>
                            <path d="M0.97375,6.87527273 C0.97375,10.5432727 3.8925,13.5163636 7.495,13.5163636 C11.0975,13.5163636 14.0175,10.5432727 14.0175,6.87527273 C14.0175,3.20727273 11.0975,0.235454545 7.495,0.235454545 C3.8925,0.235454545 0.97375,3.20727273 0.97375,6.87527273" id="Fill-1" fill="#FFFFFF" mask="url(#mask-2)"></path>
                        </g>
                        <g id="Group-6" transform="translate(41.000000, 76.000000)">
                            <mask id="mask-4" fill="white">
                                <use xlink:href="#path-3"></use>
                            </mask>
                            <g id="Clip-5"></g>
                            <path d="M0.726736111,6.87527273 C0.726736111,10.5432727 3.67791667,13.5163636 7.32044444,13.5163636 C10.9629722,13.5163636 13.9154167,10.5432727 13.9154167,6.87527273 C13.9154167,3.20727273 10.9629722,0.235454545 7.32044444,0.235454545 C3.67791667,0.235454545 0.726736111,3.20727273 0.726736111,6.87527273" id="Fill-4" fill="#FFFFFF" mask="url(#mask-4)"></path>
                        </g>
                        <g id="Group-9" transform="translate(59.000000, 76.000000)">
                            <mask id="mask-6" fill="white">
                                <use xlink:href="#path-5"></use>
                            </mask>
                            <g id="Clip-8"></g>
                            <path d="M0.469636364,6.87527273 C0.469636364,10.5432727 3.444,13.5163636 7.11072727,13.5163636 C10.7787273,13.5163636 13.7530909,10.5432727 13.7530909,6.87527273 C13.7530909,3.20727273 10.7787273,0.235454545 7.11072727,0.235454545 C3.444,0.235454545 0.469636364,3.20727273 0.469636364,6.87527273" id="Fill-7" fill="#FFFFFF" mask="url(#mask-6)"></path>
                        </g>
                        <g id="Group-12">
                            <mask id="mask-8" fill="white">
                                <use xlink:href="#path-7"></use>
                            </mask>
                            <g id="Clip-11"></g>
                            <path d="M69.5582891,0.151111111 C67.7319453,0.151111111 66.2452109,1.6382963 66.2452109,3.46925926 L66.2452109,44.6482963 L3.31433594,44.6482963 C1.48673437,44.6482963 0,46.1342222 0,47.9651852 L0,114.330667 C0,116.16037 1.48673437,117.648815 3.31433594,117.648815 L16.6219922,117.648815 L16.7804766,132.715852 C16.7943125,134.063259 17.6106328,135.258296 18.8596406,135.759481 C19.2621406,135.921926 19.68225,136 20.0985859,136 C20.9715078,136 21.8280781,135.653704 22.4645312,135.000148 L39.9669922,117.07963 C40.6940078,116.334148 40.6801719,115.139111 39.9368047,114.408741 C39.1921797,113.680889 37.9985156,113.693481 37.2689844,114.438963 L20.5413359,131.56363 L20.3903984,117.156444 C20.3727891,115.34437 18.8873125,113.871037 17.0773203,113.871037 L3.7734375,113.871037 L3.7734375,48.4248148 L59.5825781,48.4248148 L59.5825781,48.4034074 L90.7511719,48.4034074 L90.7511719,48.4248148 L90.7511719,69.3751111 L90.7511719,73.1516296 L90.7511719,81.5206667 L90.7511719,113.871037 L47.6346172,113.871037 C46.5931484,113.871037 45.7478984,114.717259 45.7478984,115.759926 C45.7478984,116.802593 46.5931484,117.648815 47.6346172,117.648815 L91.2115312,117.648815 C93.037875,117.648815 94.5246094,116.16037 94.5246094,114.330667 L94.5246094,73.1516296 L113.135203,73.1516296 C114.176672,73.1516296 115.021922,72.3066667 115.021922,71.264 C115.021922,70.2213333 114.176672,69.3751111 113.135203,69.3751111 L94.5246094,69.3751111 L94.5246094,47.9651852 C94.5246094,46.1342222 93.037875,44.6482963 91.2115312,44.6482963 L70.0186484,44.6482963 L70.0186484,3.92888889 L156.996383,3.92888889 L156.996383,69.3751111 L143.693758,69.3751111 C141.882508,69.3751111 140.397031,70.8484444 140.379422,72.658 L140.229742,87.068963 L123.500836,69.943037 C122.77382,69.1975556 121.580156,69.184963 120.833016,69.9128148 C120.089648,70.6431852 120.075812,71.8382222 120.804086,72.584963 L138.305289,90.502963 C138.943,91.1577778 139.79957,91.5040741 140.672492,91.5040741 C141.08757,91.5040741 141.50768,91.4247407 141.91018,91.2635556 C143.160445,90.7623704 143.975508,89.5673333 143.989344,88.2199259 L144.147828,73.1516296 L157.456742,73.1516296 C159.283086,73.1516296 160.76982,71.6657037 160.76982,69.8347407 L160.76982,3.46925926 C160.76982,1.6382963 159.283086,0.151111111 157.456742,0.151111111 L69.5582891,0.151111111 Z" id="Fill-10" fill="#FFFFFF" mask="url(#mask-8)"></path>
                        </g>
                    </g>
                </g>
            </g>
        </g>
    </g>
</svg>