<?xml version="1.0" encoding="UTF-8"?>
<svg width="143px" height="127px" viewBox="0 0 143 127" version="1.1" xmlns="http://www.w3.org/2000/svg" xmlns:xlink="http://www.w3.org/1999/xlink">
    <!-- Generator: Sketch 52.4 (67378) - http://www.bohemiancoding.com/sketch -->
    <title>reporting icon</title>
    <desc>Created with Sketch.</desc>
    <defs>
        <path d="M2.30645161,0.110836364 C1.0321371,0.110836364 0,1.14530909 0,2.41992727 L0,127 L140.435226,127 C141.70954,127 142.741677,125.966682 142.741677,124.690909 C142.741677,123.416291 141.70954,122.381818 140.435226,122.381818 L4.61290323,122.381818 L4.61290323,2.41992727 C4.61290323,1.14530909 3.5796129,0.110836364 2.30645161,0.110836364 Z" id="path-1"></path>
        <path d="M88.3141277,4.58195745 C87.0859149,4.90480851 86.3528936,6.16059574 86.6734468,7.38765957 C86.9951489,8.61587234 88.2520851,9.34889362 89.4791489,9.02719149 L97.0104255,7.05331915 L53.9977021,66.6233617 L38.6352766,51.2620851 C38.1469787,50.7737872 37.4656596,50.5325106 36.7774468,50.6002979 C36.089234,50.670383 35.4699574,51.0449362 35.0908085,51.624 L0.409021277,104.36017 C-0.289531915,105.419489 0.00574468085,106.84417 1.06506383,107.542723 C1.45455319,107.797787 1.89229787,107.919574 2.32659574,107.919574 C3.07340426,107.919574 3.80642553,107.555362 4.24876596,106.884383 L37.3806383,56.5046809 L52.6557447,71.7809362 C53.1302553,72.2565957 53.7862979,72.5013191 54.4641702,72.4473191 C55.1351489,72.3933191 55.7486809,72.0474894 56.142766,71.5017447 L100.726085,9.75561702 L102.536809,16.6607234 C102.806809,17.6924681 103.738596,18.3760851 104.757702,18.3760851 C104.951872,18.3760851 105.147191,18.3508085 105.341362,18.2991064 C106.570723,17.9774043 107.303745,16.721617 106.982043,15.4945532 L103.104383,0.704297872 L88.3141277,4.58195745 Z" id="path-3"></path>
    </defs>
    <g id="Layout" stroke="none" stroke-width="1" fill="none" fill-rule="evenodd">
        <g id="Carousel_2" transform="translate(-740.000000, -91.000000)">
            <g id="Welcome">
                <g id="2" transform="translate(186.000000, 47.000000)">
                    <g id="reporting-icon" transform="translate(554.000000, 44.000000)">
                        <g id="Group-3">
                            <mask id="mask-2" fill="white">
                                <use xlink:href="#path-1"></use>
                            </mask>
                            <g id="Clip-2"></g>
                            <path d="M2.30645161,0.110836364 C1.0321371,0.110836364 0,1.14530909 0,2.41992727 L0,127 L140.435226,127 C141.70954,127 142.741677,125.966682 142.741677,124.690909 C142.741677,123.416291 141.70954,122.381818 140.435226,122.381818 L4.61290323,122.381818 L4.61290323,2.41992727 C4.61290323,1.14530909 3.5796129,0.110836364 2.30645161,0.110836364 Z" id="Fill-1" fill="#FFFFFF" mask="url(#mask-2)"></path>
                        </g>
                        <g id="Group-6" transform="translate(16.000000, 2.000000)">
                            <mask id="mask-4" fill="white">
                                <use xlink:href="#path-3"></use>
                            </mask>
                            <g id="Clip-5"></g>
                            <path d="M88.3141277,4.58195745 C87.0859149,4.90480851 86.3528936,6.16059574 86.6734468,7.38765957 C86.9951489,8.61587234 88.2520851,9.34889362 89.4791489,9.02719149 L97.0104255,7.05331915 L53.9977021,66.6233617 L38.6352766,51.2620851 C38.1469787,50.7737872 37.4656596,50.5325106 36.7774468,50.6002979 C36.089234,50.670383 35.4699574,51.0449362 35.0908085,51.624 L0.409021277,104.36017 C-0.289531915,105.419489 0.00574468085,106.84417 1.06506383,107.542723 C1.45455319,107.797787 1.89229787,107.919574 2.32659574,107.919574 C3.07340426,107.919574 3.80642553,107.555362 4.24876596,106.884383 L37.3806383,56.5046809 L52.6557447,71.7809362 C53.1302553,72.2565957 53.7862979,72.5013191 54.4641702,72.4473191 C55.1351489,72.3933191 55.7486809,72.0474894 56.142766,71.5017447 L100.726085,9.75561702 L102.536809,16.6607234 C102.806809,17.6924681 103.738596,18.3760851 104.757702,18.3760851 C104.951872,18.3760851 105.147191,18.3508085 105.341362,18.2991064 C106.570723,17.9774043 107.303745,16.721617 106.982043,15.4945532 L103.104383,0.704297872 L88.3141277,4.58195745 Z" id="Fill-4" fill="#FFFFFF" mask="url(#mask-4)"></path>
                        </g>
                    </g>
                </g>
            </g>
        </g>
    </g>
</svg>