<?xml version="1.0" encoding="UTF-8"?>
<svg width="133px" height="134px" viewBox="0 0 133 134" version="1.1" xmlns="http://www.w3.org/2000/svg" xmlns:xlink="http://www.w3.org/1999/xlink">
    <!-- Generator: Sketch 52.4 (67378) - http://www.bohemiancoding.com/sketch -->
    <title>reporting illustration</title>
    <desc>Created with Sketch.</desc>
    <defs>
        <path d="M13.2418,2.48723143 L13.2418,8.52712029 C6.3167,9.26586514 1.9461,13.6735857 1.9461,20.1935969 C1.9461,27.259314 7.5751,29.9148357 13.2418,31.8872969 L13.2418,50.0589354 C9.8657,49.3696877 4.3836,47.1089057 4.3836,41.1519246 C4.3836,40.1273337 3.51,39.2970191 2.4336,39.2970191 C1.3572,39.2970191 0.4836,40.1273337 0.4836,41.1519246 C0.4836,49.5144669 8.1653,53.0572249 13.2418,53.8504166 L13.2418,59.1132003 C13.2418,60.1390286 14.1167,60.9693431 15.1931,60.9693431 C16.2695,60.9693431 17.1418,60.1390286 17.1418,59.1132003 L17.1418,53.9333243 C22.5576,53.3888557 29.9013,50.3027089 29.9013,41.2731926 C29.9013,33.7087917 23.2284,31.2920937 17.1418,29.2651857 L17.1418,12.2319814 C24.4374,13.1390166 25.0653,19.5117737 25.1134,20.2913537 C25.1706,21.3122323 26.0455,22.1066614 27.1544,22.0485023 C28.2295,21.9977677 29.0602,21.1278554 29.0082,20.1032646 C28.8145,16.301884 26.0429,9.31783714 17.1418,8.48752257 L17.1418,2.48723143 C17.1418,1.46140314 16.2695,0.631088571 15.1931,0.631088571 C14.1167,0.631088571 13.2418,1.46140314 13.2418,2.48723143 Z M5.8461,20.1935969 C5.8461,15.6930691 8.5124,12.8742069 13.2418,12.2505429 L13.2418,27.9052517 C8.5748,26.1320166 5.8461,24.2461754 5.8461,20.1935969 Z M17.1418,33.2113454 C22.6915,35.1454463 26.0013,36.9335306 26.0013,41.2731926 C26.0013,48.1669071 20.3229,49.8163994 17.1418,50.2037146 L17.1418,33.2113454 Z" id="path-1"></path>
        <path d="M2.19527869,0.576 C1.16367213,0.576 0.327672131,1.248 0.327672131,2.076 C0.327672131,2.905 1.16367213,3.576 2.19527869,3.576 L73.5655082,3.576 C74.5971148,3.576 75.4343607,2.905 75.4343607,2.076 C75.4343607,1.248 74.5971148,0.576 73.5655082,0.576 L2.19527869,0.576 Z" id="path-3"></path>
        <path d="M2.19527869,0.557 C1.16367213,0.557 0.327672131,1.227 0.327672131,2.056 C0.327672131,2.885 1.16367213,3.556 2.19527869,3.556 L73.5655082,3.556 C74.5971148,3.556 75.4343607,2.885 75.4343607,2.056 C75.4343607,1.227 74.5971148,0.557 73.5655082,0.557 L2.19527869,0.557 Z" id="path-5"></path>
        <path d="M2.19527869,0.536 C1.16367213,0.536 0.327672131,1.207 0.327672131,2.036 C0.327672131,2.865 1.16367213,3.536 2.19527869,3.536 L73.5655082,3.536 C74.5971148,3.536 75.4343607,2.865 75.4343607,2.036 C75.4343607,1.207 74.5971148,0.536 73.5655082,0.536 L2.19527869,0.536 Z" id="path-7"></path>
        <path d="M14.8164486,0.0185890796 C6.64751402,0.0185890796 0,6.64373705 0,14.7894717 C0,20.2112866 2.96950467,25.1882029 7.75253271,27.7782813 L8.17017757,28.0038288 L25.9039252,28.0038288 L25.9039252,134 L132.41828,134 L132.41828,14.7894717 C132.41828,6.64373705 125.770766,0.0185890796 117.603075,0.0185890796 L14.8164486,0.0185890796 Z M29.6341402,14.7894717 C29.6341402,10.3900562 27.6826449,6.44421426 24.6124579,3.73516573 L38.2107757,3.73516573 L117.603075,3.73516573 C123.716103,3.73516573 128.689308,8.69597144 128.689308,14.7894717 L128.689308,130.282184 L29.6341402,130.282184 L29.6341402,14.7894717 Z M3.72897196,14.7894717 C3.72897196,8.69597144 8.70217757,3.73516573 14.8164486,3.73516573 C20.9307196,3.73516573 25.9039252,8.69597144 25.9039252,14.7894717 L25.9039252,24.2860129 L9.13473832,24.2860129 C5.78985047,22.2932635 3.72897196,18.695657 3.72897196,14.7894717 Z" id="path-9"></path>
    </defs>
    <g id="Layout" stroke="none" stroke-width="1" fill="none" fill-rule="evenodd">
        <g id="Carousel_4" transform="translate(-735.000000, -87.000000)">
            <g id="Welcome">
                <g id="4" transform="translate(186.000000, 47.000000)">
                    <g id="reporting-illustration" transform="translate(549.000000, 40.000000)">
                        <g id="Group-3" transform="translate(63.000000, 61.000000)">
                            <mask id="mask-2" fill="white">
                                <use xlink:href="#path-1"></use>
                            </mask>
                            <g id="Clip-2"></g>
                            <path d="M13.2418,2.48723143 L13.2418,8.52712029 C6.3167,9.26586514 1.9461,13.6735857 1.9461,20.1935969 C1.9461,27.259314 7.5751,29.9148357 13.2418,31.8872969 L13.2418,50.0589354 C9.8657,49.3696877 4.3836,47.1089057 4.3836,41.1519246 C4.3836,40.1273337 3.51,39.2970191 2.4336,39.2970191 C1.3572,39.2970191 0.4836,40.1273337 0.4836,41.1519246 C0.4836,49.5144669 8.1653,53.0572249 13.2418,53.8504166 L13.2418,59.1132003 C13.2418,60.1390286 14.1167,60.9693431 15.1931,60.9693431 C16.2695,60.9693431 17.1418,60.1390286 17.1418,59.1132003 L17.1418,53.9333243 C22.5576,53.3888557 29.9013,50.3027089 29.9013,41.2731926 C29.9013,33.7087917 23.2284,31.2920937 17.1418,29.2651857 L17.1418,12.2319814 C24.4374,13.1390166 25.0653,19.5117737 25.1134,20.2913537 C25.1706,21.3122323 26.0455,22.1066614 27.1544,22.0485023 C28.2295,21.9977677 29.0602,21.1278554 29.0082,20.1032646 C28.8145,16.301884 26.0429,9.31783714 17.1418,8.48752257 L17.1418,2.48723143 C17.1418,1.46140314 16.2695,0.631088571 15.1931,0.631088571 C14.1167,0.631088571 13.2418,1.46140314 13.2418,2.48723143 Z M5.8461,20.1935969 C5.8461,15.6930691 8.5124,12.8742069 13.2418,12.2505429 L13.2418,27.9052517 C8.5748,26.1320166 5.8461,24.2461754 5.8461,20.1935969 Z M17.1418,33.2113454 C22.6915,35.1454463 26.0013,36.9335306 26.0013,41.2731926 C26.0013,48.1669071 20.3229,49.8163994 17.1418,50.2037146 L17.1418,33.2113454 Z" id="Fill-1" fill="#FFFFFF" mask="url(#mask-2)"></path>
                        </g>
                        <g id="Group-6" transform="translate(41.000000, 17.000000)">
                            <mask id="mask-4" fill="white">
                                <use xlink:href="#path-3"></use>
                            </mask>
                            <g id="Clip-5"></g>
                            <path d="M2.19527869,0.576 C1.16367213,0.576 0.327672131,1.248 0.327672131,2.076 C0.327672131,2.905 1.16367213,3.576 2.19527869,3.576 L73.5655082,3.576 C74.5971148,3.576 75.4343607,2.905 75.4343607,2.076 C75.4343607,1.248 74.5971148,0.576 73.5655082,0.576 L2.19527869,0.576 Z" id="Fill-4" fill="#FFFFFF" mask="url(#mask-4)"></path>
                        </g>
                        <g id="Group-9" transform="translate(41.000000, 30.000000)">
                            <mask id="mask-6" fill="white">
                                <use xlink:href="#path-5"></use>
                            </mask>
                            <g id="Clip-8"></g>
                            <path d="M2.19527869,0.557 C1.16367213,0.557 0.327672131,1.227 0.327672131,2.056 C0.327672131,2.885 1.16367213,3.556 2.19527869,3.556 L73.5655082,3.556 C74.5971148,3.556 75.4343607,2.885 75.4343607,2.056 C75.4343607,1.227 74.5971148,0.557 73.5655082,0.557 L2.19527869,0.557 Z" id="Fill-7" fill="#FFFFFF" mask="url(#mask-6)"></path>
                        </g>
                        <g id="Group-12" transform="translate(41.000000, 41.000000)">
                            <mask id="mask-8" fill="white">
                                <use xlink:href="#path-7"></use>
                            </mask>
                            <g id="Clip-11"></g>
                            <path d="M2.19527869,0.536 C1.16367213,0.536 0.327672131,1.207 0.327672131,2.036 C0.327672131,2.865 1.16367213,3.536 2.19527869,3.536 L73.5655082,3.536 C74.5971148,3.536 75.4343607,2.865 75.4343607,2.036 C75.4343607,1.207 74.5971148,0.536 73.5655082,0.536 L2.19527869,0.536 Z" id="Fill-10" fill="#FFFFFF" mask="url(#mask-8)"></path>
                        </g>
                        <g id="Group-15">
                            <mask id="mask-10" fill="white">
                                <use xlink:href="#path-9"></use>
                            </mask>
                            <g id="Clip-14"></g>
                            <path d="M14.8164486,0.0185890796 C6.64751402,0.0185890796 0,6.64373705 0,14.7894717 C0,20.2112866 2.96950467,25.1882029 7.75253271,27.7782813 L8.17017757,28.0038288 L25.9039252,28.0038288 L25.9039252,134 L132.41828,134 L132.41828,14.7894717 C132.41828,6.64373705 125.770766,0.0185890796 117.603075,0.0185890796 L14.8164486,0.0185890796 Z M29.6341402,14.7894717 C29.6341402,10.3900562 27.6826449,6.44421426 24.6124579,3.73516573 L38.2107757,3.73516573 L117.603075,3.73516573 C123.716103,3.73516573 128.689308,8.69597144 128.689308,14.7894717 L128.689308,130.282184 L29.6341402,130.282184 L29.6341402,14.7894717 Z M3.72897196,14.7894717 C3.72897196,8.69597144 8.70217757,3.73516573 14.8164486,3.73516573 C20.9307196,3.73516573 25.9039252,8.69597144 25.9039252,14.7894717 L25.9039252,24.2860129 L9.13473832,24.2860129 C5.78985047,22.2932635 3.72897196,18.695657 3.72897196,14.7894717 Z" id="Fill-13" fill="#FFFFFF" mask="url(#mask-10)"></path>
                        </g>
                    </g>
                </g>
            </g>
        </g>
    </g>
</svg>