<?xml version="1.0" encoding="UTF-8"?>
<svg width="95px" height="59px" viewBox="0 0 95 59" version="1.1" xmlns="http://www.w3.org/2000/svg" xmlns:xlink="http://www.w3.org/1999/xlink">
    <title>CardX__logo_purple_RGB</title>
    <desc>Created with Sketch.</desc>
    <defs>
        <polygon id="path-1" points="0 0.234069443 94.9999995 0.234069443 94.9999995 58.5674997 0 58.5674997"></polygon>
    </defs>
    <g id="Layout" stroke="none" stroke-width="1" fill="none" fill-rule="evenodd">
        <g id="T1c_Login_PasswordReset@2x" transform="translate(-777.000000, -254.000000)">
            <g id="CardX__logo_purple_RGB" transform="translate(777.000000, 254.000000)">
                <g id="Group-7">
                    <mask id="mask-2" fill="white">
                        <use xlink:href="#path-1"></use>
                    </mask>
                    <g id="Clip-2"></g>
                    <path d="M8.20509718,0.234069443 C3.97363887,0.234069443 0.54545833,3.66224998 0.54545833,7.89449996 L0.54545833,36.3446248 L0.816999995,36.6153748 L3.3007222,36.6153748 L3.57490276,36.3446248 L3.57490276,7.89449996 C3.57490276,5.34190275 5.6517083,3.26351387 8.20509718,3.26351387 L87.3387773,3.26351387 C89.8929578,3.26351387 91.970555,5.34190275 91.970555,7.89449996 L91.970555,50.684083 C91.970555,53.2374719 89.8929578,55.3150691 87.3387773,55.3150691 L76.0311385,55.3150691 L75.7580135,55.588458 L75.7580135,58.0413052 L76.0311385,58.3128469 L87.3387773,58.3128469 C91.5718189,58.3128469 94.9999995,54.8846664 94.9999995,50.6539997 L94.9999995,7.89449996 C94.9999995,3.66224998 91.5718189,0.234069443 87.3387773,0.234069443" id="Fill-1" fill="#31295D" mask="url(#mask-2)"></path>
                    <path d="M29.5888054,58.310208 L26.5992082,58.310208 L26.3268749,58.0386663 L26.0545415,57.495583 L25.7829999,57.495583 C25.7829999,57.495583 24.694986,58.5825413 22.7934026,58.5825413 C19.8019582,58.5825413 17.8995832,56.9506525 17.8995832,54.2318052 C17.8995832,50.154458 21.7061804,49.6111108 23.8811526,49.6111108 C24.9673193,49.6111108 25.7829999,49.8829164 25.7829999,49.8829164 L26.0545415,49.6111108 L26.0545415,49.3387775 C26.0545415,47.9794858 25.7829999,47.7079442 24.1519026,47.7079442 C23.336486,47.7079442 22.521861,47.7079442 22.2492638,48.5241525 L21.9777221,48.7956942 L18.7157916,48.7956942 L18.4426666,48.5241525 C18.4426666,46.8930553 19.8019582,44.4465414 24.1519026,44.4465414 C28.5018471,44.4465414 29.8603471,46.620722 29.8603471,50.6991247 L29.8603471,58.0386663 L29.5888054,58.310208 Z M25.7829999,52.6017636 C25.7829999,52.6017636 25.2396526,52.3310136 24.1519026,52.3310136 C22.521861,52.3310136 21.7061804,52.8725136 21.7061804,53.9610552 C21.7061804,54.7767358 22.2492638,55.3198191 23.6080276,55.3198191 C24.9673193,55.3198191 26.0545415,54.5041386 26.0545415,53.4179719 L26.0545415,52.8725136 L25.7829999,52.6017636 Z" id="Fill-3" fill="#31295D" mask="url(#mask-2)"></path>
                    <path d="M13.3203194,52.6017636 L13.591861,52.3310136 L16.8545832,52.3310136 L17.1263888,52.6017636 C16.5814582,56.4075691 13.591861,58.5825413 9.24297217,58.5825413 C3.26193054,58.5825413 0,54.5041386 0,48.7956942 C0,43.0872498 3.26193054,39.0096387 9.24297217,39.0096387 C13.591861,39.0096387 16.5814582,41.1830275 17.1263888,44.7172914 L16.8545832,44.9898886 L13.591861,44.9898886 L13.3203194,44.7172914 C12.777236,43.0872498 11.4179444,42.2710414 9.24297217,42.2710414 C5.43690275,42.2710414 3.80580553,44.9898886 3.80580553,48.7956942 C3.80580553,52.6017636 5.43690275,55.3198191 9.24297217,55.3198191 C11.4179444,55.3198191 12.777236,54.5041386 13.3203194,52.6017636" id="Fill-4" fill="#31295D" mask="url(#mask-2)"></path>
                    <path d="M40.4169581,47.9800136 L38.5143192,47.9800136 C36.339347,47.9800136 35.5231387,49.0672358 35.5231387,51.5145414 L35.5231387,58.0384024 L35.251597,58.3107358 L31.9904582,58.3107358 L31.7170693,58.0384024 L31.7170693,44.9896247 L31.9904582,44.7188747 L34.9800554,44.7188747 L35.251597,44.9896247 L35.5231387,45.8042497 L35.7946804,45.8042497 C35.7946804,45.8042497 36.339347,44.7188747 38.7866526,44.7188747 L40.4169581,44.7188747 L40.6877081,44.9896247 L40.6877081,47.7092636 L40.4169581,47.9800136" id="Fill-5" fill="#31295D" mask="url(#mask-2)"></path>
                    <path d="M46.7550414,44.4465414 C49.2012914,44.4465414 50.2893053,45.8053053 50.2893053,45.8053053 L50.5608469,45.8053053 L50.5608469,39.552722 L50.8323886,39.2811803 L54.0953747,39.2811803 L54.3669164,39.552722 L54.3669164,58.0384024 L54.0953747,58.310208 L51.1047219,58.310208 L50.8323886,58.0384024 L50.5608469,57.2221941 L50.2893053,57.2221941 C50.2893053,57.2221941 49.2012914,58.583333 46.7550414,58.583333 C43.492847,58.583333 40.7747914,55.8629025 40.7747914,51.5137497 C40.7747914,47.1653886 43.492847,44.4465414 46.7550414,44.4465414 M47.5712497,55.3195552 C49.7454303,55.3195552 50.5608469,53.6887219 50.5608469,51.5137497 C50.5608469,49.3387775 49.7454303,47.7076803 47.5712497,47.7076803 C45.3954859,47.7076803 44.5808609,49.3387775 44.5808609,51.5137497 C44.5808609,53.6887219 45.3954859,55.3195552 47.5712497,55.3195552" id="Fill-6" fill="#31295D" mask="url(#mask-2)"></path>
                </g>
                <polyline id="Fill-8" fill="#31295D" points="71.8075968 58.3104719 69.9049579 58.3104719 69.3602913 58.0389302 64.1946663 51.2427358 63.9239163 51.2427358 58.7585552 58.0389302 58.2154719 58.3104719 56.3112497 58.3104719 56.0404997 58.0389302 56.0404997 55.3208747 61.4766108 48.5228331 61.4766108 48.2520831 56.3112497 42.2713053 56.3112497 39.5532498 56.5830552 39.2801248 58.4870136 39.2801248 59.0303608 39.5532498 63.9239163 45.5324442 64.1946663 45.5324442 69.0887496 39.5532498 69.6318329 39.2801248 71.5357913 39.2801248 71.8075968 39.5532498 71.8075968 42.2713053 66.6422357 48.2520831 66.6422357 48.5228331 72.0783468 55.3208747 72.0783468 58.0389302 71.8075968 58.3104719"></polyline>
            </g>
        </g>
    </g>
</svg>
