<svg xmlns="http://www.w3.org/2000/svg" xmlns:xlink="http://www.w3.org/1999/xlink" viewBox="0 0 1799 1702.06"><defs><style>.cls-1,.cls-3{fill:none;}.cls-2{clip-path:url(#clip-path);}.cls-3{stroke:#beaad2;stroke-miterlimit:10;stroke-width:1.5px;}.cls-4{fill:#beaad2;}</style><clipPath id="clip-path"><rect class="cls-1" x="-2934.56" width="1799" height="1702.06"/></clipPath></defs><title>Modal_Pattern_XL</title><g id="Layer_1" data-name="Layer 1"><g class="cls-2"><path class="cls-3" d="M565.88,1448,302.54,1711.37a44.11,44.11,0,0,0,0,62.3l51.27,51.27"/><rect class="cls-3" x="-675.36" y="1635.54" width="665.18" height="400.87" rx="44.05" ry="44.05" transform="translate(-1398.62 295.37) rotate(-45)"/><path class="cls-3" d="M163.8,1046-99.54,1309.29a44.1,44.1,0,0,0,0,62.3l221.16,221.16a44.1,44.1,0,0,0,62.29,0l263.34-263.34"/><path class="cls-3" d="M-450.36,1020.77l169.89,169.89a44.1,44.1,0,0,0,62.3,0L45.17,927.32"/><rect class="cls-3" x="-179.82" y="1542.09" width="665.18" height="400.87" rx="44.05" ry="44.05" transform="translate(-1187.41 618.39) rotate(-45)"/><rect class="cls-3" x="-581.91" y="1140.01" width="665.18" height="400.87" rx="44.05" ry="44.05" transform="translate(-1020.86 216.31) rotate(-45)"/></g></g><g id="Layer_2" data-name="Layer 2"><path class="cls-4" d="M1799,96.6,1680,215.54l-50.73-50.73a43.34,43.34,0,0,1,0-61.24L1732.86,0h-2.12l-102.5,102.51a44.83,44.83,0,0,0,0,63.36L1679,216.6,1561.4,334.17l-50.73-50.74a44.87,44.87,0,0,0-63.36,0L1303.13,427.62,1185.56,310.05l144.18-144.18a44.86,44.86,0,0,0,0-63.36L1279,51.77,1330.78,0h-2.12L1278,50.71,1227.24,0h-2.13l51.78,51.77L1132.7,196a44.84,44.84,0,0,0,0,63.35l50.74,50.74L1065.87,427.62l-50.73-50.74a44.85,44.85,0,0,0-63.36,0L807.6,521.06,690,403.5,834.21,259.31a44.84,44.84,0,0,0,0-63.35l-50.73-50.74L901,27.65l50.74,50.74a44.86,44.86,0,0,0,63.36,0L1093.53,0h-2.12l-77.33,77.33a43.36,43.36,0,0,1-61.24,0L902.1,26.59,928.7,0h-2.12L901,25.53,875.51,0h-2.12L900,26.59,782.42,144.16,664.85,26.59,691.44,0h-2.12L663.79,25.53,638.26,0h-2.12l26.59,26.59L518.55,170.78a43.36,43.36,0,0,1-61.24,0L406.57,120l120-120h-2.12l-119,119L288,1.41,289.36,0h-2.12l-.36.35L286.53,0h-2.12l1.41,1.41L168.26,119,117.52,68.24a44.87,44.87,0,0,0-63.36,0L0,122.41v2.12L55.22,69.31a43.34,43.34,0,0,1,61.24,0L167.2,120,23,264.22a42.84,42.84,0,0,1-23,12v1.53a44.36,44.36,0,0,0,24.07-12.46L168.26,121.1,285.82,238.67,141.64,382.85a44.85,44.85,0,0,0,0,63.36L192.38,497,74.78,614.54,24.05,563.8A44.44,44.44,0,0,0,0,551.36v1.52a42.93,42.93,0,0,1,23,12L73.72,615.6,0,689.32v2.12l74.78-74.78L192.35,734.23,48.17,878.41a44.85,44.85,0,0,0,0,63.36L98.9,992.5,0,1091.41v2.12l100-100,117.57,117.57L100,1228.7l-100-100v2.12l98.9,98.91L0,1328.66v2.12l100-100,50.74,50.73a43.36,43.36,0,0,1,0,61.24L6.52,1487,0,1480.46v2.12L5.46,1488,0,1493.49v2.12l6.52-6.51,117.56,117.56-95.39,95.4h2.12l94.33-94.34,50.74,50.74a44.86,44.86,0,0,0,63.36,0l144.18-144.19L501,1631.84l-70.22,70.22h2.12l69.16-69.16,50.73,50.74a43,43,0,0,1,10.92,18.42h1.55a44.35,44.35,0,0,0-11.41-19.48l-50.73-50.74,117.56-117.57L671.41,1565a44.86,44.86,0,0,0,63.36,0L879,1420.83l117.57,117.56L852.34,1682.58a44.47,44.47,0,0,0-11.42,19.48h1.55a43,43,0,0,1,10.93-18.42l144.18-144.19,50.73,50.74a43.34,43.34,0,0,1,0,61.24l-50.62,50.63h2.12l49.57-49.57a44.87,44.87,0,0,0,0-63.36l-50.74-50.74,117.59-117.59,50.74,50.74a44.86,44.86,0,0,0,63.36,0l144.18-144.19,117.57,117.57L1347.89,1589.1a44.87,44.87,0,0,0,0,63.36l49.6,49.6h2.12L1349,1651.4a43.36,43.36,0,0,1,0-61.24L1493.14,1446l50.73,50.74a43.35,43.35,0,0,1,0,61.23l-144.1,144.11h2.12l143-143a44.84,44.84,0,0,0,0-63.35l-50.73-50.74,117.56-117.57,50.74,50.74a44.86,44.86,0,0,0,63.36,0L1799,1305v-2.12L1724.8,1377a43.36,43.36,0,0,1-61.24,0l-50.74-50.74L1757,1182.11a43.17,43.17,0,0,1,30.62-12.66A43.7,43.7,0,0,1,1799,1171v-1.55a44.82,44.82,0,0,0-43,11.64l-144.19,144.18L1494.2,1207.67l144.18-144.19a44.86,44.86,0,0,0,0-63.36l-50.74-50.73,117.57-117.57L1756,882.56a44.66,44.66,0,0,0,31.68,13.1A45.48,45.48,0,0,0,1799,894.2v-1.54a43.8,43.8,0,0,1-11.35,1.5A43,43,0,0,1,1757,881.5l-50.74-50.74,92.71-92.7v-2.13l-93.77,93.77L1587.64,712.13,1731.83,568a44.86,44.86,0,0,0,0-63.36l-50.74-50.73,117.57-117.57.32.32v-2.76l-.32.32L1681.09,216.6,1799,98.72ZM1448.37,284.49a43.36,43.36,0,0,1,61.24,0l50.73,50.74L1416.16,479.41a43.34,43.34,0,0,1-61.24,0l-50.73-50.73Zm-94.51,196a44.86,44.86,0,0,0,63.36,0L1561.4,336.29,1679,453.86,1534.79,598a44.86,44.86,0,0,0,0,63.36l50.73,50.73L1468,829.7,1417.22,779a44.87,44.87,0,0,0-63.36,0L1209.68,923.15,1092.11,805.58,1236.3,661.4a44.86,44.86,0,0,0,0-63.36l-50.74-50.74,117.57-117.56Zm113,350.29L1322.71,974.94a43.32,43.32,0,0,1-61.23,0l-50.74-50.73L1354.92,780a43.34,43.34,0,0,1,61.24,0ZM973.49,924.21l117.56-117.57,117.57,117.57-117.57,117.56Zm168.3,170.42a43.36,43.36,0,0,1,0,61.24L997.61,1300.05l-50.74-50.73a43.36,43.36,0,0,1,0-61.24l144.18-144.18ZM1040.32,753.79a43.34,43.34,0,0,1,0-61.24L1184.5,548.36l50.74,50.74a43.36,43.36,0,0,1,0,61.24L1091.05,804.52Zm93.44-495.54a43.35,43.35,0,0,1,0-61.23L1278,52.83l50.73,50.74a43.36,43.36,0,0,1,0,61.24L1184.5,309Zm50.74,52.86,117.57,117.57L1184.5,546.24,1066.93,428.68ZM952.84,377.94a43.36,43.36,0,0,1,61.24,0l50.73,50.74L920.63,572.86a43.36,43.36,0,0,1-61.24,0l-50.73-50.74Zm-94.51,196a44.86,44.86,0,0,0,63.36,0l144.18-144.18L1183.44,547.3,1039.26,691.49a44.85,44.85,0,0,0,0,63.36L1090,805.58,972.43,923.15l-50.74-50.74a44.87,44.87,0,0,0-63.36,0L714.15,1016.6,596.58,899,740.76,754.85a44.83,44.83,0,0,0,0-63.36L690,640.75,807.6,523.19Zm113,350.29L827.18,1068.39a43.36,43.36,0,0,1-61.24,0l-50.73-50.73L859.39,873.47a43.36,43.36,0,0,1,61.24,0Zm-493.43,93.47L595.52,900.09l117.57,117.57-117.6,117.59Zm168.3,170.43a43.35,43.35,0,0,1,0,61.23L502.05,1393.53l-50.74-50.74a43.36,43.36,0,0,1,0-61.24l144.18-144.18ZM544.79,847.23a43.33,43.33,0,0,1,0-61.23L689,641.81l50.73,50.74a43.34,43.34,0,0,1,0,61.24L595.52,898ZM806.53,522.12,689,639.69,571.4,522.12,689,404.56ZM833.15,197a43.35,43.35,0,0,1,0,61.23L689,402.44,638.23,351.7a43.36,43.36,0,0,1,0-61.24L782.42,146.28Zm-376.9-25.18a44.86,44.86,0,0,0,63.36,0L663.79,27.65,781.36,145.22,637.17,289.4a44.85,44.85,0,0,0,0,63.36l50.74,50.74L570.34,521.06l-50.73-50.73a44.85,44.85,0,0,0-63.36,0L312.06,614.51,194.5,497,338.68,352.76a44.86,44.86,0,0,0,0-63.36L288,238.67,405.51,121.1Zm113,350.28L425.1,666.31a43.36,43.36,0,0,1-61.24,0l-50.73-50.74L457.31,471.39a43.36,43.36,0,0,1,61.24,0ZM169.32,120,286.88,2.47,404.45,120,286.88,237.61ZM142.7,445.15a43.36,43.36,0,0,1,0-61.24L286.88,239.73l50.74,50.73a43.36,43.36,0,0,1,0,61.24L193.44,495.88ZM75.84,615.6,193.44,498,311,615.57,193.41,733.16ZM49.23,940.71a43.34,43.34,0,0,1,0-61.24L193.41,735.29,244.15,786a43.36,43.36,0,0,1,0,61.24L100,991.44ZM101,992.5,245.21,848.32a44.85,44.85,0,0,0,0-63.36l-50.74-50.73,117.59-117.6,50.74,50.74a44.86,44.86,0,0,0,63.36,0L570.34,523.18,687.91,640.75,543.72,784.93a44.87,44.87,0,0,0,0,63.36L594.46,899,476.87,1016.62l-50.74-50.73a44.86,44.86,0,0,0-63.36,0L218.59,1110.07Zm374.79,25.18L331.62,1161.87a43.35,43.35,0,0,1-61.23,0l-50.74-50.74L363.83,967a43.36,43.36,0,0,1,61.24,0ZM238.18,1657.4a43.36,43.36,0,0,1-61.24,0l-50.74-50.74,144.19-144.18a43.35,43.35,0,0,1,61.23,0l50.74,50.73Zm94.5-196a44.84,44.84,0,0,0-63.35,0L125.14,1605.6,7.58,1488l144.18-144.18a44.85,44.85,0,0,0,0-63.36L101,1229.76l117.57-117.57,50.74,50.74a44.84,44.84,0,0,0,63.35,0l144.19-144.19,117.56,117.57L450.25,1280.49a44.85,44.85,0,0,0,0,63.36L501,1394.59,383.42,1512.15Zm169.37,169.36L384.48,1513.21l117.57-117.56,117.56,117.56ZM733.71,1564a43.36,43.36,0,0,1-61.24,0l-50.73-50.74L765.92,1369a43.36,43.36,0,0,1,61.24,0l50.73,50.74Zm94.51-196a44.86,44.86,0,0,0-63.36,0L620.67,1512.15,503.11,1394.59,647.29,1250.4a44.85,44.85,0,0,0,0-63.36l-50.73-50.73,117.59-117.59,50.73,50.73a44.86,44.86,0,0,0,63.36,0L972.43,925.27,1090,1042.84,945.81,1187a44.85,44.85,0,0,0,0,63.36l50.73,50.73L879,1418.71Zm169.36,169.36L880,1419.77l117.6-117.6,117.56,117.57Zm231.69-66.85a43.36,43.36,0,0,1-61.24,0l-50.74-50.74,144.19-144.18a43.33,43.33,0,0,1,61.23,0l50.74,50.73Zm94.5-196a44.84,44.84,0,0,0-63.35,0l-144.19,144.18L998.67,1301.11l144.18-144.18a44.86,44.86,0,0,0,0-63.36l-50.74-50.73,117.57-117.57L1260.42,976a44.82,44.82,0,0,0,63.35,0L1468,831.82l117.56,117.57-144.18,144.18a44.85,44.85,0,0,0,0,63.36l50.74,50.74-117.57,117.56Zm286.93,51.79-117.56,117.57-117.57-117.57,117.57-117.56Zm26.62-325.11a43.36,43.36,0,0,1,0,61.24L1493.14,1206.6l-50.74-50.73a43.36,43.36,0,0,1,0-61.24l144.18-144.18Zm66.83-170.42L1586.58,948.33,1469,830.76l117.56-117.57Zm26.62-325.11a43.36,43.36,0,0,1,0,61.24L1586.58,711.07l-50.73-50.73a43.36,43.36,0,0,1,0-61.24L1680,454.92Zm66.83-170.42L1680,452.8,1562.47,335.23,1680,217.66Z"/></g></svg>