<svg width="1400" height="169" xmlns="http://www.w3.org/2000/svg" xmlns:xlink="http://www.w3.org/1999/xlink"><defs><path id="a" d="M0 0h1400v169H0z"/><path id="c" d="M1279.912 0L1025 254.911V425h170.089L1450 170.089V0z"/><linearGradient x1="30.838%" y1="139.631%" x2="116.276%" y2="13.872%" id="d"><stop stop-color="#372772" offset="0%"/><stop stop-color="#632F76" offset="33.189%"/><stop stop-color="#E74683" offset="100%"/><stop stop-color="#C86DD7" offset="100%"/></linearGradient><path id="f" d="M203.912-9L-51 245.911V416h170.089L374 161.089V-9z"/><linearGradient x1="40.533%" y1="126.834%" y2="0%" id="g"><stop stop-color="#372772" offset="0%"/><stop stop-color="#372772" offset="40.926%"/><stop stop-color="#7C67CD" offset="98.413%"/><stop stop-color="#7C67CD" offset="100%"/><stop stop-color="#7C67CD" offset="100%"/><stop stop-color="#372772" offset="100%"/></linearGradient></defs><g fill="none" fill-rule="evenodd"><mask id="b" fill="#fff"><use xlink:href="#a"/></mask><use fill="#D8D8D8" xlink:href="#a"/><g mask="url(#b)"><g transform="translate(1 -2)"><path fill="#372772" fill-rule="nonzero" d="M0 2h1402v169H0z"/><mask id="e" fill="#fff"><use xlink:href="#c"/></mask><path fill="url(#d)" opacity=".9" mask="url(#e)" d="M1229.912 0L1091.31 168.176l95.543 1.16 138.808 1.754 74.34-.001V1z"/><mask id="h" fill="#fff"><use xlink:href="#f"/></mask><path fill="url(#g)" opacity=".9" mask="url(#h)" transform="matrix(-1 0 0 1 307.309 0)" d="M137.912 0L-.69 168.176l95.543 1.16 138.808 1.754 74.34-.001V1z"/></g></g></g></svg>
