<?xml version="1.0" encoding="UTF-8"?>
<svg width="26px" height="19px" viewBox="0 0 26 19" version="1.1" xmlns="http://www.w3.org/2000/svg" xmlns:xlink="http://www.w3.org/1999/xlink">
    <!-- Generator: Sketch 52.4 (67378) - http://www.bohemiancoding.com/sketch -->
    <title>Group 11 Copy</title>
    <desc>Created with Sketch.</desc>
    <g id="Layout" stroke="none" stroke-width="1" fill="none" fill-rule="evenodd">
        <g id="T8_Article@2x-Copy" transform="translate(-312.000000, -1223.000000)">
            <g id="What-are-CardX's-fees?" transform="translate(216.000000, 187.000000)">
                <g id="Section-2" transform="translate(96.000000, 799.000000)">
                    <g id="Pull-quote" transform="translate(0.000000, 237.000000)">
                        <g id="Group-11-Copy">
                            <path d="M11.4596,12.9828 C11.4596,15.8558 9.1306,18.1848 6.2576,18.1848 C3.3846,18.1848 1.0556,15.8558 1.0556,12.9828 C1.0556,10.1098 3.3846,7.7808 6.2576,7.7808 C9.1306,7.7808 11.4596,10.1098 11.4596,12.9828" id="Fill-1" fill="#E74683"></path>
                            <path d="M8.0939,0.7499 C8.0939,0.7499 0.7499,3.1979 0.7499,10.5419 C0.7499,17.2729 6.2579,17.2729 6.2579,17.2729" id="Stroke-4" stroke="#E74683" stroke-width="1.5" stroke-linecap="round"></path>
                            <path d="M25.7502,12.9828 C25.7502,15.8558 23.4212,18.1848 20.5482,18.1848 C17.6752,18.1848 15.3462,15.8558 15.3462,12.9828 C15.3462,10.1098 17.6752,7.7808 20.5482,7.7808 C23.4212,7.7808 25.7502,10.1098 25.7502,12.9828" id="Fill-6" fill="#E74683"></path>
                            <path d="M22.3839,0.7499 C22.3839,0.7499 15.0409,3.1979 15.0409,10.5419 C15.0409,17.2729 20.5479,17.2729 20.5479,17.2729" id="Stroke-9" stroke="#E74683" stroke-width="1.5" stroke-linecap="round"></path>
                        </g>
                    </g>
                </g>
            </g>
        </g>
    </g>
</svg>